<?xml version="1.0" encoding="UTF-8"?><svg id="Layer_1" xmlns="http://www.w3.org/2000/svg" xmlns:xlink="http://www.w3.org/1999/xlink" viewBox="0 0 682.92 492"><defs><style>.cls-1{stroke:#203864;stroke-linecap:round;stroke-width:2.5px;}.cls-1,.cls-2,.cls-3,.cls-4,.cls-5{stroke-linejoin:round;}.cls-1,.cls-2,.cls-3,.cls-4,.cls-5,.cls-6{fill:none;}.cls-2{stroke:#d9d9d9;}.cls-2,.cls-5{stroke-width:.75px;}.cls-3,.cls-4{stroke:#000;stroke-width:2px;}.cls-4{stroke-dasharray:0 0 0 0 0 0 8 6;}.cls-5{stroke:#a6a6a6;}.cls-7{clip-path:url(#clippath);}</style><clipPath id="clippath"><rect class="cls-6" x="27.36" y="30.48" width="609.72" height="402.12"/></clipPath></defs><line class="cls-4" x1="27.38" y1="226.53" x2="636.37" y2="226.53"/><line class="cls-3" x1="27.38" y1="37.68" x2="636.37" y2="37.68"/><path class="cls-2" d="m597.33,30.59v401.31M502.08,30.59v401.31M406.8,30.59v401.31M309.96,30.59v401.31M214.8,30.59v401.31M119.52,30.59v401.31M27.38,30.59v401.31"/><line class="cls-2" x1="27.38" y1="431.9" x2="636.37" y2="431.9"/><path class="cls-2" d="m597.33,431.9v2.85m-95.25-2.85v2.85m-95.28-2.85v2.85m-96.84-2.85v2.85m-95.16-2.85v2.85m-95.28-2.85v2.85m-92.14-2.85v2.85"/><g class="cls-7"><polyline class="cls-1" points="-151.42 431.9 -121.8 431.9 -120.24 431.9 -12.48 431.88 -10.92 431.88 -9.36 431.88 -7.8 431.88 -6.24 431.88 -4.68 431.88 -3.12 431.88 -1.56 431.76 0 431.76 1.56 431.76 3.12 431.76 4.68 431.76 6.24 431.76 7.8 431.76 9.36 431.64 11.04 431.64 12.6 431.64 14.16 431.52 15.72 431.52 17.28 431.52 18.84 431.52 20.4 431.52 21.96 431.4 23.52 431.4 25.08 431.28 26.64 431.28 28.2 431.28 29.76 431.16 31.32 431.16 32.88 431.16 34.44 431.16 36 431.04 37.56 431.04 39.12 431.04 40.68 431.04 42.24 430.92 43.8 430.92 45.36 430.92 46.92 430.8 48.48 430.8 50.04 430.8 51.6 430.68 53.16 430.68 54.72 430.68 56.28 430.56 57.84 430.56 59.4 430.44 60.96 430.44 62.52 430.44 64.08 430.32 65.64 430.2 67.2 430.08 68.76 429.96 70.32 429.84 71.88 429.72 73.44 429.6 75 429.48 76.56 428.76 78.12 427.8 79.68 426.48 81.24 425.16 82.8 424.32 84.36 423.36 85.92 420.84 87.48 419.04 89.04 416.64 90.6 414.36 92.16 412.32 93.72 411.12 95.28 409.32 96.84 407.28 98.4 402.36 99.96 397.2 101.52 385.32 103.08 380.88 104.64 379.44 106.2 377.88 107.76 376.32 109.32 367.68 110.88 357.6 112.44 310.32 114 293.88 115.56 290.16 117.12 286.92 118.68 267.96 120.24 244.44 121.8 243.96 123.36 243.48 124.92 243.12 126.48 243 128.04 242.88 129.6 242.4 131.16 242.16 132.72 241.8 134.4 241.56 135.96 241.32 137.52 241.2 139.08 241.08 140.64 240.84 142.2 240.72 143.76 240.24 145.32 240 146.88 239.88 148.44 239.76 150 239.76 151.56 239.52 153.12 239.28 154.68 239.16 156.24 239.04 157.8 238.8 159.36 238.68 160.92 238.56 162.48 238.32 164.04 238.08 165.6 237.84 167.16 237.48 168.72 237.12 170.28 237 171.84 237 173.4 236.88 174.96 236.88 176.52 236.76 178.08 236.64 179.64 236.52 181.2 236.52 182.76 236.4 184.32 236.28 185.88 236.28 187.44 236.16 189 236.04 190.56 236.04 192.12 236.04 193.68 236.04 195.24 235.92 196.8 235.92 198.36 235.8 199.92 235.8 201.48 235.68 203.04 235.68 204.6 235.68 206.16 235.56 207.72 235.32 209.28 235.2 210.84 235.08 212.4 234.84 213.96 234.72 215.52 234.48 217.08 234.48 218.64 234.36 220.2 234.36 221.76 234.24 223.32 234.24 224.88 234.24 226.44 234.24 228 234.12 229.56 234.12 231.12 234 232.68 234 234.24 233.88 235.8 233.88 237.36 233.88 238.92 233.88 240.48 233.76 242.04 233.76 243.6 233.76 245.16 233.64 246.72 233.64 248.28 233.64 249.84 233.52 251.4 233.52 252.96 233.4 254.52 233.4 256.2 233.28 257.76 233.28 259.32 233.28 260.88 233.28 262.44 233.16 264 233.04 265.56 233.04 267.12 232.92 268.68 232.92 270.24 232.92 271.8 232.92 273.36 232.92 274.92 232.92 276.48 232.8 278.04 232.8 279.6 232.8 281.16 232.8 282.72 232.8 284.28 232.8 285.84 232.68 287.4 232.68 288.96 232.68 290.52 232.68 292.08 232.68 293.64 232.68 295.2 232.68 296.76 232.56 298.32 232.56 299.88 232.56 301.44 232.56 303 232.56 304.56 232.56 306.12 232.44 307.68 232.44 309.24 232.44 310.8 232.32 312.36 232.32 313.92 232.32 315.48 232.32 317.04 232.32 318.6 232.32 320.16 232.32 321.72 232.32 323.28 232.32 324.84 232.32 326.4 232.2 327.96 232.2 329.52 232.2 331.08 232.2 332.64 232.2 334.2 232.2 335.76 232.2 337.32 232.2 338.88 232.2 340.44 232.08 342 232.08 343.56 232.08 345.12 232.08 346.68 232.08 348.24 232.08 349.8 232.08 351.36 231.96 352.92 231.96 354.48 231.96 356.04 231.96 357.6 231.96 359.16 231.84 360.72 231.84 362.28 231.84 363.84 231.84 365.4 231.84 366.96 231.84 368.52 231.84 370.08 231.84 371.64 231.84 373.2 231.72 374.76 231.72 376.32 231.72 377.88 231.72 379.56 231.72 381.12 231.72 382.68 231.72 384.24 231.72 385.8 231.72 387.36 231.6 388.92 231.6 390.48 231.6 392.04 231.6 393.6 231.6 395.16 231.6 396.72 231.6 398.28 231.6 399.84 231.6 401.4 231.6 402.96 231.48 404.52 231.48 406.08 231.48 407.64 231.48 409.2 231.36 410.76 231.36 412.32 231.36 413.88 231.36 415.44 231.36 417 231.36 418.56 231.36 420.12 231.36 421.68 231.36 423.24 231.36 424.8 231.36 426.36 231.36 427.92 231.24 429.48 231.24 431.04 231.24 432.6 231.24 434.16 231.24 435.72 231.24 437.28 231.24 438.84 231.24 440.4 231.24 441.96 231.24 443.52 231.24 445.08 231.24 446.64 231.12 448.2 231.12 449.76 231 451.32 231 452.88 230.88 454.44 230.88 456 230.88 457.56 230.88 459.12 230.88 460.68 230.76 462.24 230.76 463.8 230.76 465.36 230.76 466.92 230.76 468.48 230.76 470.04 230.76 471.6 230.76 473.16 230.76 474.72 230.76 476.28 230.76 477.84 230.76 479.4 230.76 480.96 230.64 482.52 230.64 484.08 230.64 485.64 230.64 487.2 230.64 488.76 230.64 490.32 230.64 491.88 230.64 493.44 230.64 495 230.64 496.56 230.52 498.12 230.52 499.68 230.52 501.36 230.52 502.92 230.52 504.48 230.52 506.04 230.52 507.6 230.52 509.16 230.52 510.72 230.52 512.28 230.52 513.84 230.52 515.4 230.4 516.96 230.4 518.52 230.4 520.08 230.4 521.64 230.4 523.2 230.4 524.76 229.92 526.32 229.08 527.88 228 529.44 227.4 531 227.16 532.56 226.92 534.12 226.2 535.68 225.6 537.24 225.24 538.8 225.12 540.36 224.76 541.92 224.64 543.48 224.4 545.04 223.44 546.6 222.6 548.16 221.64 549.72 220.44 551.28 218.88 552.84 217.8 554.4 216.6 555.96 213 557.52 209.64 559.08 206.28 560.64 202.32 562.2 198.24 563.76 196.68 565.32 195.36 566.88 191.4 568.44 187.08 570 181.8 571.56 176.4 573.12 171.48 574.68 169.92 576.24 168.96 577.8 162.96 579.36 153.36 580.92 148.08 582.48 142.92 584.04 139.56 585.6 138.12 587.16 137.88 588.72 136.92 590.28 126.12 591.84 82.56 593.4 67.08 594.96 56.4 596.52 56.04 598.08 55.92 599.64 55.92 601.2 55.68 602.76 55.56 604.32 55.32 605.88 55.2 607.44 55.08 609 55.08 610.56 54.84 612.12 54.72 613.68 54.48 615.24 54.36 616.8 54.12 618.36 54.12 619.92 54 621.48 54 623.04 53.88 624.72 53.64 626.28 53.52 627.84 53.4 629.4 53.4 630.96 53.28 632.52 53.16 634.08 53.04 635.59 53.04"/></g><polyline class="cls-5" points="121.85 243.91 165 281.72 169.48 281.72"/><line class="cls-5" x1="523.16" y1="230.41" x2="546.63" y2="261.75"/><polyline class="cls-5" points="598.11 55.97 542.64 111.75 538.14 111.75"/><line class="cls-5" x1="635.59" y1="53.04" x2="633.67" y2="120.91"/><g><path d="m201.56,272.41c0-.24-.05-.44-.15-.58s-.26-.27-.49-.39c-.45-.2-.78-.39-1-.57-.21-.18-.38-.39-.48-.63-.11-.24-.16-.52-.16-.84,0-.49.13-.89.4-1.21.27-.32.63-.51,1.07-.56v-.94h.66v.96c.44.08.78.31,1.03.67.24.36.37.82.37,1.37h-1.24c0-.35-.05-.61-.15-.79-.1-.17-.23-.26-.39-.26s-.28.07-.36.2-.13.32-.13.56c0,.21.05.38.14.52.09.14.26.28.52.43.47.22.81.42,1.01.61.21.18.36.39.46.62s.15.5.15.82c0,.5-.13.9-.39,1.21s-.62.5-1.09.56v.88h-.66v-.88c-.51-.07-.9-.29-1.17-.65-.28-.36-.41-.84-.41-1.43h1.24c0,.35.06.61.17.8.11.19.28.28.5.28.18,0,.32-.07.42-.2s.15-.32.15-.55h-.02Z"/><path d="m207.23,269.4c0,.31-.07.59-.2.83s-.31.43-.54.58c.26.15.47.36.62.62s.23.57.23.92c0,.57-.16,1.02-.49,1.35-.33.33-.77.49-1.34.49s-1.02-.17-1.35-.49c-.33-.33-.5-.78-.5-1.35,0-.35.08-.66.23-.93s.36-.47.63-.62c-.23-.14-.42-.33-.55-.58s-.2-.52-.2-.83c0-.56.16-1,.47-1.31s.73-.47,1.26-.47.96.16,1.27.48.47.76.47,1.31h-.01Zm-1.72,3.75c.19,0,.33-.08.43-.24s.15-.38.15-.67-.05-.51-.16-.67-.25-.24-.44-.24-.33.08-.44.24c-.11.16-.16.38-.16.67s.05.51.16.67c.11.16.26.24.45.24h.01Zm.48-3.69c0-.25-.04-.45-.12-.6s-.2-.22-.37-.22c-.16,0-.28.07-.36.22s-.12.35-.12.6.04.46.12.61.21.23.37.23.29-.08.36-.23c.08-.15.12-.36.12-.61Z"/><path d="m208.33,273.47c0-.2.07-.36.2-.49s.31-.19.52-.19.38.06.52.19c.14.13.21.29.21.49s-.07.37-.21.49c-.14.12-.31.19-.52.19s-.38-.06-.52-.19c-.14-.13-.2-.29-.2-.49Z"/><path d="m214.55,271.45c0,.88-.16,1.56-.48,2.03s-.78.7-1.37.7-1.04-.23-1.36-.68c-.32-.46-.49-1.11-.5-1.96v-1.21c0-.88.16-1.56.48-2.02.32-.47.78-.7,1.38-.7s1.06.23,1.38.69.48,1.12.49,1.98v1.17h-.02Zm-1.25-1.3c0-.5-.05-.88-.15-1.13s-.25-.38-.47-.38c-.4,0-.6.46-.62,1.38v1.59c0,.52.05.9.15,1.15s.26.38.47.38.35-.12.45-.35c.1-.24.15-.6.16-1.08v-1.56h0Z"/><path d="m217.55,274.1v-6.4h1.98c.67,0,1.18.15,1.52.45.35.3.52.73.52,1.31,0,.32-.07.6-.22.84s-.34.41-.59.51c.29.08.51.25.66.49.16.25.23.55.23.92,0,.62-.17,1.09-.51,1.41s-.84.47-1.48.47h-2.12.01Zm1.29-3.72h.67c.51,0,.76-.26.76-.79,0-.29-.06-.5-.18-.62s-.31-.19-.57-.19h-.69v1.6h0Zm0,.94v1.71h.83c.23,0,.41-.07.53-.21s.18-.35.18-.61c0-.57-.21-.87-.62-.88h-.92Z"/><path d="m222.51,268.11c0-.19.06-.35.18-.47s.29-.18.49-.18.37.06.49.18.18.28.18.47-.06.35-.18.47c-.12.13-.29.19-.49.19s-.37-.06-.49-.19-.18-.28-.18-.47Zm1.31,5.99h-1.25v-4.75h1.25v4.75Z"/><path d="m226.08,274.1h-1.25v-6.75h1.25v6.75Z"/><path d="m228.35,274.1h-1.25v-6.75h1.25v6.75Z"/><path d="m229.33,268.11c0-.19.06-.35.18-.47s.29-.18.49-.18.37.06.49.18.18.28.18.47-.06.35-.18.47c-.12.13-.29.19-.49.19s-.37-.06-.49-.19-.18-.28-.18-.47Zm1.31,5.99h-1.25v-4.75h1.25v4.75Z"/><path d="m231.46,271.57c0-.72.17-1.29.51-1.7s.81-.62,1.41-.62,1.08.21,1.42.62.51.98.51,1.71v.3c0,.72-.17,1.29-.51,1.7s-.81.61-1.42.61-1.08-.2-1.42-.61c-.34-.41-.51-.98-.51-1.7v-.3h.01Zm1.25.3c0,.85.23,1.27.68,1.27.42,0,.64-.35.68-1.06v-.52c0-.43-.06-.75-.18-.96s-.29-.31-.51-.31-.38.11-.49.31c-.12.21-.18.53-.18.96v.31Z"/><path d="m237.2,269.34l.04.47c.28-.37.65-.56,1.1-.56.82,0,1.24.57,1.26,1.72v3.12h-1.25v-3.03c0-.27-.04-.46-.12-.59-.08-.12-.22-.18-.42-.18-.23,0-.4.12-.53.35v3.45h-1.25v-4.75h1.17,0Z"/></g><g><path d="m181.49,279.58h-1.58v5.32h-1.3v-5.32h-1.56v-1.08h4.43v1.08h0Z"/><path d="m182.05,282.37c0-.72.17-1.29.51-1.7s.81-.62,1.41-.62,1.08.21,1.42.62.51.98.51,1.71v.3c0,.72-.17,1.29-.51,1.7s-.81.61-1.42.61-1.08-.2-1.42-.61c-.34-.41-.51-.98-.51-1.7v-.3h.01Zm1.25.3c0,.85.23,1.27.68,1.27.42,0,.64-.35.68-1.06v-.52c0-.43-.06-.75-.18-.96s-.29-.31-.51-.31-.38.11-.49.31c-.12.21-.18.53-.18.96v.31Z"/><path d="m188.08,278.98v1.17h.64v.93h-.64v2.36c0,.19.03.32.08.39s.15.11.3.11c.12,0,.22,0,.29-.03v.97c-.22.08-.45.12-.69.12-.8,0-1.21-.46-1.22-1.38v-2.53h-.55v-.93h.55v-1.17h1.24Z"/><path d="m191.66,284.9c-.04-.07-.07-.2-.11-.37-.22.3-.52.46-.91.46s-.73-.13-.99-.4c-.26-.26-.39-.6-.39-1.02,0-.5.16-.88.48-1.16s.78-.41,1.37-.42h.38v-.38c0-.21-.04-.37-.11-.45s-.18-.13-.32-.13c-.31,0-.47.18-.47.54h-1.24c0-.44.17-.8.49-1.09.33-.29.75-.43,1.25-.43s.93.14,1.21.41c.29.27.43.66.43,1.16v2.24c0,.41.06.73.18.96v.07h-1.25Zm-.73-.88c.14,0,.25-.03.35-.08s.17-.12.22-.2v-.99h-.3c-.21,0-.38.07-.5.2s-.18.31-.18.54c0,.35.14.53.41.53h0Z"/><path d="m194.91,284.9h-1.25v-6.75h1.25v6.75Z"/><path d="m200.28,284.9c-.04-.07-.07-.2-.11-.37-.22.3-.52.46-.91.46s-.73-.13-.99-.4c-.26-.26-.39-.6-.39-1.02,0-.5.16-.88.48-1.16s.78-.41,1.37-.42h.38v-.38c0-.21-.04-.37-.11-.45s-.18-.13-.32-.13c-.31,0-.47.18-.47.54h-1.24c0-.44.17-.8.49-1.09.33-.29.75-.43,1.25-.43s.93.14,1.21.41c.29.27.43.66.43,1.16v2.24c0,.41.06.73.18.96v.07h-1.25Zm-.73-.88c.14,0,.25-.03.35-.08s.17-.12.22-.2v-.99h-.3c-.21,0-.38.07-.5.2s-.18.31-.18.54c0,.35.14.53.41.53h0Z"/><path d="m203.4,280.15l.04.44c.28-.35.65-.53,1.1-.53s.81.21,1.01.64c.27-.43.66-.64,1.16-.64.83,0,1.26.58,1.28,1.73v3.12h-1.24v-3.04c0-.27-.04-.47-.11-.59s-.21-.18-.39-.18c-.23,0-.4.14-.52.43v3.38h-1.23v-3.03c0-.27-.04-.47-.11-.59-.07-.12-.2-.18-.39-.18-.21,0-.38.12-.51.35v3.45h-1.24v-4.75h1.16-.01Z"/><path d="m208.8,282.37c0-.72.17-1.29.51-1.7s.81-.62,1.41-.62,1.08.21,1.42.62.51.98.51,1.71v.3c0,.72-.17,1.29-.51,1.7s-.81.61-1.42.61-1.08-.2-1.42-.61c-.34-.41-.51-.98-.51-1.7v-.3h.01Zm1.25.3c0,.85.23,1.27.68,1.27.42,0,.64-.35.68-1.06v-.52c0-.43-.06-.75-.18-.96s-.29-.31-.51-.31-.38.11-.49.31c-.12.21-.18.53-.18.96v.31Z"/><path d="m215.73,284.46c-.26.35-.6.52-1.04.52s-.77-.15-.99-.45c-.23-.3-.34-.74-.34-1.31v-3.08h1.24v3.11c0,.46.16.69.46.69.28,0,.49-.12.62-.37v-3.44h1.25v4.75h-1.17l-.04-.44v.02Z"/><path d="m218.96,280.15l.04.47c.28-.37.65-.56,1.1-.56.82,0,1.24.57,1.26,1.72v3.12h-1.25v-3.03c0-.27-.04-.46-.12-.59-.08-.12-.22-.18-.42-.18-.23,0-.4.12-.53.35v3.45h-1.25v-4.75h1.17,0Z"/><path d="m223.69,278.98v1.17h.64v.93h-.64v2.36c0,.19.03.32.08.39s.15.11.3.11c.12,0,.22,0,.29-.03v.97c-.22.08-.45.12-.69.12-.8,0-1.21-.46-1.22-1.38v-2.53h-.55v-.93h.55v-1.17h1.24Z"/><path d="m230.79,282.67c0,.75-.13,1.32-.38,1.72s-.64.6-1.14.6c-.39,0-.7-.16-.93-.47v2.21h-1.24v-6.58h1.15l.04.43c.24-.35.56-.52.97-.52.51,0,.89.18,1.14.55s.39.93.39,1.7v.36h0Zm-1.24-.31c0-.46-.05-.79-.15-.98s-.27-.29-.51-.29-.44.11-.56.32v2.23c.11.21.3.31.57.31.25,0,.42-.1.51-.31s.14-.53.14-.97v-.31h0Z"/><path d="m233.8,284.9c-.04-.07-.07-.2-.11-.37-.22.3-.52.46-.91.46s-.73-.13-.99-.4c-.26-.26-.39-.6-.39-1.02,0-.5.16-.88.48-1.16s.78-.41,1.37-.42h.38v-.38c0-.21-.04-.37-.11-.45s-.18-.13-.32-.13c-.31,0-.47.18-.47.54h-1.24c0-.44.17-.8.49-1.09.33-.29.75-.43,1.25-.43s.93.14,1.21.41c.29.27.43.66.43,1.16v2.24c0,.41.06.73.18.96v.07h-1.25Zm-.73-.88c.14,0,.25-.03.35-.08s.17-.12.22-.2v-.99h-.3c-.21,0-.38.07-.5.2s-.18.31-.18.54c0,.35.14.53.41.53h0Z"/><path d="m235.72,278.92c0-.19.06-.35.18-.47s.29-.18.49-.18.37.06.49.18.18.28.18.47-.06.35-.18.47c-.12.13-.29.19-.49.19s-.37-.06-.49-.19-.18-.28-.18-.47Zm1.31,5.99h-1.25v-4.75h1.25v4.75Z"/><path d="m237.83,282.38c0-.78.13-1.36.4-1.75.26-.38.65-.58,1.15-.58.37,0,.67.16.91.47v-2.38h1.25v6.75h-1.13l-.06-.48c-.25.38-.58.57-.98.57-.5,0-.88-.19-1.14-.57s-.4-.94-.4-1.68v-.36h0Zm1.25.32c0,.47.05.8.15.98.1.19.27.28.51.28s.43-.11.56-.33v-2.17c-.12-.23-.31-.35-.55-.35s-.4.09-.5.28-.16.51-.16.98v.33h-.01Z"/><path d="m246.85,284.9c-.04-.07-.07-.2-.11-.37-.22.3-.52.46-.91.46s-.73-.13-.99-.4c-.26-.26-.39-.6-.39-1.02,0-.5.16-.88.48-1.16s.78-.41,1.37-.42h.38v-.38c0-.21-.04-.37-.11-.45s-.18-.13-.32-.13c-.31,0-.47.18-.47.54h-1.24c0-.44.17-.8.49-1.09.33-.29.75-.43,1.25-.43s.93.14,1.21.41c.29.27.43.66.43,1.16v2.24c0,.41.06.73.18.96v.07h-1.25Zm-.73-.88c.14,0,.25-.03.35-.08s.17-.12.22-.2v-.99h-.3c-.21,0-.38.07-.5.2s-.18.31-.18.54c0,.35.14.53.41.53h0Z"/><path d="m250.9,283.63c0-.11-.05-.2-.15-.29s-.33-.21-.67-.36c-.51-.21-.87-.42-1.06-.65-.19-.22-.29-.5-.29-.83,0-.42.15-.76.45-1.03.3-.27.7-.41,1.19-.41.52,0,.94.13,1.25.4s.47.63.47,1.08h-1.24c0-.39-.16-.58-.48-.58-.13,0-.24.04-.33.12-.08.08-.13.2-.13.34,0,.11.05.2.14.28.09.08.31.2.66.34.51.19.86.4,1.07.63.21.23.31.53.31.89,0,.42-.16.77-.48,1.02s-.74.39-1.26.39c-.35,0-.66-.07-.92-.2-.27-.14-.48-.33-.63-.57-.15-.24-.23-.51-.23-.79h1.18c0,.22.06.38.15.49s.25.16.47.16c.33,0,.5-.15.5-.45l.03.02Z"/><path d="m254.78,282.37c0-.72.17-1.29.51-1.7s.81-.62,1.41-.62,1.08.21,1.42.62.51.98.51,1.71v.3c0,.72-.17,1.29-.51,1.7s-.81.61-1.42.61-1.08-.2-1.42-.61c-.34-.41-.51-.98-.51-1.7v-.3h.01Zm1.25.3c0,.85.23,1.27.68,1.27.42,0,.64-.35.68-1.06v-.52c0-.43-.06-.75-.18-.96s-.29-.31-.51-.31-.38.11-.49.31c-.12.21-.18.53-.18.96v.31Z"/><path d="m259.65,284.9v-3.82h-.58v-.93h.58v-.43c0-.52.14-.93.42-1.22.27-.29.65-.44,1.14-.44.15,0,.33.03.56.09v.99c-.09-.03-.19-.04-.31-.04-.37,0-.55.22-.55.66v.39h.74v.93h-.74v3.82h-1.26Z"/></g><g><path d="m191.93,289.78v1.17h.64v.93h-.64v2.36c0,.19.03.32.08.39s.15.11.3.11c.12,0,.22,0,.29-.03v.97c-.22.08-.45.12-.69.12-.8,0-1.21-.46-1.22-1.38v-2.53h-.55v-.93h.55v-1.17h1.24Z"/><path d="m194.46,291.36c.27-.34.6-.5.99-.5.43,0,.76.15.99.46s.34.76.34,1.36v3.02h-1.25v-3.01c0-.28-.04-.48-.13-.6s-.23-.19-.42-.19c-.23,0-.4.1-.53.31v3.49h-1.24v-6.75h1.24v2.41h.01Z"/><path d="m199.6,295.79c-.64,0-1.14-.19-1.49-.57s-.54-.93-.54-1.63v-.38c0-.75.16-1.33.49-1.74s.8-.61,1.41-.61,1.05.19,1.35.57.46.95.46,1.7v.61h-2.47c.02.35.1.61.23.78.14.16.35.24.64.24.42,0,.76-.14,1.04-.43l.49.75c-.15.21-.37.38-.66.51s-.6.2-.94.2h-.01Zm-.78-2.92h1.24v-.11c0-.28-.05-.5-.14-.65s-.24-.22-.46-.22-.37.08-.47.23c-.1.16-.16.4-.17.75h0Z"/><path d="m205.13,291.93h.6c.23,0,.4-.08.5-.24.11-.16.16-.37.16-.64s-.06-.45-.16-.6c-.11-.14-.26-.21-.44-.21-.17,0-.31.07-.42.2-.11.14-.16.31-.16.51h-1.24c0-.33.08-.63.23-.9.15-.26.37-.47.65-.62s.58-.22.92-.22c.59,0,1.05.16,1.38.49.33.32.5.77.5,1.34,0,.29-.08.56-.23.81-.15.25-.35.44-.6.57.3.13.53.32.67.58s.22.56.22.91c0,.57-.18,1.02-.54,1.37-.36.34-.84.51-1.43.51-.55,0-.99-.17-1.33-.51s-.51-.78-.51-1.33h1.24c0,.23.06.42.18.58s.27.23.46.23c.21,0,.38-.08.51-.24s.19-.37.19-.63c0-.63-.24-.95-.73-.95h-.61v-1h-.01Z"/><path d="m209.06,296.25h-.91l1.92-6.95h.91l-1.92,6.95Z"/><path d="m214.29,295.7h-1.25v-4.89l-1.22.47v-1.04l2.33-.95h.13v6.41h.01Z"/><path d="m218.05,293.18c0-.78.13-1.36.4-1.75.26-.38.65-.58,1.15-.58.37,0,.67.16.91.47v-2.38h1.25v6.75h-1.13l-.06-.48c-.25.38-.58.57-.98.57-.5,0-.88-.19-1.14-.57s-.4-.94-.4-1.68v-.36h0Zm1.25.32c0,.47.05.8.15.98.1.19.27.28.51.28s.43-.11.56-.33v-2.17c-.12-.23-.31-.35-.55-.35s-.4.09-.5.28-.16.51-.16.98v.33h-.01Z"/><path d="m224.99,295.26c-.26.35-.6.52-1.04.52s-.77-.15-.99-.45c-.23-.3-.34-.74-.34-1.31v-3.08h1.24v3.11c0,.46.16.69.46.69.28,0,.49-.12.62-.37v-3.44h1.25v4.75h-1.17l-.04-.44v.02Z"/><path d="m229,295.79c-.64,0-1.14-.19-1.49-.57s-.54-.93-.54-1.63v-.38c0-.75.16-1.33.49-1.74s.8-.61,1.41-.61,1.05.19,1.35.57.46.95.46,1.7v.61h-2.47c.02.35.1.61.23.78.14.16.35.24.64.24.42,0,.76-.14,1.04-.43l.49.75c-.15.21-.37.38-.66.51s-.6.2-.94.2h-.01Zm-.78-2.92h1.24v-.11c0-.28-.05-.5-.14-.65s-.24-.22-.46-.22-.37.08-.47.23c-.1.16-.16.4-.17.75h0Z"/><path d="m233.29,293.18c0-.78.13-1.36.4-1.75.26-.38.65-.58,1.15-.58.37,0,.67.16.91.47v-2.38h1.25v6.75h-1.13l-.06-.48c-.25.38-.58.57-.98.57-.5,0-.88-.19-1.14-.57s-.4-.94-.4-1.68v-.36h0Zm1.25.32c0,.47.05.8.15.98.1.19.27.28.51.28s.43-.11.56-.33v-2.17c-.12-.23-.31-.35-.55-.35s-.4.09-.5.28-.16.51-.16.98v.33h-.01Z"/><path d="m240.15,295.7c-.04-.07-.07-.2-.11-.37-.22.3-.52.46-.91.46s-.73-.13-.99-.4c-.26-.26-.39-.6-.39-1.02,0-.5.16-.88.48-1.16s.78-.41,1.37-.42h.38v-.38c0-.21-.04-.37-.11-.45s-.18-.13-.32-.13c-.31,0-.47.18-.47.54h-1.24c0-.44.17-.8.49-1.09.33-.29.75-.43,1.25-.43s.93.14,1.21.41c.29.27.43.66.43,1.16v2.24c0,.41.06.73.18.96v.07h-1.25Zm-.73-.88c.14,0,.25-.03.35-.08s.17-.12.22-.2v-.99h-.3c-.21,0-.38.07-.5.2s-.18.31-.18.54c0,.35.14.53.41.53h0Z"/><path d="m243.55,289.78v1.17h.64v.93h-.64v2.36c0,.19.03.32.08.39s.15.11.3.11c.12,0,.22,0,.29-.03v.97c-.22.08-.45.12-.69.12-.8,0-1.21-.46-1.22-1.38v-2.53h-.55v-.93h.55v-1.17h1.24Z"/><path d="m246.79,295.79c-.64,0-1.14-.19-1.49-.57s-.54-.93-.54-1.63v-.38c0-.75.16-1.33.49-1.74s.8-.61,1.41-.61,1.05.19,1.35.57.46.95.46,1.7v.61h-2.47c.02.35.1.61.23.78.14.16.35.24.64.24.42,0,.76-.14,1.04-.43l.49.75c-.15.21-.37.38-.66.51s-.6.2-.94.2h-.01Zm-.78-2.92h1.24v-.11c0-.28-.05-.5-.14-.65s-.24-.22-.46-.22-.37.08-.47.23c-.1.16-.16.4-.17.75h0Z"/></g><g><path d="m491.25,270.14c0-.26-.07-.46-.2-.59s-.38-.27-.73-.42c-.64-.24-1.11-.53-1.39-.86s-.42-.71-.42-1.16c0-.54.19-.97.58-1.3.38-.33.87-.49,1.46-.49.39,0,.74.08,1.05.25s.55.4.71.7.25.65.25,1.03h-1.29c0-.3-.06-.53-.19-.69s-.31-.24-.55-.24-.4.07-.53.2-.19.31-.19.54c0,.18.07.33.21.48.14.14.39.29.75.44.63.23,1.08.5,1.36.83.28.33.42.75.42,1.26,0,.56-.18,1-.53,1.31-.36.31-.84.47-1.45.47-.41,0-.79-.08-1.13-.25s-.61-.42-.8-.73c-.19-.32-.29-.69-.29-1.12h1.3c0,.37.07.64.22.81.14.17.38.25.71.25.45,0,.68-.24.68-.72h-.01Z"/><path d="m495.3,271.91c-.64,0-1.14-.19-1.5-.57s-.54-.93-.54-1.64v-.38c0-.75.16-1.33.49-1.74s.8-.61,1.42-.61,1.05.19,1.35.57.46.95.46,1.7v.61h-2.48c.02.35.1.61.23.78.14.16.35.25.64.25.42,0,.76-.14,1.04-.43l.49.75c-.15.21-.38.38-.67.51s-.61.2-.95.2h.02Zm-.78-2.93h1.25v-.11c0-.29-.05-.5-.14-.65s-.24-.22-.46-.22-.38.08-.47.23c-.1.16-.16.41-.17.75h-.01Z"/><path d="m499.42,270.87c.36,0,.54-.24.55-.71h1.17c0,.52-.17.94-.48,1.26s-.72.48-1.22.48c-.61,0-1.08-.19-1.41-.57s-.49-.94-.49-1.69v-.38c0-.75.16-1.32.48-1.71.32-.39.79-.59,1.41-.59.53,0,.94.16,1.24.49s.46.79.46,1.38h-1.17c0-.27-.05-.47-.13-.62-.09-.14-.23-.22-.42-.22-.22,0-.37.08-.47.23s-.14.45-.15.9v.48c0,.39.02.66.06.81s.1.27.19.34.21.11.38.11h0Z"/><path d="m501.73,269.28c0-.72.17-1.29.51-1.7s.81-.62,1.42-.62,1.08.21,1.42.62c.34.41.51.98.51,1.71v.3c0,.73-.17,1.29-.51,1.7s-.81.61-1.42.61-1.09-.21-1.43-.61c-.34-.41-.51-.98-.51-1.71v-.3h.01Zm1.25.31c0,.85.23,1.28.68,1.28.42,0,.65-.36.68-1.07v-.52c0-.43-.06-.76-.18-.97s-.29-.32-.51-.32-.38.11-.5.32-.18.53-.18.97v.31h.01Z"/><path d="m507.47,267.05l.04.47c.28-.37.65-.56,1.11-.56.82,0,1.24.57,1.26,1.72v3.13h-1.25v-3.04c0-.27-.04-.47-.12-.59s-.22-.18-.42-.18c-.23,0-.4.12-.53.35v3.46h-1.25v-4.77h1.17,0Z"/><path d="m510.6,269.29c0-.78.13-1.36.4-1.75.26-.38.65-.58,1.16-.58.37,0,.67.16.92.48v-2.39h1.26v6.77h-1.13l-.06-.48c-.26.38-.58.57-.99.57-.5,0-.88-.19-1.14-.57s-.4-.94-.4-1.68v-.36h-.02Zm1.25.3c0,.47.05.8.15.99s.27.28.51.28.43-.11.56-.33v-2.18c-.12-.24-.31-.35-.56-.35-.23,0-.4.09-.5.28-.11.19-.16.51-.16.99v.33h0Z"/><path d="m517.25,265.82c0-.19.06-.35.18-.48.12-.12.29-.18.49-.18s.37.06.49.18.18.28.18.48-.06.35-.18.48-.29.19-.5.19-.37-.06-.5-.19-.18-.29-.18-.48h.02Zm1.31,6h-1.25v-4.77h1.25v4.77Z"/><path d="m520.67,267.05l.04.47c.28-.37.65-.56,1.11-.56.82,0,1.24.57,1.26,1.72v3.13h-1.25v-3.04c0-.27-.04-.47-.12-.59s-.22-.18-.42-.18c-.23,0-.4.12-.53.35v3.46h-1.25v-4.77h1.17,0Z"/><path d="m526.08,270.54c0-.11-.05-.2-.15-.29-.1-.09-.33-.21-.68-.36-.51-.21-.87-.42-1.06-.65s-.29-.5-.29-.83c0-.42.15-.76.45-1.03s.7-.41,1.2-.41.94.13,1.25.41c.31.27.47.63.47,1.09h-1.25c0-.39-.16-.58-.48-.58-.13,0-.24.04-.33.12s-.13.2-.13.34c0,.11.05.2.14.28s.32.2.67.35c.51.19.87.4,1.08.63s.32.53.32.9c0,.43-.16.77-.48,1.03s-.74.39-1.26.39c-.35,0-.66-.07-.93-.21-.27-.14-.48-.33-.63-.57s-.23-.51-.23-.79h1.18c0,.22.06.38.15.49.1.11.25.16.47.16.33,0,.5-.15.5-.45l.02-.02Z"/><path d="m529.52,265.88v1.17h.64v.93h-.64v2.37c0,.19.03.32.08.39s.15.11.3.11c.12,0,.22,0,.29-.03v.97c-.22.08-.45.12-.7.12-.8,0-1.21-.46-1.22-1.38v-2.54h-.55v-.93h.55v-1.17h1.25Z"/><path d="m533.1,271.82c-.04-.07-.07-.2-.11-.37-.22.31-.53.46-.91.46s-.73-.13-.99-.4c-.26-.26-.39-.61-.39-1.03,0-.5.16-.89.48-1.16s.78-.41,1.38-.42h.38v-.38c0-.21-.04-.37-.11-.45-.07-.09-.18-.13-.32-.13-.31,0-.47.18-.47.55h-1.25c0-.44.17-.8.5-1.09s.75-.43,1.25-.43.93.14,1.21.41c.29.27.43.66.43,1.17v2.24c0,.41.06.73.18.96v.08h-1.26Zm-.74-.9c.14,0,.26-.03.35-.08.1-.06.17-.12.22-.2v-.99h-.3c-.21,0-.38.07-.5.2-.12.14-.18.32-.18.54,0,.35.14.53.41.53h0Z"/><path d="m536.33,271.82h-1.25v-6.77h1.25v6.77Z"/><path d="m538.61,271.82h-1.25v-6.77h1.25v6.77Z"/><path d="m540.74,267.05l.04.44c.28-.35.65-.53,1.11-.53s.81.21,1.01.64c.27-.43.66-.64,1.17-.64.83,0,1.26.58,1.28,1.73v3.12h-1.25v-3.04c0-.28-.04-.47-.12-.59s-.21-.18-.39-.18c-.23,0-.41.14-.52.43v3.38h-1.24v-3.04c0-.27-.04-.47-.11-.59s-.2-.18-.39-.18c-.21,0-.39.12-.51.35v3.46h-1.25v-4.77h1.17Z"/><path d="m548.22,271.91c-.64,0-1.14-.19-1.5-.57s-.54-.93-.54-1.64v-.38c0-.75.16-1.33.49-1.74s.8-.61,1.42-.61,1.05.19,1.35.57.46.95.46,1.7v.61h-2.48c.02.35.1.61.23.78.14.16.35.25.64.25.42,0,.76-.14,1.04-.43l.49.75c-.15.21-.38.38-.67.51s-.61.2-.95.2h.02Zm-.78-2.93h1.25v-.11c0-.29-.05-.5-.14-.65s-.24-.22-.46-.22-.38.08-.47.23c-.1.16-.16.41-.17.75h-.01Z"/><path d="m551.75,267.05l.04.47c.28-.37.65-.56,1.11-.56.82,0,1.24.57,1.26,1.72v3.13h-1.25v-3.04c0-.27-.04-.47-.12-.59s-.22-.18-.42-.18c-.23,0-.4.12-.53.35v3.46h-1.25v-4.77h1.17,0Z"/><path d="m556.5,265.88v1.17h.64v.93h-.64v2.37c0,.19.03.32.08.39s.15.11.3.11c.12,0,.22,0,.29-.03v.97c-.22.08-.45.12-.7.12-.8,0-1.21-.46-1.22-1.38v-2.54h-.55v-.93h.55v-1.17h1.25Z"/><path d="m563.45,269.59c0,.77-.12,1.35-.37,1.74-.25.39-.63.58-1.16.58-.41,0-.75-.19-1-.56l-.04.47h-1.15v-6.77h1.25v2.39c.23-.32.54-.48.93-.48.53,0,.92.19,1.16.58.25.38.37.94.38,1.68v.37h0Zm-1.25-.31c0-.5-.05-.84-.15-1.01s-.27-.26-.51-.26c-.26,0-.45.12-.57.36v2.17c.11.22.3.33.58.33.24,0,.4-.08.5-.23.09-.16.14-.46.15-.91v-.45h0Z"/><path d="m564.2,265.82c0-.19.06-.35.18-.48.12-.12.29-.18.49-.18s.37.06.49.18.18.28.18.48-.06.35-.18.48-.29.19-.5.19-.37-.06-.5-.19-.18-.29-.18-.48h.02Zm1.31,6h-1.25v-4.77h1.25v4.77Z"/><path d="m567.78,271.82h-1.25v-6.77h1.25v6.77Z"/><path d="m570.05,271.82h-1.25v-6.77h1.25v6.77Z"/><path d="m573.15,265.82c0-.19.06-.35.18-.48.12-.12.29-.18.49-.18s.37.06.49.18.18.28.18.48-.06.35-.18.48-.29.19-.5.19-.37-.06-.5-.19-.18-.29-.18-.48h.02Zm1.31,6h-1.25v-4.77h1.25v4.77Z"/><path d="m577.54,270.54c0-.11-.05-.2-.15-.29-.1-.09-.33-.21-.68-.36-.51-.21-.87-.42-1.06-.65s-.29-.5-.29-.83c0-.42.15-.76.45-1.03s.7-.41,1.2-.41.94.13,1.25.41c.31.27.47.63.47,1.09h-1.25c0-.39-.16-.58-.48-.58-.13,0-.24.04-.33.12s-.13.2-.13.34c0,.11.05.2.14.28s.32.2.67.35c.51.19.87.4,1.08.63s.32.53.32.9c0,.43-.16.77-.48,1.03s-.74.39-1.26.39c-.35,0-.66-.07-.93-.21-.27-.14-.48-.33-.63-.57s-.23-.51-.23-.79h1.18c0,.22.06.38.15.49.1.11.25.16.47.16.33,0,.5-.15.5-.45l.02-.02Z"/><path d="m582.73,267.05l.04.44c.28-.35.65-.53,1.11-.53s.81.21,1.01.64c.27-.43.66-.64,1.17-.64.83,0,1.26.58,1.28,1.73v3.12h-1.25v-3.04c0-.28-.04-.47-.12-.59s-.21-.18-.39-.18c-.23,0-.41.14-.52.43v3.38h-1.24v-3.04c0-.27-.04-.47-.11-.59s-.2-.18-.39-.18c-.21,0-.39.12-.51.35v3.46h-1.25v-4.77h1.17Z"/><path d="m590.52,271.82c-.04-.07-.07-.2-.11-.37-.22.31-.53.46-.91.46s-.73-.13-.99-.4c-.26-.26-.39-.61-.39-1.03,0-.5.16-.89.48-1.16s.78-.41,1.38-.42h.38v-.38c0-.21-.04-.37-.11-.45-.07-.09-.18-.13-.32-.13-.31,0-.47.18-.47.55h-1.25c0-.44.17-.8.5-1.09s.75-.43,1.25-.43.93.14,1.21.41c.29.27.43.66.43,1.17v2.24c0,.41.06.73.18.96v.08h-1.26Zm-.74-.9c.14,0,.26-.03.35-.08.1-.06.17-.12.22-.2v-.99h-.3c-.21,0-.38.07-.5.2-.12.14-.18.32-.18.54,0,.35.14.53.41.53h0Z"/><path d="m592.5,265.82c0-.19.06-.35.18-.48.12-.12.29-.18.49-.18s.37.06.49.18.18.28.18.48-.06.35-.18.48-.29.19-.5.19-.37-.06-.5-.19-.18-.29-.18-.48h.02Zm1.31,6h-1.25v-4.77h1.25v4.77Z"/><path d="m596.08,271.82h-1.25v-6.77h1.25v6.77Z"/><path d="m598.97,271.91c-.64,0-1.14-.19-1.5-.57s-.54-.93-.54-1.64v-.38c0-.75.16-1.33.49-1.74s.8-.61,1.42-.61,1.05.19,1.35.57.46.95.46,1.7v.61h-2.48c.02.35.1.61.23.78.14.16.35.25.64.25.42,0,.76-.14,1.04-.43l.49.75c-.15.21-.38.38-.67.51s-.61.2-.95.2h.02Zm-.78-2.93h1.25v-.11c0-.29-.05-.5-.14-.65s-.24-.22-.46-.22-.38.08-.47.23c-.1.16-.16.41-.17.75h-.01Z"/><path d="m601.2,269.29c0-.78.13-1.36.4-1.75.26-.38.65-.58,1.16-.58.37,0,.67.16.92.48v-2.39h1.26v6.77h-1.13l-.06-.48c-.26.38-.58.57-.99.57-.5,0-.88-.19-1.14-.57s-.4-.94-.4-1.68v-.36h-.02Zm1.25.3c0,.47.05.8.15.99s.27.28.51.28.43-.11.56-.33v-2.18c-.12-.24-.31-.35-.56-.35-.23,0-.4.09-.5.28-.11.19-.16.51-.16.99v.33h0Z"/></g><g><path d="m462.42,102.42c0-.24-.05-.44-.15-.58-.1-.14-.26-.27-.49-.4-.45-.2-.78-.39-1-.57-.21-.18-.38-.39-.48-.63s-.16-.52-.16-.84c0-.49.13-.89.4-1.21s.62-.51,1.07-.56v-.94h.66v.96c.44.08.78.31,1.03.67s.37.82.37,1.37h-1.24c0-.35-.05-.61-.15-.79-.1-.17-.23-.26-.39-.26s-.28.07-.37.2-.13.32-.13.56c0,.21.04.38.14.52s.26.28.52.43c.47.22.81.43,1.01.61.21.18.36.39.46.62s.15.51.15.82c0,.5-.13.9-.39,1.21s-.62.5-1.09.56v.87h-.66v-.87c-.51-.07-.9-.29-1.17-.65-.28-.36-.41-.84-.41-1.43h1.24c0,.35.05.61.17.8s.28.28.5.28c.18,0,.32-.07.42-.2s.15-.32.15-.55h-.01Z"/><path d="m467.24,104.11h-1.25v-4.89l-1.22.47v-1.04l2.33-.95h.13v6.41h0Z"/><path d="m469.18,100.96l.32-3.25h3.1v1.06h-2.08l-.11,1.37c.24-.16.49-.24.74-.24.53,0,.93.19,1.22.56.29.38.43.91.43,1.59,0,.64-.17,1.16-.51,1.55s-.79.59-1.36.59c-.34,0-.65-.08-.94-.24-.29-.16-.51-.38-.68-.67-.17-.28-.25-.61-.25-.97h1.23c.02.27.09.47.2.62s.25.22.43.22c.21,0,.36-.1.47-.3.11-.2.17-.49.17-.89,0-.37-.07-.65-.2-.83-.13-.19-.32-.28-.56-.28s-.42.08-.54.24l-.08.11-.99-.25h0Z"/><path d="m473.74,103.48c0-.2.07-.36.2-.49s.31-.19.52-.19.38.06.52.19c.14.13.21.29.21.49s-.07.37-.21.49c-.14.12-.31.19-.52.19s-.38-.06-.52-.19c-.14-.13-.2-.29-.2-.49Z"/><path d="m478.65,101.64c-.26.27-.55.4-.87.4-.49,0-.87-.2-1.15-.59s-.42-.91-.42-1.57c0-.42.08-.81.24-1.16s.38-.62.66-.82c.28-.19.6-.29.95-.29s.68.11.96.32.5.52.66.92.23.85.23,1.36v.45c0,1.09-.24,1.94-.72,2.56-.48.61-1.16.93-2.04.94h-.13v-1.07h.08c.49,0,.85-.13,1.1-.38.24-.25.39-.61.44-1.09v.02Zm-.54-.57c.24,0,.43-.16.57-.49v-.57c0-.42-.06-.75-.17-.99s-.26-.36-.44-.36-.32.12-.43.35c-.11.24-.17.52-.17.86,0,.37.06.66.17.87s.27.32.47.32h0Z"/><path d="m482.97,104.11v-6.4h1.98c.67,0,1.17.15,1.52.45.35.3.52.73.52,1.31,0,.33-.07.6-.21.84-.14.23-.34.41-.59.51.29.08.51.25.66.49s.23.55.23.92c0,.62-.17,1.09-.51,1.41-.34.32-.84.47-1.48.47h-2.12,0Zm1.29-3.72h.67c.51,0,.76-.26.76-.79,0-.29-.06-.5-.18-.62s-.31-.19-.57-.19h-.69v1.6h.01Zm0,.94v1.71h.83c.23,0,.41-.07.53-.22.12-.14.18-.35.18-.61,0-.57-.21-.87-.62-.88h-.92Z"/><path d="m487.92,98.12c0-.19.06-.35.18-.47s.29-.18.49-.18.37.06.49.18.19.28.19.47-.06.35-.18.47c-.12.13-.29.19-.5.19s-.37-.06-.49-.19c-.12-.13-.18-.28-.18-.47Zm1.3,5.99h-1.25v-4.75h1.25v4.75Z"/><path d="m491.49,104.11h-1.25v-6.75h1.25v6.75Z"/><path d="m493.76,104.11h-1.25v-6.75h1.25v6.75Z"/><path d="m494.75,98.12c0-.19.06-.35.18-.47s.29-.18.49-.18.37.06.49.18.19.28.19.47-.06.35-.18.47c-.12.13-.29.19-.5.19s-.37-.06-.49-.19c-.12-.13-.18-.28-.18-.47Zm1.3,5.99h-1.25v-4.75h1.25v4.75Z"/><path d="m496.87,101.58c0-.72.17-1.29.51-1.7s.81-.62,1.41-.62,1.08.21,1.42.62.51.98.51,1.71v.3c0,.72-.17,1.29-.5,1.7-.34.41-.81.61-1.42.61s-1.08-.2-1.42-.61c-.34-.41-.51-.98-.51-1.7v-.3h0Zm1.25.3c0,.85.23,1.27.68,1.27.42,0,.64-.35.68-1.06v-.52c0-.43-.06-.75-.18-.96s-.29-.31-.51-.31-.38.1-.5.31-.18.53-.18.96v.31h.01Z"/><path d="m502.61,99.35l.04.47c.28-.37.65-.56,1.1-.56.82,0,1.24.57,1.26,1.72v3.12h-1.25v-3.03c0-.27-.04-.46-.12-.59-.08-.12-.22-.18-.42-.18-.23,0-.4.12-.53.35v3.45h-1.25v-4.75h1.17Z"/></g><g><path d="m437.79,109.59h-1.58v5.32h-1.3v-5.32h-1.55v-1.08h4.43v1.08Z"/><path d="m438.35,112.38c0-.72.17-1.29.51-1.7s.81-.62,1.41-.62,1.08.21,1.42.62.51.98.51,1.71v.3c0,.72-.17,1.29-.5,1.7-.34.41-.81.61-1.42.61s-1.08-.2-1.42-.61c-.34-.41-.51-.98-.51-1.7v-.3h0Zm1.25.3c0,.85.23,1.27.68,1.27.42,0,.64-.35.68-1.06v-.52c0-.43-.06-.75-.18-.96s-.29-.31-.51-.31-.38.1-.5.31-.18.53-.18.96v.31h.01Z"/><path d="m444.38,108.99v1.17h.64v.93h-.64v2.36c0,.19.03.32.08.39s.15.11.3.11c.12,0,.22-.01.29-.03v.97c-.22.08-.45.12-.69.12-.8,0-1.21-.46-1.22-1.38v-2.53h-.55v-.93h.55v-1.17h1.24Z"/><path d="m447.96,114.91c-.04-.07-.07-.2-.11-.37-.22.3-.52.46-.9.46-.4,0-.73-.13-.99-.4-.26-.26-.39-.6-.39-1.02,0-.5.16-.88.48-1.16.32-.27.78-.41,1.37-.42h.38v-.38c0-.21-.04-.36-.11-.45s-.18-.13-.32-.13c-.31,0-.46.18-.46.54h-1.24c0-.44.17-.8.49-1.09.33-.29.75-.43,1.25-.43s.93.14,1.21.41c.29.27.43.66.43,1.16v2.24c0,.41.06.73.18.96v.07h-1.27Zm-.73-.88c.14,0,.25-.03.35-.08s.17-.12.22-.2v-.99h-.3c-.21,0-.38.07-.5.2s-.18.31-.18.54c0,.35.14.53.41.53h0Z"/><path d="m451.21,114.91h-1.25v-6.75h1.25v6.75Z"/><path d="m456.58,114.91c-.04-.07-.07-.2-.11-.37-.22.3-.52.46-.9.46-.4,0-.73-.13-.99-.4-.26-.26-.39-.6-.39-1.02,0-.5.16-.88.48-1.16.32-.27.78-.41,1.37-.42h.38v-.38c0-.21-.04-.36-.11-.45s-.18-.13-.32-.13c-.31,0-.46.18-.46.54h-1.24c0-.44.17-.8.49-1.09.33-.29.75-.43,1.25-.43s.93.14,1.21.41c.29.27.43.66.43,1.16v2.24c0,.41.06.73.18.96v.07h-1.27Zm-.73-.88c.14,0,.25-.03.35-.08s.17-.12.22-.2v-.99h-.3c-.21,0-.38.07-.5.2s-.18.31-.18.54c0,.35.14.53.41.53h0Z"/><path d="m459.7,110.16l.04.44c.28-.35.65-.53,1.1-.53s.81.21,1.01.64c.27-.43.66-.64,1.17-.64.83,0,1.26.58,1.28,1.73v3.12h-1.24v-3.04c0-.28-.04-.47-.11-.59s-.21-.18-.39-.18c-.23,0-.4.14-.52.43v3.38h-1.24v-3.03c0-.27-.04-.47-.11-.59-.07-.12-.2-.18-.39-.18-.21,0-.38.12-.51.35v3.45h-1.24v-4.75h1.16,0Z"/><path d="m465.1,112.38c0-.72.17-1.29.51-1.7s.81-.62,1.41-.62,1.08.21,1.42.62.51.98.51,1.71v.3c0,.72-.17,1.29-.5,1.7-.34.41-.81.61-1.42.61s-1.08-.2-1.42-.61c-.34-.41-.51-.98-.51-1.7v-.3h0Zm1.25.3c0,.85.23,1.27.68,1.27.42,0,.64-.35.68-1.06v-.52c0-.43-.06-.75-.18-.96s-.29-.31-.51-.31-.38.1-.5.31-.18.53-.18.96v.31h.01Z"/><path d="m472.03,114.48c-.26.35-.6.52-1.04.52s-.77-.15-.99-.45-.34-.74-.34-1.31v-3.08h1.24v3.11c0,.46.16.69.46.69.28,0,.49-.12.62-.37v-3.44h1.25v4.75h-1.17l-.04-.44v.02Z"/><path d="m475.26,110.16l.04.47c.28-.37.65-.56,1.1-.56.82,0,1.24.57,1.26,1.72v3.12h-1.25v-3.03c0-.27-.04-.46-.12-.59-.08-.12-.22-.18-.42-.18-.23,0-.4.12-.53.35v3.45h-1.25v-4.75h1.17Z"/><path d="m479.99,108.99v1.17h.64v.93h-.64v2.36c0,.19.03.32.08.39s.15.11.3.11c.12,0,.22-.01.29-.03v.97c-.22.08-.45.12-.69.12-.8,0-1.21-.46-1.22-1.38v-2.53h-.55v-.93h.55v-1.17h1.24Z"/><path d="m487.09,112.68c0,.75-.13,1.32-.38,1.72-.26.4-.64.6-1.14.6-.39,0-.7-.16-.93-.47v2.21h-1.24v-6.58h1.15l.04.44c.24-.35.56-.52.97-.52.51,0,.89.18,1.14.55.26.37.39.93.39,1.7v.36h0Zm-1.24-.32c0-.46-.05-.79-.15-.98-.1-.19-.27-.29-.51-.29s-.44.11-.56.32v2.23c.11.21.3.31.57.31.25,0,.42-.1.51-.31s.14-.53.14-.97v-.31Z"/><path d="m490.1,114.91c-.04-.07-.07-.2-.11-.37-.22.3-.52.46-.9.46-.4,0-.73-.13-.99-.4-.26-.26-.39-.6-.39-1.02,0-.5.16-.88.48-1.16.32-.27.78-.41,1.37-.42h.38v-.38c0-.21-.04-.36-.11-.45s-.18-.13-.32-.13c-.31,0-.46.18-.46.54h-1.24c0-.44.17-.8.49-1.09.33-.29.75-.43,1.25-.43s.93.14,1.21.41c.29.27.43.66.43,1.16v2.24c0,.41.06.73.18.96v.07h-1.27Zm-.73-.88c.14,0,.25-.03.35-.08s.17-.12.22-.2v-.99h-.3c-.21,0-.38.07-.5.2s-.18.31-.18.54c0,.35.14.53.41.53h0Z"/><path d="m492.02,108.92c0-.19.06-.35.18-.47s.29-.18.49-.18.37.06.49.18.19.28.19.47-.06.35-.18.47c-.12.13-.29.19-.5.19s-.37-.06-.49-.19c-.12-.13-.18-.28-.18-.47Zm1.3,5.99h-1.25v-4.75h1.25v4.75Z"/><path d="m494.12,112.39c0-.78.13-1.36.4-1.74s.65-.58,1.15-.58c.37,0,.67.16.91.47v-2.38h1.25v6.75h-1.13l-.06-.48c-.25.38-.58.57-.98.57-.5,0-.88-.19-1.14-.57s-.4-.94-.4-1.68v-.36Zm1.25.31c0,.47.05.8.15.98.1.19.27.28.5.28s.43-.11.56-.33v-2.17c-.12-.23-.31-.35-.55-.35s-.4.09-.5.28-.16.51-.16.98v.33h0Z"/><path d="m503.15,114.91c-.04-.07-.07-.2-.11-.37-.22.3-.52.46-.9.46-.4,0-.73-.13-.99-.4-.26-.26-.39-.6-.39-1.02,0-.5.16-.88.48-1.16.32-.27.78-.41,1.37-.42h.38v-.38c0-.21-.04-.36-.11-.45s-.18-.13-.32-.13c-.31,0-.46.18-.46.54h-1.24c0-.44.17-.8.49-1.09.33-.29.75-.43,1.25-.43s.93.14,1.21.41c.29.27.43.66.43,1.16v2.24c0,.41.06.73.18.96v.07h-1.27Zm-.73-.88c.14,0,.25-.03.35-.08s.17-.12.22-.2v-.99h-.3c-.21,0-.38.07-.5.2s-.18.31-.18.54c0,.35.14.53.41.53h0Z"/><path d="m507.2,113.64c0-.11-.05-.2-.15-.29-.1-.09-.33-.21-.67-.36-.51-.21-.87-.42-1.06-.65-.19-.22-.29-.5-.29-.83,0-.42.15-.76.45-1.03s.7-.41,1.19-.41c.52,0,.94.13,1.25.4.31.27.47.63.47,1.09h-1.24c0-.39-.16-.58-.48-.58-.13,0-.24.04-.32.12-.09.08-.13.2-.13.34,0,.11.05.2.14.28s.31.2.66.35c.51.19.87.4,1.08.63.21.23.31.53.31.89,0,.42-.16.77-.48,1.02s-.74.39-1.26.39c-.35,0-.66-.07-.92-.2-.27-.14-.48-.33-.63-.57s-.23-.51-.23-.79h1.18c0,.22.06.38.15.49s.25.16.47.16c.33,0,.5-.15.5-.45h0Z"/><path d="m511.08,112.38c0-.72.17-1.29.51-1.7s.81-.62,1.41-.62,1.08.21,1.42.62.51.98.51,1.71v.3c0,.72-.17,1.29-.5,1.7-.34.41-.81.61-1.42.61s-1.08-.2-1.42-.61c-.34-.41-.51-.98-.51-1.7v-.3h0Zm1.25.3c0,.85.23,1.27.68,1.27.42,0,.64-.35.68-1.06v-.52c0-.43-.06-.75-.18-.96s-.29-.31-.51-.31-.38.1-.5.31-.18.53-.18.96v.31h.01Z"/><path d="m515.95,114.91v-3.82h-.58v-.93h.58v-.43c0-.52.14-.93.42-1.22.27-.29.65-.44,1.14-.44.15,0,.33.03.56.09v.99c-.09-.03-.19-.04-.31-.04-.37,0-.55.22-.55.66v.39h.74v.93h-.74v3.82h-1.26Z"/><path d="m522.24,108.99v1.17h.64v.93h-.64v2.36c0,.19.03.32.08.39s.15.11.3.11c.12,0,.22-.01.29-.03v.97c-.22.08-.45.12-.69.12-.8,0-1.21-.46-1.22-1.38v-2.53h-.55v-.93h.55v-1.17h1.24Z"/><path d="m524.77,110.57c.27-.34.6-.51.99-.51.43,0,.76.15.99.46s.34.76.34,1.36v3.02h-1.25v-3.01c0-.28-.04-.48-.13-.6-.09-.12-.23-.19-.42-.19-.23,0-.4.1-.53.31v3.49h-1.24v-6.75h1.24v2.41h.01Z"/><path d="m529.91,115c-.64,0-1.14-.19-1.49-.57s-.54-.93-.54-1.63v-.38c0-.75.16-1.33.49-1.74s.8-.61,1.41-.61,1.05.19,1.35.57.46.95.46,1.7v.61h-2.47c.02.35.09.61.23.77.14.16.35.25.64.25.42,0,.76-.14,1.04-.43l.49.75c-.15.21-.37.38-.66.51-.29.13-.61.2-.95.2Zm-.78-2.92h1.24v-.11c0-.28-.05-.5-.14-.65s-.24-.22-.46-.22-.37.08-.47.23c-.1.16-.16.4-.17.75Z"/></g><g><path d="m458.6,125.71h-1.25v-4.89l-1.22.47v-1.04l2.33-.95h.13v6.41h0Z"/><path d="m464.19,125.71h-3.77v-.88l1.73-2.2c.22-.3.38-.57.49-.8.1-.23.16-.45.16-.66,0-.28-.05-.51-.15-.67-.1-.16-.24-.24-.42-.24-.2,0-.36.09-.48.28s-.18.45-.18.79h-1.25c0-.39.08-.75.24-1.08s.39-.58.69-.76c.29-.18.63-.27,1-.27.57,0,1.01.16,1.33.47s.47.76.47,1.34c0,.36-.09.73-.26,1.1-.17.37-.49.83-.95,1.37l-.82,1.17h2.17v1.03h0Z"/><path d="m465.46,126.26h-.91l1.92-6.95h.91l-1.92,6.95Z"/><path d="m469.08,121.94h.6c.23,0,.4-.08.5-.24.11-.16.16-.37.16-.64s-.06-.45-.17-.6c-.11-.14-.26-.21-.44-.21-.17,0-.31.07-.42.2s-.16.3-.16.51h-1.24c0-.33.08-.63.23-.9.15-.26.37-.47.65-.62s.58-.22.92-.22c.59,0,1.05.16,1.38.49s.5.77.5,1.34c0,.29-.08.56-.23.81-.15.25-.35.44-.59.57.3.13.53.32.67.58.15.26.22.56.22.91,0,.57-.18,1.02-.54,1.37-.36.34-.84.51-1.43.51-.55,0-.99-.17-1.33-.51-.34-.34-.51-.78-.51-1.33h1.24c0,.23.06.42.18.58s.27.23.46.23c.21,0,.38-.08.51-.24.12-.16.19-.37.19-.63,0-.63-.24-.95-.73-.95h-.61v-1h-.01Z"/><path d="m476.24,123.06c0,.88-.16,1.56-.48,2.03s-.78.7-1.37.7-1.04-.23-1.37-.68c-.32-.46-.49-1.11-.5-1.96v-1.21c0-.88.16-1.56.48-2.02s.78-.7,1.38-.7,1.06.23,1.38.69.48,1.12.49,1.98v1.16h-.01Zm-1.25-1.29c0-.5-.05-.88-.15-1.13-.1-.25-.26-.38-.47-.38-.39,0-.6.46-.62,1.38v1.6c0,.52.05.9.15,1.15.1.25.26.38.47.38s.35-.12.45-.35c.1-.24.15-.6.16-1.08v-1.56h.01Z"/><path d="m479.02,123.19c0-.78.13-1.36.4-1.74s.65-.58,1.15-.58c.37,0,.67.16.91.47v-2.38h1.25v6.75h-1.13l-.06-.48c-.25.38-.58.57-.98.57-.5,0-.88-.19-1.14-.57s-.4-.94-.4-1.68v-.36Zm1.25.31c0,.47.05.8.15.98.1.19.27.28.5.28s.43-.11.56-.33v-2.17c-.12-.23-.31-.35-.55-.35s-.4.09-.5.28-.16.51-.16.98v.33h0Z"/><path d="m485.95,125.27c-.26.35-.6.52-1.04.52s-.77-.15-.99-.45-.34-.74-.34-1.31v-3.08h1.24v3.11c0,.46.16.69.46.69.28,0,.49-.12.62-.37v-3.44h1.25v4.75h-1.17l-.04-.44v.02Z"/><path d="m489.96,125.8c-.64,0-1.14-.19-1.49-.57s-.54-.93-.54-1.63v-.38c0-.75.16-1.33.49-1.74s.8-.61,1.41-.61,1.05.19,1.35.57.46.95.46,1.7v.61h-2.47c.02.35.09.61.23.77.14.16.35.25.64.25.42,0,.76-.14,1.04-.43l.49.75c-.15.21-.37.38-.66.51-.29.13-.61.2-.95.2Zm-.78-2.92h1.24v-.11c0-.28-.05-.5-.14-.65s-.24-.22-.46-.22-.37.08-.47.23c-.1.16-.16.4-.17.75Z"/><path d="m494.25,123.19c0-.78.13-1.36.4-1.74s.65-.58,1.15-.58c.37,0,.67.16.91.47v-2.38h1.25v6.75h-1.13l-.06-.48c-.25.38-.58.57-.98.57-.5,0-.88-.19-1.14-.57s-.4-.94-.4-1.68v-.36Zm1.25.31c0,.47.05.8.15.98.1.19.27.28.5.28s.43-.11.56-.33v-2.17c-.12-.23-.31-.35-.55-.35s-.4.09-.5.28-.16.51-.16.98v.33h0Z"/><path d="m501.11,125.71c-.04-.07-.07-.2-.11-.37-.22.3-.52.46-.9.46-.4,0-.73-.13-.99-.4-.26-.26-.39-.6-.39-1.02,0-.5.16-.88.48-1.16.32-.27.78-.41,1.37-.42h.38v-.38c0-.21-.04-.36-.11-.45s-.18-.13-.32-.13c-.31,0-.46.18-.46.54h-1.24c0-.44.17-.8.49-1.09.33-.29.75-.43,1.25-.43s.93.14,1.21.41c.29.27.43.66.43,1.16v2.24c0,.41.06.73.18.96v.07h-1.27Zm-.73-.88c.14,0,.25-.03.35-.08s.17-.12.22-.2v-.99h-.3c-.21,0-.38.07-.5.2s-.18.31-.18.54c0,.35.14.53.41.53h0Z"/><path d="m504.51,119.79v1.17h.64v.93h-.64v2.36c0,.19.03.32.08.39s.15.11.3.11c.12,0,.22-.01.29-.03v.97c-.22.08-.45.12-.69.12-.8,0-1.21-.46-1.22-1.38v-2.53h-.55v-.93h.55v-1.17h1.24Z"/><path d="m507.75,125.8c-.64,0-1.14-.19-1.49-.57s-.54-.93-.54-1.63v-.38c0-.75.16-1.33.49-1.74s.8-.61,1.41-.61,1.05.19,1.35.57.46.95.46,1.7v.61h-2.47c.02.35.09.61.23.77.14.16.35.25.64.25.42,0,.76-.14,1.04-.43l.49.75c-.15.21-.37.38-.66.51-.29.13-.61.2-.95.2Zm-.78-2.92h1.24v-.11c0-.28-.05-.5-.14-.65s-.24-.22-.46-.22-.37.08-.47.23c-.1.16-.16.4-.17.75Z"/></g><g><path d="m613.67,150.21c0-.24-.05-.44-.15-.58-.1-.14-.26-.27-.49-.4-.45-.2-.78-.39-1-.57-.21-.18-.38-.39-.48-.63s-.16-.52-.16-.84c0-.49.13-.89.4-1.21s.62-.51,1.07-.56v-.94h.66v.96c.44.08.78.31,1.03.67s.37.82.37,1.37h-1.24c0-.35-.05-.61-.15-.79-.1-.17-.23-.26-.39-.26s-.28.07-.37.2-.13.32-.13.56c0,.21.04.38.14.52s.26.28.52.43c.47.22.81.43,1.01.61.21.18.36.39.46.62s.15.51.15.82c0,.5-.13.9-.39,1.21-.26.31-.62.5-1.09.56v.87h-.66v-.87c-.51-.07-.9-.29-1.17-.65-.28-.36-.41-.84-.41-1.43h1.24c0,.35.05.61.17.8s.28.28.5.28c.18,0,.32-.07.42-.2.1-.13.15-.32.15-.55h-.01Z"/><path d="m618.49,151.9h-1.25v-4.89l-1.22.47v-1.04l2.33-.95h.13v6.41h0Z"/><path d="m623.27,145.44v1.05h-.07c-.47,0-.84.14-1.11.42-.27.28-.44.66-.5,1.16.27-.3.6-.46,1-.46.46,0,.83.2,1.11.59.28.4.42.92.42,1.58,0,.42-.08.8-.24,1.13s-.38.6-.67.78c-.29.19-.61.28-.97.28-.58,0-1.04-.23-1.39-.7-.35-.47-.53-1.09-.53-1.88v-.46c0-.71.11-1.32.33-1.85.22-.53.54-.94.96-1.22.42-.29.9-.43,1.46-.43h.2Zm-1.07,3.21c-.16,0-.29.05-.4.15-.11.1-.19.22-.24.37v.45c0,.45.06.79.18,1.01s.28.33.47.33.36-.11.48-.32.18-.49.18-.83-.06-.62-.19-.84c-.12-.22-.29-.32-.49-.32h.01Z"/><path d="m624.99,151.27c0-.2.07-.36.2-.49s.31-.19.52-.19.38.06.52.19.21.29.21.49-.07.37-.21.49c-.14.12-.31.19-.52.19s-.38-.06-.52-.19-.2-.29-.2-.49Z"/><path d="m631.21,149.25c0,.88-.16,1.56-.48,2.03s-.78.7-1.37.7-1.04-.23-1.37-.68c-.32-.46-.49-1.11-.5-1.96v-1.21c0-.88.16-1.56.48-2.02s.78-.7,1.38-.7,1.06.23,1.38.69.48,1.12.49,1.98v1.16h-.01Zm-1.25-1.29c0-.5-.05-.88-.15-1.13-.1-.25-.26-.38-.47-.38-.39,0-.6.46-.62,1.38v1.6c0,.52.05.9.15,1.15.1.25.26.38.47.38s.35-.12.45-.35c.1-.24.15-.6.16-1.08v-1.56h.01Z"/><path d="m634.22,151.9v-6.4h1.98c.67,0,1.17.15,1.52.45.35.3.52.73.52,1.31,0,.33-.07.6-.21.84-.14.23-.34.41-.59.51.29.08.51.25.66.49s.23.55.23.92c0,.62-.17,1.09-.51,1.41s-.84.47-1.48.47h-2.12,0Zm1.29-3.72h.67c.51,0,.76-.26.76-.79,0-.29-.06-.5-.18-.62s-.31-.19-.57-.19h-.69v1.6h.01Zm0,.94v1.71h.83c.23,0,.41-.07.53-.22.12-.14.18-.35.18-.61,0-.57-.21-.87-.62-.88h-.92Z"/><path d="m639.17,145.91c0-.19.06-.35.18-.47s.29-.18.49-.18.37.06.49.18.19.28.19.47-.06.35-.18.47c-.12.13-.29.19-.5.19s-.37-.06-.49-.19-.18-.28-.18-.47Zm1.3,5.99h-1.25v-4.75h1.25v4.75Z"/><path d="m642.74,151.9h-1.25v-6.75h1.25v6.75Z"/><path d="m645.01,151.9h-1.25v-6.75h1.25v6.75Z"/><path d="m646,145.91c0-.19.06-.35.18-.47s.29-.18.49-.18.37.06.49.18.19.28.19.47-.06.35-.18.47c-.12.13-.29.19-.5.19s-.37-.06-.49-.19-.18-.28-.18-.47Zm1.3,5.99h-1.25v-4.75h1.25v4.75Z"/><path d="m648.12,149.37c0-.72.17-1.29.51-1.7s.81-.62,1.41-.62,1.08.21,1.42.62.51.98.51,1.71v.3c0,.72-.17,1.29-.5,1.7-.34.41-.81.61-1.42.61s-1.08-.2-1.42-.61c-.34-.41-.51-.98-.51-1.7v-.3h0Zm1.25.3c0,.85.23,1.27.68,1.27.42,0,.64-.35.68-1.06v-.52c0-.43-.06-.75-.18-.96s-.29-.31-.51-.31-.38.1-.5.31c-.12.21-.18.53-.18.96v.31h.01Z"/><path d="m653.86,147.15l.04.47c.28-.37.65-.56,1.1-.56.82,0,1.24.57,1.26,1.72v3.12h-1.25v-3.03c0-.27-.04-.46-.12-.59-.08-.12-.22-.18-.42-.18-.23,0-.4.12-.53.35v3.45h-1.25v-4.75h1.17Z"/></g><g><path d="m600.57,157.36h-1.59v5.34h-1.3v-5.34h-1.56v-1.08h4.45v1.08Z"/><path d="m601.11,160.16c0-.72.17-1.29.51-1.7s.81-.62,1.42-.62,1.08.21,1.42.62.51.98.51,1.71v.3c0,.73-.17,1.29-.51,1.7s-.81.61-1.42.61-1.09-.2-1.43-.61c-.34-.41-.51-.98-.51-1.71v-.3h.01Zm1.25.31c0,.85.23,1.28.68,1.28.42,0,.65-.36.68-1.07v-.52c0-.43-.06-.76-.18-.97s-.29-.31-.51-.31-.38.1-.5.31c-.12.21-.18.53-.18.97v.31h.01Z"/><path d="m607.17,156.76v1.17h.64v.93h-.64v2.37c0,.19.03.32.08.39s.15.11.3.11c.12,0,.22,0,.29-.03v.97c-.22.08-.45.12-.7.12-.8,0-1.21-.46-1.22-1.38v-2.54h-.55v-.93h.55v-1.17h1.25Z"/><path d="m610.75,162.7c-.04-.07-.07-.2-.11-.37-.22.31-.53.46-.91.46s-.73-.13-.99-.4c-.26-.26-.39-.61-.39-1.03,0-.5.16-.89.48-1.16s.78-.41,1.38-.42h.38v-.38c0-.21-.04-.37-.11-.45-.07-.09-.18-.13-.32-.13-.31,0-.47.18-.47.55h-1.25c0-.44.17-.8.5-1.09s.75-.43,1.25-.43.93.14,1.21.41c.29.27.43.66.43,1.17v2.24c0,.41.06.73.18.97v.07h-1.26Zm-.74-.9c.14,0,.26-.03.35-.08.1-.06.17-.12.22-.2v-.99h-.3c-.21,0-.38.07-.5.2-.12.14-.18.32-.18.54,0,.35.14.53.41.53h0Z"/><path d="m613.99,162.7h-1.25v-6.77h1.25v6.77Z"/><path d="m619.37,162.7c-.04-.07-.07-.2-.11-.37-.22.31-.53.46-.91.46s-.73-.13-.99-.4c-.26-.26-.39-.61-.39-1.03,0-.5.16-.89.48-1.16s.78-.41,1.38-.42h.38v-.38c0-.21-.04-.37-.11-.45-.07-.09-.18-.13-.32-.13-.31,0-.47.18-.47.55h-1.25c0-.44.17-.8.5-1.09s.75-.43,1.25-.43.93.14,1.21.41c.29.27.43.66.43,1.17v2.24c0,.41.06.73.18.97v.07h-1.26Zm-.74-.9c.14,0,.26-.03.35-.08.1-.06.17-.12.22-.2v-.99h-.3c-.21,0-.38.07-.5.2-.12.14-.18.32-.18.54,0,.35.14.53.41.53h0Z"/><path d="m622.48,157.93l.04.44c.28-.35.65-.53,1.11-.53s.81.21,1.01.64c.27-.43.66-.64,1.17-.64.83,0,1.26.58,1.28,1.73v3.12h-1.25v-3.04c0-.28-.04-.47-.12-.59s-.21-.18-.39-.18c-.23,0-.41.14-.52.43v3.38h-1.24v-3.04c0-.27-.04-.47-.11-.59s-.2-.18-.39-.18c-.21,0-.39.12-.51.35v3.46h-1.25v-4.77h1.17Z"/><path d="m627.86,160.16c0-.72.17-1.29.51-1.7s.81-.62,1.42-.62,1.08.21,1.42.62.51.98.51,1.71v.3c0,.73-.17,1.29-.51,1.7s-.81.61-1.42.61-1.09-.2-1.43-.61c-.34-.41-.51-.98-.51-1.71v-.3h.01Zm1.25.31c0,.85.23,1.28.68,1.28.42,0,.65-.36.68-1.07v-.52c0-.43-.06-.76-.18-.97s-.29-.31-.51-.31-.38.1-.5.31c-.12.21-.18.53-.18.97v.31h.01Z"/><path d="m634.82,162.26c-.26.35-.61.52-1.04.52s-.77-.15-1-.45-.34-.74-.34-1.32v-3.09h1.25v3.12c0,.46.16.7.46.7s.49-.12.62-.37v-3.45h1.26v4.77h-1.17l-.04-.44h0Z"/><path d="m638.06,157.93l.04.47c.28-.37.65-.56,1.11-.56.82,0,1.24.57,1.26,1.72v3.13h-1.25v-3.04c0-.27-.04-.47-.12-.59s-.22-.18-.42-.18c-.23,0-.4.12-.53.35v3.46h-1.25v-4.77h1.17,0Z"/><path d="m642.81,156.76v1.17h.64v.93h-.64v2.37c0,.19.03.32.08.39s.15.11.3.11c.12,0,.22,0,.29-.03v.97c-.22.08-.45.12-.7.12-.8,0-1.21-.46-1.22-1.38v-2.54h-.55v-.93h.55v-1.17h1.25Z"/><path d="m649.88,160.47c0,.75-.13,1.32-.38,1.72-.26.4-.64.6-1.15.6-.39,0-.7-.16-.93-.47v2.22h-1.25v-6.6h1.15l.04.44c.24-.35.56-.52.97-.52.51,0,.89.19,1.15.56s.39.94.39,1.7v.37-.02Zm-1.23-.31c0-.46-.05-.79-.15-.98-.1-.19-.27-.29-.51-.29-.26,0-.44.11-.56.32v2.23c.11.21.3.31.57.31.25,0,.42-.1.51-.31.1-.21.14-.53.14-.97v-.31h0Z"/><path d="m652.9,162.7c-.04-.07-.07-.2-.11-.37-.22.31-.53.46-.91.46s-.73-.13-.99-.4c-.26-.26-.39-.61-.39-1.03,0-.5.16-.89.48-1.16s.78-.41,1.38-.42h.38v-.38c0-.21-.04-.37-.11-.45-.07-.09-.18-.13-.32-.13-.31,0-.47.18-.47.55h-1.25c0-.44.17-.8.5-1.09s.75-.43,1.25-.43.93.14,1.21.41c.29.27.43.66.43,1.17v2.24c0,.41.06.73.18.97v.07h-1.26Zm-.74-.9c.14,0,.26-.03.35-.08.1-.06.17-.12.22-.2v-.99h-.3c-.21,0-.38.07-.5.2-.12.14-.18.32-.18.54,0,.35.14.53.41.53h0Z"/><path d="m654.81,156.7c0-.19.06-.35.18-.48.12-.12.29-.19.49-.19s.37.06.49.19c.12.12.18.28.18.48s-.06.35-.18.48-.29.19-.5.19-.37-.06-.5-.19-.18-.29-.18-.48h.02Zm1.31,6h-1.25v-4.77h1.25v4.77Z"/><path d="m656.91,160.17c0-.78.13-1.36.4-1.75.26-.38.65-.58,1.16-.58.37,0,.67.16.92.48v-2.39h1.26v6.77h-1.13l-.06-.48c-.26.38-.58.57-.99.57-.5,0-.88-.19-1.14-.57s-.4-.94-.4-1.68v-.36h-.02Zm1.25.3c0,.47.05.8.15.98s.27.28.51.28.43-.11.56-.33v-2.18c-.12-.23-.31-.35-.56-.35-.23,0-.4.09-.5.28s-.16.51-.16.99v.33h0Z"/><path d="m665.94,162.7c-.04-.07-.07-.2-.11-.37-.22.31-.53.46-.91.46s-.73-.13-.99-.4c-.26-.26-.39-.61-.39-1.03,0-.5.16-.89.48-1.16s.78-.41,1.38-.42h.38v-.38c0-.21-.04-.37-.11-.45-.07-.09-.18-.13-.32-.13-.31,0-.47.18-.47.55h-1.25c0-.44.17-.8.5-1.09s.75-.43,1.25-.43.93.14,1.21.41c.29.27.43.66.43,1.17v2.24c0,.41.06.73.18.97v.07h-1.26Zm-.74-.9c.14,0,.26-.03.35-.08.1-.06.17-.12.22-.2v-.99h-.3c-.21,0-.38.07-.5.2-.12.14-.18.32-.18.54,0,.35.14.53.41.53h0Z"/><path d="m669.99,161.42c0-.11-.05-.2-.15-.29-.1-.09-.33-.21-.68-.36-.51-.21-.87-.42-1.06-.65s-.29-.5-.29-.83c0-.42.15-.76.45-1.03s.7-.41,1.2-.41.94.13,1.25.41c.31.27.47.63.47,1.09h-1.25c0-.39-.16-.58-.48-.58-.13,0-.24.04-.33.12-.08.08-.13.2-.13.34,0,.11.05.2.14.28s.32.2.67.35c.51.19.87.4,1.08.63.21.23.32.53.32.9,0,.43-.16.77-.48,1.03s-.74.39-1.26.39c-.35,0-.66-.07-.93-.2s-.48-.33-.63-.57-.23-.51-.23-.79h1.18c0,.22.06.38.15.49.1.11.25.16.47.16.33,0,.5-.15.5-.45l.02-.03Z"/></g><g><path d="m614.93,170.99c0-.72.17-1.29.51-1.7s.81-.62,1.41-.62,1.08.21,1.42.62.51.98.51,1.71v.3c0,.72-.17,1.29-.5,1.7-.34.41-.81.61-1.42.61s-1.08-.2-1.42-.61c-.34-.41-.51-.98-.51-1.7v-.3h0Zm1.25.3c0,.85.23,1.27.68,1.27.42,0,.64-.35.68-1.06v-.52c0-.43-.06-.75-.18-.96s-.29-.31-.51-.31-.38.1-.5.31c-.12.21-.18.53-.18.96v.31h.01Z"/><path d="m619.8,173.52v-3.82h-.58v-.93h.58v-.43c0-.52.14-.93.42-1.22.27-.29.65-.44,1.14-.44.15,0,.33.03.56.09v.99c-.09-.03-.19-.04-.31-.04-.37,0-.55.22-.55.66v.39h.74v.93h-.74v3.82h-1.26Z"/><path d="m627.25,173.52h-1.25v-4.89l-1.22.47v-1.04l2.33-.95h.13v6.41h0Z"/><path d="m629.55,174.07h-.91l1.92-6.95h.91l-1.92,6.95Z"/><path d="m635.82,173.52h-3.77v-.88l1.73-2.2c.22-.3.38-.57.49-.8.1-.23.16-.45.16-.66,0-.28-.05-.51-.15-.67-.1-.16-.24-.24-.42-.24-.2,0-.36.09-.48.28s-.18.45-.18.79h-1.25c0-.39.08-.75.24-1.08s.39-.58.69-.76c.29-.18.63-.27,1-.27.57,0,1.01.16,1.33.47s.47.76.47,1.34c0,.36-.09.73-.26,1.1-.17.37-.49.83-.95,1.37l-.82,1.17h2.17v1.03h0Z"/><path d="m636.73,170.37l.32-3.25h3.1v1.06h-2.08l-.11,1.37c.24-.16.49-.24.74-.24.53,0,.93.19,1.22.56.29.38.43.91.43,1.59,0,.64-.17,1.16-.51,1.55s-.79.59-1.36.59c-.34,0-.65-.08-.94-.24s-.51-.38-.68-.67c-.17-.28-.25-.61-.25-.97h1.23c.02.27.09.47.2.62s.25.22.43.22c.21,0,.36-.1.47-.3s.17-.49.17-.89c0-.37-.07-.65-.2-.83-.13-.19-.32-.28-.56-.28s-.42.08-.54.24l-.08.11-.99-.25h0Z"/><path d="m641.65,174.07h-.91l1.92-6.95h.91l-1.92,6.95Z"/><path d="m647.93,173.52h-3.77v-.88l1.73-2.2c.22-.3.38-.57.49-.8.1-.23.16-.45.16-.66,0-.28-.05-.51-.15-.67-.1-.16-.24-.24-.42-.24-.2,0-.36.09-.48.28s-.18.45-.18.79h-1.25c0-.39.08-.75.24-1.08s.39-.58.69-.76c.29-.18.63-.27,1-.27.57,0,1.01.16,1.33.47s.47.76.47,1.34c0,.36-.09.73-.26,1.1-.17.37-.49.83-.95,1.37l-.82,1.17h2.17v1.03h0Z"/><path d="m649.82,169.75h.6c.23,0,.4-.08.5-.24.11-.16.16-.37.16-.64s-.06-.45-.17-.6c-.11-.14-.26-.21-.44-.21-.17,0-.31.07-.42.2-.11.13-.16.3-.16.51h-1.24c0-.33.08-.63.23-.9.15-.26.37-.47.65-.62s.58-.22.92-.22c.59,0,1.05.16,1.38.49s.5.77.5,1.34c0,.29-.08.56-.23.81-.15.25-.35.44-.59.57.3.13.53.32.67.58.15.26.22.56.22.91,0,.57-.18,1.02-.54,1.37-.36.34-.84.51-1.43.51-.55,0-.99-.17-1.33-.51s-.51-.78-.51-1.33h1.24c0,.23.06.42.18.58s.27.23.46.23c.21,0,.38-.08.51-.24.12-.16.19-.37.19-.63,0-.63-.24-.95-.73-.95h-.61v-1h-.01Z"/></g><g><path d="m14.68,446.21h-1.25v-4.89l-1.22.47v-1.04l2.33-.95h.13v6.41h0Z"/><path d="m16.98,446.76h-.91l1.92-6.95h.91l-1.92,6.95Z"/><path d="m22.22,446.21h-1.25v-4.89l-1.22.47v-1.04l2.33-.95h.13v6.41h0Z"/><path d="m24.52,446.76h-.91l1.92-6.95h.91l-1.92,6.95Z"/><path d="m30.79,446.21h-3.77v-.88l1.73-2.2c.22-.3.38-.57.49-.8.1-.23.16-.45.16-.66,0-.28-.05-.51-.15-.67-.1-.16-.24-.24-.42-.24-.2,0-.36.09-.48.28s-.18.45-.18.79h-1.25c0-.39.08-.75.24-1.08s.39-.58.69-.76c.29-.18.63-.27,1-.27.57,0,1.01.16,1.33.47.31.31.47.76.47,1.34,0,.36-.09.73-.26,1.1s-.49.83-.95,1.37l-.82,1.17h2.18v1.03h-.01Z"/><path d="m35.29,443.56c0,.88-.16,1.56-.48,2.03-.32.47-.78.7-1.37.7s-1.04-.23-1.36-.68c-.32-.46-.49-1.11-.5-1.96v-1.21c0-.88.16-1.56.48-2.02.32-.47.78-.7,1.38-.7s1.06.23,1.38.69.48,1.12.49,1.98v1.17h-.02Zm-1.25-1.3c0-.5-.05-.88-.15-1.13-.1-.25-.25-.38-.47-.38-.4,0-.6.46-.62,1.38v1.59c0,.52.05.9.15,1.15.1.25.26.38.47.38s.35-.12.45-.35c.1-.24.15-.6.16-1.08v-1.56h0Z"/><path d="m39.9,446.21h-3.77v-.88l1.73-2.2c.22-.3.38-.57.49-.8.1-.23.16-.45.16-.66,0-.28-.05-.51-.15-.67-.1-.16-.24-.24-.42-.24-.2,0-.36.09-.48.28s-.18.45-.18.79h-1.25c0-.39.08-.75.24-1.08s.39-.58.69-.76c.29-.18.63-.27,1-.27.57,0,1.01.16,1.33.47.31.31.47.76.47,1.34,0,.36-.09.73-.26,1.1s-.49.83-.95,1.37l-.82,1.17h2.18v1.03h-.01Z"/><path d="m44.36,446.21h-3.77v-.88l1.73-2.2c.22-.3.38-.57.49-.8.1-.23.16-.45.16-.66,0-.28-.05-.51-.15-.67-.1-.16-.24-.24-.42-.24-.2,0-.36.09-.48.28s-.18.45-.18.79h-1.25c0-.39.08-.75.24-1.08s.39-.58.69-.76c.29-.18.63-.27,1-.27.57,0,1.01.16,1.33.47.31.31.47.76.47,1.34,0,.36-.09.73-.26,1.1s-.49.83-.95,1.37l-.82,1.17h2.18v1.03h-.01Z"/></g><g><path d="m105.2,442.44h.6c.23,0,.4-.08.5-.24.11-.16.16-.37.16-.64s-.06-.45-.16-.6c-.11-.14-.26-.21-.44-.21-.17,0-.31.07-.42.2-.11.14-.16.31-.16.51h-1.24c0-.33.08-.63.23-.9.15-.26.37-.47.65-.62s.58-.22.92-.22c.59,0,1.05.16,1.38.49.33.32.5.77.5,1.34,0,.29-.08.56-.23.81-.15.25-.35.44-.6.57.3.13.53.32.67.58s.22.56.22.91c0,.57-.18,1.02-.54,1.37-.36.34-.84.51-1.43.51-.55,0-.99-.17-1.33-.51s-.51-.78-.51-1.33h1.24c0,.23.06.42.18.58s.27.23.46.23c.21,0,.38-.08.51-.24s.19-.37.19-.63c0-.63-.24-.95-.73-.95h-.61v-1h-.01Z"/><path d="m109.14,446.76h-.91l1.92-6.95h.91l-1.92,6.95Z"/><path d="m114.38,446.21h-1.25v-4.89l-1.22.47v-1.04l2.33-.95h.13v6.41h.01Z"/><path d="m116.68,446.76h-.91l1.92-6.95h.91l-1.92,6.95Z"/><path d="m122.95,446.21h-3.77v-.88l1.73-2.2c.22-.3.38-.57.49-.8.1-.23.16-.45.16-.66,0-.28-.05-.51-.15-.67s-.24-.24-.42-.24c-.2,0-.36.09-.48.28-.12.19-.18.45-.18.79h-1.25c0-.39.08-.75.24-1.08s.39-.58.69-.76c.29-.18.63-.27,1-.27.57,0,1.01.16,1.33.47.31.31.47.76.47,1.34,0,.36-.09.73-.26,1.1s-.49.83-.95,1.37l-.82,1.17h2.18v1.03h0Z"/><path d="m127.45,443.56c0,.88-.16,1.56-.48,2.03s-.78.7-1.37.7-1.04-.23-1.36-.68c-.32-.46-.49-1.11-.5-1.96v-1.21c0-.88.16-1.56.48-2.02.32-.47.78-.7,1.38-.7s1.06.23,1.38.69.48,1.12.49,1.98v1.17h-.02Zm-1.25-1.3c0-.5-.05-.88-.15-1.13s-.25-.38-.47-.38c-.4,0-.6.46-.62,1.38v1.59c0,.52.05.9.15,1.15s.26.38.47.38.35-.12.45-.35c.1-.24.15-.6.16-1.08v-1.56h0Z"/><path d="m132.06,446.21h-3.77v-.88l1.73-2.2c.22-.3.38-.57.49-.8.1-.23.16-.45.16-.66,0-.28-.05-.51-.15-.67s-.24-.24-.42-.24c-.2,0-.36.09-.48.28-.12.19-.18.45-.18.79h-1.25c0-.39.08-.75.24-1.08s.39-.58.69-.76c.29-.18.63-.27,1-.27.57,0,1.01.16,1.33.47.31.31.47.76.47,1.34,0,.36-.09.73-.26,1.1s-.49.83-.95,1.37l-.82,1.17h2.18v1.03h0Z"/><path d="m136.52,446.21h-3.77v-.88l1.73-2.2c.22-.3.38-.57.49-.8.1-.23.16-.45.16-.66,0-.28-.05-.51-.15-.67s-.24-.24-.42-.24c-.2,0-.36.09-.48.28-.12.19-.18.45-.18.79h-1.25c0-.39.08-.75.24-1.08s.39-.58.69-.76c.29-.18.63-.27,1-.27.57,0,1.01.16,1.33.47.31.31.47.76.47,1.34,0,.36-.09.73-.26,1.1s-.49.83-.95,1.37l-.82,1.17h2.18v1.03h0Z"/></g><g><path d="m199.48,443.06l.32-3.25h3.1v1.06h-2.08l-.11,1.37c.24-.16.49-.24.74-.24.53,0,.93.19,1.22.56.29.38.43.9.43,1.59,0,.64-.17,1.16-.51,1.55s-.79.59-1.36.59c-.34,0-.65-.08-.94-.24s-.51-.38-.68-.67-.25-.61-.25-.97h1.23c.02.27.09.47.2.62s.25.22.43.22c.21,0,.36-.1.47-.3.11-.2.17-.49.17-.89,0-.37-.07-.65-.2-.83s-.32-.28-.56-.28-.42.08-.54.24l-.08.11-.99-.25h-.01Z"/><path d="m204.4,446.76h-.91l1.92-6.95h.91l-1.92,6.95Z"/><path d="m209.64,446.21h-1.25v-4.89l-1.22.47v-1.04l2.33-.95h.13v6.41h.01Z"/><path d="m211.94,446.76h-.91l1.92-6.95h.91l-1.92,6.95Z"/><path d="m218.21,446.21h-3.77v-.88l1.73-2.2c.22-.3.38-.57.49-.8.1-.23.16-.45.16-.66,0-.28-.05-.51-.15-.67s-.24-.24-.42-.24c-.2,0-.36.09-.48.28-.12.19-.18.45-.18.79h-1.25c0-.39.08-.75.24-1.08s.39-.58.69-.76c.29-.18.63-.27,1-.27.57,0,1.01.16,1.33.47.31.31.47.76.47,1.34,0,.36-.09.73-.26,1.1s-.49.83-.95,1.37l-.82,1.17h2.18v1.03h0Z"/><path d="m222.71,443.56c0,.88-.16,1.56-.48,2.03s-.78.7-1.37.7-1.04-.23-1.36-.68c-.32-.46-.49-1.11-.5-1.96v-1.21c0-.88.16-1.56.48-2.02.32-.47.78-.7,1.38-.7s1.06.23,1.38.69.48,1.12.49,1.98v1.17h-.02Zm-1.25-1.3c0-.5-.05-.88-.15-1.13s-.25-.38-.47-.38c-.4,0-.6.46-.62,1.38v1.59c0,.52.05.9.15,1.15s.26.38.47.38.35-.12.45-.35c.1-.24.15-.6.16-1.08v-1.56h0Z"/><path d="m227.32,446.21h-3.77v-.88l1.73-2.2c.22-.3.38-.57.49-.8.1-.23.16-.45.16-.66,0-.28-.05-.51-.15-.67s-.24-.24-.42-.24c-.2,0-.36.09-.48.28-.12.19-.18.45-.18.79h-1.25c0-.39.08-.75.24-1.08s.39-.58.69-.76c.29-.18.63-.27,1-.27.57,0,1.01.16,1.33.47.31.31.47.76.47,1.34,0,.36-.09.73-.26,1.1s-.49.83-.95,1.37l-.82,1.17h2.18v1.03h0Z"/><path d="m231.78,446.21h-3.77v-.88l1.73-2.2c.22-.3.38-.57.49-.8.1-.23.16-.45.16-.66,0-.28-.05-.51-.15-.67s-.24-.24-.42-.24c-.2,0-.36.09-.48.28-.12.19-.18.45-.18.79h-1.25c0-.39.08-.75.24-1.08s.39-.58.69-.76c.29-.18.63-.27,1-.27.57,0,1.01.16,1.33.47.31.31.47.76.47,1.34,0,.36-.09.73-.26,1.1s-.49.83-.95,1.37l-.82,1.17h2.18v1.03h0Z"/></g><g><path d="m298.36,440.53l-2.02,5.68h-1.31l2.03-5.37h-2.57v-1.03h3.87v.72Z"/><path d="m299.65,446.76h-.91l1.92-6.95h.91l-1.92,6.95Z"/><path d="m304.89,446.21h-1.25v-4.89l-1.22.47v-1.04l2.33-.95h.13v6.41h.01Z"/><path d="m307.19,446.76h-.91l1.92-6.95h.91l-1.92,6.95Z"/><path d="m313.46,446.21h-3.77v-.88l1.73-2.2c.22-.3.38-.57.49-.8.1-.23.16-.45.16-.66,0-.28-.05-.51-.15-.67s-.24-.24-.42-.24c-.2,0-.36.09-.48.28-.12.19-.18.45-.18.79h-1.25c0-.39.08-.75.24-1.08s.39-.58.69-.76c.29-.18.63-.27,1-.27.57,0,1.01.16,1.33.47.31.31.47.76.47,1.34,0,.36-.09.73-.26,1.1s-.49.83-.95,1.37l-.82,1.17h2.18v1.03h0Z"/><path d="m317.96,443.56c0,.88-.16,1.56-.48,2.03s-.78.7-1.37.7-1.04-.23-1.36-.68c-.32-.46-.49-1.11-.5-1.96v-1.21c0-.88.16-1.56.48-2.02.32-.47.78-.7,1.38-.7s1.06.23,1.38.69.48,1.12.49,1.98v1.17h-.02Zm-1.25-1.3c0-.5-.05-.88-.15-1.13s-.25-.38-.47-.38c-.4,0-.6.46-.62,1.38v1.59c0,.52.05.9.15,1.15s.26.38.47.38.35-.12.45-.35c.1-.24.15-.6.16-1.08v-1.56h0Z"/><path d="m322.57,446.21h-3.77v-.88l1.73-2.2c.22-.3.38-.57.49-.8.1-.23.16-.45.16-.66,0-.28-.05-.51-.15-.67s-.24-.24-.42-.24c-.2,0-.36.09-.48.28-.12.19-.18.45-.18.79h-1.25c0-.39.08-.75.24-1.08s.39-.58.69-.76c.29-.18.63-.27,1-.27.57,0,1.01.16,1.33.47.31.31.47.76.47,1.34,0,.36-.09.73-.26,1.1s-.49.83-.95,1.37l-.82,1.17h2.18v1.03h0Z"/><path d="m327.03,446.21h-3.77v-.88l1.73-2.2c.22-.3.38-.57.49-.8.1-.23.16-.45.16-.66,0-.28-.05-.51-.15-.67s-.24-.24-.42-.24c-.2,0-.36.09-.48.28-.12.19-.18.45-.18.79h-1.25c0-.39.08-.75.24-1.08s.39-.58.69-.76c.29-.18.63-.27,1-.27.57,0,1.01.16,1.33.47.31.31.47.76.47,1.34,0,.36-.09.73-.26,1.1s-.49.83-.95,1.37l-.82,1.17h2.18v1.03h0Z"/></g><g><path d="m393.86,443.74c-.26.27-.55.4-.87.4-.49,0-.87-.2-1.15-.59-.28-.39-.42-.91-.42-1.57,0-.42.08-.81.24-1.16s.38-.62.66-.82c.28-.19.6-.29.95-.29s.68.11.96.32c.28.21.5.52.66.92.16.4.23.85.23,1.36v.45c0,1.09-.24,1.94-.72,2.56-.48.61-1.16.93-2.04.94h-.13v-1.07h.08c.49,0,.85-.13,1.1-.38.24-.25.39-.61.44-1.09v.02Zm-.54-.57c.24,0,.43-.16.57-.49v-.57c0-.42-.06-.75-.17-.99s-.26-.36-.44-.36-.32.12-.43.35c-.11.24-.17.52-.17.86,0,.37.06.66.17.87s.27.32.47.32h0Z"/><path d="m396.49,446.76h-.91l1.92-6.95h.91l-1.92,6.95Z"/><path d="m401.73,446.21h-1.25v-4.89l-1.22.47v-1.04l2.33-.95h.13v6.41h0Z"/><path d="m404.03,446.76h-.91l1.92-6.95h.91l-1.92,6.95Z"/><path d="m410.3,446.21h-3.77v-.88l1.73-2.2c.22-.3.38-.57.49-.8.1-.23.16-.45.16-.66,0-.28-.05-.51-.15-.67-.1-.16-.24-.24-.42-.24-.2,0-.36.09-.48.28s-.18.45-.18.79h-1.25c0-.39.08-.75.24-1.08s.39-.58.69-.76c.29-.18.63-.27,1-.27.57,0,1.01.16,1.33.47s.47.76.47,1.34c0,.36-.09.73-.26,1.1s-.49.83-.95,1.37l-.82,1.17h2.17v1.03h0Z"/><path d="m414.8,443.56c0,.88-.16,1.56-.48,2.03s-.78.7-1.37.7-1.04-.23-1.37-.68c-.32-.46-.49-1.11-.5-1.96v-1.21c0-.88.16-1.56.48-2.02.32-.47.78-.7,1.38-.7s1.06.23,1.38.69.48,1.12.49,1.98v1.17h-.01Zm-1.25-1.3c0-.5-.05-.88-.15-1.13-.1-.25-.26-.38-.47-.38-.39,0-.6.46-.62,1.38v1.59c0,.52.05.9.15,1.15.1.25.26.38.47.38s.35-.12.45-.35c.1-.24.15-.6.16-1.08v-1.56h.01Z"/><path d="m419.4,446.21h-3.77v-.88l1.73-2.2c.22-.3.38-.57.49-.8.1-.23.16-.45.16-.66,0-.28-.05-.51-.15-.67-.1-.16-.24-.24-.42-.24-.2,0-.36.09-.48.28s-.18.45-.18.79h-1.25c0-.39.08-.75.24-1.08s.39-.58.69-.76c.29-.18.63-.27,1-.27.57,0,1.01.16,1.33.47s.47.76.47,1.34c0,.36-.09.73-.26,1.1s-.49.83-.95,1.37l-.82,1.17h2.17v1.03h0Z"/><path d="m423.87,446.21h-3.77v-.88l1.73-2.2c.22-.3.38-.57.49-.8.1-.23.16-.45.16-.66,0-.28-.05-.51-.15-.67-.1-.16-.24-.24-.42-.24-.2,0-.36.09-.48.28s-.18.45-.18.79h-1.25c0-.39.08-.75.24-1.08s.39-.58.69-.76c.29-.18.63-.27,1-.27.57,0,1.01.16,1.33.47s.47.76.47,1.34c0,.36-.09.73-.26,1.1s-.49.83-.95,1.37l-.82,1.17h2.17v1.03h0Z"/></g><g><path d="m487.17,446.21h-1.25v-4.89l-1.22.47v-1.04l2.33-.95h.13v6.41h0Z"/><path d="m491.72,446.21h-1.25v-4.89l-1.22.47v-1.04l2.33-.95h.13v6.41h0Z"/><path d="m494.02,446.76h-.91l1.92-6.95h.91l-1.92,6.95Z"/><path d="m499.27,446.21h-1.25v-4.89l-1.22.47v-1.04l2.33-.95h.13v6.41h0Z"/><path d="m501.57,446.76h-.91l1.92-6.95h.91l-1.92,6.95Z"/><path d="m507.84,446.21h-3.77v-.88l1.73-2.2c.22-.3.38-.57.49-.8.1-.23.16-.45.16-.66,0-.28-.05-.51-.15-.67-.1-.16-.24-.24-.42-.24-.2,0-.36.09-.48.28s-.18.45-.18.79h-1.25c0-.39.08-.75.24-1.08s.39-.58.69-.76c.29-.18.63-.27,1-.27.57,0,1.01.16,1.33.47s.47.76.47,1.34c0,.36-.09.73-.26,1.1s-.49.83-.95,1.37l-.82,1.17h2.17v1.03h0Z"/><path d="m512.34,443.56c0,.88-.16,1.56-.48,2.03s-.78.7-1.37.7-1.04-.23-1.37-.68c-.32-.46-.49-1.11-.5-1.96v-1.21c0-.88.16-1.56.48-2.02.32-.47.78-.7,1.38-.7s1.06.23,1.38.69.48,1.12.49,1.98v1.17h-.01Zm-1.25-1.3c0-.5-.05-.88-.15-1.13-.1-.25-.26-.38-.47-.38-.39,0-.6.46-.62,1.38v1.59c0,.52.05.9.15,1.15.1.25.26.38.47.38s.35-.12.45-.35c.1-.24.15-.6.16-1.08v-1.56h.01Z"/><path d="m516.85,446.21h-3.77v-.88l1.73-2.2c.22-.3.38-.57.49-.8.1-.23.16-.45.16-.66,0-.28-.05-.51-.15-.67-.1-.16-.24-.24-.42-.24-.2,0-.36.09-.48.28s-.18.45-.18.79h-1.25c0-.39.08-.75.24-1.08s.39-.58.69-.76c.29-.18.63-.27,1-.27.57,0,1.01.16,1.33.47s.47.76.47,1.34c0,.36-.09.73-.26,1.1s-.49.83-.95,1.37l-.82,1.17h2.17v1.03h0Z"/><path d="m521.4,446.21h-3.77v-.88l1.73-2.2c.22-.3.38-.57.49-.8.1-.23.16-.45.16-.66,0-.28-.05-.51-.15-.67-.1-.16-.24-.24-.42-.24-.2,0-.36.09-.48.28s-.18.45-.18.79h-1.25c0-.39.08-.75.24-1.08s.39-.58.69-.76c.29-.18.63-.27,1-.27.57,0,1.01.16,1.33.47s.47.76.47,1.34c0,.36-.09.73-.26,1.1s-.49.83-.95,1.37l-.82,1.17h2.17v1.03h0Z"/></g><g><path d="m584.72,446.21h-1.25v-4.89l-1.22.47v-1.04l2.33-.95h.13v6.41h0Z"/><path d="m587.03,446.76h-.91l1.92-6.95h.91l-1.92,6.95Z"/><path d="m592.27,446.21h-1.25v-4.89l-1.22.47v-1.04l2.33-.95h.13v6.41h0Z"/><path d="m594.57,446.76h-.91l1.92-6.95h.91l-1.92,6.95Z"/><path d="m600.84,446.21h-3.77v-.88l1.73-2.2c.22-.3.38-.57.49-.8.1-.23.16-.45.16-.66,0-.28-.05-.51-.15-.67-.1-.16-.24-.24-.42-.24-.2,0-.36.09-.48.28s-.18.45-.18.79h-1.25c0-.39.08-.75.24-1.08s.39-.58.69-.76c.29-.18.63-.27,1-.27.57,0,1.01.16,1.33.47s.47.76.47,1.34c0,.36-.09.73-.26,1.1s-.49.83-.95,1.37l-.82,1.17h2.17v1.03h0Z"/><path d="m605.34,443.56c0,.88-.16,1.56-.48,2.03s-.78.7-1.37.7-1.04-.23-1.37-.68c-.32-.46-.49-1.11-.5-1.96v-1.21c0-.88.16-1.56.48-2.02.32-.47.78-.7,1.38-.7s1.06.23,1.38.69.48,1.12.49,1.98v1.17h-.01Zm-1.25-1.3c0-.5-.05-.88-.15-1.13-.1-.25-.26-.38-.47-.38-.39,0-.6.46-.62,1.38v1.59c0,.52.05.9.15,1.15.1.25.26.38.47.38s.35-.12.45-.35c.1-.24.15-.6.16-1.08v-1.56h.01Z"/><path d="m609.94,446.21h-3.77v-.88l1.73-2.2c.22-.3.38-.57.49-.8.1-.23.16-.45.16-.66,0-.28-.05-.51-.15-.67-.1-.16-.24-.24-.42-.24-.2,0-.36.09-.48.28s-.18.45-.18.79h-1.25c0-.39.08-.75.24-1.08s.39-.58.69-.76c.29-.18.63-.27,1-.27.57,0,1.01.16,1.33.47s.47.76.47,1.34c0,.36-.09.73-.26,1.1s-.49.83-.95,1.37l-.82,1.17h2.17v1.03h0Z"/><path d="m611.75,442.44h.6c.23,0,.4-.08.5-.24.11-.16.16-.37.16-.64s-.06-.45-.17-.6c-.11-.14-.26-.21-.44-.21-.17,0-.31.07-.42.2-.11.14-.16.31-.16.51h-1.24c0-.33.08-.63.23-.9.15-.26.37-.47.65-.62s.58-.22.92-.22c.59,0,1.05.16,1.38.49.33.32.5.77.5,1.34,0,.29-.08.56-.23.81-.15.25-.35.44-.59.57.3.13.53.32.67.58.15.26.22.56.22.91,0,.57-.18,1.02-.54,1.37-.36.34-.84.51-1.43.51-.55,0-.99-.17-1.33-.51s-.51-.78-.51-1.33h1.24c0,.23.06.42.18.58.12.16.27.23.46.23.21,0,.38-.08.51-.24.12-.16.19-.37.19-.63,0-.63-.24-.95-.73-.95h-.61v-1h-.01Z"/></g><g><path d="m21.93,252.73v1.95l1.45.38v1.51l-7.08-2.21v-1.31l7.08-2.23v1.53l-1.45.38h0Zm-1.19,1.64v-1.32l-2.52.66,2.52.66Z"/><path d="m18.11,248.91l.49-.04c-.39-.31-.58-.71-.58-1.22s.24-.9.71-1.11c-.47-.3-.71-.73-.71-1.29,0-.92.64-1.39,1.91-1.42h3.45v1.38h-3.36c-.3,0-.52.04-.65.13-.13.08-.2.23-.2.43,0,.26.16.45.47.57h3.74v1.37h-3.35c-.3,0-.52.04-.65.12s-.2.23-.2.43c0,.24.13.42.38.56h3.82v1.38h-5.26v-1.29h-.01Z"/><path d="m20.58,242.94c-.8,0-1.42-.19-1.88-.56-.45-.38-.68-.9-.68-1.56s.23-1.19.68-1.57,1.08-.56,1.89-.56h.34c.8,0,1.43.19,1.88.56.45.37.68.9.68,1.57s-.23,1.2-.68,1.57c-.45.37-1.08.56-1.88.56h-.35Zm.34-1.39c.94,0,1.41-.25,1.41-.75,0-.46-.39-.71-1.18-.75h-.58c-.48,0-.84.06-1.07.19-.23.13-.35.32-.35.56s.12.42.35.55c.23.13.59.2,1.07.2h.35Z"/><path d="m22.89,235.26c.39.29.58.67.58,1.15s-.17.85-.5,1.1-.82.37-1.45.37h-3.41v-1.38h3.44c.51,0,.77-.18.77-.51,0-.31-.14-.54-.41-.68h-3.8v-1.39h5.26v1.29l-.48.04h0Z"/><path d="m18.11,231.69l.52-.04c-.41-.31-.62-.72-.62-1.22,0-.9.63-1.37,1.9-1.4h3.46v1.38h-3.36c-.3,0-.51.04-.65.13s-.2.25-.2.47c0,.25.13.44.38.58h3.82v1.38h-5.26v-1.29h0Z"/><path d="m16.82,226.42h1.29v-.71h1.03v.71h2.62c.21,0,.35-.03.43-.08s.12-.17.12-.33c0-.13,0-.24-.03-.33h1.07c.09.24.13.5.13.77,0,.89-.51,1.34-1.53,1.35h-2.8v.61h-1.03v-.61h-1.29v-1.38h0Z"/><path d="m20.91,218.54c.83,0,1.46.14,1.9.43.44.28.66.71.66,1.27,0,.43-.17.77-.52,1.03h2.45v1.38h-7.29v-1.27l.48-.05c-.39-.26-.58-.62-.58-1.07,0-.56.2-.98.61-1.27s1.03-.43,1.88-.44h.41Zm-.34,1.36c-.51,0-.87.06-1.08.17s-.32.3-.32.57.12.49.36.62h2.47c.23-.12.34-.33.34-.63,0-.27-.12-.46-.34-.57-.23-.1-.59-.16-1.08-.16h-.35Z"/><path d="m23.38,215.21c-.08.04-.22.08-.41.12.34.25.51.58.51,1s-.15.81-.44,1.1-.67.44-1.13.44c-.55,0-.98-.18-1.28-.53s-.46-.86-.46-1.52v-.42h-.42c-.24,0-.4.04-.5.12s-.15.2-.15.35c0,.34.2.52.6.52v1.38c-.49,0-.89-.18-1.2-.55-.32-.36-.47-.83-.47-1.38s.15-1.02.45-1.34c.3-.32.73-.47,1.29-.47h2.48c.45,0,.81-.07,1.06-.19h.08v1.39-.02Zm-.99.81c0-.15-.03-.28-.09-.39s-.13-.19-.22-.24h-1.09v.33c0,.23.07.42.22.55s.35.2.6.2c.39,0,.58-.15.58-.46h0Z"/><path d="m16.75,213.02c-.21,0-.39-.07-.52-.2s-.2-.32-.2-.54.07-.41.2-.54.31-.2.52-.2.39.07.53.2c.14.13.21.32.21.55s-.07.41-.21.55c-.14.13-.31.2-.53.2v-.02Zm6.62-1.44v1.38h-5.26v-1.38h5.26Z"/><path d="m20.58,210.7c-.86,0-1.5-.15-1.93-.44-.42-.29-.64-.72-.64-1.27,0-.41.18-.74.53-1.01h-2.64v-1.39h7.47v1.25l-.54.06c.42.28.63.65.63,1.09,0,.55-.21.97-.63,1.26s-1.04.44-1.86.45h-.4,0Zm.35-1.38c.52,0,.88-.06,1.09-.17.21-.11.31-.3.31-.56s-.12-.48-.36-.62h-2.4c-.26.14-.39.34-.39.61,0,.25.1.44.31.55s.57.18,1.09.18h.36,0Z"/></g><g><path d="m311.15,460.68v-7.1h1.88c.83,0,1.49.26,1.98.79.49.53.74,1.25.75,2.17v1.15c0,.93-.25,1.67-.74,2.2s-1.17.8-2.04.8h-1.84,0Zm1.43-5.91v4.71h.43c.48,0,.81-.13,1.01-.38.19-.25.3-.69.31-1.3v-1.23c0-.66-.09-1.13-.28-1.39s-.5-.4-.95-.41h-.52Z"/><path d="m319.23,460.68c-.04-.08-.08-.22-.12-.41-.25.34-.58.51-1,.51s-.81-.15-1.1-.44-.44-.67-.44-1.14c0-.55.18-.98.53-1.28s.86-.46,1.52-.46h.42v-.42c0-.24-.04-.4-.12-.5s-.2-.15-.36-.15c-.34,0-.52.2-.52.6h-1.38c0-.49.18-.89.55-1.21.37-.32.83-.48,1.39-.48s1.03.15,1.34.45c.32.3.48.73.48,1.29v2.48c0,.46.07.81.2,1.07v.08h-1.39Zm-.81-.97c.15,0,.28-.03.39-.09.11-.06.19-.13.24-.22v-1.1h-.33c-.23,0-.42.08-.55.22-.14.15-.2.35-.2.6,0,.39.15.58.46.58h-.01Z"/><path d="m323.03,454.11v1.3h.71v1.03h-.71v2.62c0,.21.03.35.09.43s.17.12.33.12c.13,0,.24-.01.33-.03v1.07c-.24.09-.5.13-.77.13-.89,0-1.34-.51-1.35-1.53v-2.81h-.61v-1.03h.61v-1.3h1.38,0Z"/><path d="m326.53,460.78c-.71,0-1.26-.21-1.66-.63s-.59-1.03-.59-1.81v-.42c0-.83.18-1.47.55-1.93.36-.45.89-.68,1.56-.68s1.16.21,1.5.63c.33.42.51,1.05.51,1.88v.68h-2.74c.02.39.11.68.26.86.15.18.39.27.71.27.46,0,.85-.16,1.16-.47l.54.83c-.17.23-.41.42-.74.57s-.67.22-1.05.22h-.01Zm-.87-3.24h1.38v-.13c0-.31-.06-.55-.16-.72-.1-.16-.27-.24-.51-.24s-.42.09-.52.26c-.11.17-.17.45-.19.83Z"/><path d="m331.42,457.87c0-.8.19-1.43.57-1.88s.9-.68,1.56-.68,1.2.23,1.57.68.57,1.08.57,1.89v.34c0,.8-.19,1.43-.56,1.88s-.9.68-1.57.68-1.2-.23-1.58-.68c-.38-.45-.56-1.08-.56-1.89v-.34h0Zm1.38.35c0,.94.25,1.41.76,1.41.46,0,.71-.39.75-1.18v-.58c0-.48-.06-.84-.19-1.07s-.32-.35-.57-.35-.42.12-.55.35c-.13.23-.2.59-.2,1.07v.35h0Z"/><path d="m336.82,460.68v-4.24h-.64v-1.03h.64v-.47c0-.58.16-1.03.46-1.36.3-.32.72-.49,1.26-.49.16,0,.37.03.62.1v1.1c-.1-.03-.22-.04-.35-.04-.41,0-.61.24-.61.73v.43h.82v1.03h-.82v4.24h-1.38Z"/><path d="m346.25,458.21c0,.83-.14,1.46-.43,1.91-.28.44-.71.66-1.27.66-.43,0-.77-.17-1.03-.52v2.45h-1.38v-7.3h1.28l.05.48c.26-.39.62-.58,1.08-.58.56,0,.99.2,1.27.61.28.41.43,1.04.44,1.88v.4h0Zm-1.37-.34c0-.51-.06-.87-.17-1.08-.11-.21-.3-.32-.57-.32s-.49.12-.62.36v2.47c.12.23.33.34.63.34.27,0,.46-.12.57-.35.11-.23.16-.59.16-1.08v-.35h0Z"/><path d="m349.59,460.68c-.04-.08-.08-.22-.12-.41-.25.34-.58.51-1,.51s-.81-.15-1.1-.44-.44-.67-.44-1.14c0-.55.18-.98.53-1.28s.86-.46,1.52-.46h.42v-.42c0-.24-.04-.4-.12-.5s-.2-.15-.36-.15c-.34,0-.52.2-.52.6h-1.38c0-.49.18-.89.55-1.21.37-.32.83-.48,1.39-.48s1.03.15,1.34.45c.32.3.48.73.48,1.29v2.48c0,.46.07.81.2,1.07v.08h-1.39Zm-.81-.97c.15,0,.28-.03.39-.09s.19-.13.24-.22v-1.1h-.33c-.23,0-.42.08-.55.22s-.2.35-.2.6c0,.39.15.58.46.58h-.01Z"/><path d="m353.44,458.38l.7-2.98h1.47l-1.74,6.06c-.26.89-.75,1.34-1.47,1.34-.17,0-.35-.03-.57-.09v-1.08h.16c.21,0,.38-.04.48-.12.11-.08.19-.23.25-.43l.11-.36-1.52-5.33h1.48l.63,2.98h.02Z"/><path d="m357.5,455.41l.04.49c.31-.39.72-.58,1.22-.58s.9.24,1.12.71c.3-.47.73-.71,1.29-.71.92,0,1.4.64,1.42,1.92v3.46h-1.38v-3.37c0-.31-.04-.52-.13-.65-.08-.13-.23-.2-.43-.2-.26,0-.45.16-.58.47v3.74h-1.37v-3.36c0-.3-.04-.52-.12-.66s-.23-.2-.43-.2c-.24,0-.43.13-.57.38v3.83h-1.38v-5.27h1.3Z"/><path d="m365.74,460.78c-.71,0-1.26-.21-1.66-.63s-.59-1.03-.59-1.81v-.42c0-.83.18-1.47.55-1.93.36-.45.89-.68,1.57-.68s1.16.21,1.5.63c.33.42.51,1.05.51,1.88v.68h-2.75c.02.39.11.68.26.86s.39.27.71.27c.46,0,.85-.16,1.16-.47l.54.83c-.17.23-.42.42-.74.57-.32.14-.67.22-1.05.22h-.01Zm-.87-3.24h1.38v-.13c0-.31-.06-.55-.16-.72-.1-.16-.27-.24-.51-.24s-.42.09-.52.26c-.11.17-.17.45-.19.83Z"/><path d="m369.68,455.41l.04.52c.31-.41.72-.62,1.22-.62.91,0,1.37.63,1.4,1.91v3.47h-1.38v-3.36c0-.3-.04-.52-.13-.65s-.25-.2-.47-.2c-.25,0-.45.13-.58.38v3.83h-1.38v-5.27h1.3-.02Z"/><path d="m374.94,454.11v1.3h.71v1.03h-.71v2.62c0,.21.03.35.08.43s.17.12.33.12c.13,0,.24-.01.33-.03v1.07c-.24.09-.5.13-.77.13-.89,0-1.34-.51-1.35-1.53v-2.81h-.61v-1.03h.61v-1.3h1.38,0Z"/></g><line class="cls-1" x1="246.22" y1="475.87" x2="265.42" y2="475.87"/><g><path d="m270.75,476.45h-.86v3.12h-1.72v-8.53h2.75c.86,0,1.53.22,2,.67s.71,1.08.71,1.91c0,1.13-.41,1.93-1.24,2.38l1.49,3.49v.08h-1.85l-1.28-3.12Zm-.86-1.44h.98c.34,0,.6-.11.77-.34s.26-.53.26-.92c0-.86-.33-1.28-1-1.28h-1.01v2.54Z"/><path d="m274.53,476.19c0-.96.23-1.71.68-2.26s1.08-.82,1.88-.82,1.44.27,1.89.82.68,1.3.68,2.27v.4c0,.96-.22,1.72-.67,2.26s-1.08.81-1.89.81-1.44-.27-1.9-.82-.68-1.3-.68-2.27v-.4h.01Zm1.66.43c0,1.13.3,1.7.91,1.7.56,0,.86-.47.9-1.42v-.7c0-.58-.07-1.01-.23-1.29s-.39-.42-.68-.42-.5.14-.66.42-.24.71-.24,1.29v.42Z"/><path d="m282.44,479.57h-1.66v-9h1.66v9Z"/><path d="m285.46,479.57h-1.66v-9h1.66v9Z"/><path d="m286.83,471.59c0-.26.08-.47.25-.63s.38-.25.66-.25.49.08.66.25.25.38.25.63-.08.46-.24.63-.38.25-.66.25-.5-.08-.66-.25-.24-.38-.24-.63h-.02Zm1.74,7.98h-1.66v-6.34h1.66v6.34Z"/><path d="m291.37,473.23l.05.63c.38-.5.87-.74,1.47-.74,1.09,0,1.65.76,1.68,2.29v4.17h-1.66v-4.04c0-.36-.05-.62-.16-.78s-.3-.24-.57-.24c-.3,0-.54.15-.7.46v4.61h-1.66v-6.34h1.56v-.02Z"/><path d="m295.51,476.21c0-1.04.19-1.81.56-2.33s.9-.77,1.58-.77c.57,0,1.02.23,1.33.68l.06-.56h1.49v6.34c0,.81-.23,1.43-.68,1.85s-1.1.64-1.95.64c-.35,0-.71-.07-1.1-.21s-.67-.32-.86-.53l.56-1.15c.16.16.36.3.61.4s.49.16.71.16c.37,0,.64-.09.8-.27s.25-.46.25-.86v-.54c-.32.41-.73.62-1.24.62-.68,0-1.2-.26-1.57-.79s-.56-1.27-.57-2.22v-.47h.02Zm1.66.43c0,.59.08,1.01.23,1.28s.39.4.73.4.59-.12.76-.37v-3.03c-.17-.27-.42-.4-.74-.4s-.57.13-.73.4-.24.7-.24,1.3v.42h-.01Z"/><path d="m307.32,477.87c0-.14-.07-.27-.2-.39s-.43-.28-.9-.48c-.68-.28-1.15-.56-1.41-.86s-.38-.67-.38-1.11c0-.55.2-1.01.6-1.37s.93-.54,1.59-.54c.7,0,1.25.18,1.67.54s.63.84.63,1.45h-1.66c0-.52-.21-.77-.64-.77-.18,0-.32.05-.43.16s-.17.26-.17.46c0,.14.06.26.19.37s.42.26.88.46c.68.25,1.15.53,1.43.83s.42.7.42,1.19c0,.57-.21,1.02-.64,1.37s-.98.52-1.68.52c-.46,0-.88-.09-1.23-.27s-.63-.43-.83-.76-.3-.67-.3-1.05h1.58c0,.29.08.51.2.65s.33.22.62.22c.45,0,.67-.2.67-.6v-.02Z"/><path d="m313.11,478.99c-.34.46-.8.7-1.38.7s-1.02-.2-1.32-.6-.45-.98-.45-1.75v-4.11h1.66v4.15c0,.62.21.93.62.93.38,0,.65-.16.82-.49v-4.58h1.67v6.34h-1.56l-.05-.58h-.01Z"/><path d="m317.46,473.23l.05.59c.37-.47.86-.7,1.47-.7s1.08.29,1.34.86c.36-.57.88-.86,1.55-.86,1.11,0,1.68.77,1.71,2.3v4.15h-1.66v-4.05c0-.37-.05-.63-.15-.79s-.27-.23-.52-.23c-.31,0-.54.19-.69.57v4.5h-1.65v-4.04c0-.36-.05-.63-.15-.79s-.27-.24-.52-.24c-.29,0-.51.15-.68.46v4.61h-1.66v-6.34h1.56Z"/><path d="m327.38,476.19c0-.96.23-1.71.68-2.26s1.08-.82,1.88-.82,1.44.27,1.89.82.68,1.3.68,2.27v.4c0,.96-.22,1.72-.67,2.26s-1.08.81-1.89.81-1.44-.27-1.9-.82-.68-1.3-.68-2.27v-.4h.01Zm1.66.43c0,1.13.3,1.7.91,1.7.56,0,.86-.47.9-1.42v-.7c0-.58-.07-1.01-.23-1.29s-.39-.42-.68-.42-.5.14-.66.42-.24.71-.24,1.29v.42Z"/><path d="m333.92,479.57v-5.1h-.77v-1.24h.77v-.57c0-.7.19-1.24.55-1.63s.87-.58,1.51-.58c.2,0,.45.04.75.12v1.32c-.12-.04-.26-.05-.42-.05-.49,0-.74.29-.74.88v.52h.99v1.24h-.99v5.1h-1.66.01Z"/><path d="m345.21,476.6c0,1-.17,1.76-.51,2.29s-.85.8-1.53.8c-.52,0-.93-.21-1.24-.63v2.95h-1.66v-8.78h1.54l.06.58c.32-.46.75-.7,1.29-.7.68,0,1.18.25,1.53.74s.52,1.25.52,2.26v.49h0Zm-1.65-.42c0-.61-.07-1.05-.2-1.3s-.36-.38-.68-.38c-.34,0-.59.14-.74.43v2.97c.15.27.4.41.76.41.33,0,.56-.14.68-.42s.19-.71.19-1.29v-.42h-.01Z"/><path d="m349.28,474.83l-.55-.05c-.45,0-.76.2-.92.6v4.19h-1.66v-6.34h1.56l.05.69c.26-.54.62-.8,1.08-.8.19,0,.34.03.46.08l-.02,1.64h0Z"/><path d="m349.94,476.19c0-.96.23-1.71.68-2.26s1.08-.82,1.88-.82,1.44.27,1.89.82.68,1.3.68,2.27v.4c0,.96-.22,1.72-.67,2.26s-1.08.81-1.89.81-1.44-.27-1.9-.82-.68-1.3-.68-2.27v-.4h.01Zm1.66.43c0,1.13.3,1.7.91,1.7.56,0,.86-.47.9-1.42v-.7c0-.58-.07-1.01-.23-1.29s-.39-.42-.68-.42-.5.14-.66.42-.24.71-.24,1.29v.42Z"/><path d="m361.04,476.6c0,1-.17,1.76-.51,2.29s-.85.8-1.53.8c-.52,0-.93-.21-1.24-.63v2.95h-1.66v-8.78h1.54l.06.58c.32-.46.75-.7,1.29-.7.68,0,1.18.25,1.53.74s.52,1.25.52,2.26v.49h0Zm-1.65-.42c0-.61-.07-1.05-.2-1.3s-.36-.38-.68-.38c-.34,0-.59.14-.74.43v2.97c.15.27.4.41.76.41.33,0,.56-.14.68-.42s.19-.71.19-1.29v-.42h-.01Z"/><path d="m364.69,479.69c-.85,0-1.52-.25-1.99-.76s-.71-1.23-.71-2.18v-.5c0-1,.22-1.77.66-2.31s1.06-.81,1.88-.81,1.4.25,1.8.76.61,1.26.62,2.26v.81h-3.3c.02.47.13.82.31,1.03s.47.33.85.33c.55,0,1.02-.19,1.39-.57l.65,1c-.2.28-.5.51-.88.68s-.81.26-1.26.26h-.02Zm-1.04-3.89h1.66v-.15c0-.38-.07-.67-.19-.86s-.32-.29-.61-.29-.5.1-.63.31-.21.54-.23,1h0Z"/><path d="m370.9,474.83l-.55-.05c-.45,0-.76.2-.92.6v4.19h-1.66v-6.34h1.56l.05.69c.26-.54.62-.8,1.08-.8.19,0,.34.03.46.08l-.02,1.64h0Z"/><path d="m373.77,471.67v1.56h.85v1.24h-.85v3.15c0,.25.03.42.1.52s.2.14.4.14c.16,0,.29-.01.39-.04v1.29c-.29.11-.6.16-.93.16-1.07,0-1.61-.61-1.62-1.84v-3.37h-.73v-1.24h.73v-1.56h1.66Z"/><path d="m377.47,476.81l.84-3.58h1.77l-2.09,7.29c-.31,1.07-.9,1.61-1.76,1.61-.2,0-.43-.04-.68-.11v-1.29h.19c.26,0,.45-.04.58-.14s.23-.27.3-.52l.13-.43-1.83-6.4h1.78l.76,3.58h0Z"/><path d="m385.51,471.67v1.56h.85v1.24h-.85v3.15c0,.25.03.42.1.52s.2.14.4.14c.16,0,.29-.01.39-.04v1.29c-.29.11-.6.16-.93.16-1.07,0-1.61-.61-1.62-1.84v-3.37h-.73v-1.24h.73v-1.56h1.66Z"/><path d="m390.29,479.57c-.05-.1-.09-.26-.14-.49-.3.41-.7.61-1.21.61s-.97-.18-1.32-.53-.52-.81-.52-1.37c0-.66.21-1.18.64-1.54s1.03-.55,1.83-.56h.5v-.51c0-.29-.05-.49-.15-.6s-.24-.18-.43-.18c-.41,0-.62.24-.62.73h-1.66c0-.59.22-1.07.66-1.45s1-.57,1.67-.57,1.23.18,1.61.54.57.88.57,1.55v2.98c0,.55.09.97.23,1.28v.1h-1.67.01Zm-.98-1.17c.18,0,.34-.04.47-.11s.22-.16.29-.26v-1.32h-.4c-.28,0-.5.09-.67.27s-.24.42-.24.72c0,.47.18.7.55.7h0Z"/><path d="m395.05,475.11l.74-1.88h1.76l-1.45,3.1,1.5,3.24h-1.76l-.78-1.99-.77,1.99h-1.77l1.5-3.24-1.44-3.1h1.76l.71,1.88h0Z"/><path d="m400.89,479.69c-.85,0-1.52-.25-1.99-.76s-.71-1.23-.71-2.18v-.5c0-1,.22-1.77.66-2.31s1.06-.81,1.88-.81,1.4.25,1.8.76.61,1.26.62,2.26v.81h-3.3c.02.47.13.82.31,1.03s.47.33.85.33c.55,0,1.02-.19,1.39-.57l.65,1c-.2.28-.5.51-.88.68s-.81.26-1.26.26h-.02Zm-1.04-3.89h1.66v-.15c0-.38-.07-.67-.19-.86s-.32-.29-.61-.29-.5.1-.63.31-.21.54-.23,1h0Z"/><path d="m406.88,477.87c0-.14-.07-.27-.2-.39s-.43-.28-.9-.48c-.68-.28-1.15-.56-1.41-.86s-.38-.67-.38-1.11c0-.55.2-1.01.6-1.37s.93-.54,1.59-.54c.7,0,1.25.18,1.67.54s.63.84.63,1.45h-1.66c0-.52-.21-.77-.64-.77-.18,0-.32.05-.43.16s-.17.26-.17.46c0,.14.06.26.19.37s.42.26.88.46c.68.25,1.15.53,1.43.83s.42.7.42,1.19c0,.57-.21,1.02-.64,1.37s-.98.52-1.68.52c-.46,0-.88-.09-1.23-.27s-.63-.43-.83-.76-.3-.67-.3-1.05h1.58c0,.29.08.51.2.65s.33.22.62.22c.45,0,.67-.2.67-.6v-.02Z"/><path d="m417.19,476.6c0,1-.17,1.76-.51,2.29s-.85.8-1.53.8c-.52,0-.93-.21-1.24-.63v2.95h-1.66v-8.78h1.54l.06.58c.32-.46.75-.7,1.29-.7.68,0,1.18.25,1.53.74s.52,1.25.52,2.26v.49h0Zm-1.65-.42c0-.61-.07-1.05-.2-1.3s-.36-.38-.68-.38c-.34,0-.59.14-.74.43v2.97c.15.27.4.41.76.41.33,0,.56-.14.68-.42s.19-.71.19-1.29v-.42h-.01Z"/><path d="m421.26,479.57c-.05-.1-.09-.26-.14-.49-.3.41-.7.61-1.21.61s-.97-.18-1.32-.53-.52-.81-.52-1.37c0-.66.21-1.18.64-1.54s1.03-.55,1.83-.56h.5v-.51c0-.29-.05-.49-.15-.6s-.24-.18-.43-.18c-.41,0-.62.24-.62.73h-1.66c0-.59.22-1.07.66-1.45s1-.57,1.67-.57,1.23.18,1.61.54.57.88.57,1.55v2.98c0,.55.09.97.23,1.28v.1h-1.67.01Zm-.98-1.17c.18,0,.34-.04.47-.11s.22-.16.29-.26v-1.32h-.4c-.28,0-.5.09-.67.27s-.24.42-.24.72c0,.47.18.7.55.7h0Z"/><path d="m423.9,471.59c0-.26.08-.47.25-.63s.38-.25.66-.25.49.08.66.25.25.38.25.63-.08.46-.24.63-.38.25-.66.25-.5-.08-.66-.25-.24-.38-.24-.63h-.02Zm1.74,7.98h-1.66v-6.34h1.66v6.34Z"/><path d="m426.7,476.21c0-1.04.18-1.81.53-2.33s.86-.77,1.54-.77c.49,0,.89.21,1.22.63v-3.18h1.67v9h-1.51l-.08-.64c-.34.51-.78.76-1.31.76-.66,0-1.17-.25-1.52-.76s-.53-1.25-.54-2.24v-.48h0Zm1.66.43c0,.62.07,1.06.2,1.31s.36.37.67.37.58-.15.74-.44v-2.89c-.16-.31-.41-.47-.74-.47-.3,0-.53.12-.67.37s-.21.68-.21,1.31v.44h.01Z"/></g><g><path d="m34.32,23.78h-2.46v3.2h-1.58v-7.85h4.34v1.32h-2.76v2.01h2.46v1.32Z"/><path d="m35.45,19.64c0-.24.08-.43.23-.58s.35-.23.6-.23.45.08.6.23.23.35.23.58-.07.43-.22.58-.35.23-.61.23-.46-.08-.61-.23-.22-.35-.22-.58Zm1.6,7.34h-1.53v-5.83h1.53v5.83Z"/><path d="m41.11,22.62l-.51-.04c-.42,0-.7.18-.85.55v3.85h-1.53v-5.83h1.44l.04.63c.24-.49.57-.74,1-.74.17,0,.31.02.42.07l-.02,1.51h.01Z"/><path d="m44.51,25.42c0-.13-.06-.25-.19-.36-.12-.11-.4-.26-.83-.44-.63-.25-1.06-.52-1.3-.79s-.35-.61-.35-1.02c0-.51.18-.93.55-1.26s.86-.5,1.46-.5c.64,0,1.15.17,1.54.5.38.33.58.77.58,1.33h-1.53c0-.47-.2-.71-.59-.71-.16,0-.29.05-.4.15-.1.1-.16.24-.16.42,0,.13.06.24.17.34s.39.24.81.42c.62.23,1.06.49,1.32.77.26.28.39.65.39,1.1,0,.52-.2.94-.59,1.26s-.91.47-1.54.47c-.43,0-.8-.08-1.13-.25s-.58-.4-.77-.7-.28-.62-.28-.96h1.45c0,.27.07.47.19.6s.31.2.57.2c.41,0,.61-.19.61-.56h.02Z"/><path d="m48.72,19.71v1.43h.78v1.14h-.78v2.9c0,.23.03.39.09.48s.18.13.36.13c.15,0,.27-.01.36-.04v1.19c-.27.1-.55.15-.85.15-.98,0-1.48-.56-1.49-1.69v-3.1h-.67v-1.14h.67v-1.43h1.53v-.02Z"/><path d="m55.51,26.98c-.04-.09-.09-.24-.13-.45-.27.37-.64.56-1.11.56s-.89-.16-1.22-.49c-.32-.32-.48-.74-.48-1.26,0-.61.19-1.08.58-1.42.39-.33.95-.5,1.68-.51h.46v-.47c0-.26-.04-.45-.13-.56s-.22-.16-.39-.16c-.38,0-.57.22-.57.67h-1.53c0-.54.2-.98.61-1.33.4-.35.92-.53,1.53-.53s1.13.17,1.48.5.53.81.53,1.43v2.74c0,.5.08.9.22,1.18v.09h-1.54.01Zm-.9-1.08c.17,0,.31-.03.43-.1s.21-.15.26-.24v-1.21h-.37c-.26,0-.46.08-.61.25s-.22.39-.22.66c0,.43.17.65.51.65h0Z"/><path d="m59.3,21.15l.04.58c.34-.46.8-.68,1.35-.68,1,0,1.52.7,1.55,2.11v3.83h-1.53v-3.72c0-.33-.05-.57-.15-.72-.1-.15-.27-.22-.52-.22-.28,0-.49.14-.65.43v4.24h-1.53v-5.83h1.43v-.02Z"/><path d="m63.13,23.89c0-.96.16-1.67.48-2.14.32-.47.79-.71,1.41-.71.45,0,.82.19,1.12.58v-2.92h1.54v8.28h-1.39l-.07-.59c-.31.47-.72.7-1.21.7-.61,0-1.08-.23-1.4-.7-.32-.47-.49-1.15-.49-2.06v-.44h.01Zm1.53.38c0,.58.06.98.18,1.2.12.23.33.34.62.34s.53-.13.68-.4v-2.66c-.15-.29-.38-.43-.68-.43-.28,0-.49.11-.61.34s-.19.63-.19,1.21v.4h0Z"/><path d="m74.74,24.92c0-.32-.08-.56-.25-.73s-.46-.33-.89-.51c-.79-.3-1.35-.65-1.7-1.05-.34-.4-.52-.87-.52-1.42,0-.66.23-1.19.7-1.59s1.06-.6,1.79-.6c.48,0,.91.1,1.29.3.38.2.67.49.87.86s.3.79.3,1.26h-1.58c0-.37-.08-.65-.23-.84-.16-.19-.38-.29-.68-.29-.28,0-.49.08-.65.25-.15.16-.23.38-.23.66,0,.22.09.41.26.58s.48.35.92.54c.77.28,1.32.62,1.67,1.02.35.4.52.91.52,1.54,0,.68-.22,1.22-.65,1.6-.43.38-1.03.58-1.77.58-.51,0-.97-.1-1.39-.31s-.74-.51-.98-.89-.35-.85-.35-1.37h1.59c0,.45.09.78.26.99.18.2.46.31.86.31.55,0,.83-.29.83-.88h.01Z"/><path d="m79.67,27.09c-.78,0-1.39-.23-1.83-.7-.44-.47-.66-1.14-.66-2.01v-.46c0-.92.2-1.63.6-2.13.4-.5.98-.75,1.73-.75s1.29.23,1.66.7c.37.47.56,1.16.57,2.08v.75h-3.04c.02.43.12.75.29.95s.43.3.78.3c.51,0,.94-.17,1.28-.52l.6.92c-.19.26-.46.47-.81.63-.36.16-.74.24-1.16.24h-.01Zm-.96-3.58h1.53v-.14c0-.35-.06-.61-.17-.79s-.29-.27-.56-.27-.46.1-.58.29-.19.5-.21.92h0Z"/><path d="m84.7,25.82c.44,0,.67-.29.67-.86h1.43c0,.64-.2,1.15-.59,1.54-.38.39-.88.59-1.49.59-.75,0-1.32-.23-1.72-.7-.4-.47-.6-1.16-.6-2.06v-.46c0-.92.19-1.62.58-2.1s.97-.72,1.73-.72c.64,0,1.15.2,1.52.6s.56.96.57,1.69h-1.43c0-.33-.06-.58-.16-.75-.1-.18-.28-.26-.52-.26-.27,0-.46.09-.57.28s-.18.55-.18,1.1v.59c0,.47.02.81.07.99.05.19.12.33.23.42s.26.13.46.13v-.02Z"/><path d="m87.49,23.88c0-.88.21-1.58.62-2.08.42-.5.99-.75,1.73-.75s1.32.25,1.74.75.63,1.2.63,2.09v.37c0,.89-.21,1.58-.62,2.08-.41.5-.99.75-1.74.75s-1.33-.25-1.74-.75c-.42-.5-.62-1.2-.62-2.09v-.37Zm1.53.38c0,1.04.28,1.56.84,1.56.51,0,.79-.43.83-1.3v-.64c0-.53-.07-.93-.22-1.18s-.36-.39-.63-.39-.46.13-.61.39-.22.65-.22,1.18v.38h.01Z"/><path d="m94.56,21.15l.04.58c.34-.46.8-.68,1.35-.68,1,0,1.52.7,1.55,2.11v3.83h-1.53v-3.72c0-.33-.05-.57-.15-.72-.1-.15-.27-.22-.52-.22-.28,0-.49.14-.65.43v4.24h-1.53v-5.83h1.43v-.02Z"/><path d="m98.39,23.89c0-.96.16-1.67.48-2.14.32-.47.79-.71,1.41-.71.45,0,.82.19,1.12.58v-2.92h1.54v8.28h-1.39l-.07-.59c-.31.47-.72.7-1.21.7-.61,0-1.08-.23-1.4-.7-.32-.47-.49-1.15-.49-2.06v-.44h.01Zm1.53.38c0,.58.06.98.18,1.2.12.23.33.34.62.34s.53-.13.68-.4v-2.66c-.15-.29-.38-.43-.68-.43-.28,0-.49.11-.61.34s-.19.63-.19,1.21v.4h0Z"/><path d="m108.22,26.98h-1.58v-7.85h1.58v7.85Z"/><path d="m110.88,21.15l.04.58c.34-.46.8-.68,1.35-.68,1,0,1.52.7,1.55,2.11v3.83h-1.53v-3.72c0-.33-.05-.57-.15-.72s-.27-.22-.52-.22c-.28,0-.49.14-.65.43v4.24h-1.53v-5.83h1.43v-.02Z"/><path d="m117.5,25.42c0-.13-.06-.25-.19-.36-.12-.11-.4-.26-.83-.44-.63-.25-1.06-.52-1.3-.79s-.35-.61-.35-1.02c0-.51.18-.93.55-1.26s.86-.5,1.46-.5c.64,0,1.15.17,1.54.5.38.33.58.77.58,1.33h-1.53c0-.47-.2-.71-.59-.71-.16,0-.29.05-.4.15-.1.1-.16.24-.16.42,0,.13.06.24.17.34.11.1.39.24.81.42.62.23,1.06.49,1.32.77s.39.65.39,1.1c0,.52-.2.94-.59,1.26-.39.32-.91.47-1.54.47-.43,0-.8-.08-1.13-.25-.33-.17-.58-.4-.77-.7s-.28-.62-.28-.96h1.45c0,.27.07.47.19.6s.31.2.57.2c.41,0,.61-.19.61-.56h.02Z"/><path d="m121.7,19.71v1.43h.78v1.14h-.78v2.9c0,.23.03.39.09.48s.18.13.36.13c.15,0,.27-.01.36-.04v1.19c-.27.1-.55.15-.85.15-.98,0-1.48-.56-1.49-1.69v-3.1h-.67v-1.14h.67v-1.43h1.53v-.02Z"/><path d="m126.09,26.98c-.04-.09-.09-.24-.13-.45-.27.37-.64.56-1.11.56s-.89-.16-1.22-.49c-.32-.32-.48-.74-.48-1.26,0-.61.19-1.08.58-1.42.39-.33.95-.5,1.68-.51h.46v-.47c0-.26-.04-.45-.13-.56s-.22-.16-.39-.16c-.38,0-.57.22-.57.67h-1.53c0-.54.2-.98.61-1.33.4-.35.92-.53,1.53-.53s1.13.17,1.48.5.53.81.53,1.43v2.74c0,.5.08.9.22,1.18v.09h-1.54.01Zm-.9-1.08c.17,0,.31-.03.43-.1s.21-.15.26-.24v-1.21h-.37c-.26,0-.46.08-.61.25s-.22.39-.22.66c0,.43.17.65.51.65h0Z"/><path d="m130.06,26.98h-1.53v-8.28h1.53v8.28Z"/><path d="m132.84,26.98h-1.53v-8.28h1.53v8.28Z"/><path d="m135.42,21.15l.04.54c.34-.43.79-.65,1.35-.65s.99.26,1.23.79c.33-.52.81-.79,1.43-.79,1.02,0,1.54.71,1.57,2.12v3.82h-1.53v-3.73c0-.34-.05-.58-.14-.72s-.25-.22-.47-.22c-.28,0-.5.17-.64.52v4.14h-1.51v-3.71c0-.33-.04-.58-.13-.72-.09-.15-.25-.22-.48-.22-.26,0-.47.14-.63.43v4.24h-1.53v-5.83h1.44Z"/><path d="m144.53,27.09c-.78,0-1.39-.23-1.83-.7-.44-.47-.66-1.14-.66-2.01v-.46c0-.92.2-1.63.6-2.13s.98-.75,1.73-.75,1.29.23,1.66.7c.37.47.56,1.16.57,2.08v.75h-3.04c.02.43.12.75.29.95s.43.3.78.3c.51,0,.94-.17,1.28-.52l.6.92c-.19.26-.46.47-.81.63-.36.16-.74.24-1.16.24h-.01Zm-.96-3.58h1.53v-.14c0-.35-.06-.61-.17-.79-.11-.18-.29-.27-.56-.27s-.46.1-.58.29-.19.5-.21.92h-.01Z"/><path d="m148.82,21.15l.04.58c.34-.46.8-.68,1.35-.68,1,0,1.52.7,1.55,2.11v3.83h-1.53v-3.72c0-.33-.05-.57-.15-.72s-.27-.22-.52-.22c-.28,0-.49.14-.65.43v4.24h-1.53v-5.83h1.43v-.02Z"/><path d="m154.63,19.71v1.43h.78v1.14h-.78v2.9c0,.23.03.39.09.48s.18.13.36.13c.15,0,.27-.01.36-.04v1.19c-.27.1-.55.15-.85.15-.98,0-1.48-.56-1.49-1.69v-3.1h-.67v-1.14h.67v-1.43h1.53v-.02Z"/><path d="m163.89,20.45h-1.94v6.53h-1.59v-6.53h-1.91v-1.32h5.44v1.32Z"/><path d="m164.55,23.88c0-.88.21-1.58.62-2.08.42-.5.99-.75,1.73-.75s1.32.25,1.74.75c.42.5.63,1.2.63,2.09v.37c0,.89-.21,1.58-.62,2.08s-.99.75-1.74.75-1.33-.25-1.74-.75c-.42-.5-.62-1.2-.62-2.09v-.37h0Zm1.53.38c0,1.04.28,1.56.84,1.56.51,0,.79-.43.83-1.3v-.64c0-.53-.07-.93-.22-1.18s-.36-.39-.63-.39-.46.13-.61.39-.22.65-.22,1.18v.38h.01Z"/><path d="m171.99,19.71v1.43h.78v1.14h-.78v2.9c0,.23.03.39.09.48s.18.13.36.13c.15,0,.27-.01.36-.04v1.19c-.27.1-.55.15-.85.15-.98,0-1.48-.56-1.49-1.69v-3.1h-.67v-1.14h.67v-1.43h1.53v-.02Z"/><path d="m176.38,26.98c-.04-.09-.09-.24-.13-.45-.27.37-.64.56-1.11.56s-.89-.16-1.22-.49c-.32-.32-.48-.74-.48-1.26,0-.61.19-1.08.58-1.42.39-.33.95-.5,1.68-.51h.46v-.47c0-.26-.04-.45-.13-.56s-.22-.16-.39-.16c-.38,0-.57.22-.57.67h-1.53c0-.54.2-.98.61-1.33.4-.35.92-.53,1.53-.53s1.13.17,1.48.5.53.81.53,1.43v2.74c0,.5.08.9.22,1.18v.09h-1.54.01Zm-.9-1.08c.17,0,.31-.03.43-.1s.21-.15.26-.24v-1.21h-.37c-.26,0-.46.08-.61.25s-.22.39-.22.66c0,.43.17.65.51.65h0Z"/><path d="m180.35,26.98h-1.53v-8.28h1.53v8.28Z"/></g><g><path d="m184.13,26.98v-7.85h2.43c.82,0,1.44.18,1.87.55s.64.9.64,1.6c0,.4-.09.74-.26,1.03-.18.29-.42.5-.72.63.35.1.62.3.81.61s.29.68.29,1.12c0,.76-.21,1.34-.63,1.73s-1.03.58-1.82.58h-2.61Zm1.58-4.57h.83c.62,0,.93-.32.93-.96,0-.36-.07-.61-.22-.77-.14-.15-.38-.23-.7-.23h-.84v1.96h0Zm0,1.15v2.1h1.01c.28,0,.5-.09.65-.26.15-.18.22-.43.22-.75,0-.7-.25-1.07-.77-1.08h-1.12,0Z"/><path d="m190.27,19.64c0-.24.08-.43.23-.58s.35-.23.6-.23.45.08.6.23.23.35.23.58-.07.43-.22.58-.35.23-.61.23-.46-.08-.61-.23-.22-.35-.22-.58h0Zm1.6,7.34h-1.53v-5.83h1.53v5.83Z"/><path d="m194.65,26.98h-1.53v-8.28h1.53v8.28Z"/><path d="m197.4,26.98h-1.53v-8.28h1.53v8.28Z"/><path d="m200.94,27.09c-.78,0-1.39-.23-1.83-.7-.44-.47-.66-1.14-.66-2.01v-.46c0-.92.2-1.63.6-2.13s.98-.75,1.73-.75,1.29.23,1.66.7c.37.47.56,1.16.57,2.08v.75h-3.04c.02.43.12.75.29.95s.43.3.78.3c.51,0,.94-.17,1.28-.52l.6.92c-.19.26-.46.47-.81.63-.36.16-.74.24-1.16.24h-.01Zm-.96-3.58h1.53v-.14c0-.35-.06-.61-.17-.79-.11-.18-.29-.27-.56-.27s-.46.1-.58.29-.19.5-.21.92h-.01Z"/><path d="m203.66,23.89c0-.96.16-1.67.48-2.14s.79-.71,1.41-.71c.45,0,.82.19,1.12.58v-2.92h1.54v8.28h-1.39l-.07-.59c-.31.47-.72.7-1.21.7-.61,0-1.08-.23-1.4-.7-.32-.47-.49-1.15-.49-2.06v-.44h0Zm1.53.38c0,.58.06.98.18,1.2.12.23.33.34.62.34s.53-.13.68-.4v-2.66c-.15-.29-.38-.43-.68-.43-.28,0-.49.11-.61.34s-.19.63-.19,1.21v.4Z"/><path d="m209.47,21.79c0-.24.08-.45.25-.6s.38-.24.64-.24.47.08.64.23c.17.16.25.36.25.61s-.09.45-.26.61c-.17.15-.38.23-.63.23s-.47-.08-.63-.23c-.17-.15-.25-.36-.25-.6h-.01Zm0,4.4c0-.24.08-.45.25-.6s.38-.24.64-.24.47.08.64.23.25.36.25.61-.09.45-.26.61c-.17.15-.38.23-.63.23s-.47-.08-.63-.23c-.17-.15-.25-.36-.25-.6h-.01Z"/><path d="m217.74,24.91c0-.3-.06-.53-.18-.71-.12-.17-.32-.33-.6-.48-.55-.24-.96-.48-1.22-.7s-.46-.48-.59-.77-.19-.63-.19-1.03c0-.6.17-1.09.5-1.48s.77-.62,1.31-.69v-1.15h.81v1.17c.54.1.96.38,1.26.82.3.44.45,1,.45,1.68h-1.53c0-.43-.06-.75-.19-.96-.12-.21-.28-.32-.48-.32s-.34.08-.45.25c-.11.17-.16.4-.16.69,0,.26.06.47.17.64s.32.35.64.53c.57.27.99.52,1.24.75.25.22.44.48.56.76s.18.62.18,1.01c0,.61-.16,1.1-.48,1.48s-.77.61-1.33.68v1.07h-.81v-1.07c-.62-.09-1.1-.35-1.44-.8-.34-.44-.51-1.03-.51-1.76h1.53c0,.42.07.75.21.98.14.23.34.34.61.34.22,0,.39-.08.51-.25s.19-.39.19-.68h0Z"/><path d="m223.7,26.98h-1.53v-5.99l-1.49.58v-1.27l2.86-1.17h.16v7.86h0Z"/><path d="m229.61,19.05v1.29h-.09c-.57,0-1.02.18-1.36.51-.34.34-.54.81-.61,1.43.33-.37.74-.56,1.23-.56.57,0,1.02.24,1.36.73s.51,1.13.51,1.94c0,.51-.1.98-.29,1.39s-.47.73-.82.96-.75.34-1.19.34c-.71,0-1.28-.29-1.71-.86s-.64-1.34-.64-2.31v-.57c0-.87.14-1.62.41-2.27s.66-1.15,1.17-1.5,1.11-.53,1.79-.53h.24,0Zm-1.31,3.94c-.19,0-.36.06-.49.18s-.23.27-.29.45v.55c0,.55.07.97.22,1.24s.34.41.58.41.44-.13.59-.4c.15-.26.22-.6.22-1.02s-.08-.76-.23-1.03-.35-.4-.6-.4v.02Z"/><path d="m231.77,26.2c0-.24.08-.45.25-.6s.38-.24.64-.24.47.08.64.23.25.36.25.61-.09.45-.26.61c-.17.15-.38.23-.63.23s-.47-.08-.63-.23c-.17-.15-.25-.36-.25-.6h-.01Z"/><path d="m239.42,20.01l-2.48,6.97h-1.61l2.49-6.58h-3.15v-1.27h4.75v.88Z"/><path d="m242.75,26.98v-7.85h2.43c.82,0,1.44.18,1.87.55s.64.9.64,1.6c0,.4-.09.74-.26,1.03-.18.29-.42.5-.72.63.35.1.62.3.81.61s.29.68.29,1.12c0,.76-.21,1.34-.63,1.73s-1.03.58-1.82.58h-2.61Zm1.58-4.57h.83c.62,0,.93-.32.93-.96,0-.36-.07-.61-.22-.77-.14-.15-.38-.23-.7-.23h-.84v1.96h0Zm0,1.15v2.1h1.01c.28,0,.5-.09.65-.26.15-.18.22-.43.22-.75,0-.7-.25-1.07-.77-1.08h-1.12,0Z"/><path d="m248.89,19.64c0-.24.08-.43.23-.58s.35-.23.6-.23.45.08.6.23.23.35.23.58-.07.43-.22.58-.35.23-.61.23-.46-.08-.61-.23-.22-.35-.22-.58h0Zm1.6,7.34h-1.53v-5.83h1.53v5.83Z"/><path d="m253.27,26.98h-1.53v-8.28h1.53v8.28Z"/><path d="m256.02,26.98h-1.53v-8.28h1.53v8.28Z"/><path d="m257.2,19.64c0-.24.08-.43.23-.58s.35-.23.6-.23.45.08.6.23.23.35.23.58-.07.43-.22.58-.35.23-.61.23-.46-.08-.61-.23-.22-.35-.22-.58h0Zm1.6,7.34h-1.53v-5.83h1.53v5.83Z"/><path d="m259.77,23.88c0-.88.21-1.58.62-2.08.42-.5.99-.75,1.73-.75s1.32.25,1.74.75c.42.5.63,1.2.63,2.09v.37c0,.89-.21,1.58-.62,2.08s-.99.75-1.74.75-1.33-.25-1.74-.75c-.42-.5-.62-1.2-.62-2.09v-.37h0Zm1.53.38c0,1.04.28,1.56.84,1.56.51,0,.79-.43.83-1.3v-.64c0-.53-.07-.93-.22-1.18s-.36-.39-.63-.39-.46.13-.61.39-.22.65-.22,1.18v.38h.01Z"/><path d="m266.84,21.15l.04.58c.34-.46.8-.68,1.35-.68,1,0,1.52.7,1.55,2.11v3.83h-1.53v-3.72c0-.33-.05-.57-.15-.72s-.27-.22-.52-.22c-.28,0-.49.14-.65.43v4.24h-1.53v-5.83h1.43v-.02Z"/></g><g><path d="m35.47,214.89h-2.46v3.2h-1.58v-7.85h4.34v1.32h-2.76v2.01h2.46v1.32Z"/><path d="m36.6,210.75c0-.24.08-.43.23-.58s.35-.23.6-.23.45.08.6.23.23.35.23.58-.07.43-.22.58c-.15.15-.35.23-.61.23s-.46-.08-.61-.23-.22-.35-.22-.58Zm1.6,7.34h-1.53v-5.83h1.53v5.83Z"/><path d="m42.26,213.73l-.51-.04c-.42,0-.7.18-.85.55v3.85h-1.53v-5.83h1.44l.04.63c.24-.49.57-.74,1-.74.17,0,.31.02.42.07l-.02,1.51h.01Z"/><path d="m45.67,216.53c0-.13-.06-.25-.19-.36-.12-.11-.4-.26-.83-.44-.63-.25-1.06-.52-1.3-.79-.24-.27-.35-.61-.35-1.02,0-.51.18-.93.55-1.26s.86-.5,1.46-.5c.64,0,1.15.17,1.54.5.38.33.58.77.58,1.33h-1.53c0-.47-.2-.71-.59-.71-.16,0-.29.05-.4.15-.1.1-.16.24-.16.42,0,.13.06.24.17.34.11.1.39.24.81.42.62.23,1.06.49,1.32.77.26.28.39.65.39,1.1,0,.52-.2.94-.59,1.26-.39.32-.91.47-1.54.47-.43,0-.8-.08-1.13-.25s-.58-.4-.77-.7-.28-.62-.28-.96h1.45c0,.27.07.47.19.6s.31.2.57.2c.41,0,.61-.19.61-.56h.02Z"/><path d="m49.87,210.82v1.43h.78v1.14h-.78v2.9c0,.23.03.39.09.48s.18.13.36.13c.15,0,.27,0,.36-.04v1.19c-.27.1-.55.15-.85.15-.98,0-1.48-.56-1.49-1.69v-3.1h-.67v-1.14h.67v-1.43h1.53v-.02Z"/><path d="m55.62,218.09h-1.58v-7.85h1.58v7.85Z"/><path d="m58.27,212.26l.04.58c.34-.46.8-.68,1.35-.68,1,0,1.52.7,1.55,2.11v3.83h-1.53v-3.72c0-.33-.05-.57-.15-.72-.1-.15-.27-.22-.52-.22-.28,0-.49.14-.65.43v4.24h-1.53v-5.83h1.43v-.02Z"/><path d="m64.89,216.53c0-.13-.06-.25-.19-.36-.12-.11-.4-.26-.83-.44-.63-.25-1.06-.52-1.3-.79-.24-.27-.35-.61-.35-1.02,0-.51.18-.93.55-1.26s.86-.5,1.46-.5c.64,0,1.15.17,1.54.5.38.33.58.77.58,1.33h-1.53c0-.47-.2-.71-.59-.71-.16,0-.29.05-.4.15-.1.1-.16.24-.16.42,0,.13.06.24.17.34.11.1.39.24.81.42.62.23,1.06.49,1.32.77.26.28.39.65.39,1.1,0,.52-.2.94-.59,1.26-.39.32-.91.47-1.54.47-.43,0-.8-.08-1.13-.25s-.58-.4-.77-.7-.28-.62-.28-.96h1.45c0,.27.07.47.19.6s.31.2.57.2c.41,0,.61-.19.61-.56h.02Z"/><path d="m69.1,210.82v1.43h.78v1.14h-.78v2.9c0,.23.03.39.09.48s.18.13.36.13c.15,0,.27,0,.36-.04v1.19c-.27.1-.55.15-.85.15-.98,0-1.48-.56-1.49-1.69v-3.1h-.67v-1.14h.67v-1.43h1.53v-.02Z"/><path d="m73.48,218.09c-.04-.09-.09-.24-.13-.45-.27.37-.64.56-1.11.56s-.89-.16-1.22-.49-.48-.74-.48-1.26c0-.61.19-1.08.58-1.42.39-.33.95-.5,1.68-.51h.46v-.47c0-.26-.04-.45-.13-.56s-.22-.16-.39-.16c-.38,0-.57.22-.57.67h-1.53c0-.54.2-.98.61-1.33.4-.35.92-.53,1.53-.53s1.13.17,1.48.5.53.81.53,1.43v2.74c0,.5.08.9.22,1.18v.09h-1.54.01Zm-.9-1.08c.17,0,.31-.03.43-.1s.21-.15.26-.24v-1.21h-.37c-.26,0-.46.08-.61.25s-.22.39-.22.66c0,.43.17.65.51.65h0Z"/><path d="m77.45,218.09h-1.53v-8.28h1.53v8.28Z"/><path d="m80.24,218.09h-1.53v-8.28h1.53v8.28Z"/><path d="m82.82,212.26l.04.54c.34-.43.79-.65,1.35-.65s.99.26,1.23.79c.33-.52.81-.79,1.43-.79,1.02,0,1.54.71,1.57,2.12v3.82h-1.53v-3.73c0-.34-.05-.58-.14-.72s-.25-.22-.47-.22c-.28,0-.5.17-.64.52v4.14h-1.51v-3.71c0-.33-.04-.58-.13-.72-.09-.15-.25-.22-.48-.22-.26,0-.47.14-.63.43v4.24h-1.53v-5.83h1.44Z"/><path d="m91.93,218.2c-.78,0-1.39-.23-1.83-.7s-.66-1.14-.66-2.01v-.46c0-.92.2-1.63.6-2.13.4-.5.98-.75,1.73-.75s1.29.23,1.66.7c.37.47.56,1.16.57,2.08v.75h-3.04c.02.43.12.75.29.95s.43.3.78.3c.51,0,.94-.17,1.28-.52l.6.92c-.19.26-.46.47-.81.63-.36.16-.74.24-1.16.24h-.01Zm-.96-3.58h1.53v-.14c0-.35-.06-.61-.17-.79s-.29-.27-.56-.27-.46.1-.58.29c-.12.19-.19.5-.21.92h0Z"/><path d="m96.22,212.26l.04.58c.34-.46.8-.68,1.35-.68,1,0,1.52.7,1.55,2.11v3.83h-1.53v-3.72c0-.33-.05-.57-.15-.72-.1-.15-.27-.22-.52-.22-.28,0-.49.14-.65.43v4.24h-1.53v-5.83h1.43v-.02Z"/><path d="m102.03,210.82v1.43h.78v1.14h-.78v2.9c0,.23.03.39.09.48s.18.13.36.13c.15,0,.27,0,.36-.04v1.19c-.27.1-.55.15-.85.15-.98,0-1.48-.56-1.49-1.69v-3.1h-.67v-1.14h.67v-1.43h1.53v-.02Z"/><path d="m111.28,211.56h-1.94v6.53h-1.59v-6.53h-1.91v-1.32h5.44v1.32Z"/><path d="m111.94,214.98c0-.88.21-1.58.62-2.08.42-.5.99-.75,1.73-.75s1.32.25,1.74.75c.42.5.63,1.2.63,2.09v.37c0,.89-.21,1.58-.62,2.08s-.99.75-1.74.75-1.33-.25-1.74-.75c-.42-.5-.62-1.2-.62-2.09v-.37h0Zm1.53.38c0,1.04.28,1.56.84,1.56.51,0,.79-.43.83-1.3v-.64c0-.53-.07-.93-.22-1.18s-.36-.39-.63-.39-.46.13-.61.39-.22.65-.22,1.18v.38h.01Z"/><path d="m119.39,210.82v1.43h.78v1.14h-.78v2.9c0,.23.03.39.09.48s.18.13.36.13c.15,0,.27,0,.36-.04v1.19c-.27.1-.55.15-.85.15-.98,0-1.48-.56-1.49-1.69v-3.1h-.67v-1.14h.67v-1.43h1.53v-.02Z"/><path d="m123.77,218.09c-.04-.09-.09-.24-.13-.45-.27.37-.64.56-1.11.56s-.89-.16-1.22-.49c-.32-.32-.48-.74-.48-1.26,0-.61.19-1.08.58-1.42.39-.33.95-.5,1.68-.51h.46v-.47c0-.26-.04-.45-.13-.56s-.22-.16-.39-.16c-.38,0-.57.22-.57.67h-1.53c0-.54.2-.98.61-1.33.4-.35.92-.53,1.53-.53s1.13.17,1.48.5.53.81.53,1.43v2.74c0,.5.08.9.22,1.18v.09h-1.54.01Zm-.9-1.08c.17,0,.31-.03.43-.1s.21-.15.26-.24v-1.21h-.37c-.26,0-.46.08-.61.25s-.22.39-.22.66c0,.43.17.65.51.65h0Z"/><path d="m127.75,218.09h-1.53v-8.28h1.53v8.28Z"/></g><g><path d="m131.5,218.09v-7.85h2.43c.82,0,1.44.18,1.87.55s.64.9.64,1.6c0,.4-.09.74-.26,1.03-.18.29-.42.5-.72.63.35.1.62.3.81.61s.29.68.29,1.12c0,.76-.21,1.34-.63,1.73s-1.03.58-1.82.58h-2.61Zm1.58-4.57h.83c.62,0,.93-.32.93-.96,0-.36-.07-.61-.22-.77-.14-.15-.38-.23-.7-.23h-.84v1.96h0Zm0,1.15v2.1h1.01c.28,0,.5-.09.65-.26.15-.18.22-.43.22-.75,0-.7-.25-1.07-.77-1.08h-1.12,0Z"/><path d="m137.64,210.75c0-.24.08-.43.23-.58s.35-.23.6-.23.45.08.6.23.23.35.23.58-.07.43-.22.58c-.15.15-.35.23-.61.23s-.46-.08-.61-.23-.22-.35-.22-.58h0Zm1.6,7.34h-1.53v-5.83h1.53v5.83Z"/><path d="m142.02,218.09h-1.53v-8.28h1.53v8.28Z"/><path d="m144.77,218.09h-1.53v-8.28h1.53v8.28Z"/><path d="m148.31,218.2c-.78,0-1.39-.23-1.83-.7-.44-.47-.66-1.14-.66-2.01v-.46c0-.92.2-1.63.6-2.13s.98-.75,1.73-.75,1.29.23,1.66.7.56,1.16.57,2.08v.75h-3.04c.02.43.12.75.29.95s.43.3.78.3c.51,0,.94-.17,1.28-.52l.6.92c-.19.26-.46.47-.81.63-.36.16-.74.24-1.16.24h-.01Zm-.96-3.58h1.53v-.14c0-.35-.06-.61-.17-.79-.11-.18-.29-.27-.56-.27s-.46.1-.58.29c-.12.19-.19.5-.21.92h-.01Z"/><path d="m151.03,215c0-.96.16-1.67.48-2.14s.79-.71,1.41-.71c.45,0,.82.19,1.12.58v-2.92h1.54v8.28h-1.39l-.07-.59c-.31.47-.72.7-1.21.7-.61,0-1.08-.23-1.4-.7s-.49-1.15-.49-2.06v-.44h0Zm1.53.38c0,.58.06.98.18,1.2.12.23.33.34.62.34s.53-.13.68-.4v-2.66c-.15-.29-.38-.43-.68-.43-.28,0-.49.11-.61.34s-.19.63-.19,1.21v.4Z"/><path d="m156.84,212.9c0-.24.08-.45.25-.6s.38-.24.64-.24.47.08.64.23c.17.16.25.36.25.61s-.09.45-.26.61c-.17.15-.38.23-.63.23s-.47-.08-.63-.23c-.17-.15-.25-.36-.25-.6h-.01Zm0,4.4c0-.24.08-.45.25-.6s.38-.24.64-.24.47.08.64.23.25.36.25.61-.09.45-.26.61c-.17.15-.38.23-.63.23s-.47-.08-.63-.23c-.17-.15-.25-.36-.25-.6h-.01Z"/><path d="m165.27,216.02c0-.3-.06-.53-.18-.71-.12-.17-.32-.33-.6-.48-.55-.24-.96-.48-1.22-.7s-.46-.48-.59-.77c-.13-.29-.19-.63-.19-1.03,0-.6.17-1.09.5-1.48s.77-.62,1.31-.69v-1.15h.81v1.17c.54.1.96.38,1.26.82.3.44.45,1,.45,1.68h-1.53c0-.43-.06-.75-.19-.96-.12-.21-.28-.32-.48-.32s-.34.08-.45.25c-.11.17-.16.4-.16.69,0,.26.06.47.17.64s.32.35.64.53c.57.27.99.52,1.24.75.25.22.44.48.56.76s.18.62.18,1.01c0,.61-.16,1.1-.48,1.48-.32.38-.77.61-1.33.68v1.07h-.81v-1.07c-.62-.09-1.1-.35-1.44-.8-.34-.44-.51-1.03-.51-1.76h1.53c0,.42.07.75.21.98.14.23.34.34.61.34.22,0,.39-.08.51-.25s.19-.39.19-.68h0Z"/><path d="m172.22,212.33c0,.38-.08.72-.24,1.01s-.38.53-.67.71c.32.18.58.44.77.76.19.32.28.7.28,1.13,0,.7-.2,1.25-.6,1.65s-.95.61-1.64.61-1.25-.2-1.66-.61c-.41-.4-.61-.96-.61-1.65,0-.43.09-.81.28-1.14.19-.32.44-.58.77-.75-.29-.18-.51-.41-.67-.71-.16-.29-.24-.63-.24-1.01,0-.69.19-1.22.58-1.61.38-.39.9-.58,1.55-.58s1.17.2,1.55.59c.38.39.57.93.57,1.61h-.02Zm-2.11,4.59c.23,0,.41-.1.53-.29s.19-.47.19-.82-.06-.62-.19-.82-.31-.3-.53-.3-.41.1-.54.3-.2.47-.2.82.07.62.2.82.31.29.55.29h0Zm.59-4.52c0-.31-.05-.55-.15-.73s-.25-.27-.46-.27-.34.09-.44.27-.15.42-.15.74.05.56.15.75.25.28.45.28.35-.09.45-.28.15-.44.15-.75h0Z"/><path d="m173.64,217.31c0-.24.08-.45.25-.6s.38-.24.64-.24.47.08.64.23.25.36.25.61-.09.45-.26.61c-.17.15-.38.23-.63.23s-.47-.08-.63-.23c-.17-.15-.25-.36-.25-.6h-.01Z"/><path d="m181.29,211.12l-2.48,6.97h-1.61l2.49-6.58h-3.15v-1.27h4.75v.88Z"/><path d="m184.62,218.09v-7.85h2.43c.82,0,1.44.18,1.87.55s.64.9.64,1.6c0,.4-.09.74-.26,1.03-.18.29-.42.5-.72.63.35.1.62.3.81.61s.29.68.29,1.12c0,.76-.21,1.34-.63,1.73s-1.03.58-1.82.58h-2.61Zm1.58-4.57h.83c.62,0,.93-.32.93-.96,0-.36-.07-.61-.22-.77-.14-.15-.38-.23-.7-.23h-.84v1.96h0Zm0,1.15v2.1h1.01c.28,0,.5-.09.65-.26.15-.18.22-.43.22-.75,0-.7-.25-1.07-.77-1.08h-1.12,0Z"/><path d="m190.77,210.75c0-.24.08-.43.23-.58s.35-.23.6-.23.45.08.6.23.23.35.23.58-.07.43-.22.58c-.15.15-.35.23-.61.23s-.46-.08-.61-.23-.22-.35-.22-.58h0Zm1.6,7.34h-1.53v-5.83h1.53v5.83Z"/><path d="m195.15,218.09h-1.53v-8.28h1.53v8.28Z"/><path d="m197.9,218.09h-1.53v-8.28h1.53v8.28Z"/><path d="m199.08,210.75c0-.24.08-.43.23-.58s.35-.23.6-.23.45.08.6.23.23.35.23.58-.07.43-.22.58c-.15.15-.35.23-.61.23s-.46-.08-.61-.23-.22-.35-.22-.58h0Zm1.6,7.34h-1.53v-5.83h1.53v5.83Z"/><path d="m201.65,214.98c0-.88.21-1.58.62-2.08.42-.5.99-.75,1.73-.75s1.32.25,1.74.75c.42.5.63,1.2.63,2.09v.37c0,.89-.21,1.58-.62,2.08s-.99.75-1.74.75-1.33-.25-1.74-.75c-.42-.5-.62-1.2-.62-2.09v-.37h0Zm1.53.38c0,1.04.28,1.56.84,1.56.51,0,.79-.43.83-1.3v-.64c0-.53-.07-.93-.22-1.18s-.36-.39-.63-.39-.46.13-.61.39-.22.65-.22,1.18v.38h.01Z"/><path d="m208.71,212.26l.04.58c.34-.46.8-.68,1.35-.68,1,0,1.52.7,1.55,2.11v3.83h-1.53v-3.72c0-.33-.05-.57-.15-.72s-.27-.22-.52-.22c-.28,0-.49.14-.65.43v4.24h-1.53v-5.83h1.43v-.02Z"/></g></svg>