<?xml version="1.0" encoding="UTF-8"?><svg id="Layer_1" xmlns="http://www.w3.org/2000/svg" viewBox="0 0 40 40"><defs><style>.cls-1{fill:#fff;}.cls-2{fill:#203864;}</style></defs><circle class="cls-1" cx="20" cy="20" r="20"/><path class="cls-2" d="m28.16,16.41l-.18-.2c-.97-.61-2.18-.65-3.39-.54-.27.04-.52.09-.77.13-.01-.02-.01-.04-.02-.04-.11-.24-.19-.49-.26-.75-.13-.52-.2-1.06-.33-1.58-.58-.46-1.11-1.13-1.45-1.84-.05-.08-.05-.11-.03-.2h-9.76l-.13.03-.03,2.3c-.11.02-.28-.06-.33.06l.03,1.97,7,.03.02,1.92c-.07.03-.14.06-.21.09-1.45.76-3.59.93-4.91.67.05-.27-.02-.57-.04-.67-.17-.17-.22-.18-.42-.24-.5-.2-1.05-.07-1.37.27v3.47c.11.77,1.06.84,2.14.97,1.32.3,3.67-.19,4.73-.79h.01s.04-.03.09-.05v1.41c.03.48-.57.45-.78.82-.41.1-.93.14-1.41.17v1.08h2.03l.13.07v2.11h2.46l.13.1.13,2.26,5.34.07c.07-2.25.03-4.58.04-6.83-.07-.5-.43-.8-.74-1.14-.18-.2-.35-.41-.44-.69.56,0,1.3.04,1.87-.1,1.19-.44.78-1.51.85-4.34Zm-16.27,4.6l-.04-.11v-2.96c.31-.23,1.07-.31,1.28.08.06,1-.01,1.91,0,2.99-.13-.03-.2-.18-.42-.2-.3.01-.65-.05-.82.2Zm15.59-.59c-.52.22-1.51.16-2.05.16-.2-.34-.43-1.14-.5-1.14h.07c-.07,0,1.46-.1,1.71.02.68.16.5.04.89.37.1.16.17.43-.12.59Zm.4-.83h-.04s-.01-.02-.03-.03h0s-.08-.04-.12-.07h-.01c-.87-.46-2.23-.33-3.3-.25-2.83.23-6.38,2.05-6.38,2.05,0,0-2.06,1.31-5.68.46-.08-.12-.52-.12-.23-.47.12-.2.33-.16.53-.17.14.07.35.02.27.27,0,.03-.24.13-.21.2.1.11.3.07.43.03.17-.04.26-.23.33-.36v-2.4l.1-.1c2.08.33,4-.03,5.65-1.08,1.31-.58,2.66-1.21,4.13-1.51.36-.07,3.14-.57,4.42.18l.09.11.06.1v3.04h-.01Z"/><path class="cls-2" d="m27.68,19.49h0s0,.01,0,0h0Z"/><path class="cls-2" d="m14.43,20.88h0c0,.24-.04.45-.4.45-.07,0-.17-.01-.24-.05v-.23c.06.03.12.06.18.06.18,0,.18-.13.18-.24l-.02-1.28h.27l.03,1.29h0Z"/><path class="cls-2" d="m15.41,20.52h0l-.12-.62h0l-.15.87h.33l-.06-.25h0Zm-.02-.96h0l.48,1.72h-.28l-.08-.34h-.41l-.07.34h-.27l.41-1.72h.22Z"/><polygon class="cls-2" points="16.37 19.88 16.37 19.88 16.4 20.05 16.42 21.18 16.17 21.21 16.15 19.41 16.38 19.37 16.92 20.66 16.95 20.66 16.88 19.97 16.88 19.33 17.14 19.24 17.15 21.01 16.89 21.07 16.35 19.77 16.35 19.77 16.37 19.88"/><path class="cls-2" d="m17.79,19.01h0l.02,1.21c.01.22.09.29.2.27.18-.03.2-.1.2-.24l.02-1.32.27-.14-.02,1.4c.01.23.05.38-.45.53-.41.12-.48-.25-.5-.56v-1.05l.26-.1h0Z"/><path class="cls-2" d="m19.44,19.27h0l-.14-.63h0l-.13.95.34-.07-.07-.25h0Zm-.06-.96h0l.52,1.65-.26.07-.1-.34-.44.13-.04.37-.3.13.37-1.96.25-.05h0Z"/><path class="cls-2" d="m20.73,18.41h0c.09-.51-.09-.3-.3-.3v.52c.22-.01.27-.05.3-.22h0Zm-.59-.45h0l.34-.08c.19,0,.5-.26.52.44,0,.16-.05.41-.28.44l.37.75-.26.08-.37-.77-.02-.07-.02.98-.26.07-.02-1.84h0Z"/><polygon class="cls-2" points="21.45 17.49 21.45 17.49 21.73 18.28 21.73 18.28 21.77 18.06 21.93 17.41 22.23 17.3 21.86 18.46 21.89 19.2 21.62 19.28 21.59 18.46 21.19 17.59 21.45 17.49"/><polygon class="cls-2" points="23.65 16.92 23.65 16.92 23.71 18.67 23.45 18.73 23.37 17.16 23.17 17.17 23.15 16.97 23.65 16.92"/><path class="cls-2" d="m24.84,17.15h0c0-.08-.01-.24-.15-.24s-.15.16-.15.24.02.26.15.26c.14,0,.15-.19.15-.26h0Zm.02.82h0c0-.1.01-.34-.17-.34-.17,0-.17.24-.17.34s.01.29.17.29c.16,0,.17-.19.17-.29h0Zm-.37-.47h0c-.2-.05-.23-.23-.23-.38,0-.24.09-.42.41-.42.34,0,.44.15.44.42,0,.15-.03.33-.22.39h0c.22.05.24.26.24.42,0,.26-.06.54-.45.54s-.44-.25-.44-.5c.01-.18.01-.41.25-.47h0Z"/><path class="cls-2" d="m25.77,17.62h0v-.2h.03c.24,0,.28-.07.28-.27,0-.09,0-.27-.16-.27-.14,0-.16.13-.16.23v.05h-.27v-.02c0-.26.04-.47.41-.47.34,0,.43.19.44.44,0,.16-.01.35-.22.41h0c.23.04.26.23.26.39,0,.27-.09.51-.47.51-.31,0-.44-.14-.44-.39v-.05h.26v.05c0,.1.05.19.17.19.2,0,.19-.21.19-.32,0-.15-.04-.29-.25-.28h-.07Z"/><polygon class="cls-2" points="27.18 16.94 27.18 16.94 27.14 18.71 26.86 18.66 26.91 17.18 26.7 17.13 26.68 16.89 27.18 16.94"/><path class="cls-2" d="m14.43,20.88h0c0,.24-.04.45-.4.45-.07,0-.17-.01-.24-.05v-.23c.06.03.12.06.18.06.18,0,.18-.13.18-.24l-.02-1.28h.27l.03,1.29h0Z"/><path class="cls-2" d="m15.41,20.52h0l-.12-.62h0l-.15.87h.33l-.06-.25h0Zm-.02-.96h0l.48,1.72h-.28l-.08-.34h-.41l-.07.34h-.27l.41-1.72h.22Z"/><polygon class="cls-2" points="16.37 19.88 16.37 19.88 16.4 20.05 16.42 21.18 16.17 21.21 16.15 19.41 16.38 19.37 16.92 20.66 16.95 20.66 16.88 19.97 16.88 19.33 17.14 19.24 17.15 21.01 16.89 21.07 16.35 19.77 16.35 19.77 16.37 19.88"/><path class="cls-2" d="m17.79,19.01h0l.02,1.21c.01.22.09.29.2.27.18-.03.2-.1.2-.24l.02-1.32.27-.14-.02,1.4c.01.23.05.38-.45.53-.41.12-.48-.25-.5-.56v-1.05l.26-.1h0Z"/><path class="cls-2" d="m19.44,19.27h0l-.14-.63h0l-.13.95.34-.07-.07-.25h0Zm-.06-.96h0l.52,1.65-.26.07-.1-.34-.44.13-.04.37-.3.13.37-1.96.25-.05h0Z"/><path class="cls-2" d="m20.73,18.41h0c.09-.51-.09-.3-.3-.3v.52c.22-.01.27-.05.3-.22h0Zm-.59-.45h0l.34-.08c.19,0,.5-.26.52.44,0,.16-.05.41-.28.44l.37.75-.26.08-.37-.77-.02-.07-.02.98-.26.07-.02-1.84h0Z"/><polygon class="cls-2" points="21.45 17.49 21.45 17.49 21.73 18.28 21.73 18.28 21.77 18.06 21.93 17.41 22.23 17.3 21.86 18.46 21.89 19.2 21.62 19.28 21.59 18.46 21.19 17.59 21.45 17.49"/><polygon class="cls-2" points="23.65 16.92 23.65 16.92 23.71 18.67 23.45 18.73 23.37 17.16 23.17 17.17 23.15 16.97 23.65 16.92"/><path class="cls-2" d="m24.84,17.15h0c0-.08-.01-.24-.15-.24s-.15.16-.15.24.02.26.15.26c.14,0,.15-.19.15-.26h0Zm.02.82h0c0-.1.01-.34-.17-.34-.17,0-.17.24-.17.34s.01.29.17.29c.16,0,.17-.19.17-.29h0Zm-.37-.47h0c-.2-.05-.23-.23-.23-.38,0-.24.09-.42.41-.42.34,0,.44.15.44.42,0,.15-.03.33-.22.39h0c.22.05.24.26.24.42,0,.26-.06.54-.45.54s-.44-.25-.44-.5c.01-.18.01-.41.25-.47h0Z"/><path class="cls-2" d="m25.77,17.62h0v-.2h.03c.24,0,.28-.07.28-.27,0-.09,0-.27-.16-.27-.14,0-.16.13-.16.23v.05h-.27v-.02c0-.26.04-.47.41-.47.34,0,.43.19.44.44,0,.16-.01.35-.22.41h0c.23.04.26.23.26.39,0,.27-.09.51-.47.51-.31,0-.44-.14-.44-.39v-.05h.26v.05c0,.1.05.19.17.19.2,0,.19-.21.19-.32,0-.15-.04-.29-.25-.28h-.07Z"/><polygon class="cls-2" points="27.18 16.94 27.18 16.94 27.14 18.71 26.86 18.66 26.91 17.18 26.7 17.13 26.68 16.89 27.18 16.94"/><path class="cls-2" d="m13.21,25.02h0l.07.16h.88l.03.53,1.01.03.03.27c.34-.02.87.22,1.08-.19.17-.02.35-.13.52-.04v.1c-.14-.01-.27,0-.36.1.05.51-.23.96-.27,1.48-.81-.07-1.68-.07-2.36.25-.88.48-1.92.72-3.03.57-.41-.49-1.06-.77-1.28-1.38.74-.07,1.72.2,2.17-.33l.78-.06c.08-.29-.04-.57.1-.82.06.09.14-.01.19-.06.07-.23-.27-.24-.26-.37l.42-.03.07-.96c.29.11.1.52.21.75h0Z"/><path class="cls-2" d="m18.55,28.09h0c.26,0,.38.31.49.43-1.73.71-3.51-.85-5.15.2-.72.22-1.47.38-2.3.35l-.19-.13c1.3-.01,2.36-.57,3.54-.88,1.31-.52,2.37.91,3.61.03h0Z"/><path class="cls-2" d="m18.95,29.15h0c.35-.24.58.13.85.26-1.26.4-2.53-.15-3.77-.29-.51-.13-.83.22-1.25.33-.66.24-1.39.37-2.16.27l-.43-.27c1.05.09,2.25-.37,3.32-.72,1.24-.12,2.15.79,3.44.42h0Z"/><path class="cls-2" d="m24.99,31.12h0v.06c-.55.06-.98-.35-1.58-.3-.79,0-1.6-.04-2.36.3-1.72.21-3.52-.87-5.15.03-.47.08-.96.25-1.38.24-.34-.12-.62-.37-.92-.57,1.08-.49,2.4-.97,3.84-.72,1.27.77,2.85.14,4.1-.23,1.3.11,2.33.64,3.45,1.19h0Z"/><path class="cls-2" d="m21.58,31.67h0c1.04-.16,2.32-.42,3.31-.03-.29.24-.72.19-.98.43-.08-.15.11-.04,0,0l-.29.1c-.42.11-2.93.76-4.99.26-.92,0-1.76-.21-2.53-.56h-.13c.9-.4,2.07-.57,3.02-.17.82.29,1.76.19,2.59-.03h0Z"/><path class="cls-2" d="m29.09,21.81h0l2.2.98h-3.84l1.64-.98h0Zm-.03-.26h0c-.79.42-1.43.84-2.13,1.41.04.02-.07.03-.06.07h5.21c-.96-.55-2.03-1.06-3.02-1.48h0Z"/><polygon class="cls-2" points="30.44 23.3 30.44 23.3 31.52 23.3 31.44 23.54 31.26 23.61 31.15 23.65 31.15 25.06 30.86 25.17 30.85 23.63 30.71 23.54 30.51 23.53 30.44 23.3"/><polygon class="cls-2" points="28.04 23.33 28.04 23.33 29.11 23.33 29.04 23.57 28.84 23.63 28.75 23.68 28.7 25.48 28.46 25.71 28.45 23.66 28.32 23.61 28.11 23.56 28.04 23.33"/><polygon class="cls-2" points="26.95 23.34 26.95 23.34 28.03 23.34 27.96 23.58 27.66 23.68 27.63 25.5 27.38 25.84 27.36 23.67 27.27 23.63 27.03 23.56 26.95 23.34"/><polygon class="cls-2" points="29.2 23.32 29.2 23.32 30.28 23.32 30.2 23.57 30.05 23.63 29.91 23.67 29.88 25.23 29.63 25.57 29.61 23.65 29.46 23.59 29.27 23.55 29.2 23.32"/><path class="cls-2" d="m27.74,13.33h0l.43.03c.09.4-.05.95.13,1.35.11.02.26-.05.34.06-.05.4.17.97-.37,1.03-.1.01-.1-.03-.12-.1-.54-.47-1.35-.65-2.12-.62-.03-.22.3-.27.47-.38h.09l.06-1.38h.28l.03-1.78h.74l.04,1.79h0Z"/><polygon class="cls-2" points="25.65 15.06 25.65 15.06 24.26 15.08 24.26 12.27 25.05 12.27 25.05 12.98 25.64 12.98 25.64 14.02 25.99 14.02 25.99 14.32 25.68 14.32 25.65 15.06"/><polygon class="cls-2" points="28.93 16.2 28.93 16.2 28.93 17.45 30.23 17.45 30.26 18.6 30.95 18.59 30.94 14.4 29.78 14.4 29.78 15.57 28.93 16.2"/><polygon class="cls-2" points="28.66 21.06 28.66 21.06 30.85 21.86 31.82 21.86 31.82 19.1 29.97 19.1 29.97 18.04 28.95 18.06 28.93 19.61 28.66 21.06"/><path class="cls-2" d="m20,39.45h0C9.27,39.45.54,30.72.54,20S9.27.54,20,.54s19.45,8.73,19.45,19.46-8.73,19.45-19.45,19.45h0ZM20,0h0C8.97,0,0,8.97,0,20s8.97,20,20,20,20-8.97,20-20S31.03,0,20,0h0Z"/><path class="cls-2" d="m20.24,33.46h0c-7.38,0-13.39-6.01-13.39-13.4s6.01-13.39,13.39-13.39,13.39,6.01,13.39,13.39-6,13.4-13.39,13.4h0Zm0-27.34h0c-7.69,0-13.94,6.26-13.94,13.94s6.25,13.94,13.94,13.94,13.94-6.25,13.94-13.94-6.25-13.94-13.94-13.94h0Z"/><path class="cls-2" d="m36.58,26.79h0l-.98-1.04-.97-.34.15-.44.97.34,1.41-.21-.17.5-1.01.07.76.65-.16.47h0Zm.64-3.61h0l.07-.57-1.88-.24.06-.46,1.88.24.07-.57.39.05-.21,1.61-.38-.06h0Zm-1.63-3.5h0l-.04-.46,1.65-1.31-1.75.16-.04-.44,2.28-.21.04.47-1.63,1.32,1.74-.16.04.42-2.29.21h0Zm.02-3.95h0c-.31.11-.83-.1-1.03-.65s.1-1.04.39-1.14l1.51-.54.16.45-1.47.52s-.33.19-.2.56c.08.23.35.4.6.31l1.38-.49.15.44-1.49.54h0Zm-1.01-3.95h0c.36-.25.44-.74.2-1.11-.25-.36-.74-.44-1.1-.19s-.44.74-.19,1.1c.24.36.73.45,1.09.2h0Zm.3.33h0c-.54.4-1.29.27-1.7-.27-.4-.54-.33-1.31.21-1.71s1.3-.27,1.7.27c.41.54.33,1.31-.21,1.71h0Zm-3.35-2.82h0s-.28-.06-.58-.42c-.45-.54-.36-1.28.13-1.67.5-.4,1.23-.43,1.72.16.15.18.25.39.3.61l-.4.33s-.03-.03-.04-.06c.05-.22-.02-.43-.14-.59-.26-.33-.73-.43-1.12-.1-.42.36-.34.8-.11,1.08.14.17.36.29.61.3l.02.03-.39.33h0Zm-5.08-3.59h0l-.55-.2-.28-1.34-.39,1.11-.43-.15.77-2.16.43.15-.34.96,1.01-.72.53.19-1.1.72.35,1.44h0Zm-3.71-2.26h0c.06-.43-.25-.83-.68-.88-.43-.06-.83.25-.88.68-.06.44.25.83.68.89.43.05.82-.26.88-.69h0Zm.45,0h0c-.06.67-.67,1.13-1.34,1.07s-1.19-.64-1.13-1.31c.07-.67.68-1.14,1.35-1.07.67.07,1.19.64,1.12,1.31h0Zm-4.61-.06h0c-.06-.44-.46-.73-.89-.67-.43.06-.73.46-.67.89s.46.73.9.67c.43-.06.72-.46.66-.89h0Zm.44-.12h0c.12.66-.34,1.27-1.01,1.39-.66.12-1.32-.3-1.44-.96s.35-1.28,1.01-1.39c.67-.12,1.32.29,1.44.96h0Zm-4.03,1.84h0s-.14.25-.58.43c-.65.27-1.33-.05-1.55-.63-.23-.6-.03-1.3.67-1.59.21-.09.45-.11.67-.1l.2.48s-.04.02-.07,0c-.2-.1-.41-.11-.6-.03-.39.15-.63.56-.44,1.04.21.51.66.57,1,.43.2-.09.39-.26.47-.49h.03s.2.45.2.45h0Zm-5.53,2.27h0l-.6.57.69.71-.33.32-1.6-1.65.93-.89.27.28-.6.57.37.39.6-.57.27.27h0Zm-2.4,2.24h0c-.35-.26-.84-.18-1.11.17-.26.35-.18.84.17,1.11.35.26.85.18,1.11-.17.26-.36.18-.85-.17-1.11h0Zm.22-.4h0c.55.38.66,1.14.29,1.7-.38.56-1.14.73-1.69.35s-.67-1.14-.29-1.7c.38-.55,1.13-.73,1.69-.35h0Zm-1.93,5.48h0l-.36,1.13-2.19-.69.13-.43,1.81.57.22-.7.39.12h0Zm-1.66,3.46h0l-1.07.19,1.01.4.06-.59h0Zm.92-.7h0l-.04.5-.5.11-.08.84.47.19-.05.48-2.21-1.03.05-.5,2.36-.59h0Zm-1.13,3.8h0l.1.82.59-.07-.1-.82.4-.05.15,1.28-2.28.27-.15-1.27.39-.05.1.81.53-.07-.1-.81.37-.04h0Zm-.32,3.68h0l.39.17c-.1.12-.13.27-.09.4.04.13.21.23.34.19.41-.14-.07-.98.7-1.24.43-.14.77.13.9.51.08.24.05.51-.08.73l-.39-.13c.09-.15.16-.33.1-.49-.05-.13-.17-.27-.37-.2-.44.15.05.97-.7,1.21-.34.11-.7-.08-.85-.45-.1-.23-.08-.49.05-.7h0Z"/><path class="cls-2" d="m34.1,28.66h0c.21.15.26.43.1.65s-.44.26-.65.11-.27-.44-.11-.65c.16-.22.45-.26.66-.11h0Zm-3.1,2.42h0v.42c-.14-.04-.29-.01-.39.08s-.13.28-.04.38c.29.33.87-.46,1.41.14.3.34.19.76-.1,1.02-.19.17-.45.25-.7.23l-.04-.41c.17.02.37.01.49-.1.1-.1.18-.27.04-.42-.31-.34-.86.43-1.39-.15-.24-.27-.2-.68.07-.96.16-.17.41-.26.65-.23h0Zm-1.73,3.95h0l-.39.24-1.18-1.97.39-.23,1.18,1.96h0Zm-3.57.51h0c-.13-.42-.58-.64-1-.5-.42.13-.64.58-.5,1,.13.41.58.64,1,.5.42-.14.64-.59.5-1h0Zm.41-.2h0c.23.63-.12,1.31-.75,1.55-.63.24-1.35-.06-1.58-.69s.12-1.32.75-1.55,1.35.06,1.58.69h0Zm-4.65,2.33h-.46s-1.21-1.71-1.21-1.71l.06,1.76-.44.02-.08-2.29.47-.02,1.22,1.71-.06-1.75h.42s.08,2.28.08,2.28h0Zm-4.74-.22h0l-.44-.08.42-2.25.45.08-.43,2.25h0Zm-2.86-.73h0l-1.11-.44.84-2.13.42.17-.69,1.76.68.27-.14.37h0Zm-3.33-1.56h0l-1-.65,1.26-1.92.38.25-1.04,1.58.61.4-.21.34h0Zm-3.06-2.34h0l-.33-.31,1.59-1.66.33.31-1.59,1.66h0Zm-1.16-3.68h0c-.2.16-.49.12-.65-.09s-.12-.5.09-.65c.2-.16.5-.13.66.09.15.21.1.5-.1.65h0Z"/></svg>