<?xml version="1.0" encoding="UTF-8"?><svg xmlns="http://www.w3.org/2000/svg" xmlns:xlink="http://www.w3.org/1999/xlink" viewBox="0 0 1086 430"><defs><style>.cls-1{letter-spacing:0em;}.cls-2{font-family:RobotoCondensed-Bold, 'Roboto Condensed';font-size:16px;font-weight:700;}.cls-2,.cls-3,.cls-4,.cls-5,.cls-6{fill:#595959;}.cls-7{letter-spacing:0em;}.cls-8{letter-spacing:0em;}.cls-9{letter-spacing:0em;}.cls-10{letter-spacing:0em;}.cls-11{letter-spacing:0em;}.cls-12{letter-spacing:0em;}.cls-13{letter-spacing:0em;}.cls-14,.cls-15{stroke-width:3px;}.cls-14,.cls-15,.cls-16,.cls-17,.cls-18,.cls-19{stroke-linecap:round;}.cls-14,.cls-15,.cls-16,.cls-17,.cls-18,.cls-19,.cls-20,.cls-21{fill:none;}.cls-14,.cls-15,.cls-16,.cls-17,.cls-18,.cls-19,.cls-21{stroke-linejoin:round;}.cls-14,.cls-17{stroke:#ed7d31;}.cls-15,.cls-16,.cls-18,.cls-19{stroke:#4472c4;}.cls-22{letter-spacing:0em;}.cls-23{letter-spacing:0em;}.cls-24{letter-spacing:0em;}.cls-25{letter-spacing:0em;}.cls-16{stroke-dasharray:0 0 0 8.01;}.cls-16,.cls-17,.cls-18,.cls-19{stroke-width:4px;}.cls-3{font-size:18px;}.cls-3,.cls-4{font-family:Roboto-Black, 'Roboto Black';font-weight:800;}.cls-26{letter-spacing:0em;}.cls-27{letter-spacing:0em;}.cls-28{letter-spacing:0em;}.cls-29{letter-spacing:0em;}.cls-18{stroke-dasharray:0 0 0 9.73;}.cls-30{clip-path:url(#clippath-1);}.cls-31{letter-spacing:0em;}.cls-32{letter-spacing:0em;}.cls-33{letter-spacing:0em;}.cls-34{letter-spacing:0em;}.cls-35{letter-spacing:0em;}.cls-36{letter-spacing:0em;}.cls-37{letter-spacing:0em;}.cls-4{font-size:9px;}.cls-38{letter-spacing:0em;}.cls-39{clip-path:url(#clippath);}.cls-20{clip-rule:evenodd;}.cls-40{letter-spacing:0em;}.cls-41{letter-spacing:0em;}.cls-21{stroke:#d9d9d9;stroke-width:.72px;}.cls-42{letter-spacing:0em;}.cls-5{font-family:RobotoCondensed-Regular, 'Roboto Condensed';font-size:17px;}.cls-43{letter-spacing:0em;}.cls-44{letter-spacing:0em;}.cls-45{letter-spacing:0em;}.cls-46{letter-spacing:0em;}.cls-47{letter-spacing:0em;}.cls-48{letter-spacing:0em;}.cls-49{letter-spacing:0em;}.cls-50{letter-spacing:0em;}.cls-51{letter-spacing:.01em;}.cls-52{letter-spacing:0em;}.cls-53{letter-spacing:0em;}.cls-54{letter-spacing:0em;}</style><clipPath id="clippath"><polygon class="cls-20" points="76.07 336.53 1054.07 336.53 1054.07 48.53 76.07 48.53 76.07 336.53 76.07 336.53"/></clipPath><clipPath id="clippath-1"><polygon class="cls-20" points="76.07 336.53 1054.07 336.53 1054.07 48.53 76.07 48.53 76.07 336.53 76.07 336.53"/></clipPath></defs><g id="Layer_1"><path class="cls-21" d="m76.19,294.77h977.28M76.19,253.73h977.28M76.19,212.69h977.28M76.19,171.65h977.28M76.19,130.61h977.28M76.19,89.57h977.28M76.19,48.53h977.28"/><line class="cls-21" x1="76.19" y1="335.81" x2="1053.47" y2="335.81"/><g class="cls-39"><polyline class="cls-17" points="85.97 85.67 105.41 75.95 124.97 115.79 144.53 157.07 164.09 189.47 183.65 213.59 203.21 232.67 222.77 244.31 242.33 254.03 261.89 260.63 281.33 266.99 300.89 271.79 320.45 274.79 340.01 277.79 359.57 279.95 379.13 282.47 398.69 284.15 418.25 286.07 437.69 287.63 457.25 289.07 476.81 289.79 496.37 290.63 515.93 291.71 535.49 292.19 555.05 292.67 574.61 293.87 594.05 294.23 613.61 295.19 633.17 295.31 652.73 296.03 672.29 296.99 691.85 297.23 711.41 298.07 730.97 298.31 750.53 298.67 769.97 299.03 789.53 299.51 809.09 300.11 828.65 300.11 848.21 300.47 867.77 300.47 887.33 300.47 906.89 300.83 926.33 301.19 945.89 302.39 965.45 301.31 985.01 302.03 1004.57 301.79 1024.13 302.51 1043.69 302.63"/></g><g class="cls-30"><line class="cls-19" x1="85.97" y1="101.03" x2="85.97" y2="101.03"/><line class="cls-18" x1="95.69" y1="100.61" x2="100.55" y2="100.4"/><line class="cls-19" x1="105.41" y1="100.19" x2="105.41" y2="100.19"/><polyline class="cls-16" points="108.78 107.45 124.97 142.43 144.53 178.55 164.09 208.19 183.65 230.15 203.21 245.87 222.77 256.55 242.33 264.23 261.89 269.75 281.33 274.79 300.89 278.39 320.45 281.51 340.01 283.79 359.57 285.71 379.13 287.75 398.69 289.31 418.25 290.63 437.69 291.95 457.25 292.91 476.81 293.87 496.37 294.47 515.93 295.31 535.49 295.67 555.05 296.15 574.61 296.87 594.05 297.23 613.61 297.71 633.17 297.95 652.73 298.55 672.29 299.03 691.85 299.39 711.41 299.87 730.97 299.99 750.53 300.23 769.97 300.71 789.53 301.07 809.09 301.31 828.65 301.55 848.21 301.91 867.77 302.15 887.33 302.15 906.89 302.39 926.33 302.51 945.89 303.35 965.45 302.63 985.01 303.47 1004.57 303.23 1024.13 303.83 1039.69 304.11"/><line class="cls-19" x1="1043.69" y1="304.19" x2="1043.69" y2="304.19"/></g><path class="cls-6" d="m65.44,370.44c-.2-.2-.41-.31-.62-.32-.21-.02-.5.05-.85.2-.35.15-.68.27-1,.38s-.62.17-.91.18c-.29.02-.57-.03-.83-.13s-.52-.28-.78-.53c-.43-.43-.64-.93-.63-1.5.01-.57.24-1.12.67-1.64l-.8-.8.61-.61.82.82c.53-.4,1.09-.57,1.67-.52.58.05,1.11.31,1.59.8l-1.29,1.29c-.26-.26-.52-.42-.76-.46-.24-.04-.46.03-.65.22-.17.17-.25.35-.23.55.01.2.11.39.3.58.19.19.39.28.61.29.22,0,.49-.06.83-.2s.66-.25.98-.36c.32-.1.62-.16.91-.18s.57.03.84.12c.27.1.53.27.79.53.43.43.65.93.65,1.48,0,.55-.22,1.09-.65,1.61l.77.77-.61.61-.77-.77c-.61.5-1.23.73-1.84.71s-1.19-.3-1.72-.83l1.28-1.28c.29.29.57.45.85.47.28.02.54-.08.77-.32.17-.17.26-.36.25-.56,0-.2-.1-.39-.28-.57h0Zm.78-3.26l-2.5-3.18,3.24-3.24,1,1-2.2,2.2.98,1.23c.04-.15.11-.31.22-.5.11-.19.23-.36.38-.5.55-.55,1.14-.81,1.76-.78.62.03,1.23.34,1.82.93.36.36.6.76.73,1.2.13.45.13.89,0,1.33-.13.44-.39.86-.79,1.25-.35.35-.75.6-1.19.76-.45.16-.88.2-1.31.13-.42-.08-.79-.27-1.1-.59l1.29-1.29c.22.19.44.29.68.29.24,0,.45-.09.64-.28.43-.43.33-.97-.31-1.61-.59-.59-1.15-.62-1.68-.09-.3.3-.43.62-.38.96l-1.26.78Zm9.1-.69l-.95.34-.13-.39c-.15-.51-.37-.92-.67-1.22l-.95-.95,1.03-1.03.82.83c.29.29.51.67.67,1.12.16.45.22.88.18,1.3h0Zm1.74-9.26c.75.75,1.16,1.5,1.23,2.24.07.74-.2,1.42-.81,2.03-.62.62-1.3.89-2.05.82s-1.49-.48-2.24-1.22l-1.01-1.01c-.75-.75-1.16-1.5-1.23-2.24-.07-.74.2-1.42.82-2.04.61-.61,1.3-.89,2.04-.82.75.07,1.49.48,2.24,1.23l1.01,1.01Zm-2.46.11c-.4-.4-.75-.64-1.05-.74s-.56-.03-.79.2c-.22.22-.29.47-.21.76.08.28.31.61.67.99l1.42,1.42c.41.41.77.67,1.07.75s.56.02.78-.21c.22-.22.29-.47.2-.76-.08-.29-.32-.64-.72-1.04l-1.37-1.37Zm6.96-4.6c.75.75,1.16,1.5,1.23,2.24.07.74-.2,1.42-.81,2.03-.62.62-1.3.89-2.05.82-.75-.07-1.49-.48-2.24-1.22l-1.01-1.01c-.75-.75-1.16-1.5-1.23-2.24-.07-.74.2-1.42.82-2.04s1.3-.89,2.04-.82c.75.07,1.49.48,2.24,1.23l1.01,1.01Zm-2.46.11c-.4-.4-.75-.64-1.05-.74-.3-.09-.56-.03-.79.2-.22.22-.29.47-.21.76.08.28.31.61.67.99l1.42,1.42c.41.41.77.67,1.07.75.3.09.56.02.78-.21.22-.22.29-.47.2-.76s-.32-.64-.72-1.04l-1.37-1.37Zm6.96-4.6c.75.75,1.16,1.5,1.23,2.24.07.74-.2,1.42-.81,2.03-.62.62-1.3.89-2.05.82-.75-.07-1.49-.48-2.24-1.22l-1.01-1.01c-.75-.75-1.16-1.5-1.23-2.24-.07-.74.2-1.42.82-2.04.61-.61,1.3-.89,2.04-.82.75.07,1.49.48,2.24,1.23l1.01,1.01Zm-2.46.11c-.4-.4-.75-.64-1.05-.74s-.56-.03-.79.2c-.22.22-.29.47-.21.76s.31.61.67.99l1.42,1.42c.41.41.77.67,1.07.75.3.09.56.02.78-.21.22-.22.29-.47.2-.76-.08-.29-.32-.64-.72-1.04l-1.37-1.37Z"/><path class="cls-6" d="m100.03,374.95c-.2-.2-.41-.31-.62-.32-.21-.02-.5.05-.85.2-.35.15-.68.27-1,.38-.32.11-.62.17-.91.18-.29.02-.57-.03-.83-.13-.26-.1-.52-.28-.78-.53-.43-.43-.64-.93-.63-1.5s.24-1.12.67-1.64l-.8-.8.61-.61.82.82c.53-.4,1.09-.57,1.67-.52.58.05,1.11.31,1.59.8l-1.29,1.29c-.26-.26-.52-.42-.76-.46-.24-.04-.46.03-.65.22-.17.17-.25.35-.23.55.01.2.11.39.3.58.19.19.39.28.61.29.22,0,.49-.06.83-.2.34-.14.66-.25.98-.36.32-.1.62-.16.91-.18s.57.03.84.12c.27.1.53.27.79.53.43.43.65.93.65,1.48,0,.55-.22,1.09-.65,1.61l.77.77-.61.61-.77-.77c-.61.5-1.23.73-1.84.71-.62-.03-1.19-.3-1.72-.83l1.28-1.28c.29.29.57.45.85.47.28.02.54-.08.77-.32.17-.17.26-.36.25-.56,0-.2-.1-.39-.28-.57h0Zm6.26-3.32l-1.29,1.29-4.1-4.1-.9,1.64-.98-.98,1.59-3.28.12-.12,5.55,5.55h0Zm-.98-4.44l-2.5-3.18,3.24-3.24,1,1-2.2,2.2.98,1.23c.04-.15.11-.31.22-.5.11-.19.23-.36.38-.5.55-.55,1.14-.81,1.76-.78s1.23.34,1.82.93c.36.36.6.76.73,1.2s.13.89,0,1.33-.39.86-.79,1.25c-.35.35-.75.6-1.19.76-.45.16-.88.2-1.31.13-.42-.08-.79-.27-1.1-.59l1.29-1.29c.22.19.44.29.68.29.24,0,.45-.09.64-.28.43-.43.33-.97-.31-1.61-.59-.59-1.15-.62-1.68-.09-.3.3-.43.62-.38.96l-1.26.78Zm9.1-.69l-.95.34-.13-.39c-.15-.51-.37-.92-.67-1.22l-.95-.95,1.03-1.03.82.83c.29.29.51.67.67,1.12.16.45.22.88.18,1.3h0Zm1.74-9.26c.75.75,1.16,1.5,1.23,2.24.07.74-.2,1.42-.81,2.03-.62.62-1.3.89-2.05.82-.75-.07-1.49-.48-2.24-1.22l-1.01-1.01c-.75-.75-1.16-1.5-1.23-2.24-.07-.74.2-1.42.82-2.04s1.3-.89,2.04-.82c.75.07,1.49.48,2.24,1.23l1.01,1.01Zm-2.46.11c-.4-.4-.75-.64-1.05-.74-.3-.09-.56-.03-.79.2-.22.22-.29.47-.21.76.08.28.31.61.67.99l1.42,1.42c.41.41.77.67,1.07.75.3.09.56.02.78-.21.22-.22.29-.47.2-.76s-.32-.64-.72-1.04l-1.37-1.37Zm6.96-4.6c.75.75,1.16,1.5,1.23,2.24.07.74-.2,1.42-.81,2.03-.62.62-1.3.89-2.05.82-.75-.07-1.49-.48-2.24-1.22l-1.01-1.01c-.75-.75-1.16-1.5-1.23-2.24-.07-.74.2-1.42.82-2.04.61-.61,1.3-.89,2.04-.82.75.07,1.49.48,2.24,1.23l1.01,1.01Zm-2.46.11c-.4-.4-.75-.64-1.05-.74-.3-.09-.56-.03-.79.2-.22.22-.29.47-.21.76.08.28.31.61.67.99l1.42,1.42c.41.41.77.67,1.07.75.3.09.56.02.78-.21.22-.22.29-.47.2-.76-.08-.29-.32-.64-.72-1.04l-1.37-1.37Zm6.96-4.6c.75.75,1.16,1.5,1.23,2.24.07.74-.2,1.42-.81,2.03-.62.62-1.3.89-2.05.82-.75-.07-1.49-.48-2.24-1.22l-1.01-1.01c-.75-.75-1.16-1.5-1.23-2.24-.07-.74.2-1.42.82-2.04.61-.61,1.3-.89,2.04-.82.75.07,1.49.48,2.24,1.23l1.01,1.01Zm-2.46.11c-.4-.4-.75-.64-1.05-.74s-.56-.03-.79.2c-.22.22-.29.47-.21.76.08.28.31.61.67.99l1.42,1.42c.41.41.77.67,1.07.75.3.09.56.02.78-.21.22-.22.29-.47.2-.76s-.32-.64-.72-1.04l-1.37-1.37Z"/><path class="cls-6" d="m139.12,374.95c-.2-.2-.41-.31-.62-.32-.21-.02-.5.05-.85.2-.35.15-.68.27-1,.38-.32.11-.62.17-.91.18-.29.02-.57-.03-.83-.13-.26-.1-.52-.28-.78-.53-.43-.43-.64-.93-.63-1.5s.24-1.12.67-1.64l-.8-.8.61-.61.82.82c.53-.4,1.09-.57,1.67-.52.58.05,1.11.31,1.59.8l-1.29,1.29c-.26-.26-.52-.42-.76-.46-.24-.04-.46.03-.65.22-.17.17-.25.35-.23.55.01.2.11.39.3.58.19.19.39.28.61.29.22,0,.49-.06.83-.2.34-.14.66-.25.98-.36.32-.1.62-.16.91-.18s.57.03.84.12c.27.1.53.27.79.53.43.43.65.93.65,1.48,0,.55-.22,1.09-.65,1.61l.77.77-.61.61-.77-.77c-.61.5-1.23.73-1.84.71-.62-.03-1.19-.3-1.72-.83l1.28-1.28c.29.29.57.45.85.47.28.02.54-.08.77-.32.17-.17.26-.36.25-.56,0-.2-.1-.39-.28-.57h0Zm7.28-4.34l-3.87,3.87-.84-.84-.09-3.66c-.06-.94-.24-1.56-.53-1.85-.24-.24-.47-.37-.7-.39-.23-.02-.44.07-.64.27-.2.2-.27.44-.23.73.04.29.19.56.44.81l-1.29,1.29c-.34-.34-.57-.74-.69-1.2-.12-.46-.11-.92.03-1.39.14-.47.4-.88.77-1.26.6-.6,1.2-.92,1.8-.97.6-.05,1.16.19,1.68.71.22.22.39.47.52.76.13.29.22.63.27,1.03.06.4.08.98.08,1.74l.11,1.54,2.18-2.18.99.99h0Zm-2.01-3.41l-2.5-3.18,3.24-3.24,1,1-2.2,2.2.98,1.23c.04-.15.11-.31.22-.5.11-.19.23-.36.38-.5.55-.55,1.14-.81,1.76-.78s1.23.34,1.82.93c.36.36.6.76.73,1.2s.13.89,0,1.33-.39.86-.79,1.25c-.35.35-.75.6-1.19.76-.45.16-.88.2-1.31.13-.42-.08-.79-.27-1.1-.59l1.29-1.29c.22.19.44.29.68.29.24,0,.45-.09.64-.28.43-.43.33-.97-.31-1.61-.59-.59-1.15-.62-1.68-.09-.3.3-.43.62-.38.96l-1.26.78Zm9.1-.69l-.95.34-.13-.39c-.15-.51-.37-.92-.67-1.22l-.95-.95,1.03-1.03.82.83c.29.29.51.67.67,1.12.16.45.22.88.18,1.3h0Zm1.74-9.26c.75.75,1.16,1.5,1.23,2.24.07.74-.2,1.42-.81,2.03-.62.62-1.3.89-2.05.82-.75-.07-1.49-.48-2.24-1.22l-1.01-1.01c-.75-.75-1.16-1.5-1.23-2.24-.07-.74.2-1.42.82-2.04s1.3-.89,2.04-.82c.75.07,1.49.48,2.24,1.23l1.01,1.01Zm-2.46.11c-.4-.4-.75-.64-1.05-.74-.3-.09-.56-.03-.79.2-.22.22-.29.47-.21.76.08.28.31.61.67.99l1.42,1.42c.41.41.77.67,1.07.75.3.09.56.02.78-.21.22-.22.29-.47.2-.76s-.32-.64-.72-1.04l-1.37-1.37Zm6.96-4.6c.75.75,1.16,1.5,1.23,2.24.07.74-.2,1.42-.81,2.03-.62.62-1.3.89-2.05.82-.75-.07-1.49-.48-2.24-1.22l-1.01-1.01c-.75-.75-1.16-1.5-1.23-2.24-.07-.74.2-1.42.82-2.04.61-.61,1.3-.89,2.04-.82.75.07,1.49.48,2.24,1.23l1.01,1.01Zm-2.46.11c-.4-.4-.75-.64-1.05-.74-.3-.09-.56-.03-.79.2-.22.22-.29.47-.21.76.08.28.31.61.67.99l1.42,1.42c.41.41.77.67,1.07.75.3.09.56.02.78-.21.22-.22.29-.47.2-.76-.08-.29-.32-.64-.72-1.04l-1.37-1.37Zm6.96-4.6c.75.75,1.16,1.5,1.23,2.24.07.74-.2,1.42-.81,2.03-.62.62-1.3.89-2.05.82-.75-.07-1.49-.48-2.24-1.22l-1.01-1.01c-.75-.75-1.16-1.5-1.23-2.24-.07-.74.2-1.42.82-2.04.61-.61,1.3-.89,2.04-.82.75.07,1.49.48,2.24,1.23l1.01,1.01Zm-2.46.11c-.4-.4-.75-.64-1.05-.74-.3-.09-.56-.03-.79.2-.22.22-.29.47-.21.76.08.28.31.61.67.99l1.42,1.42c.41.41.77.67,1.07.75.3.09.56.02.78-.21.22-.22.29-.47.2-.76-.08-.29-.32-.64-.72-1.04l-1.37-1.37Z"/><path class="cls-6" d="m178.21,374.95c-.2-.2-.41-.31-.62-.32-.21-.02-.5.05-.85.2-.35.15-.68.27-1,.38-.32.11-.62.17-.91.18-.29.02-.57-.03-.83-.13-.26-.1-.52-.28-.78-.53-.43-.43-.64-.93-.63-1.5s.24-1.12.67-1.64l-.8-.8.61-.61.82.82c.53-.4,1.09-.57,1.67-.52.58.05,1.11.31,1.59.8l-1.29,1.29c-.26-.26-.52-.42-.76-.46-.24-.04-.46.03-.65.22-.17.17-.25.35-.23.55.01.2.11.39.3.58.19.19.39.28.61.29.22,0,.49-.06.83-.2.34-.14.66-.25.98-.36.32-.1.62-.16.91-.18.29-.02.57.03.84.12.27.1.53.27.79.53.43.43.65.93.65,1.48,0,.55-.22,1.09-.65,1.61l.77.77-.61.61-.77-.77c-.61.5-1.23.73-1.84.71-.62-.03-1.19-.3-1.72-.83l1.28-1.28c.29.29.57.45.85.47.28.02.54-.08.77-.32.17-.17.26-.36.25-.56,0-.2-.1-.39-.28-.57h0Zm1.27-4.95l.61-.61c.48-.48.49-.96.02-1.43-.18-.18-.39-.28-.62-.28-.23,0-.45.1-.66.31-.17.17-.27.37-.3.59s.03.41.18.56l-1.28,1.28c-.29-.29-.47-.63-.54-1.03s-.02-.8.14-1.21.41-.8.76-1.14c.62-.62,1.24-.96,1.88-1.03.64-.07,1.2.14,1.69.63.24.24.39.54.46.9s.03.74-.12,1.16c.4-.19.79-.26,1.18-.21.38.05.74.23,1.06.55.5.5.7,1.08.62,1.76-.08.68-.44,1.33-1.06,1.95-.36.36-.77.63-1.22.8s-.88.22-1.28.13-.76-.28-1.08-.6l1.29-1.29c.17.17.39.25.65.24.26-.01.49-.12.69-.32.23-.23.34-.47.35-.73s-.08-.49-.28-.68c-.28-.28-.55-.41-.8-.39-.26.02-.51.16-.75.4l-.63.62-.96-.96h0Zm4-2.8l-2.5-3.18,3.24-3.24,1,1-2.2,2.2.98,1.23c.04-.15.11-.31.22-.5s.23-.36.38-.5c.55-.55,1.14-.81,1.76-.78.62.03,1.23.34,1.82.93.36.36.6.76.73,1.2.13.45.13.89,0,1.33-.13.44-.39.86-.79,1.25-.35.35-.75.6-1.19.76-.45.16-.88.2-1.31.13-.42-.08-.79-.27-1.1-.59l1.29-1.29c.22.19.44.29.68.29.24,0,.45-.09.64-.28.43-.43.33-.97-.31-1.61-.59-.59-1.15-.62-1.68-.09-.3.3-.43.62-.38.96l-1.26.78Zm9.1-.69l-.95.34-.13-.39c-.15-.51-.37-.92-.67-1.22l-.95-.95,1.03-1.03.82.83c.29.29.51.67.67,1.12.15.45.22.88.18,1.3h0Zm1.74-9.26c.75.75,1.16,1.5,1.23,2.24.07.74-.2,1.42-.81,2.03-.62.62-1.3.89-2.05.82-.75-.07-1.49-.48-2.24-1.22l-1.01-1.01c-.75-.75-1.16-1.5-1.23-2.24-.07-.74.2-1.42.82-2.04s1.3-.89,2.04-.82c.75.07,1.49.48,2.24,1.23l1.01,1.01Zm-2.46.11c-.4-.4-.75-.64-1.05-.74-.3-.09-.56-.03-.79.2-.22.22-.29.47-.21.76.08.28.31.61.67.99l1.42,1.42c.41.41.77.67,1.07.75.3.09.56.02.78-.21.22-.22.29-.47.2-.76-.08-.29-.32-.64-.72-1.04l-1.37-1.37Zm6.96-4.6c.75.75,1.16,1.5,1.23,2.24.07.74-.2,1.42-.81,2.03-.62.62-1.3.89-2.05.82-.75-.07-1.49-.48-2.24-1.22l-1.01-1.01c-.75-.75-1.16-1.5-1.23-2.24-.07-.74.2-1.42.82-2.04.61-.61,1.3-.89,2.04-.82.75.07,1.49.48,2.24,1.23l1.01,1.01Zm-2.46.11c-.4-.4-.75-.64-1.05-.74s-.56-.03-.79.2c-.22.22-.29.47-.21.76.08.28.31.61.67.99l1.42,1.42c.41.41.77.67,1.07.75.3.09.56.02.78-.21.22-.22.29-.47.2-.76-.08-.29-.32-.64-.72-1.04l-1.37-1.37Zm6.96-4.6c.75.75,1.16,1.5,1.23,2.24.07.74-.2,1.42-.81,2.03-.62.62-1.3.89-2.05.82-.75-.07-1.49-.48-2.24-1.22l-1.01-1.01c-.75-.75-1.16-1.5-1.23-2.24-.07-.74.2-1.42.82-2.04s1.3-.89,2.04-.82c.75.07,1.49.48,2.24,1.23l1.01,1.01Zm-2.46.11c-.4-.4-.75-.64-1.05-.74-.3-.09-.56-.03-.79.2-.22.22-.29.47-.21.76.08.28.31.61.67.99l1.42,1.42c.41.41.77.67,1.07.75.3.09.56.02.78-.21.22-.22.29-.47.2-.76-.08-.29-.32-.64-.72-1.04l-1.37-1.37Z"/><path class="cls-6" d="m217.31,374.95c-.2-.2-.41-.31-.62-.32-.21-.02-.5.05-.85.2-.35.15-.68.27-1,.38-.32.11-.62.17-.91.18-.29.02-.57-.03-.83-.13-.26-.1-.52-.28-.78-.53-.43-.43-.64-.93-.63-1.5s.24-1.12.67-1.64l-.8-.8.61-.61.82.82c.53-.4,1.09-.57,1.67-.52.58.05,1.11.31,1.59.8l-1.29,1.29c-.26-.26-.52-.42-.76-.46-.24-.04-.46.03-.65.22-.17.17-.25.35-.23.55.01.2.11.39.3.58.19.19.39.28.61.29.22,0,.49-.06.83-.2.34-.14.66-.25.98-.36.32-.1.62-.16.91-.18.29-.02.57.03.84.12.27.1.53.27.79.53.43.43.65.93.65,1.48,0,.55-.22,1.09-.65,1.61l.77.77-.61.61-.77-.77c-.61.5-1.23.73-1.84.71-.62-.03-1.19-.3-1.72-.83l1.28-1.28c.29.29.57.45.85.47.28.02.54-.08.77-.32.17-.17.26-.36.25-.56,0-.2-.1-.39-.28-.57h0Zm4.63-6.03l.56-.56.99.99-.56.56,1.18,1.18-1.28,1.28-1.18-1.18-2.15,2.15-.86-.71-1.35-5.8h-.01s1.28-1.3,1.28-1.3l3.38,3.38h0Zm-2.28,2.28l1-1-1.71-1.71.05.21.66,2.5h0Zm2.92-4.01l-2.5-3.18,3.24-3.24,1,1-2.2,2.2.98,1.23c.04-.15.11-.31.22-.5.11-.19.23-.36.38-.5.55-.55,1.14-.81,1.76-.78.62.03,1.23.34,1.82.93.36.36.6.76.73,1.2.13.45.13.89,0,1.33s-.39.86-.79,1.25c-.35.35-.75.6-1.19.76-.45.16-.88.2-1.31.13-.42-.08-.79-.27-1.1-.59l1.29-1.29c.22.19.44.29.68.29.24,0,.45-.09.64-.28.43-.43.33-.97-.31-1.61-.59-.59-1.15-.62-1.68-.09-.3.3-.43.62-.38.96l-1.26.78Zm9.1-.69l-.95.34-.13-.39c-.15-.51-.37-.92-.67-1.22l-.95-.95,1.03-1.03.82.83c.29.29.51.67.67,1.12.15.45.22.88.18,1.3h0Zm1.74-9.26c.75.75,1.16,1.5,1.23,2.24.07.74-.2,1.42-.81,2.03-.62.62-1.3.89-2.05.82-.75-.07-1.49-.48-2.24-1.22l-1.01-1.01c-.75-.75-1.16-1.5-1.23-2.24-.07-.74.2-1.42.82-2.04s1.3-.89,2.04-.82c.75.07,1.49.48,2.24,1.23l1.01,1.01Zm-2.46.11c-.4-.4-.75-.64-1.05-.74-.3-.09-.56-.03-.79.2-.22.22-.29.47-.21.76.08.28.31.61.67.99l1.42,1.42c.41.41.77.67,1.07.75.3.09.56.02.78-.21.22-.22.29-.47.2-.76-.08-.29-.32-.64-.72-1.04l-1.37-1.37Zm6.96-4.6c.75.75,1.16,1.5,1.23,2.24.07.74-.2,1.42-.81,2.03-.62.62-1.3.89-2.05.82-.75-.07-1.49-.48-2.24-1.22l-1.01-1.01c-.75-.75-1.16-1.5-1.23-2.24-.07-.74.2-1.42.82-2.04.61-.61,1.3-.89,2.04-.82.75.07,1.49.48,2.24,1.23l1.01,1.01Zm-2.46.11c-.4-.4-.75-.64-1.05-.74s-.56-.03-.79.2c-.22.22-.29.47-.21.76.08.28.31.61.67.99l1.42,1.42c.41.41.77.67,1.07.75s.56.02.78-.21c.22-.22.29-.47.2-.76-.08-.29-.32-.64-.72-1.04l-1.37-1.37Zm6.96-4.6c.75.75,1.16,1.5,1.23,2.24.07.74-.2,1.42-.81,2.03-.62.62-1.3.89-2.05.82-.75-.07-1.49-.48-2.24-1.22l-1.01-1.01c-.75-.75-1.16-1.5-1.23-2.24-.07-.74.2-1.42.82-2.04s1.3-.89,2.04-.82c.75.07,1.49.48,2.24,1.23l1.01,1.01Zm-2.46.11c-.4-.4-.75-.64-1.05-.74-.3-.09-.56-.03-.79.2-.22.22-.29.47-.21.76.08.28.31.61.67.99l1.42,1.42c.41.41.77.67,1.07.75s.56.02.78-.21c.22-.22.29-.47.2-.76s-.32-.64-.72-1.04l-1.37-1.37Z"/><path class="cls-6" d="m256.4,374.95c-.2-.2-.41-.31-.62-.32-.21-.02-.5.05-.85.2-.35.15-.68.27-1,.38-.32.11-.62.17-.91.18-.29.02-.57-.03-.83-.13-.26-.1-.52-.28-.78-.53-.43-.43-.64-.93-.63-1.5s.24-1.12.67-1.64l-.8-.8.61-.61.82.82c.53-.4,1.09-.57,1.67-.52.58.05,1.11.31,1.59.8l-1.29,1.29c-.26-.26-.52-.42-.76-.46-.24-.04-.46.03-.65.22-.17.17-.25.35-.23.55.01.2.11.39.3.58.19.19.39.28.61.29.22,0,.49-.06.83-.2.34-.14.66-.25.98-.36.32-.1.62-.16.91-.18.29-.02.57.03.84.12.27.1.53.27.79.53.43.43.65.93.65,1.48,0,.55-.22,1.09-.65,1.61l.77.77-.61.61-.77-.77c-.61.5-1.23.73-1.84.71-.62-.03-1.19-.3-1.72-.83l1.28-1.28c.29.29.57.45.85.47.28.02.54-.08.77-.32.17-.17.26-.36.25-.56,0-.2-.1-.39-.28-.57h0Zm.78-3.26l-2.5-3.18,3.24-3.24,1,1-2.2,2.2.98,1.23c.04-.15.11-.31.22-.5s.23-.36.38-.5c.55-.55,1.14-.81,1.76-.78.62.03,1.23.34,1.82.93.36.36.6.76.73,1.2.13.45.13.89,0,1.33s-.39.86-.79,1.25c-.35.35-.75.6-1.19.76-.45.16-.88.2-1.31.13-.42-.08-.79-.27-1.1-.59l1.29-1.29c.22.19.44.29.68.29.24,0,.45-.09.64-.28.43-.43.33-.97-.31-1.61-.59-.59-1.15-.62-1.68-.09-.3.3-.43.62-.38.96l-1.26.78Zm4.5-4.5l-2.5-3.18,3.24-3.24,1,1-2.2,2.2.98,1.23c.04-.15.11-.31.22-.5s.23-.36.38-.5c.55-.55,1.14-.81,1.76-.78.62.03,1.23.34,1.82.93.36.36.6.76.73,1.2.13.45.13.89,0,1.33-.13.44-.39.86-.79,1.25-.35.35-.75.6-1.19.76-.45.16-.88.2-1.31.13-.42-.08-.79-.27-1.1-.59l1.29-1.29c.22.19.44.29.68.29.24,0,.45-.09.64-.28.43-.43.33-.97-.31-1.61-.59-.59-1.15-.62-1.68-.09-.3.3-.43.62-.38.96l-1.26.78Zm9.1-.69l-.95.34-.13-.39c-.15-.51-.37-.92-.67-1.22l-.95-.95,1.03-1.03.82.83c.29.29.51.67.67,1.12.15.45.22.88.18,1.3h0Zm1.74-9.26c.75.75,1.16,1.5,1.23,2.24.07.74-.2,1.42-.81,2.03-.62.62-1.3.89-2.05.82-.75-.07-1.49-.48-2.24-1.22l-1.01-1.01c-.75-.75-1.16-1.5-1.23-2.24-.07-.74.2-1.42.82-2.04s1.3-.89,2.04-.82c.75.07,1.49.48,2.24,1.23l1.01,1.01Zm-2.46.11c-.4-.4-.75-.64-1.05-.74-.3-.09-.56-.03-.79.2-.22.22-.29.47-.21.76.08.28.31.61.67.99l1.42,1.42c.41.41.77.67,1.07.75.3.09.56.02.78-.21.22-.22.29-.47.2-.76-.08-.29-.32-.64-.72-1.04l-1.37-1.37Zm6.96-4.6c.75.75,1.16,1.5,1.23,2.24.07.74-.2,1.42-.81,2.03-.62.62-1.3.89-2.05.82-.75-.07-1.49-.48-2.24-1.22l-1.01-1.01c-.75-.75-1.16-1.5-1.23-2.24-.07-.74.2-1.42.82-2.04.61-.61,1.3-.89,2.04-.82.75.07,1.49.48,2.24,1.23l1.01,1.01Zm-2.46.11c-.4-.4-.75-.64-1.05-.74s-.56-.03-.79.2c-.22.22-.29.47-.21.76.08.28.31.61.67.99l1.42,1.42c.41.41.77.67,1.07.75.3.09.56.02.78-.21.22-.22.29-.47.2-.76-.08-.29-.32-.64-.72-1.04l-1.37-1.37Zm6.96-4.6c.75.75,1.16,1.5,1.23,2.24.07.74-.2,1.42-.81,2.03-.62.62-1.3.89-2.05.82-.75-.07-1.49-.48-2.24-1.22l-1.01-1.01c-.75-.75-1.16-1.5-1.23-2.24-.07-.74.2-1.42.82-2.04s1.3-.89,2.04-.82c.75.07,1.49.48,2.24,1.23l1.01,1.01Zm-2.46.11c-.4-.4-.75-.64-1.05-.74-.3-.09-.56-.03-.79.2-.22.22-.29.47-.21.76.08.28.31.61.67.99l1.42,1.42c.41.41.77.67,1.07.75.3.09.56.02.78-.21.22-.22.29-.47.2-.76-.08-.29-.32-.64-.72-1.04l-1.37-1.37Z"/><path class="cls-6" d="m295.49,374.95c-.2-.2-.41-.31-.62-.32-.21-.02-.5.05-.85.2-.35.15-.68.27-1,.38-.32.11-.62.17-.91.18-.29.02-.57-.03-.83-.13-.26-.1-.52-.28-.78-.53-.43-.43-.64-.93-.63-1.5.01-.57.24-1.12.67-1.64l-.8-.8.61-.61.82.82c.53-.4,1.09-.57,1.67-.52s1.11.31,1.59.8l-1.29,1.29c-.26-.26-.52-.42-.76-.46-.24-.04-.46.03-.65.22-.17.17-.25.35-.23.55.01.2.11.39.3.58.19.19.39.28.61.29.22,0,.49-.06.83-.2s.66-.25.98-.36c.32-.1.62-.16.91-.18.29-.02.57.03.84.12.27.1.53.27.79.53.43.43.65.93.65,1.48,0,.55-.22,1.09-.65,1.61l.77.77-.61.61-.77-.77c-.61.5-1.23.73-1.84.71-.62-.03-1.19-.3-1.72-.83l1.28-1.28c.29.29.57.45.85.47.28.02.54-.08.77-.32.17-.17.26-.36.25-.56,0-.2-.1-.39-.28-.57h0Zm.88-9.2l1.01,1.01-.06.06c-.48.48-.76.99-.84,1.53-.08.54.05,1.05.39,1.53,0-.57.23-1.08.67-1.52.48-.48,1.04-.69,1.67-.62.64.07,1.24.38,1.81.95.35.35.59.76.72,1.22s.13.92,0,1.39c-.13.47-.38.88-.74,1.24-.39.39-.84.66-1.32.79-.49.13-.99.12-1.49-.04-.51-.16-.98-.45-1.42-.88l-.51-.51c-.57-.57-.96-1.21-1.17-1.91-.21-.7-.22-1.41-.02-2.12s.57-1.35,1.12-1.9l.19-.19Zm1.71,4.03c-.17.17-.27.35-.31.54s-.02.37.03.55l.38.39c.7.7,1.29.81,1.78.32.2-.2.27-.45.23-.75-.04-.31-.2-.59-.46-.86-.27-.27-.56-.43-.87-.47-.3-.04-.57.05-.79.27h0Zm2.68-2.58l-2.5-3.18,3.24-3.24,1,1-2.2,2.2.98,1.23c.04-.15.11-.31.22-.5s.23-.36.38-.5c.55-.55,1.14-.81,1.76-.78s1.23.34,1.82.93c.36.36.6.76.73,1.2s.13.89,0,1.33-.39.86-.79,1.25c-.35.35-.75.6-1.19.76-.45.16-.88.2-1.31.13-.42-.08-.79-.27-1.1-.59l1.29-1.29c.22.19.44.29.68.29.24,0,.45-.09.64-.28.43-.43.33-.97-.31-1.61-.59-.59-1.15-.62-1.68-.09-.3.3-.43.62-.38.96l-1.26.78Zm9.1-.69l-.95.34-.13-.39c-.15-.51-.37-.92-.67-1.22l-.95-.95,1.03-1.03.82.83c.29.29.51.67.67,1.12.15.45.22.88.18,1.3h0Zm1.74-9.26c.75.75,1.16,1.5,1.23,2.24.07.74-.2,1.42-.81,2.03-.62.62-1.3.89-2.05.82-.75-.07-1.49-.48-2.24-1.22l-1.01-1.01c-.75-.75-1.16-1.5-1.23-2.24-.07-.74.2-1.42.82-2.04.61-.61,1.3-.89,2.04-.82.75.07,1.49.48,2.24,1.23l1.01,1.01Zm-2.46.11c-.4-.4-.75-.64-1.05-.74-.3-.09-.56-.03-.79.2-.22.22-.29.47-.21.76.08.28.31.61.67.99l1.42,1.42c.41.41.77.67,1.07.75s.56.02.78-.21c.22-.22.29-.47.2-.76s-.32-.64-.72-1.04l-1.37-1.37Zm6.96-4.6c.75.75,1.16,1.5,1.23,2.24.07.74-.2,1.42-.81,2.03-.62.62-1.3.89-2.05.82-.75-.07-1.49-.48-2.24-1.22l-1.01-1.01c-.75-.75-1.16-1.5-1.23-2.24-.07-.74.2-1.42.82-2.04.61-.61,1.3-.89,2.04-.82.75.07,1.49.48,2.24,1.23l1.01,1.01Zm-2.46.11c-.4-.4-.75-.64-1.05-.74s-.56-.03-.79.2c-.22.22-.29.47-.21.76.08.28.31.61.67.99l1.42,1.42c.41.41.77.67,1.07.75.3.09.56.02.78-.21.22-.22.29-.47.2-.76-.08-.29-.32-.64-.72-1.04l-1.37-1.37Zm6.96-4.6c.75.75,1.16,1.5,1.23,2.24.07.74-.2,1.42-.81,2.03-.62.62-1.3.89-2.05.82-.75-.07-1.49-.48-2.24-1.22l-1.01-1.01c-.75-.75-1.16-1.5-1.23-2.24-.07-.74.2-1.42.82-2.04s1.3-.89,2.04-.82c.75.07,1.49.48,2.24,1.23l1.01,1.01Zm-2.46.11c-.4-.4-.75-.64-1.05-.74-.3-.09-.56-.03-.79.2-.22.22-.29.47-.21.76.08.28.31.61.67.99l1.42,1.42c.41.41.77.67,1.07.75.3.09.56.02.78-.21.22-.22.29-.47.2-.76-.08-.29-.32-.64-.72-1.04l-1.37-1.37Z"/><path class="cls-6" d="m334.58,374.95c-.2-.2-.41-.31-.62-.32-.21-.02-.5.05-.85.2-.35.15-.68.27-1,.38-.32.11-.62.17-.91.18-.29.02-.57-.03-.83-.13-.26-.1-.52-.28-.78-.53-.43-.43-.64-.93-.63-1.5.01-.57.24-1.12.67-1.64l-.8-.8.61-.61.82.82c.53-.4,1.09-.57,1.67-.52s1.11.31,1.59.8l-1.29,1.29c-.26-.26-.52-.42-.76-.46-.24-.04-.46.03-.65.22-.17.17-.25.35-.23.55.01.2.11.39.3.58.19.19.39.28.61.29.22,0,.49-.06.83-.2s.66-.25.98-.36c.32-.1.62-.16.91-.18.29-.02.57.03.84.12.27.1.53.27.79.53.43.43.65.93.65,1.48,0,.55-.22,1.09-.65,1.61l.77.77-.61.61-.77-.77c-.61.5-1.23.73-1.84.71-.62-.03-1.19-.3-1.72-.83l1.28-1.28c.29.29.57.45.85.47.28.02.54-.08.77-.32.17-.17.26-.36.25-.56,0-.2-.1-.39-.28-.57h0Zm2.4-9.19l2.79,6.94-1.36,1.36-2.48-6.64-2.65,2.65-.99-.99,4-4,.69.69h0Zm2.87,1.44l-2.5-3.18,3.24-3.24,1,1-2.2,2.2.98,1.23c.04-.15.11-.31.22-.5s.23-.36.38-.5c.55-.55,1.14-.81,1.76-.78s1.23.34,1.82.93c.36.36.6.76.73,1.2s.13.89,0,1.33-.39.86-.79,1.25c-.35.35-.75.6-1.19.76-.45.16-.88.2-1.31.13-.42-.08-.79-.27-1.1-.59l1.29-1.29c.22.19.44.29.68.29.24,0,.45-.09.64-.28.43-.43.33-.97-.31-1.61-.59-.59-1.15-.62-1.68-.09-.3.3-.43.62-.38.96l-1.26.78Zm9.1-.69l-.95.34-.13-.39c-.15-.51-.37-.92-.67-1.22l-.95-.95,1.03-1.03.82.83c.29.29.51.67.67,1.12.15.45.22.88.18,1.3h0Zm1.74-9.26c.75.75,1.16,1.5,1.23,2.24.07.74-.2,1.42-.81,2.03-.62.62-1.3.89-2.05.82-.75-.07-1.49-.48-2.24-1.22l-1.01-1.01c-.75-.75-1.16-1.5-1.23-2.24-.07-.74.2-1.42.82-2.04.61-.61,1.3-.89,2.04-.82.75.07,1.49.48,2.24,1.23l1.01,1.01Zm-2.46.11c-.4-.4-.75-.64-1.05-.74-.3-.09-.56-.03-.79.2-.22.22-.29.47-.21.76.08.28.31.61.67.99l1.42,1.42c.41.41.77.67,1.07.75s.56.02.78-.21c.22-.22.29-.47.2-.76s-.32-.64-.72-1.04l-1.37-1.37Zm6.96-4.6c.75.75,1.16,1.5,1.23,2.24.07.74-.2,1.42-.81,2.03-.62.62-1.3.89-2.05.82-.75-.07-1.49-.48-2.24-1.22l-1.01-1.01c-.75-.75-1.16-1.5-1.23-2.24-.07-.74.2-1.42.82-2.04.61-.61,1.3-.89,2.04-.82.75.07,1.49.48,2.24,1.23l1.01,1.01Zm-2.46.11c-.4-.4-.75-.64-1.05-.74s-.56-.03-.79.2c-.22.22-.29.47-.21.76.08.28.31.61.67.99l1.42,1.42c.41.41.77.67,1.07.75.3.09.56.02.78-.21.22-.22.29-.47.2-.76-.08-.29-.32-.64-.72-1.04l-1.37-1.37Zm6.96-4.6c.75.75,1.16,1.5,1.23,2.24.07.74-.2,1.42-.81,2.03-.62.62-1.3.89-2.05.82-.75-.07-1.49-.48-2.24-1.22l-1.01-1.01c-.75-.75-1.16-1.5-1.23-2.24-.07-.74.2-1.42.82-2.04s1.3-.89,2.04-.82c.75.07,1.49.48,2.24,1.23l1.01,1.01Zm-2.46.11c-.4-.4-.75-.64-1.05-.74-.3-.09-.56-.03-.79.2-.22.22-.29.47-.21.76.08.28.31.61.67.99l1.42,1.42c.41.41.77.67,1.07.75.3.09.56.02.78-.21.22-.22.29-.47.2-.76-.08-.29-.32-.64-.72-1.04l-1.37-1.37Z"/><path class="cls-6" d="m373.67,374.95c-.2-.2-.41-.31-.62-.32-.21-.02-.5.05-.85.2-.35.15-.68.27-1,.38-.32.11-.62.17-.91.18-.29.02-.57-.03-.83-.13-.26-.1-.52-.28-.78-.53-.43-.43-.64-.93-.63-1.5.01-.57.24-1.12.67-1.64l-.8-.8.61-.61.82.82c.53-.4,1.09-.57,1.67-.52s1.11.31,1.59.8l-1.29,1.29c-.26-.26-.52-.42-.76-.46-.24-.04-.46.03-.65.22-.17.17-.25.35-.23.55.01.2.11.39.3.58.19.19.39.28.61.29.22,0,.49-.06.83-.2s.66-.25.98-.36c.32-.1.62-.16.91-.18.29-.02.57.03.84.12.27.1.53.27.79.53.43.43.65.93.65,1.48,0,.55-.22,1.09-.65,1.61l.77.77-.61.61-.77-.77c-.61.5-1.23.73-1.84.71-.62-.03-1.19-.3-1.72-.83l1.28-1.28c.29.29.57.45.85.47.28.02.54-.08.77-.32.17-.17.26-.36.25-.56,0-.2-.1-.39-.28-.57h0Zm3.09-8.28c.27.27.44.57.51.91.07.34.05.69-.06,1.05.39-.13.78-.17,1.16-.1.38.07.72.26,1.03.57.5.5.72,1.06.66,1.69-.05.63-.38,1.24-.98,1.84-.6.6-1.22.93-1.86.99-.64.06-1.2-.16-1.69-.65-.3-.3-.48-.64-.56-1.02-.08-.38-.04-.78.11-1.19-.36.11-.71.13-1.05.06-.34-.07-.65-.24-.91-.51-.48-.48-.7-1.03-.65-1.64s.35-1.19.91-1.75c.56-.56,1.15-.87,1.75-.91.61-.05,1.15.17,1.64.65h0Zm1.26,3.61c-.23-.23-.46-.35-.71-.35-.24,0-.46.09-.65.28-.19.19-.29.41-.28.65s.12.48.35.71c.22.22.46.34.71.34.25,0,.47-.09.67-.28.19-.19.28-.41.27-.65s-.13-.48-.35-.7h0Zm-3.66-2.36c-.17.17-.25.36-.22.56.02.2.13.41.34.61.2.2.4.31.62.34.21.03.41-.04.59-.22.18-.18.25-.37.21-.58-.03-.21-.15-.41-.35-.61s-.4-.31-.6-.33c-.2-.02-.4.05-.57.23h0Zm4.58-.73l-2.5-3.18,3.24-3.24,1,1-2.2,2.2.98,1.23c.04-.15.11-.31.22-.5s.23-.36.38-.5c.55-.55,1.14-.81,1.76-.78s1.23.34,1.82.93c.36.36.6.76.73,1.2s.13.89,0,1.33-.39.86-.79,1.25c-.35.35-.75.6-1.19.76-.45.16-.88.2-1.31.13-.42-.08-.79-.27-1.1-.59l1.29-1.29c.22.19.44.29.68.29.24,0,.45-.09.64-.28.43-.43.33-.97-.31-1.61-.59-.59-1.15-.62-1.68-.09-.3.3-.43.62-.38.96l-1.26.78Zm9.1-.69l-.95.34-.13-.39c-.15-.51-.37-.92-.67-1.22l-.95-.95,1.03-1.03.82.83c.29.29.51.67.67,1.12.15.45.22.88.18,1.3h0Zm1.74-9.26c.75.75,1.16,1.5,1.23,2.24.07.74-.2,1.42-.81,2.03-.62.62-1.3.89-2.05.82-.75-.07-1.49-.48-2.24-1.22l-1.01-1.01c-.75-.75-1.16-1.5-1.23-2.24-.07-.74.2-1.42.82-2.04.61-.61,1.3-.89,2.04-.82.75.07,1.49.48,2.24,1.23l1.01,1.01Zm-2.46.11c-.4-.4-.75-.64-1.05-.74-.3-.09-.56-.03-.79.2-.22.22-.29.47-.21.76.08.28.31.61.67.99l1.42,1.42c.41.41.77.67,1.07.75s.56.02.78-.21c.22-.22.29-.47.2-.76s-.32-.64-.72-1.04l-1.37-1.37Zm6.96-4.6c.75.75,1.16,1.5,1.23,2.24.07.74-.2,1.42-.81,2.03-.62.62-1.3.89-2.05.82-.75-.07-1.49-.48-2.24-1.22l-1.01-1.01c-.75-.75-1.16-1.5-1.23-2.24-.07-.74.2-1.42.82-2.04.61-.61,1.3-.89,2.04-.82.75.07,1.49.48,2.24,1.23l1.01,1.01Zm-2.46.11c-.4-.4-.75-.64-1.05-.74s-.56-.03-.79.2c-.22.22-.29.47-.21.76.08.28.31.61.67.99l1.42,1.42c.41.41.77.67,1.07.75.3.09.56.02.78-.21.22-.22.29-.47.2-.76-.08-.29-.32-.64-.72-1.04l-1.37-1.37Zm6.96-4.6c.75.75,1.16,1.5,1.23,2.24.07.74-.2,1.42-.81,2.03-.62.62-1.3.89-2.05.82-.75-.07-1.49-.48-2.24-1.22l-1.01-1.01c-.75-.75-1.16-1.5-1.23-2.24-.07-.74.2-1.42.82-2.04s1.3-.89,2.04-.82c.75.07,1.49.48,2.24,1.23l1.01,1.01Zm-2.46.11c-.4-.4-.75-.64-1.05-.74-.3-.09-.56-.03-.79.2-.22.22-.29.47-.21.76.08.28.31.61.67.99l1.42,1.42c.41.41.77.67,1.07.75.3.09.56.02.78-.21.22-.22.29-.47.2-.76-.08-.29-.32-.64-.72-1.04l-1.37-1.37Z"/><path class="cls-6" d="m412.76,374.95c-.2-.2-.41-.31-.62-.32-.21-.02-.5.05-.85.2-.35.15-.68.27-1,.38-.32.11-.62.17-.91.18-.29.02-.57-.03-.83-.13-.26-.1-.52-.28-.78-.53-.43-.43-.64-.93-.63-1.5.01-.57.24-1.12.67-1.64l-.8-.8.61-.61.82.82c.53-.4,1.09-.57,1.67-.52s1.11.31,1.59.8l-1.29,1.29c-.26-.26-.52-.42-.76-.46-.24-.04-.46.03-.65.22-.17.17-.25.35-.23.55.01.2.11.39.3.58.19.19.39.28.61.29.22,0,.49-.06.83-.2s.66-.25.98-.36c.32-.1.62-.16.91-.18.29-.02.57.03.84.12.27.1.53.27.79.53.43.43.65.93.65,1.48,0,.55-.22,1.09-.65,1.61l.77.77-.61.61-.77-.77c-.61.5-1.23.73-1.84.71-.62-.03-1.19-.3-1.72-.83l1.28-1.28c.29.29.57.45.85.47.28.02.54-.08.77-.32.17-.17.26-.36.25-.56,0-.2-.1-.39-.28-.57h0Zm3.8-5.15c-.03.53-.21.96-.56,1.3-.5.5-1.07.73-1.71.69-.64-.05-1.24-.35-1.81-.92-.36-.36-.6-.77-.74-1.24-.14-.47-.15-.94-.03-1.42.12-.48.36-.9.72-1.26.37-.37.79-.6,1.27-.72s.97-.08,1.47.09c.5.17.98.47,1.42.91l.49.49c.61.61,1.02,1.26,1.23,1.95.21.69.21,1.38,0,2.06-.2.69-.6,1.33-1.19,1.92l-.08.08-1.03-1.03.24-.25c.84-.93.94-1.82.29-2.66h0Zm-1.14.03c.28-.28.36-.6.24-.96l-.53-.53c-.36-.36-.68-.56-.97-.61-.29-.05-.54.03-.74.23-.18.18-.24.43-.16.74.07.32.24.61.52.88.29.29.58.46.88.51.3.05.55-.04.77-.25h0Zm2.61-2.64l-2.5-3.18,3.24-3.24,1,1-2.2,2.2.98,1.23c.04-.15.11-.31.22-.5s.23-.36.38-.5c.55-.55,1.14-.81,1.76-.78s1.23.34,1.82.93c.36.36.6.76.73,1.2s.13.89,0,1.33-.39.86-.79,1.25c-.35.35-.75.6-1.19.76-.45.16-.88.2-1.31.13-.42-.08-.79-.27-1.1-.59l1.29-1.29c.22.19.44.29.68.29.24,0,.45-.09.64-.28.43-.43.33-.97-.31-1.61-.59-.59-1.15-.62-1.68-.09-.3.3-.43.62-.38.96l-1.26.78Zm9.1-.69l-.95.34-.13-.39c-.15-.51-.37-.92-.67-1.22l-.95-.95,1.03-1.03.82.83c.29.29.51.67.67,1.12.15.45.22.88.18,1.3h0Zm1.74-9.26c.75.75,1.16,1.5,1.23,2.24.07.74-.2,1.42-.81,2.03-.62.62-1.3.89-2.05.82-.75-.07-1.49-.48-2.24-1.22l-1.01-1.01c-.75-.75-1.16-1.5-1.23-2.24-.07-.74.2-1.42.82-2.04.61-.61,1.3-.89,2.04-.82.75.07,1.49.48,2.24,1.23l1.01,1.01Zm-2.46.11c-.4-.4-.75-.64-1.05-.74-.3-.09-.56-.03-.79.2-.22.22-.29.47-.21.76.08.28.31.61.67.99l1.42,1.42c.41.41.77.67,1.07.75s.56.02.78-.21c.22-.22.29-.47.2-.76s-.32-.64-.72-1.04l-1.37-1.37Zm6.96-4.6c.75.75,1.16,1.5,1.23,2.24.07.74-.2,1.42-.81,2.03-.62.62-1.3.89-2.05.82-.75-.07-1.49-.48-2.24-1.22l-1.01-1.01c-.75-.75-1.16-1.5-1.23-2.24-.07-.74.2-1.42.82-2.04.61-.61,1.3-.89,2.04-.82.75.07,1.49.48,2.24,1.23l1.01,1.01Zm-2.46.11c-.4-.4-.75-.64-1.05-.74s-.56-.03-.79.2c-.22.22-.29.47-.21.76.08.28.31.61.67.99l1.42,1.42c.41.41.77.67,1.07.75.3.09.56.02.78-.21.22-.22.29-.47.2-.76-.08-.29-.32-.64-.72-1.04l-1.37-1.37Zm6.96-4.6c.75.75,1.16,1.5,1.23,2.24.07.74-.2,1.42-.81,2.03-.62.62-1.3.89-2.05.82-.75-.07-1.49-.48-2.24-1.22l-1.01-1.01c-.75-.75-1.16-1.5-1.23-2.24-.07-.74.2-1.42.82-2.04s1.3-.89,2.04-.82c.75.07,1.49.48,2.24,1.23l1.01,1.01Zm-2.46.11c-.4-.4-.75-.64-1.05-.74s-.56-.03-.79.2c-.22.22-.29.47-.21.76.08.28.31.61.67.99l1.42,1.42c.41.41.77.67,1.07.75.3.09.56.02.78-.21.22-.22.29-.47.2-.76-.08-.29-.32-.64-.72-1.04l-1.37-1.37Z"/><path class="cls-6" d="m447.35,379.45c-.2-.2-.41-.31-.62-.32-.21-.02-.5.05-.85.2-.35.15-.68.27-1,.38-.32.11-.62.17-.91.18-.29.02-.57-.03-.83-.13-.26-.1-.52-.28-.78-.53-.43-.43-.64-.93-.63-1.5.01-.57.24-1.12.67-1.64l-.8-.8.61-.61.82.82c.53-.4,1.09-.57,1.67-.52s1.11.31,1.59.8l-1.29,1.29c-.26-.26-.52-.42-.76-.46-.24-.04-.46.03-.65.22-.17.17-.25.35-.23.55.01.2.11.39.3.58.19.19.39.28.61.29.22,0,.49-.06.83-.2s.66-.25.98-.36c.32-.1.62-.16.91-.18.29-.02.57.03.84.12.27.1.53.27.79.53.43.43.65.93.65,1.48,0,.55-.22,1.09-.65,1.61l.77.77-.61.61-.77-.77c-.61.5-1.23.73-1.84.71-.62-.03-1.19-.3-1.72-.83l1.28-1.28c.29.29.57.45.85.47.28.02.54-.08.77-.32.17-.17.26-.36.25-.56,0-.2-.1-.39-.28-.57h0Zm6.26-3.32l-1.29,1.29-4.1-4.1-.9,1.64-.98-.98,1.59-3.28.12-.12,5.55,5.55h0Zm3.24-7.77c.75.75,1.16,1.5,1.23,2.24.07.74-.2,1.42-.81,2.03-.62.62-1.3.89-2.05.82-.75-.07-1.49-.48-2.24-1.22l-1.01-1.01c-.75-.75-1.16-1.5-1.23-2.24-.07-.74.2-1.42.82-2.04.61-.61,1.3-.89,2.04-.82.75.07,1.49.48,2.24,1.23l1.01,1.01Zm-2.46.11c-.4-.4-.75-.64-1.05-.74-.3-.09-.56-.03-.79.2-.22.22-.29.47-.21.76.08.28.31.61.67.99l1.42,1.42c.41.41.77.67,1.07.75.3.09.56.02.78-.21.22-.22.29-.47.2-.76-.08-.29-.32-.64-.72-1.04l-1.37-1.37Zm2.74-1.27l-2.5-3.18,3.24-3.24,1,1-2.2,2.2.98,1.23c.04-.15.11-.31.22-.5.11-.19.23-.36.38-.5.55-.55,1.14-.81,1.76-.78.62.03,1.23.34,1.82.93.36.36.6.76.73,1.2.13.45.13.89,0,1.33-.13.44-.39.86-.79,1.25-.35.35-.75.6-1.19.76-.45.16-.88.2-1.31.13-.42-.08-.79-.27-1.1-.59l1.29-1.29c.22.19.44.29.68.29.24,0,.45-.09.64-.28.43-.43.33-.97-.31-1.61-.59-.59-1.15-.62-1.68-.09-.3.3-.43.62-.38.96l-1.26.78Zm9.1-.69l-.95.34-.13-.39c-.15-.51-.37-.92-.67-1.22l-.95-.95,1.03-1.03.82.83c.29.29.51.67.67,1.12s.22.88.18,1.3h0Zm1.74-9.26c.75.75,1.16,1.5,1.23,2.24.07.74-.2,1.42-.81,2.03-.62.62-1.3.89-2.05.82-.75-.07-1.49-.48-2.24-1.22l-1.01-1.01c-.75-.75-1.16-1.5-1.23-2.24-.07-.74.2-1.42.82-2.04.61-.61,1.3-.89,2.04-.82.75.07,1.49.48,2.24,1.23l1.01,1.01Zm-2.46.11c-.4-.4-.75-.64-1.05-.74s-.56-.03-.79.2c-.22.22-.29.47-.21.76.08.28.31.61.67.99l1.42,1.42c.41.41.77.67,1.07.75.3.09.56.02.78-.21.22-.22.29-.47.2-.76-.08-.29-.32-.64-.72-1.04l-1.37-1.37Zm6.96-4.6c.75.75,1.16,1.5,1.23,2.24.07.74-.2,1.42-.81,2.03-.62.62-1.3.89-2.05.82-.75-.07-1.49-.48-2.24-1.22l-1.01-1.01c-.75-.75-1.16-1.5-1.23-2.24-.07-.74.2-1.42.82-2.04s1.3-.89,2.04-.82c.75.07,1.49.48,2.24,1.23l1.01,1.01Zm-2.46.11c-.4-.4-.75-.64-1.05-.74s-.56-.03-.79.2c-.22.22-.29.47-.21.76.08.28.31.61.67.99l1.42,1.42c.41.41.77.67,1.07.75.3.09.56.02.78-.21.22-.22.29-.47.2-.76-.08-.29-.32-.64-.72-1.04l-1.37-1.37Zm6.96-4.6c.75.75,1.16,1.5,1.23,2.24.07.74-.2,1.42-.81,2.03-.62.62-1.3.89-2.05.82-.75-.07-1.49-.48-2.24-1.22l-1.01-1.01c-.75-.75-1.16-1.5-1.23-2.24-.07-.74.2-1.42.82-2.04.61-.61,1.3-.89,2.04-.82.75.07,1.49.48,2.24,1.23l1.01,1.01Zm-2.46.11c-.4-.4-.75-.64-1.05-.74-.3-.09-.56-.03-.79.2-.22.22-.29.47-.21.76s.31.61.67.99l1.42,1.42c.41.41.77.67,1.07.75s.56.02.78-.21c.22-.22.29-.47.2-.76-.08-.29-.32-.64-.72-1.04l-1.37-1.37Z"/><path class="cls-6" d="m486.44,379.45c-.2-.2-.41-.31-.62-.32-.21-.02-.5.05-.85.2-.35.15-.68.27-1,.38-.32.11-.62.17-.91.18-.29.02-.57-.03-.83-.13-.26-.1-.52-.28-.78-.53-.43-.43-.64-.93-.63-1.5.01-.57.24-1.12.67-1.64l-.8-.8.61-.61.82.82c.53-.4,1.09-.57,1.67-.52s1.11.31,1.59.8l-1.29,1.29c-.26-.26-.52-.42-.76-.46-.24-.04-.46.03-.65.22-.17.17-.25.35-.23.55.01.2.11.39.3.58.19.19.39.28.61.29.22,0,.49-.06.83-.2s.66-.25.98-.36c.32-.1.62-.16.91-.18.29-.02.57.03.84.12.27.1.53.27.79.53.43.43.65.93.65,1.48,0,.55-.22,1.09-.65,1.61l.77.77-.61.61-.77-.77c-.61.5-1.23.73-1.84.71-.62-.03-1.19-.3-1.72-.83l1.28-1.28c.29.29.57.45.85.47.28.02.54-.08.77-.32.17-.17.26-.36.25-.56,0-.2-.1-.39-.28-.57h0Zm6.26-3.32l-1.29,1.29-4.1-4.1-.9,1.64-.98-.98,1.59-3.28.12-.12,5.55,5.55h0Zm4.5-4.5l-1.29,1.29-4.1-4.1-.9,1.64-.98-.98,1.59-3.28.12-.12,5.55,5.55h0Zm-.98-4.44l-2.5-3.18,3.24-3.24,1,1-2.2,2.2.98,1.23c.04-.15.11-.31.22-.5.11-.19.23-.36.38-.5.55-.55,1.14-.81,1.76-.78.62.03,1.23.34,1.82.93.36.36.6.76.73,1.2.13.45.13.89,0,1.33-.13.44-.39.86-.79,1.25-.35.35-.75.6-1.19.76-.45.16-.88.2-1.31.13-.42-.08-.79-.27-1.1-.59l1.29-1.29c.22.19.44.29.68.29.24,0,.45-.09.64-.28.43-.43.33-.97-.31-1.61-.59-.59-1.15-.62-1.68-.09-.3.3-.43.62-.38.96l-1.26.78Zm9.1-.69l-.95.34-.13-.39c-.15-.51-.37-.92-.67-1.22l-.95-.95,1.03-1.03.82.83c.29.29.51.67.67,1.12s.22.88.18,1.3h0Zm1.74-9.26c.75.75,1.16,1.5,1.23,2.24.07.74-.2,1.42-.81,2.03-.62.62-1.3.89-2.05.82-.75-.07-1.49-.48-2.24-1.22l-1.01-1.01c-.75-.75-1.16-1.5-1.23-2.24-.07-.74.2-1.42.82-2.04.61-.61,1.3-.89,2.04-.82.75.07,1.49.48,2.24,1.23l1.01,1.01Zm-2.46.11c-.4-.4-.75-.64-1.05-.74s-.56-.03-.79.2c-.22.22-.29.47-.21.76.08.28.31.61.67.99l1.42,1.42c.41.41.77.67,1.07.75.3.09.56.02.78-.21.22-.22.29-.47.2-.76-.08-.29-.32-.64-.72-1.04l-1.37-1.37Zm6.96-4.6c.75.75,1.16,1.5,1.23,2.24.07.74-.2,1.42-.81,2.03-.62.62-1.3.89-2.05.82-.75-.07-1.49-.48-2.24-1.22l-1.01-1.01c-.75-.75-1.16-1.5-1.23-2.24-.07-.74.2-1.42.82-2.04s1.3-.89,2.04-.82c.75.07,1.49.48,2.24,1.23l1.01,1.01Zm-2.46.11c-.4-.4-.75-.64-1.05-.74s-.56-.03-.79.2c-.22.22-.29.47-.21.76.08.28.31.61.67.99l1.42,1.42c.41.41.77.67,1.07.75.3.09.56.02.78-.21.22-.22.29-.47.2-.76-.08-.29-.32-.64-.72-1.04l-1.37-1.37Zm6.96-4.6c.75.75,1.16,1.5,1.23,2.24.07.74-.2,1.42-.81,2.03-.62.62-1.3.89-2.05.82-.75-.07-1.49-.48-2.24-1.22l-1.01-1.01c-.75-.75-1.16-1.5-1.23-2.24-.07-.74.2-1.42.82-2.04.61-.61,1.3-.89,2.04-.82.75.07,1.49.48,2.24,1.23l1.01,1.01Zm-2.46.11c-.4-.4-.75-.64-1.05-.74-.3-.09-.56-.03-.79.2-.22.22-.29.47-.21.76s.31.61.67.99l1.42,1.42c.41.41.77.67,1.07.75s.56.02.78-.21c.22-.22.29-.47.2-.76-.08-.29-.32-.64-.72-1.04l-1.37-1.37Z"/><path class="cls-6" d="m525.53,379.45c-.2-.2-.41-.31-.62-.32-.21-.02-.5.05-.85.2-.35.15-.68.27-1,.38-.32.11-.62.17-.91.18-.29.02-.57-.03-.83-.13-.26-.1-.52-.28-.78-.53-.43-.43-.64-.93-.63-1.5.01-.57.24-1.12.67-1.64l-.8-.8.61-.61.82.82c.53-.4,1.09-.57,1.67-.52s1.11.31,1.59.8l-1.29,1.29c-.26-.26-.52-.42-.76-.46-.24-.04-.46.03-.65.22-.17.17-.25.35-.23.55.01.2.11.39.3.58.19.19.39.28.61.29.22,0,.49-.06.83-.2s.66-.25.98-.36c.32-.1.62-.16.91-.18.29-.02.57.03.84.12.27.1.53.27.79.53.43.43.65.93.65,1.48,0,.55-.22,1.09-.65,1.61l.77.77-.61.61-.77-.77c-.61.5-1.23.73-1.84.71-.62-.03-1.19-.3-1.72-.83l1.28-1.28c.29.29.57.45.85.47.28.02.54-.08.77-.32.17-.17.26-.36.25-.56,0-.2-.1-.39-.28-.57h0Zm6.26-3.32l-1.29,1.29-4.1-4.1-.9,1.64-.98-.98,1.59-3.28.12-.12,5.55,5.55h0Zm5.52-5.52l-3.87,3.87-.84-.84-.09-3.66c-.06-.94-.24-1.56-.53-1.85-.24-.24-.47-.37-.7-.39-.23-.02-.44.07-.64.27-.2.2-.27.44-.23.73s.19.56.44.81l-1.29,1.29c-.34-.34-.57-.74-.69-1.2s-.11-.92.03-1.39c.14-.47.4-.88.77-1.26.6-.6,1.2-.92,1.8-.97.6-.05,1.16.19,1.68.71.22.22.39.47.52.76.13.29.22.63.27,1.03s.08.98.08,1.74l.11,1.54,2.18-2.18.99.99h0Zm-2.01-3.41l-2.5-3.18,3.24-3.24,1,1-2.2,2.2.98,1.23c.04-.15.11-.31.22-.5.11-.19.23-.36.38-.5.55-.55,1.14-.81,1.76-.78.62.03,1.23.34,1.82.93.36.36.6.76.73,1.2.13.45.13.89,0,1.33s-.39.86-.79,1.25c-.35.35-.75.6-1.19.76-.45.16-.88.2-1.31.13-.42-.08-.79-.27-1.1-.59l1.29-1.29c.22.19.44.29.68.29.24,0,.45-.09.64-.28.43-.43.33-.97-.31-1.61-.59-.59-1.15-.62-1.68-.09-.3.3-.43.62-.38.96l-1.26.78Zm9.1-.69l-.95.34-.13-.39c-.15-.51-.37-.92-.67-1.22l-.95-.95,1.03-1.03.82.83c.29.29.51.67.67,1.12s.22.88.18,1.3h0Zm1.74-9.26c.75.75,1.16,1.5,1.23,2.24.07.74-.2,1.42-.81,2.03-.62.62-1.3.89-2.05.82-.75-.07-1.49-.48-2.24-1.22l-1.01-1.01c-.75-.75-1.16-1.5-1.23-2.24-.07-.74.2-1.42.82-2.04.61-.61,1.3-.89,2.04-.82.75.07,1.49.48,2.24,1.23l1.01,1.01Zm-2.46.11c-.4-.4-.75-.64-1.05-.74-.3-.09-.56-.03-.79.2-.22.22-.29.47-.21.76.08.28.31.61.67.99l1.42,1.42c.41.41.77.67,1.07.75.3.09.56.02.78-.21.22-.22.29-.47.2-.76-.08-.29-.32-.64-.72-1.04l-1.37-1.37Zm6.96-4.6c.75.75,1.16,1.5,1.23,2.24.07.74-.2,1.42-.81,2.03-.62.62-1.3.89-2.05.82-.75-.07-1.49-.48-2.24-1.22l-1.01-1.01c-.75-.75-1.16-1.5-1.23-2.24-.07-.74.2-1.42.82-2.04.61-.61,1.3-.89,2.04-.82.75.07,1.49.48,2.24,1.23l1.01,1.01Zm-2.46.11c-.4-.4-.75-.64-1.05-.74s-.56-.03-.79.2c-.22.22-.29.47-.21.76.08.28.31.61.67.99l1.42,1.42c.41.41.77.67,1.07.75.3.09.56.02.78-.21.22-.22.29-.47.2-.76s-.32-.64-.72-1.04l-1.37-1.37Zm6.96-4.6c.75.75,1.16,1.5,1.23,2.24.07.74-.2,1.42-.81,2.03-.62.62-1.3.89-2.05.82-.75-.07-1.49-.48-2.24-1.22l-1.01-1.01c-.75-.75-1.16-1.5-1.23-2.24-.07-.74.2-1.42.82-2.04.61-.61,1.3-.89,2.04-.82.75.07,1.49.48,2.24,1.23l1.01,1.01Zm-2.46.11c-.4-.4-.75-.64-1.05-.74-.3-.09-.56-.03-.79.2-.22.22-.29.47-.21.76s.31.61.67.99l1.42,1.42c.41.41.77.67,1.07.75.3.09.56.02.78-.21.22-.22.29-.47.2-.76-.08-.29-.32-.64-.72-1.04l-1.37-1.37Z"/><path class="cls-6" d="m564.62,379.45c-.2-.2-.41-.31-.62-.32-.21-.02-.5.05-.85.2-.35.15-.68.27-1,.38-.32.11-.62.17-.91.18-.29.02-.57-.03-.83-.13-.26-.1-.52-.28-.78-.53-.43-.43-.64-.93-.63-1.5.01-.57.24-1.12.67-1.64l-.8-.8.61-.61.82.82c.53-.4,1.09-.57,1.67-.52s1.11.31,1.59.8l-1.29,1.29c-.26-.26-.52-.42-.76-.46-.24-.04-.46.03-.65.22-.17.17-.25.35-.23.55.01.2.11.39.3.58.19.19.39.28.61.29.22,0,.49-.06.83-.2.34-.14.66-.25.98-.36.32-.1.62-.16.91-.18.29-.02.57.03.84.12.27.1.53.27.79.53.43.43.65.93.65,1.48,0,.55-.22,1.09-.65,1.61l.77.77-.61.61-.77-.77c-.61.5-1.23.73-1.84.71s-1.19-.3-1.72-.83l1.28-1.28c.29.29.57.45.85.47.28.02.54-.08.77-.32.17-.17.26-.36.25-.56,0-.2-.1-.39-.28-.57h0Zm6.26-3.32l-1.29,1.29-4.1-4.1-.9,1.64-.98-.98,1.59-3.28.12-.12,5.55,5.55h0Zm-.49-6.14l.61-.61c.48-.48.49-.96.02-1.43-.18-.18-.39-.27-.62-.28-.23,0-.45.1-.66.31-.17.17-.27.37-.3.59-.03.22.03.41.18.56l-1.28,1.28c-.29-.29-.47-.63-.54-1.03-.07-.39-.02-.8.14-1.21s.41-.8.76-1.14c.62-.62,1.24-.96,1.88-1.03.64-.07,1.2.14,1.69.63.24.24.39.54.46.9.07.36.03.74-.12,1.15.4-.19.79-.26,1.18-.21.39.05.74.23,1.06.55.5.5.7,1.08.62,1.76s-.44,1.33-1.06,1.95c-.36.36-.77.63-1.22.8-.45.17-.88.22-1.28.13-.41-.08-.76-.28-1.08-.6l1.29-1.29c.17.17.39.25.65.24.26-.01.49-.12.69-.32.23-.23.34-.47.35-.73,0-.26-.08-.49-.28-.68-.28-.28-.55-.41-.8-.39-.26.02-.51.16-.75.4l-.63.63-.96-.96h0Zm4-2.8l-2.5-3.18,3.24-3.24,1,1-2.2,2.2.98,1.23c.04-.15.11-.31.22-.5.11-.19.23-.36.38-.5.55-.55,1.14-.81,1.76-.78.62.03,1.23.34,1.82.93.36.36.6.76.73,1.2.13.45.13.89,0,1.33s-.39.86-.79,1.25c-.35.35-.75.6-1.19.76-.45.16-.88.2-1.31.13-.42-.08-.79-.27-1.1-.59l1.29-1.29c.22.19.44.29.68.29.24,0,.45-.09.64-.28.43-.43.33-.97-.31-1.61-.59-.59-1.15-.62-1.68-.09-.3.3-.43.62-.38.96l-1.26.78Zm9.1-.69l-.95.34-.13-.39c-.15-.51-.37-.92-.67-1.22l-.95-.95,1.03-1.03.82.83c.29.29.51.67.67,1.12s.22.88.18,1.3h0Zm1.74-9.26c.75.75,1.16,1.5,1.23,2.24.07.74-.2,1.42-.81,2.03-.62.62-1.3.89-2.05.82-.75-.07-1.49-.48-2.24-1.22l-1.01-1.01c-.75-.75-1.16-1.5-1.23-2.24-.07-.74.2-1.42.82-2.04.61-.61,1.3-.89,2.04-.82.75.07,1.49.48,2.24,1.23l1.01,1.01Zm-2.46.11c-.4-.4-.75-.64-1.05-.74s-.56-.03-.79.2c-.22.22-.29.47-.21.76s.31.61.67.99l1.42,1.42c.41.41.77.67,1.07.75.3.09.56.02.78-.21.22-.22.29-.47.2-.76-.08-.29-.32-.64-.72-1.04l-1.37-1.37Zm6.96-4.6c.75.75,1.16,1.5,1.23,2.24.07.74-.2,1.42-.81,2.03-.62.62-1.3.89-2.05.82-.75-.07-1.49-.48-2.24-1.22l-1.01-1.01c-.75-.75-1.16-1.5-1.23-2.24-.07-.74.2-1.42.82-2.04.61-.61,1.3-.89,2.04-.82.75.07,1.49.48,2.24,1.23l1.01,1.01Zm-2.46.11c-.4-.4-.75-.64-1.05-.74s-.56-.03-.79.2c-.22.22-.29.47-.21.76.08.28.31.61.67.99l1.42,1.42c.41.41.77.67,1.07.75.3.09.56.02.78-.21.22-.22.29-.47.2-.76s-.32-.64-.72-1.04l-1.37-1.37Zm6.96-4.6c.75.75,1.16,1.5,1.23,2.24.07.74-.2,1.42-.81,2.03-.62.62-1.3.89-2.05.82-.75-.07-1.49-.48-2.24-1.22l-1.01-1.01c-.75-.75-1.16-1.5-1.23-2.24-.07-.74.2-1.42.82-2.04.61-.61,1.3-.89,2.04-.82.75.07,1.49.48,2.24,1.23l1.01,1.01Zm-2.46.11c-.4-.4-.75-.64-1.05-.74-.3-.09-.56-.03-.79.2-.22.22-.29.47-.21.76s.31.61.67.99l1.42,1.42c.41.41.77.67,1.07.75.3.09.56.02.78-.21.22-.22.29-.47.2-.76-.08-.29-.32-.64-.72-1.04l-1.37-1.37Z"/><path class="cls-6" d="m603.71,379.45c-.2-.2-.41-.31-.62-.32-.21-.02-.5.05-.85.2-.35.15-.68.27-1,.38-.32.11-.62.17-.91.18-.29.02-.57-.03-.83-.13-.26-.1-.52-.28-.78-.53-.43-.43-.64-.93-.63-1.5.01-.57.24-1.12.67-1.64l-.8-.8.61-.61.82.82c.53-.4,1.09-.57,1.67-.52s1.11.31,1.59.8l-1.29,1.29c-.26-.26-.52-.42-.76-.46-.24-.04-.46.03-.65.22-.17.17-.25.35-.23.55.01.2.11.39.3.58.19.19.39.28.61.29.22,0,.49-.06.83-.2.34-.14.66-.25.98-.36.32-.1.62-.16.91-.18.29-.02.57.03.84.12.27.1.53.27.79.53.43.43.65.93.65,1.48,0,.55-.22,1.09-.65,1.61l.77.77-.61.61-.77-.77c-.61.5-1.23.73-1.84.71s-1.19-.3-1.72-.83l1.28-1.28c.29.29.57.45.85.47.28.02.54-.08.77-.32.17-.17.26-.36.25-.56,0-.2-.1-.39-.28-.57h0Zm6.26-3.32l-1.29,1.29-4.1-4.1-.9,1.64-.98-.98,1.59-3.28.12-.12,5.55,5.55h0Zm2.87-7.21l.56-.56.99.99-.56.56,1.18,1.18-1.28,1.28-1.18-1.18-2.15,2.15-.86-.71-1.35-5.8h-.01s1.28-1.3,1.28-1.3l3.38,3.38h0Zm-2.28,2.28l1-1-1.71-1.71.05.21.66,2.5h0Zm2.92-4.01l-2.5-3.18,3.24-3.24,1,1-2.2,2.2.98,1.23c.04-.15.11-.31.22-.5.11-.19.23-.36.38-.5.55-.55,1.14-.81,1.76-.78.62.03,1.23.34,1.82.93.36.36.6.76.73,1.2.13.45.13.89,0,1.33s-.39.86-.79,1.25c-.35.35-.75.6-1.19.76-.45.16-.88.2-1.31.13-.42-.08-.79-.27-1.1-.59l1.29-1.29c.22.19.44.29.68.29.24,0,.45-.09.64-.28.43-.43.33-.97-.31-1.61-.59-.59-1.15-.62-1.68-.09-.3.3-.43.62-.38.96l-1.26.78Zm9.1-.69l-.95.34-.13-.39c-.15-.51-.37-.92-.67-1.22l-.95-.95,1.03-1.03.82.83c.29.29.51.67.67,1.12s.22.88.18,1.3h0Zm1.74-9.26c.75.75,1.16,1.5,1.23,2.24.07.74-.2,1.42-.81,2.03-.62.62-1.3.89-2.05.82-.75-.07-1.49-.48-2.24-1.22l-1.01-1.01c-.75-.75-1.16-1.5-1.23-2.24-.07-.74.2-1.42.82-2.04.61-.61,1.3-.89,2.04-.82.75.07,1.49.48,2.24,1.23l1.01,1.01Zm-2.46.11c-.4-.4-.75-.64-1.05-.74s-.56-.03-.79.2c-.22.22-.29.47-.21.76s.31.61.67.99l1.42,1.42c.41.41.77.67,1.07.75.3.09.56.02.78-.21.22-.22.29-.47.2-.76-.08-.29-.32-.64-.72-1.04l-1.37-1.37Zm6.96-4.6c.75.75,1.16,1.5,1.23,2.24.07.74-.2,1.42-.81,2.03-.62.62-1.3.89-2.05.82-.75-.07-1.49-.48-2.24-1.22l-1.01-1.01c-.75-.75-1.16-1.5-1.23-2.24-.07-.74.2-1.42.82-2.04.61-.61,1.3-.89,2.04-.82.75.07,1.49.48,2.24,1.23l1.01,1.01Zm-2.46.11c-.4-.4-.75-.64-1.05-.74s-.56-.03-.79.2c-.22.22-.29.47-.21.76.08.28.31.61.67.99l1.42,1.42c.41.41.77.67,1.07.75.3.09.56.02.78-.21.22-.22.29-.47.2-.76s-.32-.64-.72-1.04l-1.37-1.37Zm6.96-4.6c.75.75,1.16,1.5,1.23,2.24.07.74-.2,1.42-.81,2.03-.62.62-1.3.89-2.05.82-.75-.07-1.49-.48-2.24-1.22l-1.01-1.01c-.75-.75-1.16-1.5-1.23-2.24-.07-.74.2-1.42.82-2.04.61-.61,1.3-.89,2.04-.82.75.07,1.49.48,2.24,1.23l1.01,1.01Zm-2.46.11c-.4-.4-.75-.64-1.05-.74-.3-.09-.56-.03-.79.2-.22.22-.29.47-.21.76s.31.61.67.99l1.42,1.42c.41.41.77.67,1.07.75.3.09.56.02.78-.21.22-.22.29-.47.2-.76-.08-.29-.32-.64-.72-1.04l-1.37-1.37Z"/><path class="cls-6" d="m642.8,379.45c-.2-.2-.41-.31-.62-.32-.21-.02-.5.05-.85.2-.35.15-.68.27-1,.38-.32.11-.62.17-.91.18-.29.02-.57-.03-.83-.13-.26-.1-.52-.28-.78-.53-.43-.43-.64-.93-.63-1.5.01-.57.24-1.12.67-1.64l-.8-.8.61-.61.82.82c.53-.4,1.09-.57,1.67-.52s1.11.31,1.59.8l-1.29,1.29c-.26-.26-.52-.42-.76-.46-.24-.04-.46.03-.65.22-.17.17-.25.35-.23.55.01.2.11.39.3.58.19.19.39.28.61.29.22,0,.49-.06.83-.2.34-.14.66-.25.98-.36.32-.1.62-.16.91-.18.29-.02.57.03.84.12.27.1.53.27.79.53.43.43.65.93.65,1.48,0,.55-.22,1.09-.65,1.61l.77.77-.61.61-.77-.77c-.61.5-1.23.73-1.84.71s-1.19-.3-1.72-.83l1.28-1.28c.29.29.57.45.85.47.28.02.54-.08.77-.32.17-.17.26-.36.25-.56,0-.2-.1-.39-.28-.57h0Zm6.26-3.32l-1.29,1.29-4.1-4.1-.9,1.64-.98-.98,1.59-3.28.12-.12,5.55,5.55h0Zm-.98-4.44l-2.5-3.18,3.24-3.24,1,1-2.2,2.2.98,1.23c.04-.15.11-.31.22-.5.11-.19.23-.36.38-.5.55-.55,1.14-.81,1.76-.78.62.03,1.23.34,1.82.93.36.36.6.76.73,1.2.13.45.13.89,0,1.33s-.39.86-.79,1.25c-.35.35-.75.6-1.19.76-.45.16-.88.2-1.31.13s-.79-.27-1.1-.59l1.29-1.29c.22.19.44.29.68.29.24,0,.45-.09.64-.28.43-.43.33-.97-.31-1.61-.59-.59-1.15-.62-1.68-.09-.3.3-.43.62-.38.96l-1.26.78Zm4.5-4.5l-2.5-3.18,3.24-3.24,1,1-2.2,2.2.98,1.23c.04-.15.11-.31.22-.5.11-.19.23-.36.38-.5.55-.55,1.14-.81,1.76-.78.62.03,1.23.34,1.82.93.36.36.6.76.73,1.2.13.45.13.89,0,1.33s-.39.86-.79,1.25c-.35.35-.75.6-1.19.76-.45.16-.88.2-1.31.13-.42-.08-.79-.27-1.1-.59l1.29-1.29c.22.19.44.29.68.29.24,0,.45-.09.64-.28.43-.43.33-.97-.31-1.61-.59-.59-1.15-.62-1.68-.09-.3.3-.43.62-.38.96l-1.26.78Zm9.1-.69l-.95.34-.13-.39c-.15-.51-.37-.92-.67-1.22l-.95-.95,1.03-1.03.82.83c.29.29.51.67.67,1.12s.22.88.18,1.3h0Zm1.74-9.26c.75.75,1.16,1.5,1.23,2.24.07.74-.2,1.42-.81,2.03-.62.62-1.3.89-2.05.82-.75-.07-1.49-.48-2.24-1.22l-1.01-1.01c-.75-.75-1.16-1.5-1.23-2.24-.07-.74.2-1.42.82-2.04.61-.61,1.3-.89,2.04-.82.75.07,1.49.48,2.24,1.23l1.01,1.01Zm-2.46.11c-.4-.4-.75-.64-1.05-.74s-.56-.03-.79.2c-.22.22-.29.47-.21.76s.31.61.67.99l1.42,1.42c.41.41.77.67,1.07.75.3.09.56.02.78-.21.22-.22.29-.47.2-.76-.08-.29-.32-.64-.72-1.04l-1.37-1.37Zm6.96-4.6c.75.75,1.16,1.5,1.23,2.24.07.74-.2,1.42-.81,2.03-.62.62-1.3.89-2.05.82-.75-.07-1.49-.48-2.24-1.22l-1.01-1.01c-.75-.75-1.16-1.5-1.23-2.24-.07-.74.2-1.42.82-2.04.61-.61,1.3-.89,2.04-.82.75.07,1.49.48,2.24,1.23l1.01,1.01Zm-2.46.11c-.4-.4-.75-.64-1.05-.74s-.56-.03-.79.2c-.22.22-.29.47-.21.76.08.28.31.61.67.99l1.42,1.42c.41.41.77.67,1.07.75.3.09.56.02.78-.21.22-.22.29-.47.2-.76s-.32-.64-.72-1.04l-1.37-1.37Zm6.96-4.6c.75.75,1.16,1.5,1.23,2.24.07.74-.2,1.42-.81,2.03-.62.62-1.3.89-2.05.82-.75-.07-1.49-.48-2.24-1.22l-1.01-1.01c-.75-.75-1.16-1.5-1.23-2.24-.07-.74.2-1.42.82-2.04.61-.61,1.3-.89,2.04-.82.75.07,1.49.48,2.24,1.23l1.01,1.01Zm-2.46.11c-.4-.4-.75-.64-1.05-.74-.3-.09-.56-.03-.79.2-.22.22-.29.47-.21.76s.31.61.67.99l1.42,1.42c.41.41.77.67,1.07.75.3.09.56.02.78-.21.22-.22.29-.47.2-.76-.08-.29-.32-.64-.72-1.04l-1.37-1.37Z"/><path class="cls-6" d="m681.9,379.45c-.2-.2-.41-.31-.62-.32-.21-.02-.5.05-.85.2-.35.15-.68.27-1,.38-.32.11-.62.17-.91.18-.29.02-.57-.03-.83-.13-.26-.1-.52-.28-.78-.53-.43-.43-.64-.93-.63-1.5.01-.57.24-1.12.67-1.64l-.8-.8.61-.61.82.82c.53-.4,1.09-.57,1.67-.52s1.11.31,1.59.8l-1.29,1.29c-.26-.26-.52-.42-.76-.46-.24-.04-.46.03-.65.22-.17.17-.25.35-.23.55.01.2.11.39.3.58.19.19.39.28.61.29.22,0,.49-.06.83-.2.34-.14.66-.25.98-.36.32-.1.62-.16.91-.18.29-.02.57.03.84.12.27.1.53.27.79.53.43.43.65.93.65,1.48,0,.55-.22,1.09-.65,1.61l.77.77-.61.61-.77-.77c-.61.5-1.23.73-1.84.71s-1.19-.3-1.72-.83l1.28-1.28c.29.29.57.45.85.47.28.02.54-.08.77-.32.17-.17.26-.36.25-.56,0-.2-.1-.39-.28-.57h0Zm6.26-3.32l-1.29,1.29-4.1-4.1-.9,1.64-.98-.98,1.59-3.28.12-.12,5.55,5.55h0Zm-.88-10.38l1.01,1.01-.06.06c-.48.48-.76.99-.84,1.53-.08.54.05,1.05.39,1.53,0-.57.23-1.08.67-1.52.48-.48,1.04-.69,1.67-.62.64.07,1.24.38,1.81.95.35.35.59.76.72,1.22.13.46.13.92,0,1.39-.13.47-.38.88-.74,1.24-.39.39-.84.66-1.32.79-.49.13-.99.12-1.49-.04-.51-.16-.98-.45-1.42-.88l-.51-.51c-.57-.57-.96-1.21-1.17-1.91-.21-.7-.22-1.41-.02-2.12s.57-1.35,1.12-1.9l.19-.19Zm1.71,4.03c-.17.17-.27.35-.31.55s-.02.37.03.54l.39.39c.7.7,1.29.81,1.78.32.2-.2.27-.45.23-.75-.04-.31-.2-.59-.46-.86-.27-.27-.56-.43-.87-.47s-.57.05-.79.27h0Zm2.68-2.58l-2.5-3.18,3.24-3.24,1,1-2.2,2.2.98,1.23c.04-.15.11-.31.22-.5.11-.19.23-.36.38-.5.55-.55,1.14-.81,1.76-.78.62.03,1.23.34,1.82.93.36.36.6.76.73,1.2.13.45.13.89,0,1.33s-.39.86-.79,1.25c-.35.35-.75.6-1.19.76-.45.16-.88.2-1.31.13-.42-.08-.79-.27-1.1-.59l1.29-1.29c.22.19.44.29.68.29.24,0,.45-.09.64-.28.43-.43.33-.97-.31-1.61-.59-.59-1.15-.62-1.68-.09-.3.3-.43.62-.38.96l-1.26.78Zm9.1-.69l-.95.34-.13-.39c-.15-.51-.37-.92-.67-1.22l-.95-.95,1.03-1.03.82.83c.29.29.51.67.67,1.12s.22.88.18,1.3h0Zm1.74-9.26c.75.75,1.16,1.5,1.23,2.24.07.74-.2,1.42-.81,2.03-.62.62-1.3.89-2.05.82-.75-.07-1.49-.48-2.24-1.22l-1.01-1.01c-.75-.75-1.16-1.5-1.23-2.24-.07-.74.2-1.42.82-2.04.61-.61,1.3-.89,2.04-.82.75.07,1.49.48,2.24,1.23l1.01,1.01Zm-2.46.11c-.4-.4-.75-.64-1.05-.74s-.56-.03-.79.2c-.22.22-.29.47-.21.76s.31.61.67.99l1.42,1.42c.41.41.77.67,1.07.75.3.09.56.02.78-.21.22-.22.29-.47.2-.76-.08-.29-.32-.64-.72-1.04l-1.37-1.37Zm6.96-4.6c.75.75,1.16,1.5,1.23,2.24.07.74-.2,1.42-.81,2.03-.62.62-1.3.89-2.05.82-.75-.07-1.49-.48-2.24-1.22l-1.01-1.01c-.75-.75-1.16-1.5-1.23-2.24-.07-.74.2-1.42.82-2.04.61-.61,1.3-.89,2.04-.82.75.07,1.49.48,2.24,1.23l1.01,1.01Zm-2.46.11c-.4-.4-.75-.64-1.05-.74s-.56-.03-.79.2c-.22.22-.29.47-.21.76.08.28.31.61.67.99l1.42,1.42c.41.41.77.67,1.07.75.3.09.56.02.78-.21.22-.22.29-.47.2-.76s-.32-.64-.72-1.04l-1.37-1.37Zm6.96-4.6c.75.75,1.16,1.5,1.23,2.24.07.74-.2,1.42-.81,2.03-.62.62-1.3.89-2.05.82-.75-.07-1.49-.48-2.24-1.22l-1.01-1.01c-.75-.75-1.16-1.5-1.23-2.24-.07-.74.2-1.42.82-2.04.61-.61,1.3-.89,2.04-.82.75.07,1.49.48,2.24,1.23l1.01,1.01Zm-2.46.11c-.4-.4-.75-.64-1.05-.74-.3-.09-.56-.03-.79.2-.22.22-.29.47-.21.76s.31.61.67.99l1.42,1.42c.41.41.77.67,1.07.75.3.09.56.02.78-.21.22-.22.29-.47.2-.76-.08-.29-.32-.64-.72-1.04l-1.37-1.37Z"/><path class="cls-6" d="m720.99,379.45c-.2-.2-.41-.31-.62-.32-.21-.02-.5.05-.85.2-.35.15-.68.27-1,.38-.32.11-.62.17-.91.18-.29.02-.57-.03-.83-.13-.26-.1-.52-.28-.78-.53-.43-.43-.64-.93-.63-1.5.01-.57.24-1.12.67-1.64l-.8-.8.61-.61.82.82c.53-.4,1.09-.57,1.67-.52s1.11.31,1.59.8l-1.29,1.29c-.26-.26-.52-.42-.76-.46-.24-.04-.46.03-.65.22-.17.17-.25.35-.23.55.01.2.11.39.3.58.19.19.39.28.61.29.22,0,.49-.06.83-.2.34-.14.66-.25.98-.36.32-.1.62-.16.91-.18.29-.02.57.03.84.12.27.1.53.27.79.53.43.43.65.93.65,1.48,0,.55-.22,1.09-.65,1.61l.77.77-.61.61-.77-.77c-.61.5-1.23.73-1.84.71s-1.19-.3-1.72-.83l1.28-1.28c.29.29.57.45.85.47.28.02.54-.08.77-.32.17-.17.26-.36.25-.56,0-.2-.1-.39-.28-.57h0Zm6.26-3.32l-1.29,1.29-4.1-4.1-.9,1.64-.98-.98,1.59-3.28.12-.12,5.55,5.55h0Zm.64-10.37l2.79,6.94-1.36,1.36-2.48-6.64-2.65,2.65-.99-.99,4-4,.69.69h0Zm2.87,1.44l-2.5-3.18,3.24-3.24,1,1-2.2,2.2.98,1.23c.04-.15.11-.31.22-.5.11-.19.23-.36.38-.5.55-.55,1.14-.81,1.76-.78.62.03,1.23.34,1.82.93.36.36.6.76.73,1.2.13.45.13.89,0,1.33s-.39.86-.79,1.25c-.35.35-.75.6-1.19.76-.45.16-.88.2-1.31.13-.42-.08-.79-.27-1.1-.59l1.29-1.29c.22.19.44.29.68.29.24,0,.45-.09.64-.28.43-.43.33-.97-.31-1.61-.59-.59-1.15-.62-1.68-.09-.3.3-.43.62-.38.96l-1.26.78Zm9.1-.69l-.95.34-.13-.39c-.15-.51-.37-.92-.67-1.22l-.95-.95,1.03-1.03.82.83c.29.29.51.67.67,1.12s.22.88.18,1.3h0Zm1.74-9.26c.75.75,1.16,1.5,1.23,2.24.07.74-.2,1.42-.81,2.03-.62.62-1.3.89-2.05.82-.75-.07-1.49-.48-2.24-1.22l-1.01-1.01c-.75-.75-1.16-1.5-1.23-2.24-.07-.74.2-1.42.82-2.04.61-.61,1.3-.89,2.04-.82.75.07,1.49.48,2.24,1.23l1.01,1.01Zm-2.46.11c-.4-.4-.75-.64-1.05-.74s-.56-.03-.79.2c-.22.22-.29.47-.21.76s.31.61.67.99l1.42,1.42c.41.41.77.67,1.07.75.3.09.56.02.78-.21.22-.22.29-.47.2-.76-.08-.29-.32-.64-.72-1.04l-1.37-1.37Zm6.96-4.6c.75.75,1.16,1.5,1.23,2.24.07.74-.2,1.42-.81,2.03-.62.62-1.3.89-2.05.82-.75-.07-1.49-.48-2.24-1.22l-1.01-1.01c-.75-.75-1.16-1.5-1.23-2.24-.07-.74.2-1.42.82-2.04.61-.61,1.3-.89,2.04-.82.75.07,1.49.48,2.24,1.23l1.01,1.01Zm-2.46.11c-.4-.4-.75-.64-1.05-.74s-.56-.03-.79.2c-.22.22-.29.47-.21.76.08.28.31.61.67.99l1.42,1.42c.41.41.77.67,1.07.75.3.09.56.02.78-.21.22-.22.29-.47.2-.76s-.32-.64-.72-1.04l-1.37-1.37Zm6.96-4.6c.75.75,1.16,1.5,1.23,2.24.07.74-.2,1.42-.81,2.03-.62.62-1.3.89-2.05.82-.75-.07-1.49-.48-2.24-1.22l-1.01-1.01c-.75-.75-1.16-1.5-1.23-2.24-.07-.74.2-1.42.82-2.04.61-.61,1.3-.89,2.04-.82.75.07,1.49.48,2.24,1.23l1.01,1.01Zm-2.46.11c-.4-.4-.75-.64-1.05-.74s-.56-.03-.79.2c-.22.22-.29.47-.21.76s.31.61.67.99l1.42,1.42c.41.41.77.67,1.07.75.3.09.56.02.78-.21.22-.22.29-.47.2-.76-.08-.29-.32-.64-.72-1.04l-1.37-1.37Z"/><path class="cls-6" d="m760.08,379.45c-.2-.2-.41-.31-.62-.32-.21-.02-.5.05-.85.2-.35.15-.68.27-1,.38-.32.11-.62.17-.91.18-.29.02-.57-.03-.83-.13-.26-.1-.52-.28-.78-.53-.43-.43-.64-.93-.63-1.5.01-.57.24-1.12.67-1.64l-.8-.8.61-.61.82.82c.53-.4,1.09-.57,1.67-.52s1.11.31,1.59.8l-1.29,1.29c-.26-.26-.52-.42-.76-.46-.24-.04-.46.03-.65.22-.17.17-.25.35-.23.55.01.2.11.39.3.58.19.19.39.28.61.29.22,0,.49-.06.83-.2.34-.14.66-.25.98-.36.32-.1.62-.16.91-.18.29-.02.57.03.84.12.27.1.53.27.79.53.43.43.65.93.65,1.48,0,.55-.22,1.09-.65,1.61l.77.77-.61.61-.77-.77c-.61.5-1.23.73-1.84.71s-1.19-.3-1.72-.83l1.28-1.28c.29.29.57.45.85.47.28.02.54-.08.77-.32.17-.17.26-.36.25-.56,0-.2-.1-.39-.28-.57h0Zm6.26-3.32l-1.29,1.29-4.1-4.1-.9,1.64-.98-.98,1.59-3.28.12-.12,5.55,5.55h0Zm1.33-9.46c.27.27.44.57.51.91.07.34.05.69-.06,1.05.39-.13.78-.17,1.16-.1.38.07.72.26,1.03.57.5.5.72,1.06.66,1.69s-.38,1.24-.98,1.84c-.6.6-1.22.93-1.86.99-.64.06-1.2-.16-1.69-.65-.3-.3-.48-.64-.56-1.02s-.04-.78.11-1.19c-.36.11-.71.13-1.05.06-.34-.07-.65-.24-.91-.51-.48-.48-.7-1.03-.65-1.64.05-.61.35-1.19.91-1.75.56-.56,1.15-.87,1.75-.91.61-.05,1.15.17,1.64.65h0Zm1.26,3.61c-.23-.23-.46-.35-.71-.35-.24,0-.46.09-.65.28-.19.19-.29.41-.28.65,0,.24.12.48.35.71.22.22.46.34.71.34.25,0,.47-.09.67-.28.19-.19.28-.41.27-.65-.01-.24-.13-.48-.35-.7h0Zm-3.66-2.36c-.17.17-.25.36-.22.56.02.2.13.41.34.61.2.2.4.31.62.34.21.03.41-.04.59-.22.18-.18.25-.37.21-.58-.03-.21-.15-.41-.35-.61-.2-.2-.4-.31-.6-.33-.2-.02-.4.05-.57.23h0Zm4.58-.73l-2.5-3.18,3.24-3.24,1,1-2.2,2.2.98,1.23c.04-.15.11-.31.22-.5.11-.19.23-.36.38-.5.55-.55,1.14-.81,1.76-.78.62.03,1.23.34,1.82.93.36.36.6.76.73,1.2.13.45.13.89,0,1.33s-.39.86-.79,1.25c-.35.35-.75.6-1.19.76-.45.16-.88.2-1.31.13-.42-.08-.79-.27-1.1-.59l1.29-1.29c.22.19.44.29.68.29.24,0,.45-.09.64-.28.43-.43.33-.97-.31-1.61-.59-.59-1.15-.62-1.68-.09-.3.3-.43.62-.38.96l-1.26.78Zm9.1-.69l-.95.34-.13-.39c-.15-.51-.37-.92-.67-1.22l-.95-.95,1.03-1.03.82.83c.29.29.51.67.67,1.12s.22.88.18,1.3h0Zm1.74-9.26c.75.75,1.16,1.5,1.23,2.24.07.74-.2,1.42-.81,2.03-.62.62-1.3.89-2.05.82-.75-.07-1.49-.48-2.24-1.22l-1.01-1.01c-.75-.75-1.16-1.5-1.23-2.24-.07-.74.2-1.42.82-2.04.61-.61,1.3-.89,2.04-.82.75.07,1.49.48,2.24,1.23l1.01,1.01Zm-2.46.11c-.4-.4-.75-.64-1.05-.74s-.56-.03-.79.2c-.22.22-.29.47-.21.76s.31.61.67.99l1.42,1.42c.41.41.77.67,1.07.75.3.09.56.02.78-.21.22-.22.29-.47.2-.76-.08-.29-.32-.64-.72-1.04l-1.37-1.37Zm6.96-4.6c.75.75,1.16,1.5,1.23,2.24.07.74-.2,1.42-.81,2.03-.62.62-1.3.89-2.05.82-.75-.07-1.49-.48-2.24-1.22l-1.01-1.01c-.75-.75-1.16-1.5-1.23-2.24-.07-.74.2-1.42.82-2.04.61-.61,1.3-.89,2.04-.82.75.07,1.49.48,2.24,1.23l1.01,1.01Zm-2.46.11c-.4-.4-.75-.64-1.05-.74s-.56-.03-.79.2c-.22.22-.29.47-.21.76.08.28.31.61.67.99l1.42,1.42c.41.41.77.67,1.07.75.3.09.56.02.78-.21.22-.22.29-.47.2-.76s-.32-.64-.72-1.04l-1.37-1.37Zm6.96-4.6c.75.75,1.16,1.5,1.23,2.24.07.74-.2,1.42-.81,2.03-.62.62-1.3.89-2.05.82-.75-.07-1.49-.48-2.24-1.22l-1.01-1.01c-.75-.75-1.16-1.5-1.23-2.24-.07-.74.2-1.42.82-2.04.61-.61,1.3-.89,2.04-.82.75.07,1.49.48,2.24,1.23l1.01,1.01Zm-2.46.11c-.4-.4-.75-.64-1.05-.74-.3-.09-.56-.03-.79.2-.22.22-.29.47-.21.76s.31.61.67.99l1.42,1.42c.41.41.77.67,1.07.75.3.09.56.02.78-.21.22-.22.29-.47.2-.76-.08-.29-.32-.64-.72-1.04l-1.37-1.37Z"/><path class="cls-6" d="m799.17,379.45c-.2-.2-.41-.31-.62-.32-.21-.02-.5.05-.85.2-.35.15-.68.27-1,.38-.32.11-.62.17-.91.18-.29.02-.57-.03-.83-.13-.26-.1-.52-.28-.78-.53-.43-.43-.64-.93-.63-1.5.01-.57.24-1.12.67-1.64l-.8-.8.61-.61.82.82c.53-.4,1.09-.57,1.67-.52s1.11.31,1.59.8l-1.29,1.29c-.26-.26-.52-.42-.76-.46-.24-.04-.46.03-.65.22-.17.17-.25.35-.23.55.01.2.11.39.3.58.19.19.39.28.61.29.22,0,.49-.06.83-.2.34-.14.66-.25.98-.36.32-.1.62-.16.91-.18.29-.02.57.03.84.12.27.1.53.27.79.53.43.43.65.93.65,1.48,0,.55-.22,1.09-.65,1.61l.77.77-.61.61-.77-.77c-.61.5-1.23.73-1.84.71s-1.19-.3-1.72-.83l1.28-1.28c.29.29.57.45.85.47.28.02.54-.08.77-.32.17-.17.26-.36.25-.56,0-.2-.1-.39-.28-.57h0Zm6.26-3.32l-1.29,1.29-4.1-4.1-.9,1.64-.98-.98,1.59-3.28.12-.12,5.55,5.55h0Zm2.03-6.33c-.03.53-.21.96-.56,1.3-.5.5-1.07.73-1.71.69-.64-.05-1.24-.35-1.81-.92-.36-.36-.6-.77-.74-1.24-.14-.47-.15-.94-.03-1.42.12-.48.36-.9.72-1.26.37-.37.79-.6,1.27-.72s.97-.08,1.47.09c.5.17.98.47,1.42.91l.49.49c.61.61,1.02,1.26,1.23,1.95.21.69.21,1.38,0,2.06-.2.69-.6,1.33-1.19,1.92l-.08.08-1.03-1.03.24-.25c.84-.93.94-1.82.29-2.66h0Zm-1.14.03c.28-.28.36-.6.24-.96l-.53-.53c-.36-.36-.68-.56-.97-.61s-.54.03-.74.23c-.18.18-.24.43-.16.74.07.31.24.61.52.88.29.29.58.46.88.51.3.05.55-.04.77-.25h0Zm2.61-2.64l-2.5-3.18,3.24-3.24,1,1-2.2,2.2.98,1.23c.04-.15.11-.31.22-.5.11-.19.23-.36.38-.5.55-.55,1.14-.81,1.76-.78.62.03,1.23.34,1.82.93.36.36.6.76.73,1.2.13.45.13.89,0,1.33s-.39.86-.79,1.25c-.35.35-.75.6-1.19.76-.45.16-.88.2-1.31.13-.42-.08-.79-.27-1.1-.59l1.29-1.29c.22.19.44.29.68.29.24,0,.45-.09.64-.28.43-.43.33-.97-.31-1.61-.59-.59-1.15-.62-1.68-.09-.3.3-.43.62-.38.96l-1.26.78Zm9.1-.69l-.95.34-.13-.39c-.15-.51-.37-.92-.67-1.22l-.95-.95,1.03-1.03.82.83c.29.29.51.67.67,1.12s.22.88.18,1.3h0Zm1.74-9.26c.75.75,1.16,1.5,1.23,2.24.07.74-.2,1.42-.81,2.03-.62.62-1.3.89-2.05.82-.75-.07-1.49-.48-2.24-1.22l-1.01-1.01c-.75-.75-1.16-1.5-1.23-2.24-.07-.74.2-1.42.82-2.04.61-.61,1.3-.89,2.04-.82.75.07,1.49.48,2.24,1.23l1.01,1.01Zm-2.46.11c-.4-.4-.75-.64-1.05-.74s-.56-.03-.79.2c-.22.22-.29.47-.21.76s.31.61.67.99l1.42,1.42c.41.41.77.67,1.07.75.3.09.56.02.78-.21.22-.22.29-.47.2-.76-.08-.29-.32-.64-.72-1.04l-1.37-1.37Zm6.96-4.6c.75.75,1.16,1.5,1.23,2.24.07.74-.2,1.42-.81,2.03-.62.62-1.3.89-2.05.82-.75-.07-1.49-.48-2.24-1.22l-1.01-1.01c-.75-.75-1.16-1.5-1.23-2.24-.07-.74.2-1.42.82-2.04.61-.61,1.3-.89,2.04-.82.75.07,1.49.48,2.24,1.23l1.01,1.01Zm-2.46.11c-.4-.4-.75-.64-1.05-.74s-.56-.03-.79.2c-.22.22-.29.47-.21.76.08.28.31.61.67.99l1.42,1.42c.41.41.77.67,1.07.75.3.09.56.02.78-.21.22-.22.29-.47.2-.76s-.32-.64-.72-1.04l-1.37-1.37Zm6.96-4.6c.75.75,1.16,1.5,1.23,2.24.07.74-.2,1.42-.81,2.03-.62.62-1.3.89-2.05.82-.75-.07-1.49-.48-2.24-1.22l-1.01-1.01c-.75-.75-1.16-1.5-1.23-2.24-.07-.74.2-1.42.82-2.04.61-.61,1.3-.89,2.04-.82.75.07,1.49.48,2.24,1.23l1.01,1.01Zm-2.46.11c-.4-.4-.75-.64-1.05-.74s-.56-.03-.79.2c-.22.22-.29.47-.21.76s.31.61.67.99l1.42,1.42c.41.41.77.67,1.07.75.3.09.56.02.78-.21.22-.22.29-.47.2-.76-.08-.29-.32-.64-.72-1.04l-1.37-1.37Z"/><path class="cls-6" d="m838.26,379.45c-.2-.2-.41-.31-.62-.32-.21-.02-.5.05-.85.2-.35.15-.68.27-1,.38-.32.11-.62.17-.91.18-.29.02-.57-.03-.83-.13-.26-.1-.52-.28-.78-.53-.43-.43-.64-.93-.63-1.5.01-.57.24-1.12.67-1.64l-.8-.8.61-.61.82.82c.53-.4,1.09-.57,1.67-.52s1.11.31,1.59.8l-1.29,1.29c-.26-.26-.52-.42-.76-.46-.24-.04-.46.03-.65.22-.17.17-.25.35-.23.55.01.2.11.39.3.58.19.19.39.28.61.29.22,0,.49-.06.83-.2.34-.14.66-.25.98-.36.32-.1.62-.16.91-.18.29-.02.57.03.84.12.27.1.53.27.79.53.43.43.65.93.65,1.48,0,.55-.22,1.09-.65,1.61l.77.77-.61.61-.77-.77c-.61.5-1.23.73-1.84.71s-1.19-.3-1.72-.83l1.28-1.28c.29.29.57.45.85.47.28.02.54-.08.77-.32.17-.17.26-.36.25-.56,0-.2-.1-.39-.28-.57h0Zm7.28-4.34l-3.87,3.87-.84-.84-.09-3.66c-.06-.94-.24-1.56-.53-1.85-.24-.24-.47-.37-.7-.39-.23-.02-.44.07-.64.27-.2.2-.27.44-.23.73.04.29.19.56.44.81l-1.29,1.29c-.34-.34-.57-.74-.69-1.2-.12-.46-.11-.92.03-1.39s.4-.88.77-1.26c.6-.6,1.2-.92,1.8-.97.6-.05,1.16.19,1.68.71.22.22.39.47.52.76.13.29.22.63.27,1.03s.08.98.08,1.74l.11,1.54,2.18-2.18.99.99h0Zm2.21-6.75c.75.75,1.16,1.5,1.23,2.24.07.74-.2,1.42-.81,2.03-.62.62-1.3.89-2.05.82-.75-.07-1.49-.48-2.24-1.22l-1.01-1.01c-.75-.75-1.16-1.5-1.23-2.24-.07-.74.2-1.42.82-2.04.61-.61,1.3-.89,2.04-.82.75.07,1.49.48,2.24,1.23l1.01,1.01Zm-2.46.11c-.4-.4-.75-.64-1.05-.74s-.56-.03-.79.2c-.22.22-.29.47-.21.76s.31.61.67.99l1.42,1.42c.41.41.77.67,1.07.75.3.09.56.02.78-.21.22-.22.29-.47.2-.76-.08-.29-.32-.64-.72-1.04l-1.37-1.37Zm2.74-1.27l-2.5-3.18,3.24-3.24,1,1-2.2,2.2.98,1.23c.04-.15.11-.31.22-.5.11-.19.23-.36.38-.5.55-.55,1.14-.81,1.76-.78.62.03,1.23.34,1.82.93.36.36.6.76.73,1.2.13.45.13.89,0,1.33s-.39.86-.79,1.25c-.35.35-.75.6-1.19.76-.45.16-.88.2-1.31.13-.42-.08-.79-.27-1.1-.59l1.29-1.29c.22.19.44.29.68.29.24,0,.45-.09.64-.28.43-.43.33-.97-.31-1.61-.59-.59-1.15-.62-1.68-.09-.3.3-.43.62-.38.96l-1.26.78Zm9.1-.69l-.95.34-.13-.39c-.15-.51-.37-.92-.67-1.22l-.95-.95,1.03-1.03.82.83c.29.29.51.67.67,1.12s.22.88.18,1.3h0Zm1.74-9.26c.75.75,1.16,1.5,1.23,2.24.07.74-.2,1.42-.81,2.03-.62.62-1.3.89-2.05.82-.75-.07-1.49-.48-2.24-1.22l-1.01-1.01c-.75-.75-1.16-1.5-1.23-2.24-.07-.74.2-1.42.82-2.04.61-.61,1.3-.89,2.04-.82.75.07,1.49.48,2.24,1.23l1.01,1.01Zm-2.46.11c-.4-.4-.75-.64-1.05-.74s-.56-.03-.79.2c-.22.22-.29.47-.21.76s.31.61.67.99l1.42,1.42c.41.41.77.67,1.07.75.3.09.56.02.78-.21.22-.22.29-.47.2-.76-.08-.29-.32-.64-.72-1.04l-1.37-1.37Zm6.96-4.6c.75.75,1.16,1.5,1.23,2.24.07.74-.2,1.42-.81,2.03-.62.62-1.3.89-2.05.82-.75-.07-1.49-.48-2.24-1.22l-1.01-1.01c-.75-.75-1.16-1.5-1.23-2.24-.07-.74.2-1.42.82-2.04.61-.61,1.3-.89,2.04-.82.75.07,1.49.48,2.24,1.23l1.01,1.01Zm-2.46.11c-.4-.4-.75-.64-1.05-.74s-.56-.03-.79.2c-.22.22-.29.47-.21.76.08.28.31.61.67.99l1.42,1.42c.41.41.77.67,1.07.75.3.09.56.02.78-.21.22-.22.29-.47.2-.76s-.32-.64-.72-1.04l-1.37-1.37Zm6.96-4.6c.75.75,1.16,1.5,1.23,2.24.07.74-.2,1.42-.81,2.03-.62.62-1.3.89-2.05.82-.75-.07-1.49-.48-2.24-1.22l-1.01-1.01c-.75-.75-1.16-1.5-1.23-2.24-.07-.74.2-1.42.82-2.04.61-.61,1.3-.89,2.04-.82.75.07,1.49.48,2.24,1.23l1.01,1.01Zm-2.46.11c-.4-.4-.75-.64-1.05-.74s-.56-.03-.79.2c-.22.22-.29.47-.21.76s.31.61.67.99l1.42,1.42c.41.41.77.67,1.07.75.3.09.56.02.78-.21.22-.22.29-.47.2-.76-.08-.29-.32-.64-.72-1.04l-1.37-1.37Z"/><path class="cls-6" d="m877.35,379.45c-.2-.2-.41-.31-.62-.32-.21-.02-.5.05-.85.2-.35.15-.68.27-1,.38-.32.11-.62.17-.91.18-.29.02-.57-.03-.83-.13-.26-.1-.52-.28-.78-.53-.43-.43-.64-.93-.63-1.5.01-.57.24-1.12.67-1.64l-.8-.8.61-.61.82.82c.53-.4,1.09-.57,1.67-.52s1.11.31,1.59.8l-1.29,1.29c-.26-.26-.52-.42-.76-.46-.24-.04-.46.03-.65.22-.17.17-.25.35-.23.55.01.2.11.39.3.58.19.19.39.28.61.29.22,0,.49-.06.83-.2.34-.14.66-.25.98-.36.32-.1.62-.16.91-.18.29-.02.57.03.84.12.27.1.53.27.79.53.43.43.65.93.65,1.48,0,.55-.22,1.09-.65,1.61l.77.77-.61.61-.77-.77c-.61.5-1.23.73-1.84.71s-1.19-.3-1.72-.83l1.28-1.28c.29.29.57.45.85.47.28.02.54-.08.77-.32.17-.17.26-.36.25-.56,0-.2-.1-.39-.28-.57h0Zm7.28-4.34l-3.87,3.87-.84-.84-.09-3.66c-.06-.94-.24-1.56-.53-1.85-.24-.24-.47-.37-.7-.39-.23-.02-.44.07-.64.27-.2.2-.27.44-.23.73.04.29.19.56.44.81l-1.29,1.29c-.34-.34-.57-.74-.69-1.2-.12-.46-.11-.92.03-1.39s.4-.88.77-1.26c.6-.6,1.2-.92,1.8-.97.6-.05,1.16.19,1.68.71.22.22.39.47.52.76.13.29.22.63.27,1.03s.08.98.08,1.74l.11,1.54,2.18-2.18.99.99h0Zm3.47-3.47l-1.29,1.29-4.1-4.1-.9,1.64-.98-.98,1.59-3.28.12-.12,5.55,5.55h0Zm-.98-4.44l-2.5-3.18,3.24-3.24,1,1-2.2,2.2.98,1.23c.04-.15.11-.31.22-.5.11-.19.23-.36.38-.5.55-.55,1.14-.81,1.76-.78.62.03,1.23.34,1.82.93.36.36.6.76.73,1.2.13.45.13.89,0,1.33s-.39.86-.79,1.25c-.35.35-.75.6-1.19.76-.45.16-.88.2-1.31.13-.42-.08-.79-.27-1.1-.59l1.29-1.29c.22.19.44.29.68.29.24,0,.45-.09.64-.28.43-.43.33-.97-.31-1.61-.59-.59-1.15-.62-1.68-.09-.3.3-.43.62-.38.96l-1.26.78Zm9.1-.69l-.95.34-.13-.39c-.15-.51-.37-.92-.67-1.22l-.95-.95,1.03-1.03.82.83c.29.29.51.67.67,1.12s.22.88.18,1.3h0Zm1.74-9.26c.75.75,1.16,1.5,1.23,2.24.07.74-.2,1.42-.81,2.03-.62.62-1.3.89-2.05.82-.75-.07-1.49-.48-2.24-1.22l-1.01-1.01c-.75-.75-1.16-1.5-1.23-2.24-.07-.74.2-1.42.82-2.04.61-.61,1.3-.89,2.04-.82.75.07,1.49.48,2.24,1.23l1.01,1.01Zm-2.46.11c-.4-.4-.75-.64-1.05-.74s-.56-.03-.79.2c-.22.22-.29.47-.21.76s.31.61.67.99l1.42,1.42c.41.41.77.67,1.07.75.3.09.56.02.78-.21.22-.22.29-.47.2-.76-.08-.29-.32-.64-.72-1.04l-1.37-1.37Zm6.96-4.6c.75.75,1.16,1.5,1.23,2.24.07.74-.2,1.42-.81,2.03-.62.62-1.3.89-2.05.82-.75-.07-1.49-.48-2.24-1.22l-1.01-1.01c-.75-.75-1.16-1.5-1.23-2.24-.07-.74.2-1.42.82-2.04.61-.61,1.3-.89,2.04-.82.75.07,1.49.48,2.24,1.23l1.01,1.01Zm-2.46.11c-.4-.4-.75-.64-1.05-.74s-.56-.03-.79.2c-.22.22-.29.47-.21.76.08.28.31.61.67.99l1.42,1.42c.41.41.77.67,1.07.75.3.09.56.02.78-.21.22-.22.29-.47.2-.76s-.32-.64-.72-1.04l-1.37-1.37Zm6.96-4.6c.75.75,1.16,1.5,1.23,2.24.07.74-.2,1.42-.81,2.03-.62.62-1.3.89-2.05.82-.75-.07-1.49-.48-2.24-1.22l-1.01-1.01c-.75-.75-1.16-1.5-1.23-2.24-.07-.74.2-1.42.82-2.04.61-.61,1.3-.89,2.04-.82.75.07,1.49.48,2.24,1.23l1.01,1.01Zm-2.46.11c-.4-.4-.75-.64-1.05-.74s-.56-.03-.79.2c-.22.22-.29.47-.21.76s.31.61.67.99l1.42,1.42c.41.41.77.67,1.07.75.3.09.56.02.78-.21.22-.22.29-.47.2-.76-.08-.29-.32-.64-.72-1.04l-1.37-1.37Z"/><path class="cls-6" d="m916.44,379.45c-.2-.2-.41-.31-.62-.32-.21-.02-.5.05-.85.2-.35.15-.68.27-1,.38-.32.11-.62.17-.91.18-.29.02-.57-.03-.83-.13-.26-.1-.52-.28-.78-.53-.43-.43-.64-.93-.63-1.5.01-.57.24-1.12.67-1.64l-.8-.8.61-.61.82.82c.53-.4,1.09-.57,1.67-.52s1.11.31,1.59.8l-1.29,1.29c-.26-.26-.52-.42-.76-.46-.24-.04-.46.03-.65.22-.17.17-.25.35-.23.55.01.2.11.39.3.58.19.19.39.28.61.29.22,0,.49-.06.83-.2.34-.14.66-.25.98-.36.32-.1.62-.16.91-.18.29-.02.57.03.84.12.27.1.53.27.79.53.43.43.65.93.65,1.48,0,.55-.22,1.09-.65,1.61l.77.77-.61.61-.77-.77c-.61.5-1.23.73-1.84.71s-1.19-.3-1.72-.83l1.28-1.28c.29.29.57.45.85.47.28.02.54-.08.77-.32.17-.17.26-.36.25-.56,0-.2-.1-.39-.28-.57h0Zm7.28-4.34l-3.87,3.87-.84-.84-.09-3.66c-.06-.94-.24-1.56-.53-1.85-.24-.24-.47-.37-.7-.39-.23-.02-.44.07-.64.27-.2.2-.27.44-.23.73.04.29.19.56.44.81l-1.29,1.29c-.34-.34-.57-.74-.69-1.2-.12-.46-.11-.92.03-1.39s.4-.88.77-1.26c.6-.6,1.2-.92,1.8-.97.6-.05,1.16.19,1.68.71.22.22.39.47.52.76.13.29.22.63.27,1.03s.08.98.08,1.74l.11,1.54,2.18-2.18.99.99h0Zm4.5-4.5l-3.87,3.87-.84-.84-.09-3.66c-.06-.94-.24-1.56-.53-1.85-.24-.24-.47-.37-.7-.39-.23-.02-.44.07-.64.27-.2.2-.27.44-.23.73.04.29.19.56.44.81l-1.29,1.29c-.34-.34-.57-.74-.69-1.2s-.11-.92.03-1.39c.14-.47.4-.88.77-1.26.6-.6,1.2-.92,1.8-.97.6-.05,1.16.19,1.68.71.22.22.39.47.52.76s.22.63.27,1.03.08.98.08,1.74l.11,1.54,2.18-2.18.99.99h0Zm-2.01-3.41l-2.5-3.18,3.24-3.24,1,1-2.2,2.2.98,1.23c.04-.15.11-.31.22-.5.11-.19.23-.36.38-.5.55-.55,1.14-.81,1.76-.78.62.03,1.23.34,1.82.93.36.36.6.76.73,1.2.13.45.13.89,0,1.33s-.39.86-.79,1.25c-.35.35-.75.6-1.19.76-.45.16-.88.2-1.31.13-.42-.08-.79-.27-1.1-.59l1.29-1.29c.22.19.44.29.68.29.24,0,.45-.09.64-.28.43-.43.33-.97-.31-1.61-.59-.59-1.15-.62-1.68-.09-.3.3-.43.62-.38.96l-1.26.78Zm9.1-.69l-.95.34-.13-.39c-.15-.51-.37-.92-.67-1.22l-.95-.95,1.03-1.03.82.83c.29.29.51.67.67,1.12s.22.88.18,1.3h0Zm1.74-9.26c.75.75,1.16,1.5,1.23,2.24.07.74-.2,1.42-.81,2.03-.62.62-1.3.89-2.05.82-.75-.07-1.49-.48-2.24-1.22l-1.01-1.01c-.75-.75-1.16-1.5-1.23-2.24-.07-.74.2-1.42.82-2.04.61-.61,1.3-.89,2.04-.82.75.07,1.49.48,2.24,1.23l1.01,1.01Zm-2.46.11c-.4-.4-.75-.64-1.05-.74s-.56-.03-.79.2c-.22.22-.29.47-.21.76s.31.61.67.99l1.42,1.42c.41.41.77.67,1.07.75.3.09.56.02.78-.21.22-.22.29-.47.2-.76-.08-.29-.32-.64-.72-1.04l-1.37-1.37Zm6.96-4.6c.75.75,1.16,1.5,1.23,2.24.07.74-.2,1.42-.81,2.03-.62.62-1.3.89-2.05.82-.75-.07-1.49-.48-2.24-1.22l-1.01-1.01c-.75-.75-1.16-1.5-1.23-2.24-.07-.74.2-1.42.82-2.04.61-.61,1.3-.89,2.04-.82.75.07,1.49.48,2.24,1.23l1.01,1.01Zm-2.46.11c-.4-.4-.75-.64-1.05-.74s-.56-.03-.79.2c-.22.22-.29.47-.21.76.08.28.31.61.67.99l1.42,1.42c.41.41.77.67,1.07.75.3.09.56.02.78-.21.22-.22.29-.47.2-.76s-.32-.64-.72-1.04l-1.37-1.37Zm6.96-4.6c.75.75,1.16,1.5,1.23,2.24.07.74-.2,1.42-.81,2.03-.62.62-1.3.89-2.05.82-.75-.07-1.49-.48-2.24-1.22l-1.01-1.01c-.75-.75-1.16-1.5-1.23-2.24-.07-.74.2-1.42.82-2.04.61-.61,1.3-.89,2.04-.82.75.07,1.49.48,2.24,1.23l1.01,1.01Zm-2.46.11c-.4-.4-.75-.64-1.05-.74-.3-.09-.56-.03-.79.2-.22.22-.29.47-.21.76s.31.61.67.99l1.42,1.42c.41.41.77.67,1.07.75.3.09.56.02.78-.21.22-.22.29-.47.2-.76-.08-.29-.32-.64-.72-1.04l-1.37-1.37Z"/><path class="cls-6" d="m955.54,379.45c-.2-.2-.41-.31-.62-.32-.21-.02-.5.05-.85.2-.35.15-.68.27-1,.38-.32.11-.62.17-.91.18-.29.02-.57-.03-.83-.13-.26-.1-.52-.28-.78-.53-.43-.43-.64-.93-.63-1.5.01-.57.24-1.12.67-1.64l-.8-.8.61-.61.82.82c.53-.4,1.09-.57,1.67-.52s1.11.31,1.59.8l-1.29,1.29c-.26-.26-.52-.42-.76-.46-.24-.04-.46.03-.65.22-.17.17-.25.35-.23.55.01.2.11.39.3.58.19.19.39.28.61.29.22,0,.49-.06.83-.2.34-.14.66-.25.98-.36.32-.1.62-.16.91-.18.29-.02.57.03.84.12.27.1.53.27.79.53.43.43.65.93.65,1.48,0,.55-.22,1.09-.65,1.61l.77.77-.61.61-.77-.77c-.61.5-1.23.73-1.84.71s-1.19-.3-1.72-.83l1.28-1.28c.29.29.57.45.85.47.28.02.54-.08.77-.32.17-.17.26-.36.25-.56,0-.2-.1-.39-.28-.57h0Zm7.28-4.34l-3.87,3.87-.84-.84-.09-3.66c-.06-.94-.24-1.56-.53-1.85-.24-.24-.47-.37-.7-.39-.23-.02-.44.07-.64.27-.2.2-.27.44-.23.73.04.29.19.56.44.81l-1.29,1.29c-.34-.34-.57-.74-.69-1.2-.12-.46-.11-.92.03-1.39s.4-.88.77-1.26c.6-.6,1.2-.92,1.8-.97.6-.05,1.16.19,1.68.71.22.22.39.47.52.76.13.29.22.63.27,1.03s.08.98.08,1.74l.11,1.54,2.18-2.18.99.99h0Zm-1.51-5.11l.61-.61c.48-.48.49-.96.02-1.43-.18-.18-.39-.27-.62-.28-.23,0-.45.1-.66.31-.17.17-.27.37-.3.59-.03.22.03.41.18.56l-1.28,1.28c-.29-.29-.47-.63-.54-1.03-.07-.39-.02-.8.14-1.21s.41-.8.76-1.14c.62-.62,1.24-.96,1.88-1.03.64-.07,1.2.14,1.69.63.24.24.39.54.46.9.07.36.03.74-.12,1.15.4-.19.79-.26,1.18-.21.39.05.74.23,1.06.55.5.5.7,1.08.62,1.76s-.44,1.33-1.06,1.95c-.36.36-.77.63-1.22.8-.45.17-.88.22-1.28.13-.41-.08-.76-.28-1.08-.6l1.29-1.29c.17.17.39.25.65.24.26-.01.49-.12.69-.32.23-.23.34-.47.35-.73,0-.26-.08-.49-.28-.68-.28-.28-.55-.41-.8-.39-.26.02-.51.16-.75.4l-.63.63-.96-.96h0Zm4-2.8l-2.5-3.18,3.24-3.24,1,1-2.2,2.2.98,1.23c.04-.15.11-.31.22-.5.11-.19.23-.36.38-.5.55-.55,1.14-.81,1.76-.78.62.03,1.23.34,1.82.93.36.36.6.76.73,1.2.13.45.13.89,0,1.33s-.39.86-.79,1.25c-.35.35-.75.6-1.19.76-.45.16-.88.2-1.31.13-.42-.08-.79-.27-1.1-.59l1.29-1.29c.22.19.44.29.68.29.24,0,.45-.09.64-.28.43-.43.33-.97-.31-1.61-.59-.59-1.15-.62-1.68-.09-.3.3-.43.62-.38.96l-1.26.78Zm9.1-.69l-.95.34-.13-.39c-.15-.51-.37-.92-.67-1.22l-.95-.95,1.03-1.03.82.83c.29.29.51.67.67,1.12s.22.88.18,1.3h0Zm1.74-9.26c.75.75,1.16,1.5,1.23,2.24.07.74-.2,1.42-.81,2.03-.62.62-1.3.89-2.05.82-.75-.07-1.49-.48-2.24-1.22l-1.01-1.01c-.75-.75-1.16-1.5-1.23-2.24-.07-.74.2-1.42.82-2.04.61-.61,1.3-.89,2.04-.82.75.07,1.49.48,2.24,1.23l1.01,1.01Zm-2.46.11c-.4-.4-.75-.64-1.05-.74s-.56-.03-.79.2c-.22.22-.29.47-.21.76s.31.61.67.99l1.42,1.42c.41.41.77.67,1.07.75.3.09.56.02.78-.21.22-.22.29-.47.2-.76-.08-.29-.32-.64-.72-1.04l-1.37-1.37Zm6.96-4.6c.75.75,1.16,1.5,1.23,2.24.07.74-.2,1.42-.81,2.03-.62.62-1.3.89-2.05.82-.75-.07-1.49-.48-2.24-1.22l-1.01-1.01c-.75-.75-1.16-1.5-1.23-2.24-.07-.74.2-1.42.82-2.04.61-.61,1.3-.89,2.04-.82.75.07,1.49.48,2.24,1.23l1.01,1.01Zm-2.46.11c-.4-.4-.75-.64-1.05-.74s-.56-.03-.79.2c-.22.22-.29.47-.21.76.08.28.31.61.67.99l1.42,1.42c.41.41.77.67,1.07.75.3.09.56.02.78-.21.22-.22.29-.47.2-.76s-.32-.64-.72-1.04l-1.37-1.37Zm6.96-4.6c.75.75,1.16,1.5,1.23,2.24.07.74-.2,1.42-.81,2.03-.62.62-1.3.89-2.05.82-.75-.07-1.49-.48-2.24-1.22l-1.01-1.01c-.75-.75-1.16-1.5-1.23-2.24-.07-.74.2-1.42.82-2.04.61-.61,1.3-.89,2.04-.82.75.07,1.49.48,2.24,1.23l1.01,1.01Zm-2.46.11c-.4-.4-.75-.64-1.05-.74-.3-.09-.56-.03-.79.2-.22.22-.29.47-.21.76s.31.61.67.99l1.42,1.42c.41.41.77.67,1.07.75.3.09.56.02.78-.21.22-.22.29-.47.2-.76-.08-.29-.32-.64-.72-1.04l-1.37-1.37Z"/><path class="cls-6" d="m994.63,379.45c-.2-.2-.41-.31-.62-.32-.21-.02-.5.05-.85.2-.35.15-.68.27-1,.38-.32.11-.62.17-.91.18-.29.02-.57-.03-.83-.13-.26-.1-.52-.28-.78-.53-.43-.43-.64-.93-.63-1.5.01-.57.24-1.12.67-1.64l-.8-.8.61-.61.82.82c.53-.4,1.09-.57,1.67-.52s1.11.31,1.59.8l-1.29,1.29c-.26-.26-.52-.42-.76-.46-.24-.04-.46.03-.65.22-.17.17-.25.35-.23.55.01.2.11.39.3.58.19.19.39.28.61.29.22,0,.49-.06.83-.2.34-.14.66-.25.98-.36.32-.1.62-.16.91-.18.29-.02.57.03.84.12.27.1.53.27.79.53.43.43.65.93.65,1.48,0,.55-.22,1.09-.65,1.61l.77.77-.61.61-.77-.77c-.61.5-1.23.73-1.84.71s-1.19-.3-1.72-.83l1.28-1.28c.29.29.57.45.85.47.28.02.54-.08.77-.32.17-.17.26-.36.25-.56,0-.2-.1-.39-.28-.57h0Zm7.28-4.34l-3.87,3.87-.84-.84-.09-3.66c-.06-.94-.24-1.56-.53-1.85-.24-.24-.47-.37-.7-.39-.23-.02-.44.07-.64.27-.2.2-.27.44-.23.73.04.29.19.56.44.81l-1.29,1.29c-.34-.34-.57-.74-.69-1.2-.12-.46-.11-.92.03-1.39s.4-.88.77-1.26c.6-.6,1.2-.92,1.8-.97.6-.05,1.16.19,1.68.71.22.22.39.47.52.76.13.29.22.63.27,1.03s.08.98.08,1.74l.11,1.54,2.18-2.18.99.99h0Zm1.85-6.19l.56-.56.99.99-.56.56,1.18,1.18-1.28,1.28-1.18-1.18-2.15,2.15-.86-.71-1.35-5.8h-.01s1.28-1.3,1.28-1.3l3.38,3.38h0Zm-2.28,2.28l1-1-1.71-1.71.05.21.66,2.5h0Zm2.92-4.01l-2.5-3.18,3.24-3.24,1,1-2.2,2.2.98,1.23c.04-.15.11-.31.22-.5.11-.19.23-.36.38-.5.55-.55,1.14-.81,1.76-.78.62.03,1.23.34,1.82.93.36.36.6.76.73,1.2.13.45.13.89,0,1.33s-.39.86-.79,1.25c-.35.35-.75.6-1.19.76-.45.16-.88.2-1.31.13-.42-.08-.79-.27-1.1-.59l1.29-1.29c.22.19.44.29.68.29.24,0,.45-.09.64-.28.43-.43.33-.97-.31-1.61-.59-.59-1.15-.62-1.68-.09-.3.3-.43.62-.38.96l-1.26.78Zm9.1-.69l-.95.34-.13-.39c-.15-.51-.37-.92-.67-1.22l-.95-.95,1.03-1.03.82.83c.29.29.51.67.67,1.12s.22.88.18,1.3h0Zm1.74-9.26c.75.75,1.16,1.5,1.23,2.24.07.74-.2,1.42-.81,2.03-.62.62-1.3.89-2.05.82-.75-.07-1.49-.48-2.24-1.22l-1.01-1.01c-.75-.75-1.16-1.5-1.23-2.24-.07-.74.2-1.42.82-2.04.61-.61,1.3-.89,2.04-.82.75.07,1.49.48,2.24,1.23l1.01,1.01Zm-2.46.11c-.4-.4-.75-.64-1.05-.74s-.56-.03-.79.2c-.22.22-.29.47-.21.76s.31.61.67.99l1.42,1.42c.41.41.77.67,1.07.75.3.09.56.02.78-.21.22-.22.29-.47.2-.76-.08-.29-.32-.64-.72-1.04l-1.37-1.37Zm6.96-4.6c.75.75,1.16,1.5,1.23,2.24.07.74-.2,1.42-.81,2.03-.62.62-1.3.89-2.05.82-.75-.07-1.49-.48-2.24-1.22l-1.01-1.01c-.75-.75-1.16-1.5-1.23-2.24-.07-.74.2-1.42.82-2.04.61-.61,1.3-.89,2.04-.82.75.07,1.49.48,2.24,1.23l1.01,1.01Zm-2.46.11c-.4-.4-.75-.64-1.05-.74s-.56-.03-.79.2c-.22.22-.29.47-.21.76.08.28.31.61.67.99l1.42,1.42c.41.41.77.67,1.07.75.3.09.56.02.78-.21.22-.22.29-.47.2-.76s-.32-.64-.72-1.04l-1.37-1.37Zm6.96-4.6c.75.75,1.16,1.5,1.23,2.24.07.74-.2,1.42-.81,2.03-.62.62-1.3.89-2.05.82-.75-.07-1.49-.48-2.24-1.22l-1.01-1.01c-.75-.75-1.16-1.5-1.23-2.24-.07-.74.2-1.42.82-2.04.61-.61,1.3-.89,2.04-.82.75.07,1.49.48,2.24,1.23l1.01,1.01Zm-2.46.11c-.4-.4-.75-.64-1.05-.74-.3-.09-.56-.03-.79.2-.22.22-.29.47-.21.76s.31.61.67.99l1.42,1.42c.41.41.77.67,1.07.75.3.09.56.02.78-.21.22-.22.29-.47.2-.76-.08-.29-.32-.64-.72-1.04l-1.37-1.37Z"/><line class="cls-14" x1="236.42" y1="242.1" x2="250" y2="228.52"/></g><g id="Layer_2"><text class="cls-4" transform="translate(56.01 338.51)"><tspan class="cls-28" x="0" y="0">0</tspan><tspan x="5.17" y="0">%</tspan></text><text class="cls-4" transform="translate(56.01 297.47)"><tspan class="cls-28" x="0" y="0">5</tspan><tspan x="5.17" y="0">%</tspan></text><text class="cls-4" transform="translate(50.8 256.43)"><tspan class="cls-28" x="0" y="0">1</tspan><tspan class="cls-49" x="5.17" y="0">0</tspan><tspan x="10.44" y="0">%</tspan></text><text class="cls-4" transform="translate(50.8 215.38)"><tspan class="cls-28" x="0" y="0">1</tspan><tspan class="cls-49" x="5.17" y="0">5</tspan><tspan x="10.44" y="0">%</tspan></text><text class="cls-4" transform="translate(50.8 174.34)"><tspan class="cls-28" x="0" y="0">2</tspan><tspan class="cls-49" x="5.17" y="0">0</tspan><tspan x="10.44" y="0">%</tspan></text><text class="cls-4" transform="translate(50.8 133.3)"><tspan class="cls-28" x="0" y="0">2</tspan><tspan class="cls-49" x="5.17" y="0">5</tspan><tspan x="10.44" y="0">%</tspan></text><text class="cls-4" transform="translate(50.8 92.25)"><tspan class="cls-28" x="0" y="0">3</tspan><tspan class="cls-49" x="5.17" y="0">0</tspan><tspan x="10.44" y="0">%</tspan></text><text class="cls-4" transform="translate(50.8 51.22)"><tspan class="cls-28" x="0" y="0">3</tspan><tspan class="cls-49" x="5.17" y="0">5</tspan><tspan x="10.44" y="0">%</tspan></text><text class="cls-2" transform="translate(110.62 278.84)"><tspan class="cls-34" x="0" y="0">S</tspan><tspan class="cls-51" x="8.54" y="0">t</tspan><tspan x="13.63" y="0">a</tspan><tspan class="cls-48" x="21.17" y="0">t</tspan><tspan class="cls-27" x="26.06" y="0">e</tspan><tspan x="33.66" y="0"> </tspan><tspan class="cls-36" x="37.34" y="0">W</tspan><tspan class="cls-23" x="49.38" y="0">i</tspan><tspan class="cls-29" x="53.38" y="0">d</tspan><tspan x="61.23" y="0">e</tspan></text><text class="cls-2" transform="translate(254.87 231.84)"><tspan x="0" y="0">C</tspan><tspan class="cls-9" x="9.12" y="0">o</tspan><tspan class="cls-22" x="17.17" y="0">o</tspan><tspan class="cls-33" x="25.01" y="0">k</tspan><tspan x="32.66" y="0" xml:space="preserve"> C</tspan><tspan class="cls-9" x="45.47" y="0">o</tspan><tspan class="cls-29" x="53.51" y="0">u</tspan><tspan class="cls-41" x="61.3" y="0">n</tspan><tspan class="cls-48" x="69.29" y="0">t</tspan><tspan x="74.19" y="0">y</tspan></text><line class="cls-15" x1="185" y1="273" x2="200.5" y2="256.5"/></g><g id="Layer_3"><text class="cls-3" transform="translate(51.09 27.37)"><tspan x="0" y="0">R</tspan><tspan class="cls-44" x="11.74" y="0">e</tspan><tspan class="cls-52" x="21.58" y="0">s</tspan><tspan class="cls-24" x="30.82" y="0">i</tspan><tspan class="cls-43" x="35.75" y="0">d</tspan><tspan class="cls-44" x="45.83" y="0">en</tspan><tspan class="cls-7" x="65.86" y="0">t</tspan><tspan class="cls-24" x="71.98" y="0">i</tspan><tspan class="cls-44" x="76.91" y="0">a</tspan><tspan class="cls-24" x="86.5" y="0">l</tspan><tspan class="cls-43" x="91.43" y="0"> </tspan><tspan class="cls-44" x="95.88" y="0">P</tspan><tspan class="cls-52" x="107.63" y="0">r</tspan><tspan class="cls-24" x="114.47" y="0">o</tspan><tspan class="cls-43" x="124.56" y="0">p</tspan><tspan class="cls-44" x="134.66" y="0">e</tspan><tspan class="cls-52" x="144.49" y="0">r</tspan><tspan class="cls-32" x="151.33" y="0">t</tspan><tspan class="cls-52" x="157.46" y="0">y</tspan><tspan class="cls-43" x="166.8" y="0"> </tspan><tspan class="cls-44" x="171.25" y="0">Ta</tspan><tspan class="cls-24" x="192.22" y="0">x</tspan><tspan class="cls-44" x="201.46" y="0">e</tspan><tspan class="cls-1" x="211.3" y="0">s</tspan><tspan class="cls-25" x="220.54" y="0"> </tspan><tspan x="224.86" y="0">Paid </tspan><tspan class="cls-11" x="265.68" y="0">a</tspan><tspan class="cls-52" x="275.27" y="0">s</tspan><tspan class="cls-26" x="284.51" y="0"> </tspan><tspan class="cls-11" x="288.96" y="0">a</tspan><tspan class="cls-26" x="298.55" y="0"> </tspan><tspan class="cls-11" x="302.99" y="0">Pe</tspan><tspan class="cls-52" x="324.58" y="0">r</tspan><tspan class="cls-37" x="331.42" y="0">c</tspan><tspan class="cls-44" x="340.77" y="0">en</tspan><tspan class="cls-7" x="360.79" y="0">t</tspan><tspan class="cls-44" x="366.92" y="0">a</tspan><tspan class="cls-35" x="376.51" y="0">g</tspan><tspan class="cls-44" x="386.84" y="0">e</tspan><tspan class="cls-42" x="396.68" y="0"> </tspan><tspan class="cls-33" x="401" y="0">o</tspan><tspan class="cls-43" x="411.09" y="0">f</tspan><tspan class="cls-12" x="417.57" y="0"> </tspan><tspan class="cls-35" x="422.13" y="0">A</tspan><tspan class="cls-43" x="434.37" y="0">d</tspan><tspan class="cls-50" x="444.46" y="0">j</tspan><tspan class="cls-44" x="449.38" y="0">u</tspan><tspan class="cls-1" x="459.56" y="0">s</tspan><tspan class="cls-7" x="468.8" y="0">t</tspan><tspan class="cls-44" x="474.92" y="0">e</tspan><tspan class="cls-43" x="484.76" y="0">d </tspan><tspan class="cls-35" x="499.3" y="0">G</tspan><tspan class="cls-54" x="511.55" y="0">r</tspan><tspan class="cls-35" x="518.39" y="0">o</tspan><tspan class="cls-54" x="528.47" y="0">ss</tspan><tspan class="cls-43" x="546.95" y="0"> </tspan><tspan class="cls-33" x="551.4" y="0">I</tspan><tspan class="cls-44" x="556.81" y="0">n</tspan><tspan x="567" y="0">c</tspan><tspan class="cls-35" x="576.35" y="0">om</tspan><tspan class="cls-44" x="601.92" y="0">e</tspan><tspan x="611.76" y="0" xml:space="preserve"> (AGI)</tspan></text><text class="cls-5" transform="translate(35.41 312.02) rotate(-90)"><tspan class="cls-47" x="0" y="0">Pe</tspan><tspan class="cls-8" x="17.45" y="0">r</tspan><tspan x="22.64" y="0">c</tspan><tspan class="cls-47" x="30.49" y="0">en</tspan><tspan class="cls-38" x="46.75" y="0">t</tspan><tspan class="cls-46" x="51.72" y="0"> </tspan><tspan class="cls-13" x="55.46" y="0">o</tspan><tspan class="cls-40" x="63.97" y="0">f</tspan><tspan class="cls-45" x="69.32" y="0"> </tspan><tspan x="73.28" y="0">AGI paid in property taxes</tspan></text><text class="cls-5" transform="translate(458.85 410.4)"><tspan class="cls-13" x="0" y="0">A</tspan><tspan class="cls-31" x="9.78" y="0">d</tspan><tspan class="cls-10" x="18.18" y="0">j</tspan><tspan class="cls-47" x="22.03" y="0">u</tspan><tspan class="cls-1" x="30.28" y="0">s</tspan><tspan class="cls-38" x="38.04" y="0">t</tspan><tspan class="cls-47" x="43.01" y="0">e</tspan><tspan class="cls-40" x="51.01" y="0">d </tspan><tspan class="cls-33" x="63.27" y="0">G</tspan><tspan class="cls-1" x="73.29" y="0">r</tspan><tspan class="cls-33" x="78.48" y="0">o</tspan><tspan class="cls-1" x="87" y="0">ss</tspan><tspan class="cls-31" x="102.52" y="0"> </tspan><tspan class="cls-13" x="106.38" y="0">I</tspan><tspan class="cls-53" x="110.61" y="0">n</tspan><tspan x="118.87" y="0">c</tspan><tspan class="cls-33" x="126.73" y="0">om</tspan><tspan class="cls-53" x="148.02" y="0">e</tspan><tspan x="156.01" y="0"> </tspan></text></g></svg>