<?xml version="1.0" encoding="UTF-8"?><svg xmlns="http://www.w3.org/2000/svg" xmlns:xlink="http://www.w3.org/1999/xlink" viewBox="0 0 1803 218"><defs><style>.cls-1{fill:#fff;}.cls-2,.cls-3{fill:#587594;}.cls-4{isolation:isolate;}.cls-5{fill:#896da2;}.cls-6{opacity:.63;}.cls-3,.cls-7{opacity:.42;}.cls-3,.cls-7,.cls-8{mix-blend-mode:multiply;}.cls-9,.cls-8{fill:#759ac1;}.cls-10{fill:#272727;}.cls-11{fill:#d15050;}.cls-12{fill:#3074b1;}.cls-13{font-family:Roboto-BoldCondensedItalic, Roboto;font-size:19px;font-style:italic;font-weight:700;}.cls-8{opacity:.19;}</style><symbol id="New_Symbol" viewBox="0 0 45 45"><g><rect class="cls-1" x=".5" y=".5" width="44" height="44"/><path d="m44,1v43H1V1h43m1-1H0v45h45V0h0Z"/></g></symbol></defs><g class="cls-4"><g id="Layer_1" class="cls-6"><use width="45" height="45" transform="translate(461.79 224.34) rotate(-180) scale(.95 .72)" xlink:href="#New_Symbol"/><g class="cls-7"><rect class="cls-9" x="1698.88" y="57.02" width="110.56" height="83.66"/><g><rect class="cls-10" x="1689.83" y="-44.61" width="133.33" height="100.9"/><path d="m1690.41,55.85h132.18V-44.17h-132.18V55.85m-1.16.88V-45.05h134.49V56.73h-134.49Z"/></g></g><g class="cls-7"><g><rect class="cls-2" x="938.9" y="-75.55" width="310.4" height="234.89"/><path class="cls-2" d="m940.25,158.32h307.7V-74.53h-307.7v232.85m-2.7,2.04V-76.57h313.1v236.93h-313.1Z"/></g></g><g class="cls-7"><g><rect class="cls-9" x="979.24" y="54.87" width="303.04" height="229.32"/><path class="cls-9" d="m980.55,283.19h300.4V55.87h-300.4v227.32m-2.64,1.99V53.87h305.67v231.31h-305.67Z"/></g><g><rect class="cls-9" x="721.03" y="-144.53" width="219.61" height="166.19"/><path class="cls-9" d="m721.99,20.94h217.71v-164.74h-217.71V20.94m-1.91,1.45v-167.63h221.52V22.39h-221.52Z"/></g><g><rect class="cls-9" x="1488.68" y="27.42" width="257.76" height="195.06"/><path class="cls-9" d="m1489.8,221.63h255.52V28.27h-255.52v193.36m-2.24,1.7V26.57h260v196.75h-260Z"/></g><g><rect class="cls-9" x="276.31" y="209.07" width="191.44" height="144.87"/><path class="cls-9" d="m277.14,353.31h189.78v-143.61h-189.78v143.61m-1.66,1.26v-146.13h193.11v146.13h-193.11Z"/></g><g><rect class="cls-9" x="95.89" y="26.89" width="131.12" height="99.22"/><path class="cls-9" d="m96.46,125.68h129.98V27.32H96.46v98.36m-1.14.86V26.46h132.26v100.08H95.32Z"/></g><g><rect class="cls-9" x="-132.84" y="178.74" width="270.91" height="205.01"/><path class="cls-9" d="m-131.66,382.86H136.89v-203.23H-131.66v203.23m-2.36,1.78v-206.79H139.25v206.79H-134.02Z"/></g><g><rect class="cls-9" x="468.54" y="59.36" width="74.07" height="56.05"/><path class="cls-9" d="m468.86,115.16h73.42v-55.56h-73.42v55.56m-.64.49v-56.53h74.71v56.53h-74.71Z"/></g></g><g class="cls-7"><g><g><rect class="cls-11" x="1547.54" y="108.76" width="314.38" height="237.9"/><path class="cls-11" d="m1548.91,345.63h311.65V109.79h-311.65v235.84m-2.73,2.07V107.72h317.12v239.97h-317.12Z"/></g><g><rect class="cls-11" x="1351.43" y="-67.12" width="232.95" height="176.28"/><path class="cls-11" d="m1352.44,108.39h230.92V-66.35h-230.92V108.39m-2.03,1.53V-67.88h234.97V109.93h-234.97Z"/></g><g><rect class="cls-11" x="1033.84" y="118.75" width="153.9" height="116.46"/><path class="cls-11" d="m1034.51,234.71h152.56v-115.45h-152.56v115.45m-1.34,1.01v-117.48h155.24v117.48h-155.24Z"/></g><g><rect class="cls-11" x="1344.42" y="191.04" width="172.07" height="130.21"/><path class="cls-11" d="m1345.17,320.69h170.57v-129.08h-170.57v129.08m-1.5,1.13v-131.34h173.57v131.34h-173.57Z"/></g><polygon class="cls-5" points="2570.15 237.35 1655.2 -146.95 1441.57 -146.95 2356.51 237.35 2570.15 237.35"/></g></g><g class="cls-7"><g><g><rect class="cls-11" x="442.2" y="98.04" width="232.95" height="176.28"/><path class="cls-11" d="m443.21,273.55h230.92V98.81h-230.92v174.75m-2.03,1.53V97.27h234.97v177.81h-234.97Z"/></g><g><polygon class="cls-11" points="1467.61 126.73 552.66 -246.65 324.59 -246.65 1239.54 126.73 1467.61 126.73"/><path class="cls-11" d="m325.58-247.4h226.08L1466.61,127.48h-226.08L325.58-247.4m-1.98,1.5L1238.55,125.98h230.05L553.65-245.9h-230.05Z"/></g><g><rect class="cls-11" x="532.34" y="-143.46" width="213.64" height="161.67"/><path class="cls-11" d="m533.27,17.51h211.78v-160.26h-211.78V17.51m-1.86,1.41v-163.07h215.49V18.91h-215.49Z"/></g></g></g><polyline class="cls-3" points="823.61 -183.63 823.61 51.2 513.29 51.2 513.29 -183.63"/><polyline class="cls-3" points="514.64 50.18 822.26 50.18 822.26 -182.61"/><polyline class="cls-3" points="824.96 -184.65 824.96 52.22 511.94 52.22 511.94 52.22 511.94 -184.65"/><polyline class="cls-3" points="1216.77 -194.38 1216.77 41.86 904.59 41.86 904.59 -194.38"/><polyline class="cls-3" points="905.95 40.83 1215.41 40.83 1215.41 -193.35"/><polyline class="cls-3" points="1218.12 -195.41 1218.12 42.88 903.23 42.88 903.23 42.88 903.23 -195.41"/><polyline class="cls-8" points="241.22 -17.62 241.22 38.23 167.41 38.23 167.41 -17.62"/><polyline class="cls-8" points="167.73 37.99 240.9 37.99 240.9 -17.38"/><polyline class="cls-8" points="241.54 -17.86 241.54 38.47 167.09 38.47 167.09 38.47 167.09 -17.86"/><polyline class="cls-8" points="841.29 -46.88 841.29 102.69 643.64 102.69 643.64 -46.88"/><polyline class="cls-8" points="644.5 102.04 840.44 102.04 840.44 -46.23"/><polyline class="cls-8" points="842.15 -47.53 842.15 103.34 642.78 103.34 642.78 103.34 642.78 -47.53"/><polyline class="cls-8" points="1068.44 -84.08 1068.44 61.7 875.79 61.7 875.79 -84.08"/><polyline class="cls-8" points="876.63 61.07 1067.61 61.07 1067.61 -83.45"/><polyline class="cls-8" points="1069.28 -84.72 1069.28 62.33 874.96 62.33 874.96 62.33 874.96 -84.72"/><g class="cls-7"><rect class="cls-12" x="124.78" y="72.35" width="220.42" height="166.8"/><path class="cls-12" d="m125.74,238.43h218.51V73.08H125.74v165.35m-1.92,1.45V71.62h222.34v168.25H123.82Z"/></g></g><g id="Layer_6"><text class="cls-13" transform="translate(83.67 63.93)"><tspan x="0" y="0">$</tspan></text></g></g></svg>