<?xml version="1.0" encoding="UTF-8"?><svg xmlns="http://www.w3.org/2000/svg" xmlns:xlink="http://www.w3.org/1999/xlink" viewBox="0 0 4189 218"><defs><style>.cls-1{fill:#fff;}.cls-2,.cls-3{fill:#587594;}.cls-4{isolation:isolate;}.cls-5{fill:#896da2;}.cls-6{opacity:.63;}.cls-3,.cls-7{opacity:.42;}.cls-3,.cls-7,.cls-8{mix-blend-mode:multiply;}.cls-9,.cls-8{fill:#759ac1;}.cls-10{fill:#272727;}.cls-11{fill:#d15050;}.cls-12{fill:#3074b1;}.cls-13{font-family:Roboto-BoldCondensedItalic, Roboto;font-size:19px;font-style:italic;font-weight:700;}.cls-8{opacity:.19;}</style><symbol id="New_Symbol" viewBox="0 0 45 45"><g><rect class="cls-1" x=".5" y=".5" width="44" height="44"/><path d="m44,1v43H1V1h43m1-1H0v45h45V0h0Z"/></g></symbol></defs><g class="cls-4"><g id="Layer_1" class="cls-6"><g class="cls-7"><g><rect class="cls-9" x="168.24" y="-87.13" width="303.04" height="229.32"/><path class="cls-9" d="m169.55,141.19h300.4V-86.13H169.55v227.32m-2.64,1.99V-88.13h305.67v231.31H166.92Z"/></g><g><rect class="cls-9" x="677.68" y="-114.58" width="257.76" height="195.06"/><path class="cls-9" d="m678.8,79.63h255.52V-113.73h-255.52V79.63m-2.24,1.7V-115.43h260V81.32h-260Z"/></g></g><use width="45" height="45" transform="translate(1726.79 224.34) rotate(-180) scale(.95 .72)" xlink:href="#New_Symbol"/><g class="cls-7"><rect class="cls-9" x="2963.88" y="57.02" width="110.56" height="83.66"/><g><rect class="cls-10" x="2954.83" y="-44.61" width="133.33" height="100.9"/><path d="m2955.41,55.85h132.18V-44.17h-132.18V55.85m-1.16.88V-45.05h134.49V56.73h-134.49Z"/></g></g><g class="cls-7"><g><rect class="cls-2" x="2203.9" y="-75.55" width="310.4" height="234.89"/><path class="cls-2" d="m2205.25,158.32h307.7V-74.53h-307.7v232.85m-2.7,2.04V-76.57h313.1v236.93h-313.1Z"/></g></g><g class="cls-7"><g><rect class="cls-9" x="2244.24" y="54.87" width="303.04" height="229.32"/><path class="cls-9" d="m2245.55,283.19h300.4V55.87h-300.4v227.32m-2.64,1.99V53.87h305.67v231.31h-305.67Z"/></g><g><rect class="cls-9" x="1986.03" y="-144.53" width="219.61" height="166.19"/><path class="cls-9" d="m1986.99,20.94h217.71v-164.74h-217.71V20.94m-1.91,1.45v-167.63h221.52V22.39h-221.52Z"/></g><g><rect class="cls-9" x="2753.68" y="27.42" width="257.76" height="195.06"/><path class="cls-9" d="m2754.8,221.63h255.52V28.27h-255.52v193.36m-2.24,1.7V26.57h260v196.75h-260Z"/></g><g><rect class="cls-9" x="1541.31" y="209.07" width="191.44" height="144.87"/><path class="cls-9" d="m1542.14,353.31h189.78v-143.61h-189.78v143.61m-1.66,1.26v-146.13h193.11v146.13h-193.11Z"/></g><g><rect class="cls-9" x="1360.89" y="26.89" width="131.12" height="99.22"/><path class="cls-9" d="m1361.46,125.68h129.98V27.32h-129.98v98.36m-1.14.86V26.46h132.26v100.08h-132.26Z"/></g><g><rect class="cls-9" x="1132.16" y="178.74" width="270.91" height="205.01"/><path class="cls-9" d="m1133.34,382.86h268.56v-203.23h-268.56v203.23m-2.36,1.78v-206.79h273.27v206.79h-273.27Z"/></g><g><rect class="cls-9" x="1733.54" y="59.36" width="74.07" height="56.05"/><path class="cls-9" d="m1733.86,115.16h73.42v-55.56h-73.42v55.56m-.64.49v-56.53h74.71v56.53h-74.71Z"/></g></g><g class="cls-7"><g><g><rect class="cls-11" x="2812.54" y="108.76" width="314.38" height="237.9"/><path class="cls-11" d="m2813.91,345.63h311.65V109.79h-311.65v235.84m-2.73,2.07V107.72h317.12v239.97h-317.12Z"/></g><g><rect class="cls-11" x="2616.43" y="-67.12" width="232.95" height="176.28"/><path class="cls-11" d="m2617.44,108.39h230.92V-66.35h-230.92V108.39m-2.03,1.53V-67.88h234.97V109.93h-234.97Z"/></g><g><rect class="cls-11" x="3413.77" y="-38.43" width="228.07" height="172.59"/><path class="cls-11" d="m3414.76,133.41h226.08V-37.68h-226.08v171.08m-1.98,1.5V-39.18h230.05v174.09h-230.05Z"/></g><g><rect class="cls-11" x="3253.45" y="145.19" width="61" height="46.16"/><path class="cls-11" d="m3253.72,191.15h60.47v-45.76h-60.47v45.76m-.53.4v-46.56h61.53v46.56h-61.53Z"/></g><g><rect class="cls-11" x="2298.84" y="118.75" width="153.9" height="116.46"/><path class="cls-11" d="m2299.51,234.71h152.56v-115.45h-152.56v115.45m-1.34,1.01v-117.48h155.24v117.48h-155.24Z"/></g><g><rect class="cls-11" x="2609.42" y="191.04" width="172.07" height="130.21"/><path class="cls-11" d="m2610.17,320.69h170.57v-129.08h-170.57v129.08m-1.5,1.13v-131.34h173.57v131.34h-173.57Z"/></g><g><polygon class="cls-5" points="3835.15 237.35 2920.2 -146.95 2706.57 -146.95 3621.51 237.35 3835.15 237.35"/><path class="cls-5" d="m3669.49-147.65h211.78l414.95,385.7h-211.78l-914.95-385.7m769.51,1.65l143.58,382.64h215.49l-264.95-382.89h-215.49l121.36.25Z"/></g></g></g><g class="cls-7"><g><g><rect class="cls-11" x="1707.2" y="98.04" width="232.95" height="176.28"/><path class="cls-11" d="m1708.21,273.55h230.92V98.81h-230.92v174.75m-2.03,1.53V97.27h234.97v177.81h-234.97Z"/></g><g><polygon class="cls-11" points="2732.61 126.73 1817.66 -246.65 1589.59 -246.65 2504.54 126.73 2732.61 126.73"/><path class="cls-11" d="m1590.58-247.4h226.08l914.95,374.88h-226.08l-914.95-374.88m-1.98,1.5l914.95,371.88h230.05l-914.95-371.88h-230.05Z"/></g><g><rect class="cls-11" x="1797.34" y="-143.46" width="213.64" height="161.67"/><path class="cls-11" d="m1798.27,17.51h211.78v-160.26h-211.78V17.51m-1.86,1.41v-163.07h215.49V18.91h-215.49Z"/></g></g></g><polyline class="cls-3" points="2088.61 -183.63 2088.61 51.2 1778.29 51.2 1778.29 -183.63"/><polyline class="cls-3" points="1779.64 50.18 2087.26 50.18 2087.26 -182.61"/><polyline class="cls-3" points="2089.96 -184.65 2089.96 52.22 1776.94 52.22 1776.94 52.22 1776.94 -184.65"/><polyline class="cls-3" points="2481.77 -194.38 2481.77 41.86 2169.59 41.86 2169.59 -194.38"/><polyline class="cls-3" points="2170.95 40.83 2480.41 40.83 2480.41 -193.35"/><polyline class="cls-3" points="2483.12 -195.41 2483.12 42.88 2168.23 42.88 2168.23 42.88 2168.23 -195.41"/><polyline class="cls-8" points="1506.22 -17.62 1506.22 38.23 1432.41 38.23 1432.41 -17.62"/><polyline class="cls-8" points="1432.73 37.99 1505.9 37.99 1505.9 -17.38"/><polyline class="cls-8" points="1506.54 -17.86 1506.54 38.47 1432.09 38.47 1432.09 38.47 1432.09 -17.86"/><polyline class="cls-8" points="2106.29 -46.88 2106.29 102.69 1908.64 102.69 1908.64 -46.88"/><polyline class="cls-8" points="1909.5 102.04 2105.44 102.04 2105.44 -46.23"/><polyline class="cls-8" points="2107.15 -47.53 2107.15 103.34 1907.78 103.34 1907.78 103.34 1907.78 -47.53"/><polyline class="cls-8" points="2333.44 -84.08 2333.44 61.7 2140.79 61.7 2140.79 -84.08"/><polyline class="cls-8" points="2141.63 61.07 2332.61 61.07 2332.61 -83.45"/><polyline class="cls-8" points="2334.28 -84.72 2334.28 62.33 2139.96 62.33 2139.96 62.33 2139.96 -84.72"/><g class="cls-7"><rect class="cls-12" x="1389.78" y="72.35" width="220.42" height="166.8"/><path class="cls-12" d="m1390.74,238.43h218.51V73.08h-218.51v165.35m-1.92,1.45V71.62h222.34v168.25h-222.34Z"/></g><g><rect class="cls-2" x="4163.7" y="184.68" width="312.18" height="236.23"/><path class="cls-2" d="m4165.05,419.89h309.46v-234.18h-309.46v234.18m-2.71,2.05v-238.29h314.89v238.29h-314.89Z"/></g></g><g id="Layer_6"><text class="cls-13" transform="translate(1348.67 63.93)"><tspan x="0" y="0">$</tspan></text></g></g></svg>