<?xml version="1.0" encoding="UTF-8"?><svg xmlns="http://www.w3.org/2000/svg" xmlns:xlink="http://www.w3.org/1999/xlink" viewBox="0 0 4189 218"><defs><style>.cls-1,.cls-2{fill:#fff;}.cls-2,.cls-3{stroke-width:6.98px;}.cls-2,.cls-3,.cls-4{stroke:#000;}.cls-2,.cls-4{stroke-linejoin:round;}.cls-5,.cls-6{fill:#587594;}.cls-7{isolation:isolate;}.cls-8{fill:#896da2;}.cls-9{opacity:.63;}.cls-3{stroke-miterlimit:10;}.cls-3,.cls-4{fill:none;}.cls-6,.cls-10{opacity:.42;}.cls-6,.cls-10,.cls-11{mix-blend-mode:multiply;}.cls-12,.cls-11{fill:#759ac1;}.cls-13{fill:#272727;}.cls-14{fill:#d15050;}.cls-4{stroke-linecap:round;stroke-width:2.79px;}.cls-15{fill:#3074b1;}.cls-16{font-family:Roboto-BoldCondensedItalic, Roboto;font-size:19px;font-style:italic;font-weight:700;}.cls-11{opacity:.19;}</style><symbol id="New_Symbol" viewBox="0 0 45 45"><g><rect class="cls-1" x=".5" y=".5" width="44" height="44"/><path d="m44,1v43H1V1h43m1-1H0v45h45V0h0Z"/></g></symbol></defs><g class="cls-7"><g id="Layer_1" class="cls-9"><use width="45" height="45" transform="translate(1726.79 224.34) rotate(-180) scale(.95 .72)" xlink:href="#New_Symbol"/><g class="cls-10"><rect class="cls-12" x="2963.88" y="57.02" width="110.56" height="83.66"/><g><rect class="cls-13" x="2954.83" y="-44.61" width="133.33" height="100.9"/><path d="m2955.41,55.85h132.18V-44.17h-132.18V55.85m-1.16.88V-45.05h134.49V56.73h-134.49Z"/></g></g><g class="cls-10"><g><rect class="cls-5" x="2203.9" y="-75.55" width="310.4" height="234.89"/><path class="cls-5" d="m2205.25,158.32h307.7V-74.53h-307.7v232.85m-2.7,2.04V-76.57h313.1v236.93h-313.1Z"/></g></g><g class="cls-10"><g><rect class="cls-12" x="2244.24" y="54.87" width="303.04" height="229.32"/><path class="cls-12" d="m2245.55,283.19h300.4V55.87h-300.4v227.32m-2.64,1.99V53.87h305.67v231.31h-305.67Z"/></g><g><rect class="cls-12" x="1986.03" y="-144.53" width="219.61" height="166.19"/><path class="cls-12" d="m1986.99,20.94h217.71v-164.74h-217.71V20.94m-1.91,1.45v-167.63h221.52V22.39h-221.52Z"/></g><g><rect class="cls-12" x="2753.68" y="27.42" width="257.76" height="195.06"/><path class="cls-12" d="m2754.8,221.63h255.52V28.27h-255.52v193.36m-2.24,1.7V26.57h260v196.75h-260Z"/></g><g><rect class="cls-12" x="1541.31" y="209.07" width="191.44" height="144.87"/><path class="cls-12" d="m1542.14,353.31h189.78v-143.61h-189.78v143.61m-1.66,1.26v-146.13h193.11v146.13h-193.11Z"/></g><g><rect class="cls-12" x="1360.89" y="26.89" width="131.12" height="99.22"/><path class="cls-12" d="m1361.46,125.68h129.98V27.32h-129.98v98.36m-1.14.86V26.46h132.26v100.08h-132.26Z"/></g><g><rect class="cls-12" x="1132.16" y="178.74" width="270.91" height="205.01"/><path class="cls-12" d="m1133.34,382.86h268.56v-203.23h-268.56v203.23m-2.36,1.78v-206.79h273.27v206.79h-273.27Z"/></g><g><rect class="cls-12" x="1733.54" y="59.36" width="74.07" height="56.05"/><path class="cls-12" d="m1733.86,115.16h73.42v-55.56h-73.42v55.56m-.64.49v-56.53h74.71v56.53h-74.71Z"/></g></g><g class="cls-10"><g><g><rect class="cls-14" x="2812.54" y="108.76" width="314.38" height="237.9"/><path class="cls-14" d="m2813.91,345.63h311.65V109.79h-311.65v235.84m-2.73,2.07V107.72h317.12v239.97h-317.12Z"/></g><g><rect class="cls-14" x="2616.43" y="-67.12" width="232.95" height="176.28"/><path class="cls-14" d="m2617.44,108.39h230.92V-66.35h-230.92V108.39m-2.03,1.53V-67.88h234.97V109.93h-234.97Z"/></g><g><rect class="cls-14" x="3413.77" y="-38.43" width="228.07" height="172.59"/><path class="cls-14" d="m3414.76,133.41h226.08V-37.68h-226.08v171.08m-1.98,1.5V-39.18h230.05v174.09h-230.05Z"/></g><g><rect class="cls-14" x="3253.45" y="145.19" width="61" height="46.16"/><path class="cls-14" d="m3253.72,191.15h60.47v-45.76h-60.47v45.76m-.53.4v-46.56h61.53v46.56h-61.53Z"/></g><g><rect class="cls-14" x="2298.84" y="118.75" width="153.9" height="116.46"/><path class="cls-14" d="m2299.51,234.71h152.56v-115.45h-152.56v115.45m-1.34,1.01v-117.48h155.24v117.48h-155.24Z"/></g><g><rect class="cls-14" x="2609.42" y="191.04" width="172.07" height="130.21"/><path class="cls-14" d="m2610.17,320.69h170.57v-129.08h-170.57v129.08m-1.5,1.13v-131.34h173.57v131.34h-173.57Z"/></g><g><polygon class="cls-14" points="3835.15 237.35 2920.2 -146.95 2706.57 -146.95 3621.51 237.35 3835.15 237.35"/><path class="cls-14" d="m2707.49-147.65h211.78l914.95,385.7h-211.78l-914.95-385.7m-1.86,1.41l914.95,382.89h215.49l-914.95-382.89h-215.49Z"/></g></g></g><g class="cls-10"><g><g><rect class="cls-14" x="1707.2" y="98.04" width="232.95" height="176.28"/><path class="cls-14" d="m1708.21,273.55h230.92V98.81h-230.92v174.75m-2.03,1.53V97.27h234.97v177.81h-234.97Z"/></g><g><polygon class="cls-14" points="2732.61 126.73 1817.66 -246.65 1589.59 -246.65 2504.54 126.73 2732.61 126.73"/><path class="cls-14" d="m1590.58-247.4h226.08l914.95,374.88h-226.08l-914.95-374.88m-1.98,1.5l914.95,371.88h230.05l-914.95-371.88h-230.05Z"/></g><g><rect class="cls-14" x="1797.34" y="-143.46" width="213.64" height="161.67"/><path class="cls-14" d="m1798.27,17.51h211.78v-160.26h-211.78V17.51m-1.86,1.41v-163.07h215.49V18.91h-215.49Z"/></g></g></g><g class="cls-10"><g><g><rect class="cls-15" x="1705.63" y="151.76" width="146.97" height="111.22"/><path class="cls-15" d="m1706.27,262.49h145.69v-110.25h-145.69v110.25m-1.28.97v-112.18h148.25v112.18h-148.25Z"/></g><g><rect class="cls-15" x="1936.62" y="-8.11" width="128.84" height="97.5"/><path class="cls-15" d="m1937.18,88.97h127.72V-7.68h-127.72v96.65m-1.12.85V-8.53h129.96v98.34h-129.96Z"/></g><g><rect class="cls-15" x="2054.23" y="99.15" width="131.95" height="99.85"/><path class="cls-15" d="m2054.8,198.57h130.8v-98.98h-130.8v98.98m-1.15.87v-100.72h133.09v100.72h-133.09Z"/></g><g><rect class="cls-15" x="2172.44" y="43.57" width="276.44" height="209.19"/><path class="cls-15" d="m2173.64,251.86h274.04V44.48h-274.04v207.38m-2.4,1.82V42.66h278.85v211.01h-278.85Z"/></g><g><rect class="cls-15" x="2445.59" y="14.49" width="223.58" height="169.19"/><path class="cls-15" d="m2446.56,182.95h221.63V15.23h-221.63v167.72m-1.94,1.47V13.76h225.52v170.66h-225.52Z"/></g><g><rect class="cls-15" x="3644.96" y="71.73" width="61.8" height="46.77"/><path class="cls-15" d="m3645.23,118.3h61.27v-46.36h-61.27v46.36m-.54.41v-47.18h62.34v47.18h-62.34Z"/></g><g><rect class="cls-15" x="2240.82" y="-84.77" width="206.6" height="156.34"/><path class="cls-15" d="m2241.72,70.88h204.8V-84.09h-204.8V70.88m-1.8,1.36V-85.45h208.39V72.24h-208.39Z"/></g><g><polygon class="cls-15" points="3222.42 234.24 2307.48 -214.86 2179.48 -214.86 3094.43 234.24 3222.42 234.24"/><path class="cls-15" d="m2180.04-215.28h126.89l914.95,449.94h-126.89l-914.95-449.94m-1.11.84l914.95,448.26h129.11l-914.95-448.26h-129.11Z"/></g><g><rect class="cls-15" x="1976.62" y="10.23" width="164.94" height="124.82"/><path class="cls-15" d="m1977.34,134.51h163.51V10.78h-163.51v123.73m-1.43,1.09V9.69h166.38v125.9h-166.38Z"/></g><g><polygon class="cls-15" points="3121.51 228.49 2206.56 -119.25 1944.62 -119.25 2859.57 228.49 3121.51 228.49"/><path class="cls-15" d="m1945.76-120.12h259.66l914.95,349.47h-259.66L1945.76-120.12m-2.28,1.72l914.95,346.02h264.22l-914.95-346.02h-264.22Z"/></g><g><rect class="cls-15" x="1819.55" y="-11.12" width="84.98" height="64.3"/><path class="cls-15" d="m1819.92,52.9h84.24V-10.85h-84.24v63.74m-.74.56V-11.4h85.72V53.46h-85.72Z"/></g></g></g><g class="cls-10"><g><g><rect class="cls-8" x="2042.81" y="210.41" width="162.75" height="123.16"/><path class="cls-8" d="m2043.52,333.03h161.33v-122.08h-161.33v122.08m-1.42,1.07v-124.23h164.16v124.23h-164.16Z"/></g><g><rect class="cls-8" x="1453.52" y="-98.27" width="284.02" height="214.92"/><path class="cls-8" d="m1454.75,115.72h281.55V-97.34h-281.55V115.72m-2.47,1.87V-99.21h286.49V117.58h-286.49Z"/></g><g><polygon class="cls-8" points="2590.94 103.49 1676 -257.58 1431.67 -257.58 2346.62 103.49 2590.94 103.49"/><path class="cls-8" d="m1432.74-258.39h242.2l914.95,362.68h-242.2l-914.95-362.68m-2.12,1.61l914.95,359.47h246.45l-914.95-359.47h-246.45Z"/></g><g><rect class="cls-8" x="1110.94" y="213" width="81.66" height="61.8"/><path class="cls-8" d="m1111.29,274.52h80.95v-61.26h-80.95v61.26m-.71.54v-62.33h82.37v62.33h-82.37Z"/></g><g><rect class="cls-8" x="1750.25" y="48.58" width="262.4" height="198.56"/><path class="cls-8" d="m1751.39,246.28h260.11V49.44h-260.11v196.84m-2.28,1.73V47.72h264.68v200.29h-264.68Z"/></g><g><rect class="cls-8" x="2228.62" y="-38.25" width="298.17" height="225.64"/><path class="cls-8" d="m2229.92,186.41h295.58V-37.27h-295.58v223.68m-2.59,1.96V-39.23h300.77v227.6h-300.77Z"/></g><g><rect class="cls-8" x="1328.81" y="-30.4" width="217.68" height="164.73"/><path class="cls-8" d="m1329.76,133.61h215.79V-29.68h-215.79v163.29m-1.89,1.43V-31.12h219.57v166.16h-219.57Z"/></g><g><polygon class="cls-8" points="2289.52 205.84 1374.58 -149.35 1122.47 -149.35 2037.42 205.84 2289.52 205.84"/><path class="cls-8" d="m1123.57-150.18h249.91l914.95,356.85h-249.91l-914.95-356.85m-2.19,1.66l914.95,353.53h254.3l-914.95-353.53h-254.3Z"/></g><g><polygon class="cls-8" points="1729.81 138.46 1729.81 186.53 751.34 -359.43 751.34 -407.5 1729.81 138.46"/><path class="cls-8" d="m751.61-359.64L1729.53,186.32v-47.65L751.61-407.29v47.65m-.55.42v-48.49L1730.08,138.26v48.49L751.06-359.22h0Z"/></g><g><polygon class="cls-8" points="1740.5 187.71 825.55 -236.37 664.49 -236.37 664.49 -358.25 1740.5 187.71"/><path class="cls-8" d="m665.19-236.9h159.66l914.95,425.14L665.19-357.72v120.82m-1.4,1.06v-122.94L1741.2,187.19,826.25-235.84h-162.46Z"/></g><g><polygon class="cls-8" points="1786.2 235.35 871.25 -86.41 574.98 -86.41 574.98 -310.61 1786.2 235.35"/><path class="cls-8" d="m576.27-87.39h293.69l914.95,323.71L576.27-309.64V-87.39m-2.58,1.95v-226.15L1787.49,234.37,872.54-85.44h-298.85Z"/></g><g><rect class="cls-8" x="477.12" y="-110.72" width="242.36" height="183.4"/><path class="cls-8" d="m478.18,71.89h240.26V-109.92h-240.26V71.89m-2.11,1.59V-111.52h244.47V73.48h-244.47Z"/></g></g></g><polyline class="cls-6" points="2088.61 -183.63 2088.61 51.2 1778.29 51.2 1778.29 -183.63"/><polyline class="cls-6" points="2125.78 -114.39 2125.78 120.44 1815.46 120.44 1815.46 -114.39"/><polyline class="cls-6" points="1779.64 50.18 2087.26 50.18 2087.26 -182.61"/><polyline class="cls-6" points="2089.96 -184.65 2089.96 52.22 1776.94 52.22 1776.94 52.22 1776.94 -184.65"/><polyline class="cls-6" points="2481.77 -194.38 2481.77 41.86 2169.59 41.86 2169.59 -194.38"/><polyline class="cls-6" points="2170.95 40.83 2480.41 40.83 2480.41 -193.35"/><polyline class="cls-6" points="2483.12 -195.41 2483.12 42.88 2168.23 42.88 2168.23 42.88 2168.23 -195.41"/><polyline class="cls-11" points="1506.22 -17.62 1506.22 38.23 1432.41 38.23 1432.41 -17.62"/><polyline class="cls-11" points="1432.73 37.99 1505.9 37.99 1505.9 -17.38"/><polyline class="cls-11" points="1506.54 -17.86 1506.54 38.47 1432.09 38.47 1432.09 38.47 1432.09 -17.86"/><polyline class="cls-11" points="2106.29 -46.88 2106.29 102.69 1908.64 102.69 1908.64 -46.88"/><polyline class="cls-11" points="1909.5 102.04 2105.44 102.04 2105.44 -46.23"/><polyline class="cls-11" points="2107.15 -47.53 2107.15 103.34 1907.78 103.34 1907.78 103.34 1907.78 -47.53"/><polyline class="cls-11" points="2333.44 -84.08 2333.44 61.7 2140.79 61.7 2140.79 -84.08"/><polyline class="cls-11" points="2141.63 61.07 2332.61 61.07 2332.61 -83.45"/><polyline class="cls-11" points="2334.28 -84.72 2334.28 62.33 2139.96 62.33 2139.96 62.33 2139.96 -84.72"/><g class="cls-10"><rect class="cls-15" x="1389.78" y="72.35" width="220.42" height="166.8"/><path class="cls-15" d="m1390.74,238.43h218.51V73.08h-218.51v165.35m-1.92,1.45V71.62h222.34v168.25h-222.34Z"/></g><g><rect class="cls-5" x="4061.7" y="168.32" width="312.18" height="236.23"/><path class="cls-5" d="m4063.05,403.53h309.46v-234.18h-309.46v234.18m-2.71,2.05v-238.29h314.89v238.29h-314.89Z"/></g></g><g id="Layer_2_copy"><g><path d="m1650,189.92h-5.62v-42.66h5.62v42.66Z"/><path d="m1664.56,158.22l.18,3.98c2.42-3.05,5.59-4.57,9.49-4.57,6.7,0,10.08,3.78,10.14,11.34v20.95h-5.42v-20.98c-.02-2.29-.54-3.97-1.57-5.07-1.03-1.09-2.62-1.64-4.79-1.64-1.76,0-3.3.47-4.63,1.41s-2.36,2.17-3.11,3.69v22.59h-5.42v-31.7h5.13Z"/><path d="m1711,181.51c0-1.46-.55-2.6-1.66-3.41-1.1-.81-3.03-1.51-5.77-2.09s-4.92-1.29-6.53-2.11-2.8-1.8-3.57-2.93c-.77-1.13-1.16-2.48-1.16-4.04,0-2.6,1.1-4.79,3.3-6.59,2.2-1.8,5-2.7,8.42-2.7,3.59,0,6.51.93,8.75,2.78,2.24,1.86,3.35,4.23,3.35,7.12h-5.45c0-1.48-.63-2.76-1.89-3.84-1.26-1.07-2.85-1.61-4.76-1.61s-3.52.43-4.63,1.29c-1.11.86-1.67,1.98-1.67,3.37,0,1.31.52,2.3,1.55,2.96,1.04.66,2.91,1.3,5.61,1.9,2.71.61,4.9,1.33,6.58,2.17,1.68.84,2.92,1.85,3.74,3.03.81,1.18,1.22,2.62,1.22,4.32,0,2.83-1.13,5.1-3.4,6.81-2.27,1.71-5.21,2.56-8.82,2.56-2.54,0-4.79-.45-6.74-1.35-1.95-.9-3.48-2.15-4.58-3.76s-1.66-3.35-1.66-5.23h5.42c.1,1.82.83,3.26,2.18,4.32,1.36,1.07,3.15,1.6,5.38,1.6,2.05,0,3.7-.41,4.94-1.25,1.24-.83,1.86-1.94,1.86-3.33Z"/><path d="m1723.51,149.81c0-.88.27-1.62.81-2.23.54-.6,1.33-.91,2.39-.91s1.86.3,2.4.91c.55.61.82,1.35.82,2.23s-.27,1.61-.82,2.2-1.35.88-2.4.88-1.85-.29-2.39-.88-.81-1.32-.81-2.2Zm5.86,40.11h-5.42v-31.7h5.42v31.7Z"/><path d="m1736.75,173.8c0-4.94,1.14-8.87,3.43-11.79,2.29-2.92,5.31-4.38,9.08-4.38s6.88,1.37,9.05,4.1l.26-3.52h4.95v30.94c0,4.1-1.22,7.33-3.65,9.7s-5.7,3.54-9.8,3.54c-2.29,0-4.52-.49-6.71-1.46s-3.86-2.31-5.01-4.01l2.81-3.25c2.32,2.87,5.17,4.31,8.53,4.31,2.64,0,4.69-.74,6.17-2.23s2.21-3.57,2.21-6.27v-2.72c-2.17,2.5-5.13,3.75-8.88,3.75s-6.71-1.49-9.01-4.48-3.44-7.06-3.44-12.22Zm5.45.62c0,3.57.73,6.38,2.2,8.42,1.46,2.04,3.52,3.06,6.15,3.06,3.42,0,5.93-1.55,7.53-4.66v-14.47c-1.66-3.03-4.15-4.54-7.47-4.54-2.64,0-4.7,1.03-6.18,3.08s-2.23,5.09-2.23,9.11Z"/><path d="m1777.12,162.05c2.4-2.95,5.53-4.42,9.38-4.42,6.7,0,10.08,3.78,10.14,11.34v20.95h-5.42v-20.98c-.02-2.29-.54-3.97-1.57-5.07-1.03-1.09-2.62-1.64-4.79-1.64-1.76,0-3.3.47-4.63,1.41s-2.36,2.17-3.11,3.69v22.59h-5.42v-45h5.42v17.14Z"/><path d="m1812.1,150.54v7.68h5.92v4.19h-5.92v19.68c0,1.27.26,2.22.79,2.86.53.64,1.43.95,2.7.95.62,0,1.48-.12,2.58-.35v4.37c-1.43.39-2.81.58-4.16.58-2.42,0-4.25-.73-5.48-2.2s-1.85-3.54-1.85-6.24v-19.66h-5.77v-4.19h5.77v-7.68h5.42Z"/><path d="m1842.81,181.51c0-1.46-.55-2.6-1.66-3.41-1.1-.81-3.03-1.51-5.77-2.09s-4.92-1.29-6.53-2.11-2.8-1.8-3.57-2.93c-.77-1.13-1.16-2.48-1.16-4.04,0-2.6,1.1-4.79,3.3-6.59,2.2-1.8,5-2.7,8.42-2.7,3.59,0,6.51.93,8.75,2.78,2.24,1.86,3.35,4.23,3.35,7.12h-5.45c0-1.48-.63-2.76-1.89-3.84-1.26-1.07-2.85-1.61-4.76-1.61s-3.52.43-4.63,1.29c-1.11.86-1.67,1.98-1.67,3.37,0,1.31.52,2.3,1.55,2.96,1.04.66,2.91,1.3,5.61,1.9,2.71.61,4.9,1.33,6.58,2.17,1.68.84,2.92,1.85,3.74,3.03.81,1.18,1.22,2.62,1.22,4.32,0,2.83-1.13,5.1-3.4,6.81-2.27,1.71-5.21,2.56-8.82,2.56-2.54,0-4.79-.45-6.74-1.35-1.95-.9-3.48-2.15-4.58-3.76s-1.66-3.35-1.66-5.23h5.42c.1,1.82.83,3.26,2.18,4.32,1.36,1.07,3.15,1.6,5.38,1.6,2.05,0,3.7-.41,4.94-1.25,1.24-.83,1.86-1.94,1.86-3.33Z"/><path d="m1872.81,189.92v-27.51h-5.01v-4.19h5.01v-3.25c0-3.4.91-6.02,2.72-7.88,1.82-1.86,4.38-2.78,7.71-2.78,1.25,0,2.49.17,3.72.5l-.29,4.37c-.92-.18-1.89-.26-2.93-.26-1.76,0-3.12.51-4.07,1.54-.96,1.03-1.44,2.5-1.44,4.42v3.35h6.77v4.19h-6.77v27.51h-5.42Z"/><path d="m1906.29,163.08c-.82-.14-1.71-.21-2.67-.21-3.55,0-5.97,1.51-7.24,4.54v22.5h-5.42v-31.7h5.27l.09,3.66c1.78-2.83,4.3-4.25,7.56-4.25,1.05,0,1.86.14,2.4.41v5.04Z"/><path d="m1909.25,173.77c0-3.11.61-5.9,1.83-8.38,1.22-2.48,2.92-4.39,5.1-5.74s4.66-2.02,7.46-2.02c4.32,0,7.81,1.49,10.47,4.48s4,6.96,4,11.92v.38c0,3.09-.59,5.86-1.77,8.31-1.18,2.45-2.87,4.36-5.07,5.73-2.2,1.37-4.72,2.05-7.57,2.05-4.3,0-7.78-1.49-10.44-4.48s-4-6.94-4-11.87v-.38Zm5.45.64c0,3.52.82,6.34,2.45,8.47,1.63,2.13,3.81,3.19,6.55,3.19s4.94-1.08,6.56-3.24c1.62-2.16,2.43-5.18,2.43-9.07,0-3.48-.83-6.29-2.48-8.45-1.65-2.16-3.84-3.24-6.58-3.24s-4.83,1.07-6.47,3.19c-1.64,2.13-2.46,5.18-2.46,9.14Z"/><path d="m1950,158.22l.15,3.52c2.32-2.73,5.46-4.1,9.4-4.1,4.43,0,7.45,1.7,9.05,5.1,1.05-1.52,2.43-2.75,4.12-3.69s3.69-1.41,5.99-1.41c6.95,0,10.49,3.68,10.61,11.04v21.24h-5.42v-20.92c0-2.27-.52-3.96-1.55-5.08-1.04-1.12-2.77-1.68-5.21-1.68-2.01,0-3.68.6-5.01,1.8s-2.1,2.82-2.31,4.85v21.04h-5.45v-20.77c0-4.61-2.26-6.91-6.77-6.91-3.55,0-5.99,1.51-7.29,4.54v23.14h-5.42v-31.7h5.13Z"/><path d="m2019.7,150.54v7.68h5.92v4.19h-5.92v19.68c0,1.27.26,2.22.79,2.86.53.64,1.43.95,2.7.95.62,0,1.48-.12,2.58-.35v4.37c-1.43.39-2.81.58-4.16.58-2.42,0-4.25-.73-5.48-2.2s-1.85-3.54-1.85-6.24v-19.66h-5.77v-4.19h5.77v-7.68h5.42Z"/><path d="m2037.37,162.05c2.4-2.95,5.53-4.42,9.38-4.42,6.7,0,10.08,3.78,10.14,11.34v20.95h-5.42v-20.98c-.02-2.29-.54-3.97-1.57-5.07-1.03-1.09-2.62-1.64-4.79-1.64-1.76,0-3.3.47-4.63,1.41s-2.36,2.17-3.11,3.69v22.59h-5.42v-45h5.42v17.14Z"/><path d="m2078.15,190.5c-4.3,0-7.79-1.41-10.49-4.23-2.7-2.82-4.04-6.6-4.04-11.32v-1c0-3.14.6-5.95,1.8-8.42,1.2-2.47,2.88-4.4,5.04-5.8,2.16-1.4,4.5-2.09,7.02-2.09,4.12,0,7.32,1.36,9.61,4.07,2.29,2.71,3.43,6.6,3.43,11.66v2.26h-21.47c.08,3.12.99,5.65,2.74,7.57,1.75,1.92,3.97,2.89,6.67,2.89,1.91,0,3.54-.39,4.86-1.17,1.33-.78,2.49-1.82,3.49-3.11l3.31,2.58c-2.66,4.08-6.64,6.12-11.95,6.12Zm-.67-28.42c-2.19,0-4.02.8-5.51,2.39-1.48,1.59-2.4,3.82-2.75,6.69h15.88v-.41c-.16-2.75-.9-4.89-2.23-6.4-1.33-1.51-3.12-2.27-5.39-2.27Z"/><path d="m2143.86,176.38c-.53,4.51-2.19,7.99-5,10.44-2.8,2.45-6.53,3.68-11.18,3.68-5.04,0-9.08-1.81-12.11-5.42-3.04-3.61-4.56-8.45-4.56-14.5v-4.1c0-3.96.71-7.45,2.12-10.46,1.42-3.01,3.42-5.32,6.02-6.93s5.61-2.42,9.02-2.42c4.53,0,8.16,1.26,10.9,3.79,2.73,2.53,4.33,6.03,4.78,10.5h-5.65c-.49-3.41-1.55-5.88-3.18-7.41-1.63-1.53-3.91-2.29-6.84-2.29-3.59,0-6.41,1.33-8.45,3.99-2.04,2.66-3.06,6.44-3.06,11.35v4.13c0,4.63.97,8.32,2.9,11.05s4.64,4.1,8.12,4.1c3.12,0,5.52-.71,7.19-2.12,1.67-1.42,2.78-3.88,3.33-7.4h5.65Z"/><path d="m2149.25,173.77c0-3.11.61-5.9,1.83-8.38,1.22-2.48,2.92-4.39,5.1-5.74s4.66-2.02,7.46-2.02c4.32,0,7.81,1.49,10.47,4.48s4,6.96,4,11.92v.38c0,3.09-.59,5.86-1.77,8.31-1.18,2.45-2.87,4.36-5.07,5.73-2.2,1.37-4.72,2.05-7.57,2.05-4.3,0-7.78-1.49-10.44-4.48s-4-6.94-4-11.87v-.38Zm5.45.64c0,3.52.82,6.34,2.45,8.47,1.63,2.13,3.81,3.19,6.55,3.19s4.94-1.08,6.56-3.24c1.62-2.16,2.43-5.18,2.43-9.07,0-3.48-.83-6.29-2.48-8.45-1.65-2.16-3.84-3.24-6.58-3.24s-4.83,1.07-6.47,3.19c-1.64,2.13-2.46,5.18-2.46,9.14Z"/><path d="m2183.47,173.77c0-3.11.61-5.9,1.83-8.38,1.22-2.48,2.92-4.39,5.1-5.74s4.66-2.02,7.46-2.02c4.32,0,7.81,1.49,10.47,4.48s4,6.96,4,11.92v.38c0,3.09-.59,5.86-1.77,8.31-1.18,2.45-2.87,4.36-5.07,5.73-2.2,1.37-4.72,2.05-7.57,2.05-4.3,0-7.78-1.49-10.44-4.48s-4-6.94-4-11.87v-.38Zm5.45.64c0,3.52.82,6.34,2.45,8.47,1.63,2.13,3.81,3.19,6.55,3.19s4.94-1.08,6.56-3.24c1.62-2.16,2.43-5.18,2.43-9.07,0-3.48-.83-6.29-2.48-8.45-1.65-2.16-3.84-3.24-6.58-3.24s-4.83,1.07-6.47,3.19c-1.64,2.13-2.46,5.18-2.46,9.14Z"/><path d="m2227.97,175.24l-3.4,3.54v11.13h-5.42v-45h5.42v27.22l2.9-3.49,9.87-10.43h6.59l-12.33,13.24,13.77,18.46h-6.36l-11.04-14.68Z"/><path d="m2296.62,176.38c-.53,4.51-2.19,7.99-5,10.44-2.8,2.45-6.53,3.68-11.18,3.68-5.04,0-9.08-1.81-12.11-5.42-3.04-3.61-4.56-8.45-4.56-14.5v-4.1c0-3.96.71-7.45,2.12-10.46,1.42-3.01,3.42-5.32,6.02-6.93s5.61-2.42,9.02-2.42c4.53,0,8.16,1.26,10.9,3.79,2.73,2.53,4.33,6.03,4.78,10.5h-5.65c-.49-3.41-1.55-5.88-3.18-7.41-1.63-1.53-3.91-2.29-6.84-2.29-3.59,0-6.41,1.33-8.45,3.99-2.04,2.66-3.06,6.44-3.06,11.35v4.13c0,4.63.97,8.32,2.9,11.05s4.64,4.1,8.12,4.1c3.12,0,5.52-.71,7.19-2.12,1.67-1.42,2.78-3.88,3.33-7.4h5.65Z"/><path d="m2302.01,173.77c0-3.11.61-5.9,1.83-8.38,1.22-2.48,2.92-4.39,5.1-5.74s4.66-2.02,7.46-2.02c4.32,0,7.81,1.49,10.47,4.48s4,6.96,4,11.92v.38c0,3.09-.59,5.86-1.77,8.31-1.18,2.45-2.87,4.36-5.07,5.73-2.2,1.37-4.72,2.05-7.57,2.05-4.3,0-7.78-1.49-10.44-4.48s-4-6.94-4-11.87v-.38Zm5.45.64c0,3.52.82,6.34,2.45,8.47,1.63,2.13,3.81,3.19,6.55,3.19s4.94-1.08,6.56-3.24c1.62-2.16,2.43-5.18,2.43-9.07,0-3.48-.83-6.29-2.48-8.45-1.65-2.16-3.84-3.24-6.58-3.24s-4.83,1.07-6.47,3.19c-1.64,2.13-2.46,5.18-2.46,9.14Z"/><path d="m2357.23,186.78c-2.11,2.48-5.21,3.72-9.29,3.72-3.38,0-5.95-.98-7.72-2.94s-2.66-4.87-2.68-8.72v-20.62h5.42v20.48c0,4.8,1.95,7.21,5.86,7.21,4.14,0,6.89-1.54,8.26-4.63v-23.06h5.42v31.7h-5.16l-.12-3.13Z"/><path d="m2375.86,158.22l.18,3.98c2.42-3.05,5.59-4.57,9.49-4.57,6.7,0,10.08,3.78,10.14,11.34v20.95h-5.42v-20.98c-.02-2.29-.54-3.97-1.57-5.07-1.03-1.09-2.62-1.64-4.79-1.64-1.76,0-3.3.47-4.63,1.41s-2.36,2.17-3.11,3.69v22.59h-5.42v-31.7h5.13Z"/><path d="m2411.2,150.54v7.68h5.92v4.19h-5.92v19.68c0,1.27.26,2.22.79,2.86.53.64,1.43.95,2.7.95.62,0,1.48-.12,2.58-.35v4.37c-1.43.39-2.81.58-4.16.58-2.42,0-4.25-.73-5.48-2.2s-1.85-3.54-1.85-6.24v-19.66h-5.77v-4.19h5.77v-7.68h5.42Z"/><path d="m2433.81,181.98l7.38-23.76h5.8l-12.74,36.59c-1.97,5.27-5.11,7.91-9.4,7.91l-1.03-.09-2.02-.38v-4.39l1.46.12c1.84,0,3.27-.37,4.29-1.11s1.87-2.1,2.53-4.07l1.2-3.22-11.31-31.35h5.92l7.91,23.76Z"/><path d="m2495.83,151.86h-13.71v38.06h-5.6v-38.06h-13.68v-4.6h32.99v4.6Z"/><path d="m2514.44,163.08c-.82-.14-1.71-.21-2.67-.21-3.55,0-5.97,1.51-7.24,4.54v22.5h-5.42v-31.7h5.27l.09,3.66c1.78-2.83,4.3-4.25,7.56-4.25,1.05,0,1.86.14,2.4.41v5.04Z"/><path d="m2532.02,190.5c-4.3,0-7.79-1.41-10.49-4.23-2.7-2.82-4.04-6.6-4.04-11.32v-1c0-3.14.6-5.95,1.8-8.42,1.2-2.47,2.88-4.4,5.04-5.8,2.16-1.4,4.5-2.09,7.02-2.09,4.12,0,7.32,1.36,9.61,4.07,2.29,2.71,3.43,6.6,3.43,11.66v2.26h-21.47c.08,3.12.99,5.65,2.74,7.57,1.75,1.92,3.97,2.89,6.67,2.89,1.91,0,3.54-.39,4.86-1.17,1.33-.78,2.49-1.82,3.49-3.11l3.31,2.58c-2.66,4.08-6.64,6.12-11.95,6.12Zm-.67-28.42c-2.19,0-4.02.8-5.51,2.39-1.48,1.59-2.4,3.82-2.75,6.69h15.88v-.41c-.16-2.75-.9-4.89-2.23-6.4-1.33-1.51-3.12-2.27-5.39-2.27Z"/><path d="m2570.22,189.92c-.31-.62-.57-1.74-.76-3.34-2.52,2.62-5.53,3.93-9.02,3.93-3.12,0-5.69-.88-7.69-2.65-2-1.77-3-4.01-3-6.72,0-3.3,1.25-5.86,3.76-7.69,2.51-1.83,6.04-2.74,10.59-2.74h5.27v-2.49c0-1.89-.57-3.4-1.7-4.53-1.13-1.12-2.8-1.68-5.01-1.68-1.93,0-3.55.49-4.86,1.46-1.31.98-1.96,2.16-1.96,3.54h-5.45c0-1.58.56-3.11,1.68-4.58,1.12-1.47,2.65-2.64,4.57-3.5,1.92-.86,4.04-1.29,6.34-1.29,3.65,0,6.51.91,8.58,2.74,2.07,1.83,3.14,4.34,3.22,7.54v14.59c0,2.91.37,5.23,1.11,6.94v.47h-5.68Zm-8.99-4.13c1.7,0,3.31-.44,4.83-1.32s2.63-2.02,3.31-3.43v-6.5h-4.25c-6.64,0-9.96,1.94-9.96,5.83,0,1.7.57,3.03,1.7,3.98,1.13.96,2.59,1.44,4.37,1.44Z"/><path d="m2601.74,181.51c0-1.46-.55-2.6-1.66-3.41-1.1-.81-3.03-1.51-5.77-2.09s-4.92-1.29-6.53-2.11-2.8-1.8-3.57-2.93c-.77-1.13-1.16-2.48-1.16-4.04,0-2.6,1.1-4.79,3.3-6.59,2.2-1.8,5-2.7,8.42-2.7,3.59,0,6.51.93,8.75,2.78,2.24,1.86,3.35,4.23,3.35,7.12h-5.45c0-1.48-.63-2.76-1.89-3.84-1.26-1.07-2.85-1.61-4.76-1.61s-3.52.43-4.63,1.29c-1.11.86-1.67,1.98-1.67,3.37,0,1.31.52,2.3,1.55,2.96,1.04.66,2.91,1.3,5.61,1.9,2.71.61,4.9,1.33,6.58,2.17,1.68.84,2.92,1.85,3.74,3.03.81,1.18,1.22,2.62,1.22,4.32,0,2.83-1.13,5.1-3.4,6.81-2.27,1.71-5.21,2.56-8.82,2.56-2.54,0-4.79-.45-6.74-1.35-1.95-.9-3.48-2.15-4.58-3.76s-1.66-3.35-1.66-5.23h5.42c.1,1.82.83,3.26,2.18,4.32,1.36,1.07,3.15,1.6,5.38,1.6,2.05,0,3.7-.41,4.94-1.25,1.24-.83,1.86-1.94,1.86-3.33Z"/><path d="m2633.79,186.78c-2.11,2.48-5.21,3.72-9.29,3.72-3.38,0-5.95-.98-7.72-2.94s-2.66-4.87-2.68-8.72v-20.62h5.42v20.48c0,4.8,1.95,7.21,5.86,7.21,4.14,0,6.89-1.54,8.26-4.63v-23.06h5.42v31.7h-5.16l-.12-3.13Z"/><path d="m2662.62,163.08c-.82-.14-1.71-.21-2.67-.21-3.55,0-5.97,1.51-7.24,4.54v22.5h-5.42v-31.7h5.27l.09,3.66c1.78-2.83,4.3-4.25,7.56-4.25,1.05,0,1.86.14,2.4.41v5.04Z"/><path d="m2680.2,190.5c-4.3,0-7.79-1.41-10.49-4.23-2.7-2.82-4.04-6.6-4.04-11.32v-1c0-3.14.6-5.95,1.8-8.42,1.2-2.47,2.88-4.4,5.04-5.8,2.16-1.4,4.5-2.09,7.02-2.09,4.12,0,7.32,1.36,9.61,4.07,2.29,2.71,3.43,6.6,3.43,11.66v2.26h-21.47c.08,3.12.99,5.65,2.74,7.57,1.75,1.92,3.97,2.89,6.67,2.89,1.91,0,3.54-.39,4.86-1.17,1.33-.78,2.49-1.82,3.49-3.11l3.31,2.58c-2.66,4.08-6.64,6.12-11.95,6.12Zm-.67-28.42c-2.19,0-4.02.8-5.51,2.39-1.48,1.59-2.4,3.82-2.75,6.69h15.88v-.41c-.16-2.75-.9-4.89-2.23-6.4-1.33-1.51-3.12-2.27-5.39-2.27Z"/><path d="m2714.15,163.08c-.82-.14-1.71-.21-2.67-.21-3.55,0-5.97,1.51-7.24,4.54v22.5h-5.42v-31.7h5.27l.09,3.66c1.78-2.83,4.3-4.25,7.56-4.25,1.05,0,1.86.14,2.4.41v5.04Z"/><path d="m2722.91,148.17l-.62,10.78h-3.78l.03-14.03h4.37v3.25Z"/><path d="m2746.18,181.51c0-1.46-.55-2.6-1.66-3.41-1.1-.81-3.03-1.51-5.77-2.09s-4.92-1.29-6.53-2.11-2.8-1.8-3.57-2.93c-.77-1.13-1.16-2.48-1.16-4.04,0-2.6,1.1-4.79,3.3-6.59,2.2-1.8,5-2.7,8.42-2.7,3.59,0,6.51.93,8.75,2.78,2.24,1.86,3.35,4.23,3.35,7.12h-5.45c0-1.48-.63-2.76-1.89-3.84-1.26-1.07-2.85-1.61-4.76-1.61s-3.52.43-4.63,1.29c-1.11.86-1.67,1.98-1.67,3.37,0,1.31.52,2.3,1.55,2.96,1.04.66,2.91,1.3,5.61,1.9,2.71.61,4.9,1.33,6.58,2.17,1.68.84,2.92,1.85,3.74,3.03.81,1.18,1.22,2.62,1.22,4.32,0,2.83-1.13,5.1-3.4,6.81-2.27,1.71-5.21,2.56-8.82,2.56-2.54,0-4.79-.45-6.74-1.35-1.95-.9-3.48-2.15-4.58-3.76s-1.66-3.35-1.66-5.23h5.42c.1,1.82.83,3.26,2.18,4.32,1.36,1.07,3.15,1.6,5.38,1.6,2.05,0,3.7-.41,4.94-1.25,1.24-.83,1.86-1.94,1.86-3.33Z"/><path d="m2807.17,169.96c0,4.18-.7,7.83-2.11,10.94-1.41,3.12-3.4,5.49-5.98,7.13s-5.59,2.46-9.02,2.46-6.34-.82-8.94-2.48c-2.6-1.65-4.61-4-6.05-7.06-1.44-3.06-2.17-6.6-2.21-10.62v-3.08c0-4.1.71-7.72,2.14-10.87,1.43-3.14,3.44-5.55,6.05-7.22s5.59-2.5,8.95-2.5,6.43.83,9.04,2.48c2.61,1.65,4.61,4.04,6.02,7.18s2.11,6.78,2.11,10.94v2.7Zm-5.6-2.75c0-5.06-1.02-8.94-3.05-11.65-2.03-2.71-4.87-4.06-8.53-4.06s-6.35,1.35-8.39,4.06c-2.04,2.71-3.09,6.46-3.15,11.26v3.13c0,4.9,1.03,8.76,3.09,11.56,2.06,2.8,4.9,4.2,8.51,4.2s6.45-1.32,8.44-3.97c1.99-2.65,3.02-6.44,3.08-11.38v-3.16Z"/><path d="m2817.43,189.92v-27.51h-5.01v-4.19h5.01v-3.25c0-3.4.91-6.02,2.72-7.88,1.82-1.86,4.38-2.78,7.71-2.78,1.25,0,2.49.17,3.72.5l-.29,4.37c-.92-.18-1.89-.26-2.93-.26-1.76,0-3.12.51-4.07,1.54-.96,1.03-1.44,2.5-1.44,4.42v3.35h6.77v4.19h-6.77v27.51h-5.42Z"/><path d="m2838.26,189.92v-27.51h-5.01v-4.19h5.01v-3.25c0-3.4.91-6.02,2.72-7.88,1.82-1.86,4.38-2.78,7.71-2.78,1.25,0,2.49.17,3.72.5l-.29,4.37c-.92-.18-1.89-.26-2.93-.26-1.76,0-3.12.51-4.07,1.54-.96,1.03-1.44,2.5-1.44,4.42v3.35h6.77v4.19h-6.77v27.51h-5.42Z"/><path d="m2856.45,149.81c0-.88.27-1.62.81-2.23.54-.6,1.33-.91,2.39-.91s1.86.3,2.4.91c.55.61.82,1.35.82,2.23s-.27,1.61-.82,2.2-1.35.88-2.4.88-1.85-.29-2.39-.88-.81-1.32-.81-2.2Zm5.86,40.11h-5.42v-31.7h5.42v31.7Z"/><path d="m2883.7,186.08c1.93,0,3.62-.59,5.07-1.76s2.25-2.64,2.4-4.39h5.13c-.1,1.82-.72,3.54-1.88,5.19s-2.69,2.95-4.61,3.93-3.96,1.46-6.11,1.46c-4.32,0-7.75-1.44-10.3-4.32-2.55-2.88-3.82-6.82-3.82-11.82v-.91c0-3.09.57-5.83,1.7-8.23s2.76-4.27,4.88-5.6c2.12-1.33,4.62-1.99,7.51-1.99,3.55,0,6.51,1.07,8.86,3.19,2.35,2.13,3.61,4.89,3.76,8.29h-5.13c-.16-2.05-.93-3.74-2.33-5.05s-3.12-1.98-5.17-1.98c-2.75,0-4.89.99-6.4,2.97-1.51,1.98-2.27,4.85-2.27,8.6v1.03c0,3.65.75,6.46,2.26,8.44,1.5,1.97,3.65,2.96,6.45,2.96Z"/><path d="m2915.54,190.5c-4.3,0-7.79-1.41-10.49-4.23-2.7-2.82-4.04-6.6-4.04-11.32v-1c0-3.14.6-5.95,1.8-8.42,1.2-2.47,2.88-4.4,5.04-5.8,2.16-1.4,4.5-2.09,7.02-2.09,4.12,0,7.32,1.36,9.61,4.07,2.29,2.71,3.43,6.6,3.43,11.66v2.26h-21.47c.08,3.12.99,5.65,2.74,7.57,1.75,1.92,3.97,2.89,6.67,2.89,1.91,0,3.54-.39,4.86-1.17,1.33-.78,2.49-1.82,3.49-3.11l3.31,2.58c-2.66,4.08-6.64,6.12-11.95,6.12Zm-.67-28.42c-2.19,0-4.02.8-5.51,2.39-1.48,1.59-2.4,3.82-2.75,6.69h15.88v-.41c-.16-2.75-.9-4.89-2.23-6.4-1.33-1.51-3.12-2.27-5.39-2.27Z"/></g><g><path d="m1588.15,80.28v33.53h-24.84V14.99h41.12c7.88,0,14.85,1.39,20.92,4.17,6.06,2.78,10.76,6.74,14.08,11.88,3.33,5.14,4.99,10.96,4.99,17.48,0,9.64-3.6,17.34-10.79,23.11-7.2,5.77-17.07,8.65-29.62,8.65h-15.85Zm0-18.39h16.28c4.81,0,8.48-1.15,11.01-3.46,2.52-2.31,3.79-5.57,3.79-9.77,0-4.62-1.3-8.3-3.89-11.06-2.6-2.76-6.13-4.16-10.62-4.21h-16.56v28.51Z"/><path d="m1695.72,113.81c-.85-1.49-1.6-3.69-2.27-6.58-4.39,5.29-10.52,7.94-18.4,7.94-7.22,0-13.35-2.09-18.4-6.28-5.05-4.18-7.57-9.44-7.57-15.78,0-7.96,3.07-13.98,9.2-18.05,6.13-4.07,15.05-6.11,26.75-6.11h7.36v-3.89c0-6.77-3.04-10.16-9.13-10.16-5.66,0-8.49,2.68-8.49,8.05h-23.85c0-7.09,3.15-12.86,9.45-17.29s14.33-6.64,24.1-6.64,17.48,2.29,23.15,6.85c5.66,4.57,8.56,10.84,8.71,18.8v32.51c.09,6.74,1.18,11.9,3.26,15.47v1.15h-23.85Zm-14.93-14.93c2.97,0,5.44-.61,7.4-1.83,1.96-1.22,3.36-2.6,4.21-4.14v-11.74h-6.94c-8.31,0-12.46,3.57-12.46,10.72,0,2.08.73,3.77,2.19,5.06,1.46,1.29,3.33,1.93,5.59,1.93Z"/><path d="m1798.77,77.63c0,11.4-2.68,20.51-8.03,27.32-5.36,6.81-12.59,10.21-21.69,10.21-7.03,0-12.81-2.47-17.34-7.4v34.27h-23.85V40.37h22.3l.71,6.79c4.58-5.43,10.59-8.14,18.05-8.14,9.44,0,16.77,3.34,22.01,10.01,5.24,6.67,7.86,15.85,7.86,27.52v1.09Zm-23.85-1.43c0-13.03-3.96-19.55-11.89-19.55-5.66,0-9.44,1.95-11.32,5.84v28.91c2.08,4.07,5.9,6.11,11.47,6.11,7.6,0,11.51-6.29,11.75-18.87v-2.44Z"/><path d="m1878.69,77.63c0,11.4-2.68,20.51-8.03,27.32-5.36,6.81-12.59,10.21-21.69,10.21-7.03,0-12.81-2.47-17.34-7.4v34.27h-23.85V40.37h22.3l.71,6.79c4.58-5.43,10.59-8.14,18.05-8.14,9.44,0,16.77,3.34,22.01,10.01,5.24,6.67,7.86,15.85,7.86,27.52v1.09Zm-23.85-1.43c0-13.03-3.96-19.55-11.89-19.55-5.66,0-9.44,1.95-11.32,5.84v28.91c2.08,4.07,5.9,6.11,11.47,6.11,7.6,0,11.51-6.29,11.75-18.87v-2.44Z"/><path d="m1930.06,113.81c-.85-1.49-1.6-3.69-2.27-6.58-4.39,5.29-10.52,7.94-18.4,7.94-7.22,0-13.35-2.09-18.4-6.28-5.05-4.18-7.57-9.44-7.57-15.78,0-7.96,3.07-13.98,9.2-18.05,6.13-4.07,15.05-6.11,26.75-6.11h7.36v-3.89c0-6.77-3.04-10.16-9.13-10.16-5.66,0-8.49,2.68-8.49,8.05h-23.85c0-7.09,3.15-12.86,9.45-17.29s14.33-6.64,24.1-6.64,17.48,2.29,23.15,6.85c5.66,4.57,8.56,10.84,8.71,18.8v32.51c.09,6.74,1.18,11.9,3.26,15.47v1.15h-23.85Zm-14.93-14.93c2.97,0,5.44-.61,7.4-1.83,1.96-1.22,3.36-2.6,4.21-4.14v-11.74h-6.94c-8.31,0-12.46,3.57-12.46,10.72,0,2.08.73,3.77,2.19,5.06,1.46,1.29,3.33,1.93,5.59,1.93Z"/><path d="m2001.56,93.18c0-1.94-1.06-3.51-3.19-4.68-2.12-1.18-6.16-2.4-12.1-3.67-5.95-1.27-10.85-2.93-14.72-4.99-3.87-2.06-6.82-4.56-8.85-7.5-2.03-2.94-3.04-6.31-3.04-10.11,0-6.74,2.9-12.3,8.71-16.66,5.8-4.37,13.4-6.55,22.79-6.55,10.1,0,18.21,2.2,24.35,6.58,6.13,4.39,9.2,10.16,9.2,17.31h-23.92c0-5.88-3.23-8.82-9.7-8.82-2.5,0-4.6.67-6.3,2-1.7,1.34-2.55,3-2.55,4.99s1.04,3.69,3.11,4.95c2.08,1.27,5.39,2.31,9.94,3.12,4.55.81,8.55,1.79,12,2.92,11.51,3.8,17.27,10.61,17.27,20.43,0,6.7-3.1,12.15-9.31,16.36-6.21,4.21-14.24,6.31-24.1,6.31-6.56,0-12.41-1.13-17.55-3.39-5.14-2.26-9.16-5.34-12.03-9.23-2.88-3.89-4.32-7.99-4.32-12.28h22.3c.09,3.39,1.27,5.87,3.54,7.43,2.27,1.56,5.17,2.34,8.71,2.34,3.26,0,5.7-.63,7.33-1.9,1.63-1.27,2.44-2.92,2.44-4.95Z"/><path d="m2097.75,80.28v33.53h-24.84V14.99h41.12c7.88,0,14.85,1.39,20.92,4.17,6.06,2.78,10.76,6.74,14.08,11.88,3.33,5.14,4.99,10.96,4.99,17.48,0,9.64-3.6,17.34-10.79,23.11-7.2,5.77-17.07,8.65-29.62,8.65h-15.85Zm0-18.39h16.28c4.81,0,8.48-1.15,11.01-3.46,2.52-2.31,3.79-5.57,3.79-9.77,0-4.62-1.3-8.3-3.89-11.06-2.6-2.76-6.13-4.16-10.62-4.21h-16.56v28.51Z"/><path d="m2158.37,76.41c0-7.33,1.49-13.86,4.46-19.58,2.97-5.72,7.24-10.12,12.81-13.2,5.57-3.08,12.1-4.62,19.61-4.62,11.47,0,20.5,3.41,27.11,10.21,6.61,6.81,9.91,16.07,9.91,27.79v.81c0,11.45-3.32,20.53-9.94,27.25-6.63,6.72-15.61,10.08-26.93,10.08s-19.65-3.13-26.26-9.4c-6.61-6.27-10.17-14.76-10.69-25.49l-.07-3.87Zm23.85,1.43c0,6.79,1.11,11.77,3.33,14.93,2.22,3.17,5.5,4.75,9.84,4.75,8.49,0,12.83-6.27,13.02-18.8v-2.31c0-13.17-4.39-19.75-13.17-19.75-7.98,0-12.29,5.68-12.95,17.04l-.07,4.14Z"/><path d="m2286.96,61.07l-7.86-.54c-7.5,0-12.32,2.26-14.44,6.79v46.49h-23.85V40.37h22.37l.78,9.43c4.01-7.19,9.6-10.79,16.77-10.79,2.55,0,4.77.27,6.65.81l-.42,21.24Z"/><path d="m2323.98,22.11v18.26h12.6v15.88h-12.6v33.6c0,2.76.52,4.68,1.56,5.77,1.04,1.09,3.09,1.63,6.16,1.63,2.36,0,4.34-.14,5.95-.41v16.36c-4.29,1.31-8.78,1.97-13.45,1.97-8.21,0-14.27-1.85-18.19-5.57-3.92-3.71-5.87-9.34-5.87-16.9v-36.45h-9.77v-15.88h9.77v-18.26h23.85Z"/><path d="m2388.35,113.81c-.85-1.49-1.6-3.69-2.27-6.58-4.39,5.29-10.52,7.94-18.4,7.94-7.22,0-13.35-2.09-18.4-6.28-5.05-4.18-7.57-9.44-7.57-15.78,0-7.96,3.07-13.98,9.2-18.05,6.13-4.07,15.05-6.11,26.75-6.11h7.36v-3.89c0-6.77-3.04-10.16-9.13-10.16-5.66,0-8.49,2.68-8.49,8.05h-23.85c0-7.09,3.15-12.86,9.45-17.29s14.33-6.64,24.1-6.64,17.48,2.29,23.15,6.85c5.66,4.57,8.56,10.84,8.71,18.8v32.51c.09,6.74,1.18,11.9,3.26,15.47v1.15h-23.85Zm-14.93-14.93c2.97,0,5.44-.61,7.4-1.83,1.96-1.22,3.36-2.6,4.21-4.14v-11.74h-6.94c-8.31,0-12.46,3.57-12.46,10.72,0,2.08.73,3.77,2.19,5.06,1.46,1.29,3.33,1.93,5.59,1.93Z"/><path d="m2445.08,113.81h-23.92V9.56h23.92v104.25Z"/></g></g><g id="Layer_4"><g><path class="cls-1" d="m1490.56,62.96h-45.64c.62-9.18,1.06-15.4,1.17-16.33.02-.17.04-.35.07-.56.34-2.74,1.06-8.44-2.77-12.78-2.54-2.87-6.51-4.45-11.82-4.69v-.04h-1.5s0,0,0,0h0s-118.9,0-118.9,0c-15.58,0-21.13,14.05-21.13,27.19h.13c-.08.22-.13.46-.13.7,0,1.41,1.46,2.56,3.26,2.56h26.49c-2.09,30.58-6.83,104.01-6.83,109.18,0,.93-.16,2.28-.33,3.71-.64,5.45-1.52,12.92,3.05,18.06,2.84,3.2,7.31,4.82,13.28,4.82,0,0,0,0,0,0h41.68v7.56h51.04v-44.18h21.61v44.18h17.39v-9.3h40.13l-10.23-130.07Z"/><path d="m1328.71,194.45c6.05,0,11.56-2.84,15.92-8.21,3.81-4.68,5.7-9.99,6.2-13.39l-6.44-.95c-.8,5.42-6.38,16.03-15.68,16.03-4.03,0-6.86-.89-8.41-2.64-2.62-2.95-1.97-8.51-1.44-12.97.19-1.62.37-3.16.37-4.46,0-6.38,7.27-117.37,7.74-121.56.02-.17.04-.35.07-.56.34-2.74,1.06-8.44-2.77-12.78-2.77-3.14-7.25-4.73-13.32-4.73-15.58,0-21.13,14.05-21.13,27.19h6.51c0-6.22,1.42-20.68,14.62-20.68,2.83,0,6.6.44,8.44,2.53,1.89,2.14,1.45,5.6,1.2,7.66-.03.24-.06.46-.08.65-.47,4.21-7.77,115.85-7.78,122.27,0,.93-.16,2.28-.33,3.71-.64,5.45-1.52,12.92,3.05,18.06,2.84,3.2,7.31,4.82,13.28,4.82Z"/><path d="m1437.68,150.42c.18,1.19.33,2.38.46,3.57.13-.07.28-.13.43-.17.09-.12.19-.24.31-.34,1.87-31.66,6.62-103.81,6.99-107.17.02-.17.04-.35.07-.56.34-2.74,1.06-8.44-2.77-12.78-2.77-3.14-7.25-4.73-13.32-4.73l1.51,5.58c2.83,0,5.09,1.37,6.94,3.46,1.89,2.14,1.45,5.6,1.2,7.66-.03.24-.06.46-.08.65-.37,3.36-5.11,75.31-7,107.37.26-.85.53-1.7.81-2.54.65-1.96,4.12-2.44,4.49,0Z"/><rect x="1310.93" y="28.24" width="120.41" height="5.58"/><path d="m1293.06,58.68h29.88c1.8,0,3.26-1.15,3.26-2.56s-1.46-2.56-3.26-2.56h-29.88c-1.8,0-3.26,1.15-3.26,2.56s1.46,2.56,3.26,2.56Z"/><path d="m1422.84,189.47c.15-.51.27-1.02.37-1.54h-.32c-.02.51-.04,1.03-.05,1.54Z"/><path d="m1444.49,187.94h-.12c-.02,2.19-.17,4.36-.47,6.51h.19c.34-2.13.45-4.33.4-6.51Z"/><path d="m1449.32,188.42c.01,1.94-.1,3.86-.37,5.73,1.13-.51,1.92-1.64,1.92-2.97,0-1.17-.62-2.19-1.55-2.77Z"/><path d="m1418.23,187.94h-89.52c-1.8,0-3.26,1.46-3.26,3.26s1.46,3.26,3.26,3.26h89.38c.03-2.17.07-4.34.14-6.51Z"/><g><path d="m1377.7,166.73h-46.47c-3.51,0-6.17-2.72-5.94-6.07l7.96-111.74c.24-3.35,3.29-6.07,6.8-6.07h28.79c3.51,0,6.17,2.72,5.94,6.07l-.64,9.03c-.14,1.94,1.4,3.52,3.44,3.52h42.4c3.51,0,6.17,2.72,5.94,6.07l-6.18,86.74c-.24,3.35-3.29,6.07-6.8,6.07h-32.39c-.11.46-.15,1.33-.18,1.89-.07,1.56-.14,3.03-1.1,3.9-.43.39-.97.6-1.57.6Zm-37.82-121.33c-2.03,0-3.8,1.58-3.94,3.52l-7.96,111.74c-.14,1.94,1.4,3.52,3.44,3.52h46.09c.11-.46.15-1.33.18-1.89.07-1.56.14-3.03,1.1-3.9.43-.39.97-.6,1.57-.6h32.77c2.03,0,3.8-1.58,3.94-3.52l6.18-86.74c.14-1.94-1.4-3.52-3.44-3.52h-42.4c-3.51,0-6.17-2.72-5.94-6.07l.64-9.03c.14-1.94-1.4-3.52-3.44-3.52h-28.79Z"/><path d="m1414.95,74.42h-72.77c-1.11,0-1.95-.86-1.87-1.92s1.04-1.92,2.15-1.92h72.77c1.11,0,1.95.86,1.87,1.92s-1.04,1.92-2.15,1.92Z"/><g><path d="m1414.44,81.62h-72.77c-.65,0-1.14-.5-1.09-1.12s.61-1.12,1.25-1.12h72.77c.65,0,1.14.5,1.09,1.12s-.61,1.12-1.25,1.12Z"/><path d="m1413.98,88.01h-72.77c-.65,0-1.14-.5-1.09-1.12s.61-1.12,1.25-1.12h72.77c.65,0,1.14.5,1.09,1.12s-.61,1.12-1.25,1.12Z"/><path d="m1413.53,94.4h-72.77c-.65,0-1.14-.5-1.09-1.12s.61-1.12,1.25-1.12h72.77c.65,0,1.14.5,1.09,1.12s-.61,1.12-1.25,1.12Z"/><path d="m1413.07,100.79h-72.77c-.65,0-1.14-.5-1.09-1.12s.61-1.12,1.25-1.12h72.77c.65,0,1.14.5,1.09,1.12s-.61,1.12-1.25,1.12Z"/></g><path d="m1412.44,109.58h-72.77c-1.11,0-1.95-.86-1.87-1.92s1.04-1.92,2.15-1.92h72.77c1.11,0,1.95.86,1.87,1.92s-1.04,1.92-2.15,1.92Z"/></g><g><line class="cls-3" x1="1472.06" y1="62.64" x2="1472.06" y2="16"/><line class="cls-3" x1="1452.53" y1="62.64" x2="1452.53" y2="16"/></g><path d="m1465.4,171.3l-6.14,2.15c1.45,4.12.77,8.46-1.8,11.61-1.37,1.68-4.11,2.63-8.15,2.83.04,2.22-.08,4.4-.41,6.53,6.43-.2,10.88-1.92,13.59-5.24,4.02-4.92,5.1-11.6,2.9-17.88Z"/><path d="m1418.92,169.12h-71.31c-1.8,0-3.26,1.46-3.26,3.26s1.46,3.26,3.26,3.26h71.09c.09-2.17.16-4.34.22-6.51Z"/><path d="m1462.33,169.12h-13.72c.89.5,1.44,1.48,1.12,2.6-.38,1.3-.77,2.61-1.2,3.91h13.81c1.8,0,3.26-1.46,3.26-3.26s-1.46-3.26-3.26-3.26Z"/><path class="cls-2" d="m1437.68,150.42c.18,1.19.33,2.38.46,3.57.13-.07.28-.13.43-.17,1.03-1.43,3.66-1.57,4.13.61.97,4.45,2.34,9.3,3.58,14.3.4,0,.8.02,1.2.05,1.47.11,2.69,1.4,2.24,2.94-.5,1.73-1.03,3.46-1.63,5.18,1,5.34,1.55,10.7,1.03,15.8h51.45l-10.23-130.07h-56.08l-7.29,92.7c1.27-.92,3.24-.75,3.69,1.09.09.37.17.75.26,1.12.03.04.05.08.08.12.69-2.43,1.41-4.86,2.2-7.26.65-1.96,4.12-2.44,4.49,0Z"/><path class="cls-2" d="m1444.38,185.49s-.02.03-.02.05c.07,2.41,0,4.8-.24,7.17h.21c.24-2.39.23-4.82.05-7.22Z"/><polygon class="cls-2" points="1358.35 146.18 1363.53 153.6 1370.39 147.86 1370.39 202.01 1421.43 202.01 1421.43 157.83 1443.05 157.83 1443.05 202.01 1460.43 202.01 1460.43 147.86 1467.29 153.6 1472.48 146.18 1415.29 101.68 1394.08 118.35 1394.08 100.64 1382.35 100.64 1382.35 127.36 1358.35 146.18"/><rect class="cls-2" x="1380.44" y="152.25" width="28.39" height="24.86"/><line class="cls-4" x1="1382.22" y1="47.48" x2="1423" y2="47.86"/></g></g><g id="Layer_6"><text class="cls-16" transform="translate(1349.52 63.01)"><tspan x="0" y="0">$</tspan></text></g></g></svg>