<?xml version="1.0" encoding="UTF-8"?><svg id="Layer_1" xmlns="http://www.w3.org/2000/svg" viewBox="0 0 220 220"><defs><style>.cls-1{fill:#fff;}</style></defs><path class="cls-1" d="m6.13,57.93c-1.12,0-2.11-.44-2.69-1.12.53.85,1.63,1.44,2.92,1.44h26.24c0-.11.01-.22.02-.32H6.13Z"/><path class="cls-1" d="m41.78,193.7s0,0,0,0c-5.97,0-10.43-1.62-13.28-4.82-.26-.29-.49-.59-.71-.89.29.41.59.82.94,1.21,2.84,3.2,7.31,4.82,13.28,4.82,0,0,0,0,0,0h37.97v-.32h-38.2Z"/><path class="cls-1" d="m33.56,44.84c.02-.19.05-.41.08-.65.26-2.07.69-5.52-1.2-7.66-1.84-2.09-5.61-2.53-8.44-2.53-12.01,0-14.27,11.98-14.57,18.82h23.54c.31-4.48.52-7.36.59-7.97Z"/><path class="cls-1" d="m159,45c-.03.2-.05.39-.07.56-.09.81-.43,5.6-.93,12.84h.25c.48-7.06.82-11.73.91-12.52.02-.17.04-.35.07-.56.32-2.58.97-7.8-2.17-12.03,2.88,4.17,2.26,9.19,1.95,11.71Z"/><path class="cls-1" d="m78.84,155.53c-.75.63-1.73.91-2.7.78-.97-.13-1.84-.66-2.4-1.46l-5.18-7.42c-1.06-1.52-.75-3.6.71-4.74l22.67-17.77v-16.08h-39.19c-1.11,0-1.95-.86-1.87-1.92.08-1.06,1.04-1.92,2.15-1.92h38.92v-4.96h-38.57c-.65,0-1.14-.5-1.09-1.12.04-.62.6-1.12,1.25-1.12h39.12c.64-.84,1.64-1.4,2.78-1.4h11.72c1.14,0,2.14.55,2.78,1.4h16.37c.14,0,.26.03.38.07,1.2-.67,2.71-.57,3.83.3l3.37,2.62,2.42-34.02c.14-1.94-1.4-3.52-3.44-3.52h-42.4c-3.51,0-6.17-2.72-5.94-6.07l.64-9.03c.14-1.94-1.4-3.52-3.44-3.52h-28.79c-2.03,0-3.8,1.58-3.94,3.52l-7.96,111.74c-.14,1.94,1.4,3.52,3.44,3.52h35.49v-8.85l-1.13.95Zm48.67-74.66H54.74c-.65,0-1.14-.5-1.09-1.12.04-.62.61-1.12,1.25-1.12h72.77c.65,0,1.14.5,1.09,1.12-.04.62-.61,1.12-1.25,1.12Zm-70.08-29.45h16.83c.77,0,1.4.62,1.4,1.4s-.62,1.4-1.4,1.4h-16.83c-.77,0-1.4-.62-1.4-1.4s.62-1.4,1.4-1.4Zm-1.9,18.42h72.77c1.11,0,1.95.86,1.87,1.92s-1.04,1.92-2.15,1.92H55.25c-1.11,0-1.95-.86-1.87-1.92s1.04-1.92,2.15-1.92Zm-1.08,15.18h72.77c.65,0,1.14.5,1.09,1.12-.04.62-.6,1.12-1.25,1.12H54.28c-.65,0-1.14-.5-1.09-1.12.04-.62.6-1.12,1.25-1.12Zm-.46,6.39h72.77c.65,0,1.14.5,1.09,1.12-.04.62-.61,1.12-1.25,1.12H53.83c-.65,0-1.14-.5-1.09-1.12.04-.62.61-1.12,1.25-1.12Z"/><path class="cls-1" d="m41.78,187.19c9.3,0,14.89-10.62,15.68-16.03h.01c.23-1.57,1.57-2.78,3.21-2.78h19.29v-2.39h-35.67c-3.51,0-6.17-2.72-5.94-6.07l7.96-111.74c.24-3.35,3.29-6.07,6.8-6.07h28.79c3.51,0,6.17,2.72,5.94,6.07l-.64,9.03c-.14,1.94,1.4,3.52,3.44,3.52h42.4c3.51,0,6.17,2.72,5.94,6.07l-2.57,36,3.96,3.08,3.48-44.24c.14-1.82,1.66-3.21,3.48-3.21h4.15c.52-7.65.88-12.73.98-13.56.02-.19.05-.41.08-.65.26-2.07.69-5.52-1.2-7.66-1.84-2.09-4.1-3.46-6.94-3.46h0s0,0,0,0H38c3.06,4.21,2.42,9.37,2.09,11.93-.03.2-.05.39-.07.56-.47,4.19-7.73,115.18-7.74,121.56,0,1.3-.18,2.84-.37,4.46-.53,4.46-1.18,10.02,1.44,12.97,1.56,1.75,4.39,2.64,8.41,2.64,0,0,0,0,0,0h0ZM95.3,45.34l40.78.38c.77,0,1.39.64,1.38,1.41,0,.77-.63,1.38-1.4,1.38h-.01l-40.78-.38c-.77,0-1.39-.64-1.38-1.41,0-.77.63-1.36,1.41-1.38Z"/><path class="cls-1" d="m63.28,174.88c-.91,3.16-2.7,7.06-5.58,10.6-.49.6-.99,1.16-1.51,1.7h23.78v-12.3h-16.69Z"/><polygon class="cls-1" points="110.64 110.42 112.66 108.83 110.64 108.83 110.64 110.42"/><polygon class="cls-1" points="110.64 105 117.54 105 123.85 100.04 110.64 100.04 110.64 105"/><path class="cls-1" d="m187.69,142.68c1.47,1.14,1.78,3.23.72,4.75l-5.18,7.42c-.56.8-1.43,1.33-2.4,1.46-.97.13-1.95-.16-2.7-.78l-1.13-.95v14.23c.68.39,1.2,1,1.46,1.75h.01c1.92,5.46,1.34,11.22-1.48,15.87v2.05h32.87l-9.68-123.09h-42.65c-.94,13.93-2.2,33.18-3.35,51.22l33.51,26.08Z"/><path class="cls-1" d="m146.97,110.99l1.01.78c1.06-16.53,2.18-33.6,3.04-46.39h-.46l-3.59,45.61Z"/><path class="cls-1" d="m147.97,111.77l6.21,4.83c1.15-18.04,2.41-37.29,3.35-51.22h-6.52c-.86,12.79-1.98,29.87-3.04,46.39Z"/><path class="cls-1" d="m176.99,174.45v11.97c2.82-4.64,3.39-10.41,1.48-15.87h-.01c.12.34.2.7.2,1.08,0,1.22-.67,2.26-1.66,2.82Z"/><path class="cls-1" d="m178.46,170.55c-.26-.75-.78-1.36-1.46-1.75v2.26l1.46-.51Z"/><path class="cls-1" d="m176.99,174.45c.99-.56,1.66-1.61,1.66-2.82,0-.38-.08-.74-.2-1.07l-1.46.51v3.38Z"/><path class="cls-1" d="m125.39,159.59v8.78h5.62v-10.94c-1.26,1.32-3.07,2.16-5.02,2.16h-.61Z"/><rect class="cls-1" x="86.95" y="193.7" width="44.07" height="4.08"/><path class="cls-1" d="m125.39,176.36c0,1.93-1.56,3.49-3.49,3.49h-28.39c-1.93,0-3.49-1.56-3.49-3.49v-1.47h-3.07v12.3h44.07v-12.3h-5.62v1.47Z"/><path class="cls-1" d="m127.5,106.05c.12.26.19.55.16.87-.08,1.06-1.04,1.92-2.15,1.92h-1.56l-14.65,11.51c-1.05.83-2.48.98-3.68.39-1.2-.58-1.96-1.8-1.96-3.14v-8.77h-4.75v17.78c0,1.07-.49,2.08-1.34,2.75l-21.41,16.79,1.11,1.59,3.94-3.3c1.04-.87,2.49-1.06,3.72-.49,1.23.57,2.01,1.81,2.01,3.16v16.32h3.07v-11.93c0-1.93,1.56-3.49,3.49-3.49h28.39c1.93,0,3.49,1.56,3.49,3.49v5.54h.79c2.03,0,3.8-1.58,3.94-3.52l3.16-44.34-4.9-3.82-.88.69Z"/><path class="cls-1" d="m135.82,111.15l-3.02,42.37c-.01.19-.04.38-.07.57.52-.31,1.12-.5,1.78-.5h2.11l3.1-39.4-3.9-3.03Z"/><rect class="cls-1" x="86.95" y="165.98" width="3.07" height="2.39"/><rect class="cls-1" x="98.91" y="103.38" width="4.75" height="1.61"/><path class="cls-1" d="m159.8,194.47c-.06.06-.13.11-.19.17v3.13h10.41v-2.33h-7.82c-.9,0-1.75-.36-2.39-.97Z"/><rect class="cls-1" x="86.95" y="187.19" width="44.07" height="6.51"/><rect class="cls-1" x="86.95" y="163.43" width="3.07" height="2.56"/><path class="cls-1" d="m135.82,111.15l-2.54-1.98-3.16,44.34c-.14,1.94-1.9,3.52-3.94,3.52h-.79v2.56h.61c1.95,0,3.75-.84,5.02-2.16v-.35c0-1.28.69-2.38,1.71-2.99.03-.19.06-.38.07-.57l3.02-42.37Z"/><rect class="cls-1" x="98.91" y="105" width="4.75" height="3.83"/><path class="cls-1" d="m125.52,108.83c1.11,0,2.07-.86,2.15-1.92.02-.31-.04-.61-.16-.87l-3.54,2.78h1.56Z"/><rect class="cls-1" x="125.39" y="168.37" width="5.62" height="6.51"/><rect class="cls-1" x="86.95" y="168.37" width="3.07" height="6.51"/><path class="cls-1" d="m146.31,119.32l-2.14,27.19c.48-.52,1.06-.96,1.7-1.29.45-7.34.98-15.96,1.56-25.03l-1.12-.88Z"/><path class="cls-1" d="m170.02,147.11c0-1.35.78-2.59,2.01-3.16,1.23-.57,2.68-.38,3.72.49l3.94,3.3,1.1-1.58-27.15-21.13c-.47,7.52-.92,14.61-1.29,20.77.82.69,1.43,1.64,1.72,2.74.28.02.57.05.85.11,2.15.45,3.78,2.09,4.26,4.3.61,2.79,1.38,5.74,2.19,8.86.26.99.52,1.99.78,3,1.3.39,2.45,1.21,3.22,2.31.27.39.49.82.65,1.26h4.01v-21.26Z"/><path class="cls-1" d="m170.02,174.88h-4.77c-.17.53-.33,1.04-.5,1.54.66,3.74,1.01,7.14,1.09,10.29,1.82-.39,3.22-1.01,4.17-1.87v-9.96Z"/><path class="cls-1" d="m147.44,120.19c-.58,9.06-1.11,17.69-1.56,25.03,1.02-.53,2.2-.78,3.41-.68,1.18.1,2.24.55,3.07,1.25.37-6.16.82-13.26,1.29-20.77l-6.21-4.83Z"/><path class="cls-1" d="m165.84,186.71c.01.59.04,1.19.03,1.76h4.14v-3.63c-.95.86-2.35,1.48-4.17,1.87Z"/><path class="cls-1" d="m170.02,168.37h-4.01c.42,1.13.48,2.37.13,3.57-.3,1.04-.6,2.01-.89,2.94h4.77v-6.51Z"/><path class="cls-1" d="m151.63,153.07c-.15.04-.29.1-.43.17-.13-1.19-.28-2.38-.46-3.57-.36-2.44-3.84-1.96-4.48,0-.43,1.3-.83,2.61-1.22,3.92h10.69c-.54-2.08-3.08-1.93-4.1-.52Z"/><polygon class="cls-1" points="143.01 116.75 139.72 114.19 136.62 153.59 140.12 153.59 143.01 116.75"/><path class="cls-1" d="m161.98,193.68c.06-.41.11-.83.16-1.25.02-.14.04-.27.05-.41.01-.11.02-.21.03-.32.05-.49.08-.97.11-1.47,0-.12.01-.24.02-.35,0-.07,0-.14,0-.22.02-.42.03-.85.03-1.27,0-.06,0-.12,0-.18,0-.15,0-.29,0-.44-.01-3.81-.49-7.72-1.22-11.62.2-.57.38-1.14.56-1.72.37-1.16.73-2.31,1.07-3.47.05-.17.07-.34.08-.51,0-.05,0-.1,0-.14,0-.12-.01-.24-.03-.36,0-.04-.01-.08-.02-.13-.03-.15-.08-.29-.15-.42-.02-.04-.04-.07-.06-.11-.05-.09-.11-.18-.17-.27-.04-.05-.07-.09-.11-.14-.07-.08-.14-.15-.22-.21-.04-.03-.07-.07-.12-.1-.1-.08-.21-.15-.32-.21h0c-.34-.19-.72-.31-1.13-.34-.31-.02-.63-.03-.94-.04v14.02c.75.59,1.25,1.48,1.32,2.48.2,2.84.18,5.4-.06,7.82-.09.85-.48,1.61-1.06,2.16.65.61,1.5.97,2.39.97h7.82v-3.17c-2.23.84-4.89,1.3-8.04,1.4Z"/><path class="cls-1" d="m162.34,189.88c0,.12,0,.24-.02.35,0-.02,0-.04,0-.05,0-.1,0-.2.01-.3Z"/><path class="cls-1" d="m162.38,188.21c0,.06,0,.12,0,.18,0-.02,0-.05,0-.07,0-.04,0-.07,0-.11Z"/><path class="cls-1" d="m162.21,191.7c0,.11-.02.21-.03.32,0-.05,0-.1.01-.16,0-.05,0-.11.01-.16Z"/><path class="cls-1" d="m162.35,189.66c0,.07,0,.14,0,.22,0-.05,0-.1,0-.16,0-.02,0-.04,0-.06Z"/><path class="cls-1" d="m163.55,191.96c-.34.64-.87,1.15-1.53,1.45.05-.32.08-.65.12-.98-.05.42-.1.83-.16,1.25,3.14-.1,5.81-.57,8.04-1.4v-.32h-6.47Z"/><path class="cls-1" d="m162.38,187.77c0,.15,0,.29,0,.44,0-.1,0-.19,0-.29,0-.05,0-.1,0-.15Z"/><path class="cls-1" d="m162.39,187.92c0,.1,0,.19,0,.29,0,.04,0,.07,0,.11,0-.13,0-.27,0-.4Z"/><path class="cls-1" d="m163.55,191.96h-1.36s0-.06,0-.1c0,.05,0,.1-.01.16-.01.14-.03.27-.05.41-.04.33-.07.65-.12.98.66-.3,1.19-.81,1.53-1.45Z"/><path class="cls-1" d="m162.35,189.72c0,.05,0,.1,0,.16,0,.1,0,.2-.01.3,0-.15.01-.31.02-.46Z"/><path class="cls-1" d="m162.32,190.23c-.03.49-.06.98-.11,1.47.04-.39.07-.78.1-1.18,0-.1,0-.19.01-.29Z"/><path class="cls-1" d="m165.36,167.11c-.77-1.1-1.92-1.92-3.22-2.31-.26-1.01-.52-2.01-.78-3-.81-3.12-1.58-6.07-2.19-8.86-.48-2.21-2.11-3.85-4.26-4.3-.28-.06-.56-.09-.85-.11-.29-1.1-.89-2.04-1.72-2.74-.15,2.47-.29,4.8-.42,6.93-.11.1-.22.22-.31.34,1.01-1.41,3.56-1.56,4.1.52h.39c1.93,0,3.49,1.56,3.49,3.49v10.91c.31,0,.63.02.94.04.41.03.79.15,1.13.34h4.33c-.16-.44-.38-.86-.65-1.26Z"/><path class="cls-1" d="m145.46,152.21c.13-2.16.27-4.5.42-6.99-.64.33-1.22.77-1.7,1.29l2.14-27.19-3.3-2.57-2.9,36.84h4.92c.39-1.31.8-2.62,1.22-3.92-.28.84-.55,1.69-.81,2.54Z"/><path class="cls-1" d="m162.38,188.39c0,.42-.02.85-.03,1.27,0-.22.02-.45.03-.67,0-.2,0-.4,0-.6Z"/><path class="cls-1" d="m165.84,186.71c-.08-3.15-.42-6.55-1.09-10.29.17-.5.33-1.01.5-1.54h-3.66c.05-.15.09-.3.14-.44-.18.57-.37,1.15-.56,1.72.73,3.9,1.21,7.8,1.22,11.62,0-.21,0-.42,0-.63,1.29-.06,2.43-.21,3.46-.43Z"/><path class="cls-1" d="m145.88,145.22c-.15,2.49-.29,4.83-.42,6.99.26-.85.53-1.7.81-2.54.65-1.96,4.12-2.44,4.48,0,.18,1.19.33,2.38.46,3.57.13-.07.28-.13.43-.17.09-.12.19-.24.31-.34.13-2.14.27-4.46.42-6.93-.83-.7-1.89-1.15-3.07-1.25-1.21-.11-2.39.15-3.41.68Z"/><path class="cls-1" d="m162.38,188.32s0,.05,0,.07c0,.2,0,.4,0,.6,0-.22,0-.44,0-.67Z"/><path class="cls-1" d="m162.33,190.18s0,.04,0,.05c0,.1,0,.19-.01.29,0-.11.01-.23.02-.34Z"/><path class="cls-1" d="m162.37,188.99c0,.22-.02.45-.03.67,0,.02,0,.04,0,.06.01-.24.02-.49.03-.73Z"/><path class="cls-1" d="m162.31,190.52c-.02.39-.06.79-.1,1.18,0,.05,0,.11-.01.16.04-.45.08-.89.11-1.34Z"/><path class="cls-1" d="m162.39,187.67c.93.57,1.55,1.6,1.55,2.77,0,.55-.14,1.06-.38,1.52h6.47v-3.49h-4.14c0-.57-.02-1.17-.03-1.76-1.02.22-2.17.37-3.46.43,0,.21,0,.42,0,.63,0,.05,0,.1,0,.15,0-.08,0-.16,0-.25Z"/><path class="cls-1" d="m162.39,187.67c0,.08,0,.16,0,.25,0,.13,0,.27,0,.4,0,.22,0,.45,0,.67,0,.24-.02.49-.03.73,0,.15-.01.31-.02.46,0,.11,0,.23-.02.34-.03.45-.06.9-.11,1.34,0,.03,0,.06,0,.1h1.36c.24-.45.38-.97.38-1.52,0-1.17-.62-2.19-1.55-2.77Z"/><path class="cls-1" d="m165.25,174.88c.29-.93.59-1.9.89-2.94.35-1.2.29-2.44-.13-3.57h-4.33c.11.06.22.13.32.21.04.03.08.07.12.1.08.07.15.14.22.21.04.04.08.09.11.14.06.09.12.18.17.27.02.04.05.07.06.11.06.13.11.27.15.42,0,.04.01.08.02.13.02.12.03.24.03.36,0,.05,0,.09,0,.14-.01.17-.03.33-.08.51-.33,1.15-.69,2.31-1.07,3.47-.05.15-.09.3-.14.44h3.66Z"/><path class="cls-1" d="m161.67,168.37c.11.06.22.13.32.21-.1-.08-.21-.15-.32-.21h0Z"/><path class="cls-1" d="m159.61,194.3v.34c.07-.05.13-.11.19-.17-.06-.06-.13-.11-.19-.17Z"/><path class="cls-1" d="m159.8,194.47c.58-.56.98-1.31,1.06-2.16.25-2.42.27-4.98.06-7.82-.07-1-.57-1.89-1.32-2.48v12.29c.06.06.13.11.19.17Z"/><rect class="cls-1" x="97" y="154.98" width="21.42" height="2.05"/><rect class="cls-1" x="97" y="159.59" width="21.42" height="8.78"/><rect class="cls-1" x="97" y="157.03" width="21.42" height="2.56"/><rect class="cls-1" x="97" y="168.37" width="21.42" height="4.5"/><g><path d="m53.38,71.76c-.08,1.06.76,1.92,1.87,1.92h72.77c1.11,0,2.07-.86,2.15-1.92s-.76-1.92-1.87-1.92H55.52c-1.11,0-2.07.86-2.15,1.92Z"/><path d="m127.67,78.63H54.9c-.65,0-1.21.5-1.25,1.12-.04.62.45,1.12,1.09,1.12h72.77c.65,0,1.21-.5,1.25-1.12.04-.62-.45-1.12-1.09-1.12Z"/><path d="m127.21,85.02H54.44c-.65,0-1.21.5-1.25,1.12-.04.62.45,1.12,1.09,1.12h72.77c.65,0,1.21-.5,1.25-1.12.04-.62-.45-1.12-1.09-1.12Z"/><path d="m126.76,91.41H53.99c-.65,0-1.21.5-1.25,1.12-.04.62.45,1.12,1.09,1.12h72.77c.65,0,1.21-.5,1.25-1.12.04-.62-.45-1.12-1.09-1.12Z"/><path d="m206.88,61.62c-.14-1.82-1.66-3.21-3.48-3.21h-14.78V15.25h-6.98v43.15h-12.56V15.25h-6.98v43.15h-4.11c.5-7.24.84-12.04.93-12.84.02-.17.04-.35.07-.56.32-2.52.94-7.54-1.95-11.71-.25-.36-.52-.72-.83-1.07-2.53-2.87-6.52-4.43-11.82-4.68v-.05h-1.5s0,0,0,0h0s-118.9,0-118.9,0h0c-15.58,0-21.13,14.05-21.13,27.19h.14c-.08.22-.14.45-.14.7,0,.53.21,1.03.56,1.44.59.68,1.57,1.12,2.69,1.12h26.49c0,.11-.01.21-.02.32-2.1,30.76-6.8,103.7-6.81,108.85,0,.93-.16,2.28-.33,3.71-.61,5.15-1.42,12.09,2.33,17.17.22.3.46.6.71.89,2.84,3.2,7.31,4.82,13.28,4.82,0,0,0,0,0,0h38.2v7.56c0,1.93,1.56,3.49,3.49,3.49h51.04c1.93,0,3.49-1.56,3.49-3.49v-40.7h14.64v40.7c0,1.93,1.56,3.49,3.49,3.49h17.39c1.93,0,3.49-1.56,3.49-3.49v-5.81h36.65c.97,0,1.9-.41,2.56-1.12.66-.71.99-1.67.92-2.64l-10.23-130.07Zm-116.42,1.65h42.4c2.03,0,3.57,1.58,3.44,3.52l-2.42,34.02-3.37-2.62c-1.11-.87-2.62-.97-3.83-.3-.12-.04-.24-.07-.38-.07h-16.37c-.64-.84-1.64-1.4-2.78-1.4h-11.72c-1.14,0-2.14.55-2.78,1.4h-39.12c-.65,0-1.21.5-1.25,1.12-.04.62.45,1.12,1.09,1.12h38.57v4.96h-38.92c-1.11,0-2.07.86-2.15,1.92-.08,1.06.76,1.92,1.87,1.92h39.19v16.08l-22.67,17.77c-1.46,1.14-1.77,3.23-.71,4.74l5.18,7.42c.56.8,1.43,1.33,2.4,1.46.97.13,1.95-.16,2.7-.78l1.13-.95v8.85h-35.49c-2.03,0-3.57-1.58-3.44-3.52l7.96-111.74c.14-1.94,1.9-3.52,3.94-3.52h28.79c2.03,0,3.57,1.58,3.44,3.52l-.64,9.03c-.24,3.35,2.42,6.07,5.94,6.07Zm109.71,2.12l9.68,123.09h-32.87v-33.89l1.13.95c.75.63,1.73.91,2.7.78.97-.13,1.84-.66,2.4-1.46l5.18-7.42c1.06-1.52.75-3.61-.72-4.75l-33.51-26.08-6.21-4.83-1.01-.78,3.59-45.61h49.63Zm-76.33,34.66l-6.31,4.96h-6.91v-4.96h13.21Zm-13.21,8.79h2.03l-2.03,1.59v-1.59Zm-23.69,78.35v-40.08c0-1.35-.78-2.59-2.01-3.16-1.23-.57-2.68-.38-3.72.49l-3.94,3.3-1.11-1.59,21.41-16.79c.84-.66,1.34-1.67,1.34-2.75v-23.23h4.75v14.22c0,1.33.76,2.55,1.96,3.14,1.2.58,2.63.43,3.68-.39l14.65-11.51,3.54-2.78.88-.69,4.9,3.82,2.54,1.98,3.9,3.03,3.3,2.57,3.3,2.57,1.12.88,6.21,4.83,27.15,21.13-1.1,1.58-3.94-3.3c-1.04-.87-2.49-1.06-3.72-.49-1.23.57-2.01,1.81-2.01,3.16v50.67h-10.41v-40.7c0-1.93-1.56-3.49-3.49-3.49h-21.61c-.65,0-1.25.19-1.78.5-1.02.61-1.71,1.71-1.71,2.99v40.7h-44.07v-10.59ZM9.43,52.82c.31-6.84,2.57-18.82,14.57-18.82,2.83,0,6.6.44,8.44,2.53,1.89,2.14,1.45,5.6,1.2,7.66-.03.24-.06.46-.08.65-.07.61-.28,3.49-.59,7.97H9.43Zm22.49,118.76c.19-1.62.37-3.16.37-4.46,0-6.38,7.27-117.37,7.74-121.56.02-.17.04-.35.07-.56.32-2.56.97-7.72-2.09-11.93h106.4s0,0,0,0c2.83,0,5.09,1.37,6.94,3.46,1.89,2.14,1.45,5.6,1.2,7.66-.03.24-.06.46-.08.65-.09.84-.46,5.91-.98,13.56h-4.15c-1.82,0-3.33,1.4-3.48,3.21l-3.48,44.24-3.96-3.08,2.57-36c.24-3.35-2.42-6.07-5.94-6.07h-42.4c-2.03,0-3.57-1.58-3.44-3.52l.64-9.03c.24-3.35-2.42-6.07-5.94-6.07h-28.79c-3.51,0-6.56,2.72-6.8,6.07l-7.96,111.74c-.24,3.35,2.42,6.07,5.94,6.07h35.67v2.39h-19.29c-1.64,0-2.98,1.21-3.21,2.78h-.01c-.8,5.41-6.38,16.03-15.68,16.03h0s0,0,0,0c-4.03,0-6.86-.89-8.41-2.64-2.62-2.95-1.97-8.51-1.44-12.97Zm24.28,15.61c.51-.54,1.02-1.1,1.51-1.7,2.88-3.55,4.67-7.44,5.58-10.6h16.69v12.3h-23.78Z"/><path d="m93.51,179.85h28.39c1.93,0,3.49-1.56,3.49-3.49v-24.86c0-1.93-1.56-3.49-3.49-3.49h-28.39c-1.93,0-3.49,1.56-3.49,3.49v24.86c0,1.93,1.56,3.49,3.49,3.49Zm3.49-11.47v-13.39h21.42v17.88h-21.42v-4.5Z"/><path d="m95.28,48.13l40.78.38h.01c.76,0,1.39-.62,1.4-1.38,0-.77-.61-1.4-1.38-1.41l-40.78-.38c-.78.02-1.4.61-1.41,1.38,0,.77.61,1.4,1.38,1.41Z"/><path d="m57.43,54.21h16.83c.77,0,1.4-.62,1.4-1.4s-.62-1.4-1.4-1.4h-16.83c-.77,0-1.4.62-1.4,1.4s.62,1.4,1.4,1.4Z"/></g></svg>