<?xml version="1.0" encoding="UTF-8"?>
<svg xmlns="http://www.w3.org/2000/svg" xmlns:xlink="http://www.w3.org/1999/xlink" viewBox="0 0 370 327">
  <defs>
    <style>
      .cls-1 {
        clip-path: url(#clippath-2);
      }

      .cls-1, .cls-2, .cls-3, .cls-4, .cls-5, .cls-6, .cls-7 {
        fill: none;
      }

      .cls-8 {
        fill: #fff;
      }

      .cls-2 {
        mix-blend-mode: multiply;
      }

      .cls-9 {
        fill: #92cad3;
      }

      .cls-3 {
        isolation: isolate;
      }

      .cls-4 {
        clip-path: url(#clippath-3);
      }

      .cls-10 {
        fill: #1b3a69;
      }

      .cls-6 {
        clip-path: url(#clippath);
      }

      .cls-7 {
        clip-path: url(#clippath-1);
      }
    </style>
    <clipPath id="clippath">
      <rect class="cls-5" x="-44" y="-161" width="612" height="792"/>
    </clipPath>
    <clipPath id="clippath-1">
      <rect class="cls-5" x="-44" y="-161" width="612" height="792"/>
    </clipPath>
    <clipPath id="clippath-2">
      <rect class="cls-5" x="-44" y="-161" width="612" height="792"/>
    </clipPath>
    <clipPath id="clippath-3">
      <rect class="cls-5" x="-84" y="-78.58" width="664.34" height="571.8"/>
    </clipPath>
  </defs>
  <g class="cls-3">
    <g id="Layer_1" data-name="Layer 1">
      <g class="cls-6">
        <g class="cls-7">
          <rect class="cls-9" x="-55.34" y="-77.58" width="634.68" height="569.8"/>
        </g>
        <g class="cls-1">
          <g class="cls-2">
            <g class="cls-4">
              <rect class="cls-10" x="-83" y="-77.58" width="662.34" height="569.8"/>
            </g>
          </g>
        </g>
        <path class="cls-8" d="m30.2,275.48c0,.97-.18,1.83-.54,2.58-.36.75-.87,1.32-1.53,1.73s-1.42.6-2.27.6-1.6-.19-2.26-.58-1.17-.95-1.53-1.67c-.37-.72-.56-1.56-.58-2.5v-.56c0-.98.18-1.84.54-2.58.36-.75.87-1.32,1.54-1.73.67-.41,1.43-.61,2.28-.61s1.6.2,2.26.6c.66.4,1.17.97,1.54,1.71.37.74.55,1.59.56,2.55v.46Zm-2.44-.42c0-.99-.17-1.74-.5-2.25-.33-.51-.8-.77-1.42-.77-1.2,0-1.84.9-1.91,2.71v.73c0,.98.15,1.73.48,2.25.32.52.8.79,1.44.79s1.07-.26,1.4-.77c.33-.51.49-1.26.5-2.22v-.46Zm4.26,5.19v-5.8h-1.07v-1.6h1.07v-.59c0-.84.25-1.5.75-1.96.5-.46,1.19-.7,2.09-.7.33,0,.69.05,1.08.14v1.7c-.13-.04-.32-.06-.56-.06-.7,0-1.05.3-1.05.9v.57h2.33v-.25c.01-.98.34-1.74.97-2.26.6-.49,1.44-.74,2.52-.74.67,0,1.48.13,2.41.4l-.32,1.82-.38-.1c-.5-.13-1.02-.2-1.57-.2-.88,0-1.32.4-1.32,1.2v.13h1.44v1.6h-1.44v5.8h-2.32v-5.8h-2.33v5.8h-2.31Zm11.6,0h-2.31v-7.4h2.31v7.4Zm4.57-1.64c.32,0,.57-.09.75-.26.18-.18.26-.42.26-.73h2.16c0,.81-.29,1.48-.87,2s-1.33.78-2.25.78c-1.08,0-1.92-.34-2.54-1.01-.62-.67-.93-1.61-.93-2.8v-.1c0-.75.14-1.41.41-1.98.28-.57.67-1.01,1.19-1.32s1.13-.46,1.85-.46c.96,0,1.72.27,2.29.8.57.53.85,1.26.85,2.17h-2.16c0-.38-.09-.68-.28-.88-.19-.21-.44-.31-.75-.31-.6,0-.95.38-1.05,1.14-.03.24-.05.57-.05,1,0,.74.09,1.26.27,1.54s.46.43.85.43Zm7.69,1.78c-1.13,0-2.05-.34-2.75-1.02-.7-.68-1.05-1.56-1.05-2.64v-.19c0-.76.14-1.42.42-2,.28-.58.69-1.03,1.23-1.34.54-.32,1.18-.48,1.91-.48,1.04,0,1.86.32,2.46.97.6.64.9,1.54.9,2.7v.9h-4.58c.08.41.26.74.54.98.28.24.64.36,1.08.36.73,0,1.3-.26,1.71-.77l1.05,1.24c-.29.4-.69.71-1.22.95s-1.09.35-1.7.35Zm-.26-5.89c-.67,0-1.08.45-1.2,1.34h2.32v-.18c0-.37-.08-.66-.28-.86-.2-.2-.48-.3-.84-.3Zm7.49,1.99c0-.74.14-1.4.43-1.97.29-.58.7-1.02,1.24-1.33.54-.31,1.17-.46,1.89-.46,1.11,0,1.98.34,2.62,1.03.64.69.96,1.62.96,2.8v.08c0,1.15-.32,2.07-.96,2.74-.64.68-1.51,1.02-2.6,1.02s-1.9-.32-2.54-.95c-.64-.63-.98-1.49-1.03-2.57v-.39Zm2.3.14c0,.68.11,1.18.32,1.5.21.32.53.48.95.48.82,0,1.24-.63,1.26-1.89v-.23c0-1.33-.42-1.99-1.27-1.99-.77,0-1.19.57-1.25,1.72v.42Zm6.31,3.62v-5.8h-1.07v-1.6h1.07v-.59c0-.84.25-1.5.75-1.96.5-.46,1.19-.7,2.09-.7.33,0,.69.05,1.08.14v1.7c-.13-.04-.32-.06-.56-.06-.7,0-1.05.3-1.05.9v.57h1.44v1.6h-1.44v5.8h-2.31Zm16.2-3.37c-.03.69-.22,1.3-.56,1.84-.34.53-.82.94-1.44,1.23-.62.29-1.32.44-2.12.44-1.31,0-2.34-.43-3.09-1.28-.75-.85-1.13-2.06-1.13-3.61v-.49c0-.98.17-1.83.51-2.56.34-.73.83-1.3,1.47-1.7.64-.4,1.38-.6,2.21-.6,1.21,0,2.18.32,2.91.95.73.64,1.15,1.51,1.25,2.63h-2.39c-.02-.61-.17-1.04-.46-1.31-.29-.26-.72-.4-1.31-.4s-1.03.22-1.31.67c-.28.45-.42,1.16-.44,2.14v.7c0,1.06.13,1.82.4,2.28.27.46.73.68,1.38.68.55,0,.97-.13,1.26-.39.29-.26.45-.67.46-1.24h2.39Zm.78-.4c0-.74.14-1.4.43-1.97.29-.58.7-1.02,1.24-1.33.54-.31,1.17-.46,1.89-.46,1.11,0,1.98.34,2.62,1.03.64.69.96,1.62.96,2.8v.08c0,1.15-.32,2.07-.96,2.74-.64.68-1.51,1.02-2.6,1.02s-1.9-.32-2.54-.95c-.64-.63-.98-1.49-1.03-2.57v-.39Zm2.3.14c0,.68.11,1.18.32,1.5.21.32.53.48.95.48.82,0,1.24-.63,1.26-1.89v-.23c0-1.33-.42-1.99-1.27-1.99-.77,0-1.19.57-1.25,1.72v.42Zm5.55-.14c0-.74.14-1.4.43-1.97.29-.58.7-1.02,1.24-1.33.54-.31,1.17-.46,1.89-.46,1.11,0,1.98.34,2.62,1.03.64.69.96,1.62.96,2.8v.08c0,1.15-.32,2.07-.96,2.74-.64.68-1.51,1.02-2.6,1.02s-1.9-.32-2.54-.95c-.64-.63-.98-1.49-1.03-2.57v-.39Zm2.3.14c0,.68.11,1.18.32,1.5.21.32.53.48.95.48.82,0,1.24-.63,1.26-1.89v-.23c0-1.33-.42-1.99-1.27-1.99-.77,0-1.19.57-1.25,1.72v.42Zm8.81.87l-.65.65v2.11h-2.3v-10.51h2.3v5.58l.23-.31,1.74-2.16h2.76l-2.59,3.04,2.76,4.35h-2.64l-1.61-2.75Zm16.33-.62c-.03.69-.22,1.3-.56,1.84-.34.53-.82.94-1.44,1.23-.62.29-1.32.44-2.12.44-1.31,0-2.34-.43-3.09-1.28-.75-.85-1.13-2.06-1.13-3.61v-.49c0-.98.17-1.83.51-2.56.34-.73.83-1.3,1.47-1.7.64-.4,1.38-.6,2.21-.6,1.21,0,2.18.32,2.91.95.73.64,1.15,1.51,1.25,2.63h-2.39c-.02-.61-.17-1.04-.46-1.31-.29-.26-.72-.4-1.31-.4s-1.03.22-1.31.67c-.28.45-.42,1.16-.44,2.14v.7c0,1.06.13,1.82.4,2.28.27.46.73.68,1.38.68.55,0,.97-.13,1.26-.39.29-.26.45-.67.46-1.24h2.39Zm.77-.4c0-.74.14-1.4.43-1.97.29-.58.7-1.02,1.24-1.33.54-.31,1.17-.46,1.89-.46,1.11,0,1.98.34,2.62,1.03.64.69.96,1.62.96,2.8v.08c0,1.15-.32,2.07-.96,2.74-.64.68-1.51,1.02-2.6,1.02s-1.9-.32-2.54-.95c-.64-.63-.98-1.49-1.03-2.57v-.39Zm2.3.14c0,.68.11,1.18.32,1.5.21.32.53.48.95.48.82,0,1.24-.63,1.26-1.89v-.23c0-1.33-.42-1.99-1.27-1.99-.77,0-1.19.57-1.25,1.72v.42Zm10.26,2.82c-.49.62-1.15.94-1.98.94s-1.43-.24-1.84-.71-.63-1.15-.63-2.03v-4.79h2.3v4.81c0,.63.31.95.92.95.53,0,.9-.19,1.13-.57v-5.19h2.32v7.4h-2.16l-.07-.8Zm5.69-6.6l.08.87c.51-.67,1.21-1,2.11-1,.77,0,1.35.23,1.73.69.38.46.58,1.15.59,2.08v4.76h-2.31v-4.67c0-.37-.08-.65-.23-.82-.15-.18-.42-.26-.82-.26-.45,0-.79.18-1,.53v5.22h-2.3v-7.4h2.16Zm8.42-1.84v1.84h1.22v1.6h-1.22v3.38c0,.28.05.47.15.58.1.11.3.16.59.16.23,0,.42-.01.57-.04v1.65c-.41.13-.85.2-1.3.2-.79,0-1.38-.19-1.76-.56-.38-.37-.57-.94-.57-1.7v-3.67h-.94v-1.6h.94v-1.84h2.3Zm5.31,6.01l1.23-4.17h2.47l-3.01,8.63-.13.31c-.43.96-1.18,1.44-2.27,1.44-.3,0-.62-.05-.95-.14v-1.64h.3c.32,0,.57-.05.74-.14.17-.09.3-.26.38-.5l.18-.49-2.57-7.47h2.46l1.17,4.17Zm15.7-4.87h-2.99v8.1h-2.4v-8.1h-2.93v-1.85h8.32v1.85Zm4.23,2.79l-.76-.05c-.72,0-1.19.23-1.39.68v4.68h-2.3v-7.4h2.16l.08.95c.39-.72.93-1.09,1.62-1.09.25,0,.46.03.64.08l-.04,2.14Zm4.38,5.45c-1.13,0-2.05-.34-2.75-1.02-.7-.68-1.05-1.56-1.05-2.64v-.19c0-.76.14-1.42.42-2,.28-.58.69-1.03,1.23-1.34.54-.32,1.18-.48,1.91-.48,1.04,0,1.86.32,2.46.97.6.64.9,1.54.9,2.7v.9h-4.58c.08.41.26.74.54.98.28.24.64.36,1.08.36.73,0,1.3-.26,1.71-.77l1.05,1.24c-.29.4-.69.71-1.22.95s-1.09.35-1.7.35Zm-.26-5.89c-.67,0-1.08.45-1.2,1.34h2.32v-.18c0-.37-.08-.66-.28-.86-.2-.2-.48-.3-.84-.3Zm8.48,5.76c-.08-.15-.15-.37-.22-.66-.42.53-1.02.8-1.78.8-.7,0-1.29-.21-1.78-.63-.49-.42-.73-.95-.73-1.59,0-.8.3-1.41.89-1.82.59-.41,1.45-.62,2.58-.62h.71v-.39c0-.68-.29-1.02-.88-1.02-.55,0-.82.27-.82.81h-2.3c0-.71.3-1.29.91-1.74s1.38-.67,2.33-.67,1.69.23,2.24.69c.55.46.83,1.09.84,1.89v3.27c0,.68.11,1.2.31,1.56v.12h-2.3Zm-1.44-1.5c.29,0,.53-.06.71-.18.19-.12.32-.26.41-.42v-1.18h-.67c-.8,0-1.2.36-1.2,1.08,0,.21.07.38.21.51.14.13.32.19.54.19Zm8.55-.57c0-.2-.1-.35-.31-.47-.21-.12-.59-.24-1.17-.37-.57-.13-1.05-.3-1.42-.5-.37-.21-.66-.46-.85-.76-.2-.3-.29-.64-.29-1.02,0-.68.28-1.24.84-1.68.56-.44,1.29-.66,2.2-.66.98,0,1.76.22,2.35.66.59.44.89,1.02.89,1.74h-2.31c0-.59-.31-.89-.94-.89-.24,0-.44.07-.61.2-.16.13-.25.3-.25.5s.1.37.3.5c.2.13.52.23.96.31.44.08.83.18,1.16.29,1.11.38,1.67,1.07,1.67,2.06,0,.67-.3,1.22-.9,1.65-.6.42-1.38.64-2.33.64-.63,0-1.2-.11-1.7-.34-.5-.23-.88-.54-1.16-.93-.28-.39-.42-.8-.42-1.24h2.15c0,.34.12.59.34.75s.5.24.84.24c.31,0,.55-.06.71-.19.16-.13.24-.29.24-.5Zm7.7,1.28c-.49.62-1.15.94-1.98.94s-1.43-.24-1.84-.71-.63-1.15-.63-2.03v-4.79h2.3v4.81c0,.63.31.95.92.95.53,0,.9-.19,1.13-.57v-5.19h2.32v7.4h-2.16l-.07-.8Zm8.02-4.51l-.76-.05c-.72,0-1.19.23-1.39.68v4.68h-2.3v-7.4h2.16l.08.95c.39-.72.93-1.09,1.62-1.09.25,0,.46.03.64.08l-.04,2.14Zm4.38,5.45c-1.13,0-2.05-.34-2.75-1.02-.7-.68-1.05-1.56-1.05-2.64v-.19c0-.76.14-1.42.42-2,.28-.58.69-1.03,1.23-1.34.54-.32,1.18-.48,1.91-.48,1.04,0,1.86.32,2.46.97.6.64.9,1.54.9,2.7v.9h-4.58c.08.41.26.74.54.98.28.24.64.36,1.08.36.73,0,1.3-.26,1.71-.77l1.05,1.24c-.29.4-.69.71-1.22.95s-1.09.35-1.7.35Zm-.26-5.89c-.67,0-1.08.45-1.2,1.34h2.32v-.18c0-.37-.08-.66-.28-.86-.2-.2-.48-.3-.84-.3Zm8.84.44l-.76-.05c-.72,0-1.19.23-1.39.68v4.68h-2.3v-7.4h2.16l.08.95c.39-.72.93-1.09,1.62-1.09.25,0,.46.03.64.08l-.04,2.14Zm7.58-4.64l2.22,6.92,2.21-6.92h3.16v9.95h-2.41v-2.32l.23-4.76-2.41,7.08h-1.59l-2.41-7.09.23,4.76v2.32h-2.4v-9.95h3.15Zm13.26,9.95c-.08-.15-.15-.37-.22-.66-.42.53-1.02.8-1.78.8-.7,0-1.29-.21-1.78-.63-.49-.42-.73-.95-.73-1.59,0-.8.3-1.41.89-1.82.59-.41,1.45-.62,2.58-.62h.71v-.39c0-.68-.29-1.02-.88-1.02-.55,0-.82.27-.82.81h-2.3c0-.71.3-1.29.91-1.74s1.38-.67,2.33-.67,1.69.23,2.24.69c.55.46.83,1.09.84,1.89v3.27c0,.68.11,1.2.31,1.56v.12h-2.3Zm-1.44-1.5c.29,0,.53-.06.71-.18.19-.12.32-.26.41-.42v-1.18h-.67c-.8,0-1.2.36-1.2,1.08,0,.21.07.38.21.51.14.13.32.19.54.19Zm9.2-3.81l-.76-.05c-.72,0-1.19.23-1.39.68v4.68h-2.3v-7.4h2.16l.08.95c.39-.72.93-1.09,1.62-1.09.25,0,.46.03.64.08l-.04,2.14Zm.71-3.99c0-.33.12-.6.36-.81.24-.21.54-.31.92-.31s.69.1.92.31c.24.21.36.48.36.81s-.12.6-.36.81c-.24.21-.54.31-.92.31s-.69-.1-.92-.31c-.24-.21-.36-.48-.36-.81Zm2.45,9.3h-2.31v-7.4h2.31v7.4Zm5.54,0c-.08-.15-.15-.37-.22-.66-.42.53-1.02.8-1.78.8-.7,0-1.29-.21-1.78-.63-.49-.42-.73-.95-.73-1.59,0-.8.3-1.41.89-1.82.59-.41,1.45-.62,2.58-.62h.71v-.39c0-.68-.29-1.02-.88-1.02-.55,0-.82.27-.82.81h-2.3c0-.71.3-1.29.91-1.74s1.38-.67,2.33-.67,1.69.23,2.24.69c.55.46.83,1.09.84,1.89v3.27c0,.68.11,1.2.31,1.56v.12h-2.3Zm-1.44-1.5c.29,0,.53-.06.71-.18.19-.12.32-.26.41-.42v-1.18h-.67c-.8,0-1.2.36-1.2,1.08,0,.21.07.38.21.51.14.13.32.19.54.19Zm10.7-1.87v3.38h-2.4v-9.95h3.97c.76,0,1.43.14,2.02.42.59.28,1.04.68,1.36,1.2.32.52.48,1.1.48,1.76,0,.97-.35,1.75-1.04,2.33-.7.58-1.65.87-2.86.87h-1.53Zm0-1.85h1.57c.46,0,.82-.12,1.06-.35.24-.23.37-.56.37-.98,0-.46-.13-.84-.38-1.11-.25-.28-.59-.42-1.03-.42h-1.6v2.87Zm10.62,5.23c-.08-.15-.15-.37-.22-.66-.42.53-1.02.8-1.78.8-.7,0-1.29-.21-1.78-.63-.49-.42-.73-.95-.73-1.59,0-.8.3-1.41.89-1.82.59-.41,1.45-.62,2.58-.62h.71v-.39c0-.68-.29-1.02-.88-1.02-.55,0-.82.27-.82.81h-2.3c0-.71.3-1.29.91-1.74s1.38-.67,2.33-.67,1.69.23,2.24.69c.55.46.83,1.09.84,1.89v3.27c0,.68.11,1.2.31,1.56v.12h-2.3Zm-1.44-1.5c.29,0,.53-.06.71-.18.19-.12.32-.26.41-.42v-1.18h-.67c-.8,0-1.2.36-1.2,1.08,0,.21.07.38.21.51.14.13.32.19.54.19Zm11.59-2.14c0,1.15-.26,2.07-.78,2.75-.52.69-1.22,1.03-2.1,1.03-.68,0-1.24-.25-1.67-.75v3.45h-2.3v-10.24h2.15l.07.68c.44-.55,1.02-.82,1.74-.82.91,0,1.62.34,2.13,1.01.51.67.76,1.6.76,2.77v.11Zm-2.3-.14c0-1.31-.38-1.97-1.15-1.97-.55,0-.91.2-1.09.59v2.91c.2.41.57.62,1.11.62.73,0,1.11-.63,1.13-1.9v-.25Zm10.22.14c0,1.15-.26,2.07-.78,2.75-.52.69-1.22,1.03-2.1,1.03-.68,0-1.24-.25-1.67-.75v3.45h-2.3v-10.24h2.15l.07.68c.44-.55,1.02-.82,1.74-.82.91,0,1.62.34,2.13,1.01.51.67.76,1.6.76,2.77v.11Zm-2.3-.14c0-1.31-.38-1.97-1.15-1.97-.55,0-.91.2-1.09.59v2.91c.2.41.57.62,1.11.62.73,0,1.11-.63,1.13-1.9v-.25Zm7.47,3.79c-.08-.15-.15-.37-.22-.66-.42.53-1.02.8-1.78.8-.7,0-1.29-.21-1.78-.63-.49-.42-.73-.95-.73-1.59,0-.8.3-1.41.89-1.82.59-.41,1.45-.62,2.58-.62h.71v-.39c0-.68-.29-1.02-.88-1.02-.55,0-.82.27-.82.81h-2.3c0-.71.3-1.29.91-1.74s1.38-.67,2.33-.67,1.69.23,2.24.69c.55.46.83,1.09.84,1.89v3.27c0,.68.11,1.2.31,1.56v.12h-2.3Zm-1.44-1.5c.29,0,.53-.06.71-.18.19-.12.32-.26.41-.42v-1.18h-.67c-.8,0-1.2.36-1.2,1.08,0,.21.07.38.21.51.14.13.32.19.54.19Zm8.55-.57c0-.2-.1-.35-.31-.47-.21-.12-.59-.24-1.17-.37-.57-.13-1.05-.3-1.42-.5-.37-.21-.66-.46-.85-.76-.2-.3-.29-.64-.29-1.02,0-.68.28-1.24.84-1.68.56-.44,1.29-.66,2.2-.66.98,0,1.76.22,2.35.66.59.44.89,1.02.89,1.74h-2.31c0-.59-.31-.89-.94-.89-.24,0-.44.07-.61.2-.16.13-.25.3-.25.5s.1.37.3.5c.2.13.52.23.96.31.44.08.83.18,1.16.29,1.11.38,1.67,1.07,1.67,2.06,0,.67-.3,1.22-.9,1.65-.6.42-1.38.64-2.33.64-.63,0-1.2-.11-1.7-.34-.5-.23-.88-.54-1.16-.93-.28-.39-.42-.8-.42-1.24h2.15c0,.34.12.59.34.75s.5.24.84.24c.31,0,.55-.06.71-.19.16-.13.24-.29.24-.5Z"/>
        <g>
          <path class="cls-8" d="m25.73,298.8h2.39v6.83c0,.63-.15,1.2-.44,1.7s-.7.88-1.23,1.16-1.11.41-1.76.41c-1.08,0-1.93-.27-2.53-.82s-.9-1.32-.9-2.32h2.41c0,.46.08.79.24.99s.42.31.79.31c.33,0,.59-.12.77-.37.18-.25.27-.6.27-1.04v-6.83Z"/>
          <path class="cls-8" d="m33.99,307.95c-.49.62-1.15.94-1.98.94s-1.43-.24-1.84-.71c-.42-.47-.63-1.15-.63-2.03v-4.79h2.3v4.81c0,.63.31.95.92.95.53,0,.9-.19,1.13-.57v-5.19h2.32v7.4h-2.16l-.07-.8Z"/>
          <path class="cls-8" d="m39.91,308.75h-2.31v-10.5h2.31v10.5Z"/>
          <path class="cls-8" d="m44.27,305.53l1.23-4.17h2.47l-3.01,8.63-.13.31c-.43.96-1.19,1.44-2.27,1.44-.3,0-.62-.04-.95-.14v-1.64h.3c.32,0,.57-.05.74-.14.17-.09.3-.26.38-.5l.18-.49-2.57-7.47h2.46l1.17,4.17Z"/>
          <path class="cls-8" d="m58.96,308.75h-6.95v-1.5l3.2-3.36c.79-.9,1.18-1.61,1.18-2.14,0-.43-.09-.75-.28-.98s-.46-.33-.81-.33-.64.15-.85.45c-.22.3-.33.67-.33,1.12h-2.31c0-.61.15-1.17.46-1.69.31-.52.73-.92,1.27-1.21s1.15-.44,1.82-.44c1.08,0,1.9.25,2.48.75s.87,1.21.87,2.14c0,.39-.07.77-.22,1.15-.15.37-.37.76-.68,1.17-.31.41-.8.95-1.49,1.64l-1.29,1.48h3.92v1.78Z"/>
          <path class="cls-8" d="m66.91,304.69c0,1.34-.3,2.38-.91,3.11s-1.46,1.09-2.55,1.09-1.96-.37-2.57-1.1-.91-1.77-.91-3.1v-1.82c0-1.34.3-2.38.91-3.11s1.46-1.09,2.56-1.09,1.96.37,2.56,1.1.91,1.77.91,3.11v1.81Zm-2.3-2.11c0-.72-.09-1.25-.28-1.6-.19-.35-.48-.53-.89-.53s-.68.16-.86.49-.28.83-.29,1.49v2.54c0,.74.09,1.29.28,1.63.19.34.48.52.89.52s.68-.17.87-.5c.19-.34.28-.86.29-1.58v-2.46Z"/>
          <path class="cls-8" d="m75.01,308.75h-6.95v-1.5l3.2-3.36c.79-.9,1.18-1.61,1.18-2.14,0-.43-.09-.75-.28-.98s-.46-.33-.81-.33-.64.15-.85.45c-.22.3-.33.67-.33,1.12h-2.31c0-.61.15-1.17.46-1.69.31-.52.73-.92,1.27-1.21s1.15-.44,1.82-.44c1.08,0,1.9.25,2.48.75s.87,1.21.87,2.14c0,.39-.07.77-.22,1.15-.15.37-.37.76-.68,1.17-.31.41-.8.95-1.49,1.64l-1.29,1.48h3.92v1.78Z"/>
          <path class="cls-8" d="m78.26,302.81h1.09c.86,0,1.29-.42,1.29-1.26,0-.33-.1-.6-.31-.8-.21-.21-.49-.31-.87-.31-.31,0-.57.09-.8.27s-.34.4-.34.66h-2.3c0-.52.15-.99.44-1.4s.7-.73,1.21-.96c.52-.23,1.09-.34,1.71-.34,1.11,0,1.98.25,2.61.76s.95,1.2.95,2.08c0,.43-.13.83-.39,1.21-.26.38-.64.69-1.15.93.53.19.94.48,1.24.87.3.39.45.87.45,1.45,0,.89-.34,1.6-1.03,2.13s-1.58.8-2.69.8c-.65,0-1.26-.12-1.81-.37-.56-.25-.98-.59-1.27-1.03-.29-.44-.43-.94-.43-1.5h2.32c0,.31.12.57.37.79s.55.33.91.33c.41,0,.73-.11.97-.34.24-.23.36-.51.36-.87,0-.5-.13-.86-.38-1.07s-.6-.31-1.04-.31h-1.12v-1.72Z"/>
        </g>
        <g>
          <path class="cls-8" d="m50.28,77.22h-7.68v-16.6h-12.82v16.6h-7.71v-39.81h7.71v17.2h12.82v-17.2h7.68v39.81Z"/>
          <path class="cls-8" d="m54.26,62.16c0-4.45,1.06-8.07,3.19-10.87,2.12-2.8,5.11-4.2,8.96-4.2s6.82,1.4,8.97,4.2c2.15,2.8,3.23,6.42,3.23,10.87v.63c0,4.45-1.07,8.06-3.21,10.84-2.14,2.78-5.12,4.17-8.93,4.17s-6.86-1.39-9-4.16c-2.13-2.77-3.2-6.39-3.2-10.86v-.63Zm7.68.63c0,2.75.34,4.94,1.03,6.56.68,1.62,1.85,2.43,3.49,2.43s2.7-.81,3.39-2.43c.69-1.62,1.04-3.81,1.04-6.56v-.63c0-2.72-.35-4.9-1.04-6.55-.69-1.65-1.84-2.47-3.45-2.47s-2.75.83-3.43,2.49c-.68,1.66-1.03,3.84-1.03,6.54v.63Z"/>
          <path class="cls-8" d="m103.58,64.13h.16l2.62-16.49h7.44l-6.23,29.59h-6.43l-4.29-15.61h-.16l-4.29,15.61h-6.45l-6.23-29.59h7.41l2.68,16.57h.16l4.29-16.57h5l4.32,16.49Z"/>
          <path class="cls-8" d="m138.58,40.28v7.36h4.02v5.5h-4.02v15.07c0,1.26.18,2.15.55,2.68.36.53.87.79,1.5.79.36,0,.67-.02.9-.07.24-.05.53-.12.88-.23l.6,5.69c-.73.25-1.43.44-2.09.56-.67.12-1.42.18-2.26.18-2.52,0-4.44-.77-5.78-2.3s-2.01-3.95-2.01-7.25v-15.12h-3.58v-5.5h3.58v-7.36h7.71Z"/>
          <path class="cls-8" d="m153.74,51.22c.78-1.31,1.73-2.33,2.83-3.05,1.1-.72,2.32-1.08,3.65-1.08,2.64,0,4.73,1.04,6.26,3.12s2.3,5.28,2.3,9.6v17.42h-7.71v-17.47c0-2.44-.27-4.15-.81-5.13-.54-.98-1.37-1.46-2.5-1.46-.89,0-1.67.18-2.34.53-.67.36-1.23.86-1.68,1.52v22.01h-7.68v-42.66h7.68v16.65Z"/>
          <path class="cls-8" d="m184.57,77.8c-3.9,0-6.93-1.35-9.08-4.05-2.15-2.7-3.23-6.17-3.23-10.42v-1.12c0-4.47,1.03-8.1,3.1-10.91,2.07-2.81,4.98-4.21,8.74-4.21,3.48,0,6.15,1.19,8.01,3.58,1.86,2.39,2.79,5.63,2.79,9.73v4.21h-14.93c.13,2.19.62,3.93,1.49,5.22.87,1.29,2.2,1.94,4.01,1.94,1.53,0,2.81-.18,3.84-.53,1.03-.36,2.14-.92,3.32-1.68l2,4.81c-1.06.97-2.48,1.78-4.28,2.43-1.8.66-3.72.98-5.78.98Zm-.46-24.66c-1.29,0-2.26.57-2.88,1.71-.63,1.14-1.03,2.7-1.19,4.69h7.33v-.68c0-1.8-.25-3.21-.75-4.21-.5-1-1.34-1.5-2.5-1.5Z"/>
          <path class="cls-8" d="m219.88,77.22h-7.68v-39.81h7.68v39.81Z"/>
          <path class="cls-8" d="m233.03,77.22h-7.71v-42.66h7.71v42.66Z"/>
          <path class="cls-8" d="m245.84,77.22h-7.71v-42.66h7.71v42.66Z"/>
          <path class="cls-8" d="m258.64,40.45h-7.71v-5.88h7.71v5.88Zm0,36.78h-7.71v-29.59h7.71v29.59Z"/>
          <path class="cls-8" d="m270.72,47.64l.33,4.13c.84-1.48,1.86-2.62,3.08-3.45,1.21-.82,2.57-1.23,4.06-1.23,2.52,0,4.49.98,5.92,2.94,1.43,1.96,2.15,5.04,2.15,9.23v17.96h-7.71v-17.96c0-2.22-.27-3.8-.81-4.72-.54-.92-1.35-1.38-2.45-1.38-.86,0-1.63.2-2.31.6-.68.4-1.26.97-1.74,1.7v21.77h-7.71v-29.59h7.19Z"/>
          <path class="cls-8" d="m289.76,62.16c0-4.45,1.06-8.07,3.19-10.87,2.12-2.8,5.11-4.2,8.96-4.2s6.82,1.4,8.97,4.2c2.15,2.8,3.23,6.42,3.23,10.87v.63c0,4.45-1.07,8.06-3.21,10.84-2.14,2.78-5.12,4.17-8.93,4.17s-6.86-1.39-9-4.16c-2.13-2.77-3.2-6.39-3.2-10.86v-.63Zm7.68.63c0,2.75.34,4.94,1.03,6.56.68,1.62,1.85,2.43,3.49,2.43s2.7-.81,3.39-2.43c.69-1.62,1.04-3.81,1.04-6.56v-.63c0-2.72-.35-4.9-1.04-6.55-.69-1.65-1.84-2.47-3.45-2.47s-2.75.83-3.43,2.49c-.68,1.66-1.03,3.84-1.03,6.54v.63Z"/>
          <path class="cls-8" d="m325.68,40.45h-7.71v-5.88h7.71v5.88Zm0,36.78h-7.71v-29.59h7.71v29.59Z"/>
          <path class="cls-8" d="m343.79,69.51c0-.88-.34-1.62-1.01-2.24-.67-.62-1.98-1.38-3.91-2.27-3.01-1.13-5.27-2.4-6.78-3.8-1.51-1.4-2.27-3.21-2.27-5.41,0-2.41.96-4.46,2.88-6.15,1.92-1.7,4.47-2.54,7.64-2.54s5.96.88,7.94,2.64c1.98,1.76,2.92,3.98,2.83,6.66l-.05.16h-7.44c0-1.24-.27-2.24-.82-2.99-.55-.76-1.38-1.13-2.49-1.13-.89,0-1.65.29-2.26.88-.61.58-.92,1.29-.92,2.13s.3,1.58.9,2.12c.6.54,1.91,1.28,3.94,2.23,3.12,1.08,5.44,2.34,6.96,3.79,1.52,1.45,2.28,3.33,2.28,5.65,0,2.52-1.01,4.58-3.02,6.18-2.01,1.6-4.67,2.41-7.97,2.41s-6.17-.98-8.18-2.95c-2.01-1.97-2.96-4.2-2.87-6.7l.08-.16h7c.04,1.6.42,2.76,1.15,3.46.73.7,1.73,1.05,3.01,1.05,1.09,0,1.93-.27,2.5-.81.57-.54.86-1.26.86-2.17Z"/>
        </g>
        <g>
          <path class="cls-8" d="m29.77,130.01v14.41h-7.71v-39.81h13.32c3.99,0,7.15,1.17,9.49,3.51,2.33,2.34,3.5,5.41,3.5,9.2s-1.17,6.88-3.5,9.2c-2.33,2.32-5.5,3.49-9.49,3.49h-5.61Zm0-6.04h5.61c1.73,0,3.05-.62,3.95-1.86.9-1.24,1.35-2.82,1.35-4.73s-.45-3.56-1.35-4.83c-.9-1.27-2.22-1.9-3.95-1.9h-5.61v13.32Z"/>
          <path class="cls-8" d="m65.63,121.51l-2.62-.08c-.86,0-1.57.23-2.15.68-.57.46-1.02,1.09-1.33,1.91v20.4h-7.68v-29.59h7.19l.3,4.18c.56-1.49,1.29-2.66,2.17-3.49.88-.83,1.9-1.24,3.05-1.24.35,0,.67.03.96.1.29.06.59.14.9.23l-.79,6.89Z"/>
          <path class="cls-8" d="m67.41,129.36c0-4.45,1.06-8.07,3.19-10.87,2.12-2.8,5.11-4.2,8.96-4.2s6.82,1.4,8.97,4.2c2.15,2.8,3.23,6.42,3.23,10.87v.63c0,4.45-1.07,8.06-3.21,10.84-2.14,2.78-5.12,4.17-8.93,4.17s-6.86-1.39-9-4.16c-2.13-2.77-3.2-6.39-3.2-10.86v-.63Zm7.68.63c0,2.75.34,4.94,1.03,6.56.68,1.62,1.85,2.43,3.49,2.43s2.7-.81,3.39-2.43c.69-1.62,1.04-3.81,1.04-6.56v-.63c0-2.72-.35-4.9-1.04-6.55-.69-1.65-1.84-2.47-3.45-2.47s-2.75.83-3.43,2.49c-.68,1.66-1.03,3.84-1.03,6.54v.63Z"/>
          <path class="cls-8" d="m118.89,130.37c0,4.41-.87,7.95-2.61,10.62-1.74,2.67-4.18,4.01-7.31,4.01-1.26,0-2.37-.25-3.34-.75-.97-.5-1.8-1.23-2.52-2.2v13.75h-7.68v-40.96h7.05l.33,3.04c.73-1.15,1.59-2.03,2.6-2.65,1-.62,2.17-.93,3.5-.93,3.17,0,5.63,1.42,7.37,4.27,1.74,2.84,2.61,6.59,2.61,11.24v.57Zm-7.71-.57c0-2.83-.35-5.1-1.04-6.84-.69-1.73-1.77-2.6-3.23-2.6-.88,0-1.63.22-2.27.67-.64.45-1.15,1.07-1.53,1.87v13.95c.38.69.89,1.22,1.53,1.59.64.36,1.4.55,2.3.55,1.49,0,2.57-.76,3.24-2.28.67-1.52,1-3.63,1-6.33v-.57Z"/>
          <path class="cls-8" d="m133.92,145c-3.9,0-6.93-1.35-9.08-4.05-2.15-2.7-3.23-6.17-3.23-10.42v-1.12c0-4.47,1.03-8.1,3.1-10.91,2.07-2.81,4.98-4.21,8.74-4.21,3.48,0,6.15,1.19,8.01,3.58,1.86,2.39,2.79,5.63,2.79,9.73v4.21h-14.93c.13,2.19.62,3.93,1.49,5.22.87,1.29,2.2,1.94,4.01,1.94,1.53,0,2.81-.18,3.84-.53,1.03-.36,2.14-.92,3.32-1.68l2,4.81c-1.06.97-2.48,1.78-4.28,2.43-1.8.66-3.72.98-5.78.98Zm-.46-24.66c-1.29,0-2.26.57-2.88,1.71-.63,1.14-1.03,2.7-1.19,4.69h7.33v-.68c0-1.8-.25-3.21-.75-4.21-.5-1-1.34-1.5-2.5-1.5Z"/>
          <path class="cls-8" d="m161.83,121.51l-2.62-.08c-.86,0-1.57.23-2.15.68-.57.46-1.02,1.09-1.33,1.91v20.4h-7.68v-29.59h7.19l.3,4.18c.56-1.49,1.29-2.66,2.17-3.49.88-.83,1.9-1.24,3.05-1.24.35,0,.67.03.96.1.29.06.59.14.9.23l-.79,6.89Z"/>
          <path class="cls-8" d="m175.22,107.48v7.36h4.02v5.5h-4.02v15.07c0,1.26.18,2.15.55,2.68.36.53.87.79,1.5.79.36,0,.67-.02.9-.07.24-.05.53-.12.88-.23l.6,5.69c-.73.25-1.43.44-2.09.56-.67.12-1.42.18-2.26.18-2.52,0-4.44-.77-5.78-2.3s-2.01-3.95-2.01-7.25v-15.12h-3.58v-5.5h3.58v-7.36h7.71Z"/>
          <path class="cls-8" d="m193.13,132.48v.08h.16l4.43-17.72h8.29l-10.2,34.04c-.75,2.13-1.75,3.91-3.01,5.35-1.26,1.43-3.18,2.15-5.77,2.15-.62,0-1.17-.05-1.65-.15-.48-.1-1.16-.26-2.04-.48l.93-5.66c.2.04.4.07.59.11.19.04.38.05.56.05,1.13,0,1.99-.31,2.58-.93.59-.62,1.03-1.43,1.3-2.43l.74-2.27-8.91-29.78h8.29l3.72,17.64Z"/>
          <path class="cls-8" d="m245.55,110.65h-9.35v33.77h-7.74v-33.77h-9.11v-6.04h26.2v6.04Z"/>
          <path class="cls-8" d="m259.17,144.42c-.29-.66-.53-1.37-.72-2.13s-.33-1.55-.42-2.35c-.66,1.48-1.52,2.69-2.58,3.64s-2.37,1.42-3.92,1.42c-2.7,0-4.77-.79-6.22-2.37-1.45-1.58-2.17-3.74-2.17-6.49s.95-5.12,2.86-6.71c1.9-1.59,4.75-2.39,8.54-2.39h3.36v-2.46c0-1.48-.27-2.61-.82-3.4s-1.36-1.19-2.43-1.19c-.95,0-1.67.32-2.16.96-.49.64-.74,1.55-.74,2.73l-7.44-.03-.05-.16c-.11-2.55.85-4.72,2.87-6.51,2.02-1.79,4.69-2.68,8.01-2.68,3.12,0,5.64.89,7.57,2.68,1.93,1.79,2.9,4.34,2.9,7.66v12.14c0,1.39.1,2.7.3,3.94.2,1.24.51,2.48.93,3.72h-7.66Zm-5.66-5.14c1.02,0,1.93-.31,2.73-.94.8-.63,1.35-1.39,1.64-2.28v-4.65h-3.36c-1.29,0-2.24.42-2.83,1.26-.59.84-.89,1.9-.89,3.17,0,1.02.25,1.85.74,2.49.49.64,1.15.96,1.97.96Z"/>
          <path class="cls-8" d="m280.64,124.3h.16l3.31-9.46h8.7l-7.46,14.63,7.71,14.96h-8.67l-3.47-9.76h-.16l-3.45,9.76h-8.7l7.71-14.96-7.49-14.63h8.61l3.2,9.46Z"/>
        </g>
        <g>
          <path class="cls-8" d="m39.62,201.29c0-1.59-.41-2.84-1.22-3.76-.81-.92-2.27-1.82-4.36-2.69-4.08-1.44-7.16-3.07-9.21-4.89-2.06-1.82-3.09-4.38-3.09-7.66s1.18-5.92,3.53-7.97,5.35-3.08,9-3.08c3.86,0,6.97,1.09,9.32,3.28s3.49,5.12,3.42,8.8l-.05.16h-7.49c0-2.06-.46-3.62-1.38-4.69-.92-1.07-2.24-1.6-3.95-1.6-1.48,0-2.62.49-3.45,1.46-.82.98-1.23,2.19-1.23,3.65,0,1.35.46,2.46,1.39,3.34s2.52,1.83,4.79,2.87c3.85,1.28,6.76,2.89,8.74,4.84,1.98,1.95,2.97,4.58,2.97,7.88s-1.16,6.09-3.47,8.04c-2.32,1.95-5.39,2.93-9.21,2.93s-7-1.05-9.68-3.16-3.97-5.31-3.88-9.61l.05-.16h7.52c0,2.5.51,4.29,1.52,5.39s2.5,1.64,4.47,1.64c1.66,0,2.9-.46,3.73-1.37.83-.91,1.24-2.12,1.24-3.64Z"/>
          <path class="cls-8" d="m61.47,199.67v.08h.16l4.43-17.72h8.29l-10.2,34.04c-.75,2.13-1.75,3.91-3.01,5.35-1.26,1.43-3.18,2.15-5.77,2.15-.62,0-1.17-.05-1.65-.15-.48-.1-1.16-.26-2.04-.48l.93-5.66c.2.04.4.07.59.11.19.04.38.05.56.05,1.13,0,1.99-.31,2.58-.93.59-.62,1.03-1.43,1.3-2.43l.74-2.27-8.91-29.78h8.29l3.72,17.64Z"/>
          <path class="cls-8" d="m89.36,203.91c0-.88-.34-1.62-1.01-2.24-.67-.62-1.98-1.38-3.91-2.27-3.01-1.13-5.27-2.4-6.78-3.8-1.51-1.4-2.27-3.21-2.27-5.41,0-2.41.96-4.46,2.88-6.15,1.92-1.7,4.47-2.54,7.64-2.54s5.97.88,7.94,2.64c1.98,1.76,2.92,3.98,2.83,6.66l-.05.16h-7.44c0-1.24-.27-2.24-.82-2.99-.55-.76-1.38-1.13-2.49-1.13-.89,0-1.65.29-2.26.88-.61.58-.92,1.29-.92,2.13s.3,1.58.9,2.12c.6.54,1.91,1.28,3.94,2.23,3.12,1.08,5.44,2.34,6.96,3.79,1.52,1.45,2.28,3.33,2.28,5.65,0,2.52-1.01,4.58-3.02,6.18-2.01,1.6-4.67,2.41-7.97,2.41s-6.17-.98-8.18-2.95c-2.01-1.97-2.96-4.2-2.87-6.7l.08-.16h7c.04,1.6.42,2.76,1.15,3.46.73.7,1.73,1.05,3.01,1.05,1.09,0,1.93-.27,2.5-.81.57-.54.86-1.26.86-2.17Z"/>
          <path class="cls-8" d="m109.76,174.68v7.36h4.02v5.5h-4.02v15.07c0,1.26.18,2.15.55,2.68.36.53.87.79,1.5.79.36,0,.67-.02.9-.07.24-.05.53-.12.88-.23l.6,5.69c-.73.25-1.43.44-2.09.56-.67.12-1.42.18-2.26.18-2.52,0-4.44-.77-5.78-2.3s-2.01-3.95-2.01-7.25v-15.12h-3.58v-5.5h3.58v-7.36h7.71Z"/>
          <path class="cls-8" d="m127.91,212.2c-3.9,0-6.93-1.35-9.08-4.05-2.15-2.7-3.23-6.17-3.23-10.42v-1.12c0-4.47,1.03-8.1,3.1-10.91,2.07-2.81,4.98-4.21,8.74-4.21,3.48,0,6.15,1.19,8.01,3.58,1.86,2.39,2.79,5.63,2.79,9.73v4.21h-14.93c.13,2.19.62,3.93,1.49,5.22.87,1.29,2.2,1.94,4.01,1.94,1.53,0,2.81-.18,3.84-.53,1.03-.36,2.14-.92,3.32-1.68l2,4.81c-1.06.97-2.48,1.78-4.28,2.43-1.8.66-3.72.98-5.78.98Zm-.46-24.66c-1.29,0-2.26.57-2.88,1.71-.63,1.14-1.03,2.7-1.19,4.69h7.33v-.68c0-1.8-.25-3.21-.75-4.21-.5-1-1.34-1.5-2.5-1.5Z"/>
          <path class="cls-8" d="m149.23,182.04l.3,3.8c.8-1.39,1.81-2.46,3.02-3.21,1.21-.76,2.6-1.13,4.17-1.13s2.89.41,4.02,1.22c1.13.81,2,2.05,2.6,3.71.78-1.55,1.79-2.76,3.02-3.62,1.23-.87,2.67-1.3,4.31-1.3,2.48,0,4.44,1.04,5.88,3.12,1.44,2.08,2.16,5.26,2.16,9.54v17.47h-7.71v-17.47c0-2.5-.26-4.22-.79-5.17-.53-.95-1.34-1.42-2.43-1.42-.8,0-1.51.23-2.13.7-.62.46-1.13,1.11-1.53,1.93.02.46.04.85.07,1.18s.04.66.04.98v19.28h-7.68v-17.47c0-2.46-.26-4.17-.79-5.14-.53-.97-1.35-1.45-2.46-1.45-.75,0-1.42.19-2.01.56-.59.37-1.1.9-1.52,1.57v21.93h-7.71v-29.59h7.19Z"/>
          <path class="cls-8" d="m223.85,197.05l.16-.03,4.07-25.21h7.85l-7.79,39.81h-7.16l-5.82-24.66h-.16l-5.8,24.66h-7.16l-7.85-39.81h7.9l4.07,25.27.16.03,5.71-25.29h6.07l5.74,25.24Z"/>
          <path class="cls-8" d="m236.11,196.56c0-4.45,1.06-8.07,3.19-10.87,2.12-2.8,5.11-4.2,8.96-4.2s6.82,1.4,8.97,4.2c2.15,2.8,3.23,6.42,3.23,10.87v.63c0,4.45-1.07,8.06-3.21,10.84-2.14,2.78-5.12,4.17-8.93,4.17s-6.86-1.39-9-4.16c-2.13-2.77-3.2-6.39-3.2-10.86v-.63Zm7.68.63c0,2.75.34,4.94,1.03,6.56.68,1.62,1.85,2.43,3.49,2.43s2.7-.81,3.39-2.43c.69-1.62,1.04-3.81,1.04-6.56v-.63c0-2.72-.35-4.9-1.04-6.55-.69-1.65-1.84-2.47-3.45-2.47s-2.75.83-3.43,2.49c-.68,1.66-1.03,3.84-1.03,6.54v.63Z"/>
          <path class="cls-8" d="m277.91,188.71l-2.62-.08c-.86,0-1.57.23-2.15.68-.57.46-1.02,1.09-1.33,1.91v20.4h-7.68v-29.59h7.19l.3,4.18c.56-1.49,1.29-2.66,2.17-3.49.88-.83,1.9-1.24,3.05-1.24.35,0,.67.03.96.1.29.06.59.14.9.23l-.79,6.89Z"/>
          <path class="cls-8" d="m290.2,199.21h-1.39v12.41h-7.71v-42.66h7.71v24.28h1.26l5.36-11.21h8.89l-8.04,13.34,9.24,16.24h-8.83l-6.48-12.41Z"/>
          <path class="cls-8" d="m319.9,203.91c0-.88-.34-1.62-1.01-2.24-.67-.62-1.98-1.38-3.91-2.27-3.01-1.13-5.27-2.4-6.78-3.8-1.51-1.4-2.27-3.21-2.27-5.41,0-2.41.96-4.46,2.88-6.15,1.92-1.7,4.47-2.54,7.64-2.54s5.96.88,7.94,2.64c1.98,1.76,2.92,3.98,2.83,6.66l-.05.16h-7.44c0-1.24-.27-2.24-.82-2.99-.55-.76-1.38-1.13-2.49-1.13-.89,0-1.65.29-2.26.88-.61.58-.92,1.29-.92,2.13s.3,1.58.9,2.12c.6.54,1.91,1.28,3.94,2.23,3.12,1.08,5.44,2.34,6.96,3.79,1.52,1.45,2.28,3.33,2.28,5.65,0,2.52-1.01,4.58-3.02,6.18-2.01,1.6-4.67,2.41-7.97,2.41s-6.17-.98-8.18-2.95c-2.01-1.97-2.96-4.2-2.87-6.7l.08-.16h7c.04,1.6.42,2.76,1.15,3.46.73.7,1.73,1.05,3.01,1.05,1.09,0,1.93-.27,2.5-.81.57-.54.86-1.26.86-2.17Z"/>
        </g>
      </g>
    </g>
  </g>
</svg>